<?xml version="1.0" encoding="utf-8"?>
<!-- Generator: Adobe Illustrator 16.0.0, SVG Export Plug-In . SVG Version: 6.00 Build 0)  -->
<!DOCTYPE svg PUBLIC "-//W3C//DTD SVG 1.1//EN" "http://www.w3.org/Graphics/SVG/1.1/DTD/svg11.dtd">
<svg version="1.1" xmlns="http://www.w3.org/2000/svg" xmlns:xlink="http://www.w3.org/1999/xlink" x="0px" y="0px" width="480px"
	 height="1000px" viewBox="0 0 480 1000" enable-background="new 0 0 480 1000" xml:space="preserve">
<g id="ajax_loader">
  <image xlink:href="ajax-loader.gif" width="32" height="32" x="100" y="100"/>
</g>
<g id="pc_map" style="display:none">
<g id="japanese_words">
  <text transform="matrix(1 0 0 1 223.9097 633.0684)" fofft-family="'KozGoPr6N-Regular-83pv-RKSJ-H'" fofft-size="14">入口</text>
</g>
<g id="english_words" style="display:none">
  <text transform="matrix(1 0 0 1 223.9097 633.0684)" fofft-family="'KozGoPr6N-Regular-83pv-RKSJ-H'" fofft-size="14">Entrance</text>
</g>
<rect x="217.941" y="641.637" fill="#FFFFFF" stroke="#FFFFFF" stroke-miterlimit="10" width="42.224" height="12.274"/>
<rect x="31.513" y="107.381" fill="#FFFFFF" stroke="#000000" stroke-width="4" stroke-miterlimit="10" width="419.079" height="547.395"/>
<rect x="217.5" y="639.5" fill="#FFFFFF" width="41" height="20"/>
<rect x="166.326" y="23.533" fill="none" width="145.454" height="27.273"/>
<text transform="matrix(1 0 0 1 185.9922 37.6982)" font-family="'KozGoPr6N-Regular-83pv-RKSJ-H'" font-size="18" id="room_id"/>
<g id="on">
  <image id="pc_1_on" overflow="visible" width="53" height="43" xlink:href="on.jpg"  transform="matrix(0.5417 0 0 0.3446 58.6133 151.0552)" style="display:none"/>
  <image id="pc_2_on" overflow="visible" width="53" height="43" xlink:href="on.jpg"  transform="matrix(0.5214 0 0 0.28 94.1777 150.5137)" style="display:none"/>
  <image id="pc_3_on" overflow="visible" width="53" height="43" xlink:href="on.jpg"  transform="matrix(0.4953 0 0 0.287 130.7417 151.2661)" style="display:none"/>
  <image id="pc_4_on" overflow="visible" width="53" height="43" xlink:href="on.jpg"  transform="matrix(0.5214 0 0 0.3133 59.1133 209.2231)" style="display:none"/>
  <image id="pc_5_on" overflow="visible" width="53" height="43" xlink:href="on.jpg"  transform="matrix(0.5417 0 0 0.3446 94.6777 208.8569)" style="display:none"/>
  <image id="pc_6_on" overflow="visible" width="53" height="43" xlink:href="on.jpg"  transform="matrix(0.5214 0 0 0.3446 131.2417 209.54)" style="display:none"/>
  <image id="pc_7_on" overflow="visible" width="53" height="43" xlink:href="on.jpg"  transform="matrix(0.5417 0 0 0.3446 58.6133 265.1978)" style="display:none"/>
  <image id="pc_8_on" overflow="visible" width="53" height="43" xlink:href="on.jpg"  transform="matrix(0.5214 0 0 0.3446 94.1777 264.8315)" style="display:none"/>
  <image id="pc_9_on" overflow="visible" width="53" height="43" xlink:href="on.jpg"  transform="matrix(0.5417 0 0 0.3446 130.7417 265.5146)" style="display:none"/>
  <image id="pc_10_on" overflow="visible" width="53" height="43" xlink:href="on.jpg"  transform="matrix(0.5417 0 0 0.3446 58.6279 323.5928)" style="display:none"/>
  <image id="pc_11_on" overflow="visible" width="53" height="43" xlink:href="on.jpg"  transform="matrix(0.5417 0 0 0.3446 130.7554 323.9097)" style="display:none"/>
  <image id="pc_12_on" overflow="visible" width="53" height="43" xlink:href="on.jpg"  transform="matrix(0.5214 0 0 0.3446 58.1133 382.7188)" style="display:none"/>
  <image id="pc_13_on" overflow="visible" width="53" height="43" xlink:href="on.jpg"  transform="matrix(0.5214 0 0 0.3446 130.2417 383.0352)" style="display:none"/>
  <image id="pc_14_on" overflow="visible" width="53" height="43" xlink:href="on.jpg"  transform="matrix(0.5214 0 0 0.3446 213.0903 150.0747)" style="display:none"/>
  <image id="pc_15_on" overflow="visible" width="53" height="43" xlink:href="on.jpg"  transform="matrix(0.5417 0 0 0.3446 248.6543 149.7085)" style="display:none"/>
  <image id="pc_16_on" overflow="visible" width="53" height="43" xlink:href="on.jpg"  transform="matrix(0.5214 0 0 0.3133 285.2178 150.3916)" style="display:none"/>
  <image id="pc_17_on" overflow="visible" width="53" height="43" xlink:href="on.jpg"  transform="matrix(0.5417 0 0 0.3133 213.5903 208.2427)" style="display:none"/>
  <image id="pc_18_on" overflow="visible" width="53" height="43" xlink:href="on.jpg"  transform="matrix(0.5214 0 0 0.3446 249.1543 207.8765)" style="display:none"/>
  <image id="pc_19_on" overflow="visible" width="53" height="43" xlink:href="on.jpg"  transform="matrix(0.5417 0 0 0.3446 285.7178 208.5596)" style="display:none"/>
  <image id="pc_20_on" overflow="visible" width="53" height="43" xlink:href="on.jpg"  transform="matrix(0.5214 0 0 0.3446 213.0903 264.2173)" style="display:none"/>
  <image id="pc_21_on" overflow="visible" width="53" height="43" xlink:href="on.jpg"  transform="matrix(0.5417 0 0 0.3446 248.6543 263.8511)" style="display:none"/>
  <image id="pc_22_on" overflow="visible" width="53" height="43" xlink:href="on.jpg"  transform="matrix(0.5214 0 0 0.3446 285.2178 264.5342)" style="display:none"/>
  <image id="pc_23_on" overflow="visible" width="53" height="43" xlink:href="on.jpg"  transform="matrix(0.5214 0 0 0.3446 213.104 322.6123)" style="display:none"/>
  <image id="pc_24_on" overflow="visible" width="53" height="43" xlink:href="on.jpg"  transform="matrix(0.5417 0 0 0.3133 248.668 322.2461)" style="display:none"/>
  <image id="pc_25_on" overflow="visible" width="53" height="43" xlink:href="on.jpg"  transform="matrix(0.5214 0 0 0.3446 285.2324 322.9292)" style="display:none"/>
  <image id="pc_26_on" overflow="visible" width="53" height="43" xlink:href="on.jpg"  transform="matrix(0.5417 0 0 0.3446 212.5903 381.7383)" style="display:none"/>
  <image id="pc_27_on" overflow="visible" width="53" height="43" xlink:href="on.jpg"  transform="matrix(0.5214 0 0 0.3133 248.1543 381.3711)" style="display:none"/>
  <image id="pc_28_on" overflow="visible" width="53" height="43" xlink:href="on.jpg"  transform="matrix(0.5417 0 0 0.3446 284.7178 382.0547)" style="display:none"/>
  <image id="pc_29_on" overflow="visible" width="53" height="43" xlink:href="on.jpg"  transform="matrix(0.5214 0 0 0.3446 213.0903 439.6924)" style="display:none"/>
  <image id="pc_30_on" overflow="visible" width="53" height="43" xlink:href="on.jpg"  transform="matrix(0.5417 0 0 0.3133 248.6543 439.3252)" style="display:none"/>
  <image id="pc_31_on" overflow="visible" width="53" height="43" xlink:href="on.jpg"  transform="matrix(0.5214 0 0 0.3446 285.2178 440.0088)" style="display:none"/>
  <image id="pc_32_on" overflow="visible" width="53" height="43" xlink:href="on.jpg"  transform="matrix(0.5214 0 0 0.3446 332.1133 149.2109)" style="display:none"/>
  <image id="pc_33_on" overflow="visible" width="53" height="43" xlink:href="on.jpg"  transform="matrix(0.5417 0 0 0.3446 367.6777 148.8447)" style="display:none"/>
  <image id="pc_34_on" overflow="visible" width="53" height="43" xlink:href="on.jpg"  transform="matrix(0.5214 0 0 0.3446 404.2412 149.5278)" style="display:none"/>
  <image id="pc_35_on" overflow="visible" width="53" height="43" xlink:href="on.jpg"  transform="matrix(0.5417 0 0 0.3133 332.6133 207.3789)" style="display:none"/>
  <image id="pc_36_on" overflow="visible" width="53" height="43" xlink:href="on.jpg"  transform="matrix(0.5214 0 0 0.3446 368.1777 207.0127)" style="display:none"/>
  <image id="pc_37_on" overflow="visible" width="53" height="43" xlink:href="on.jpg"  transform="matrix(0.5417 0 0 0.3446 404.7412 207.6958)" style="display:none"/>
  <image id="pc_38_on" overflow="visible" width="53" height="43" xlink:href="on.jpg"  transform="matrix(0.5214 0 0 0.3133 332.1133 263.3535)" style="display:none"/>
  <image id="pc_39_on" overflow="visible" width="53" height="43" xlink:href="on.jpg"  transform="matrix(0.5417 0 0 0.3446 367.6777 262.9873)" style="display:none"/>
  <image id="pc_40_on" overflow="visible" width="53" height="43" xlink:href="on.jpg"  transform="matrix(0.5214 0 0 0.3446 404.2412 263.6704)" style="display:none"/>
  <image id="pc_41_on" overflow="visible" width="53" height="43" xlink:href="on.jpg"  transform="matrix(0.5214 0 0 0.3446 332.127 321.7485)" style="display:none"/>
  <image id="pc_42_on" overflow="visible" width="53" height="43" xlink:href="on.jpg"  transform="matrix(0.5417 0 0 0.3133 367.6914 321.3823)" style="display:none"/>
  <image id="pc_43_on" overflow="visible" width="53" height="43" xlink:href="on.jpg"  transform="matrix(0.5214 0 0 0.3446 404.2559 322.0659)" style="display:none"/>
  <image id="pc_44_on" overflow="visible" width="53" height="43" xlink:href="on.jpg"  transform="matrix(0.5417 0 0 0.3446 331.6133 380.875)" style="display:none"/>
  <image id="pc_45_on" overflow="visible" width="53" height="43" xlink:href="on.jpg"  transform="matrix(0.5214 0 0 0.3446 367.1777 380.5078)" style="display:none"/>
  <image id="pc_46_on" overflow="visible" width="53" height="43" xlink:href="on.jpg"  transform="matrix(0.5417 0 0 0.3446 403.7412 381.1914)" style="display:none"/>
  <image id="pc_47_on" overflow="visible" width="53" height="43" xlink:href="on.jpg"  transform="matrix(0.5214 0 0 0.3446 332.1133 438.8281)" style="display:none"/>
  <image id="pc_48_on" overflow="visible" width="53" height="43" xlink:href="on.jpg"  transform="matrix(0.5417 0 0 0.3133 367.6777 438.4609)" style="display:none"/>
  <image id="pc_49_on" overflow="visible" width="53" height="43" xlink:href="on.jpg"  transform="matrix(0.5214 0 0 0.3446 404.2412 439.1445)" style="display:none"/>
  <image id="pc_50_on" overflow="visible" width="53" height="43" xlink:href="on.jpg"  transform="matrix(0.5417 0 0 0.3133 332.627 498.3037)" style="display:none"/>
  <image id="pc_51_on" overflow="visible" width="53" height="43" xlink:href="on.jpg"  transform="matrix(0.5214 0 0 0.3446 368.1914 497.9365)" style="display:none"/>
  <image id="pc_52_on" overflow="visible" width="53" height="43" xlink:href="on.jpg"  transform="matrix(0.5417 0 0 0.3446 404.7549 498.6201)" style="display:none"/>
</g>
<g id="off">
  <image id="pc_1_off" overflow="visible" width="53" height="43" xlink:href="off.jpg"  transform="matrix(0.5417 0 0 0.3446 58.6133 151.0552)" />
  <image id="pc_2_off" overflow="visible" width="53" height="43" xlink:href="off.jpg"  transform="matrix(0.5214 0 0 0.28 94.1777 150.5137)" />
  <image id="pc_3_off" overflow="visible" width="53" height="43" xlink:href="off.jpg"  transform="matrix(0.4953 0 0 0.287 130.7417 151.2661)" />
  <image id="pc_4_off" overflow="visible" width="53" height="43" xlink:href="off.jpg"  transform="matrix(0.5214 0 0 0.3133 59.1133 209.2231)" />
  <image id="pc_5_off" overflow="visible" width="53" height="43" xlink:href="off.jpg"  transform="matrix(0.5417 0 0 0.3446 94.6777 208.8569)" />
  <image id="pc_6_off" overflow="visible" width="53" height="43" xlink:href="off.jpg"  transform="matrix(0.5214 0 0 0.3446 131.2417 209.54)" />
  <image id="pc_7_off" overflow="visible" width="53" height="43" xlink:href="off.jpg"  transform="matrix(0.5417 0 0 0.3446 58.6133 265.1978)" />
  <image id="pc_8_off" overflow="visible" width="53" height="43" xlink:href="off.jpg"  transform="matrix(0.5214 0 0 0.3446 94.1777 264.8315)" />
  <image id="pc_9_off" overflow="visible" width="53" height="43" xlink:href="off.jpg"  transform="matrix(0.5417 0 0 0.3446 130.7417 265.5146)" />
  <image id="pc_10_off" overflow="visible" width="53" height="43" xlink:href="off.jpg"  transform="matrix(0.5417 0 0 0.3446 58.6279 323.5928)" />
  <image id="pc_11_off" overflow="visible" width="53" height="43" xlink:href="off.jpg"  transform="matrix(0.5417 0 0 0.3446 130.7554 323.9097)" />
  <image id="pc_12_off" overflow="visible" width="53" height="43" xlink:href="off.jpg"  transform="matrix(0.5214 0 0 0.3446 58.1133 382.7188)" />
  <image id="pc_13_off" overflow="visible" width="53" height="43" xlink:href="off.jpg"  transform="matrix(0.5214 0 0 0.3446 130.2417 383.0352)" />
  <image id="pc_14_off" overflow="visible" width="53" height="43" xlink:href="off.jpg"  transform="matrix(0.5214 0 0 0.3446 213.0903 150.0747)" />
  <image id="pc_15_off" overflow="visible" width="53" height="43" xlink:href="off.jpg"  transform="matrix(0.5417 0 0 0.3446 248.6543 149.7085)" />
  <image id="pc_16_off" overflow="visible" width="53" height="43" xlink:href="off.jpg"  transform="matrix(0.5214 0 0 0.3133 285.2178 150.3916)" />
  <image id="pc_17_off" overflow="visible" width="53" height="43" xlink:href="off.jpg"  transform="matrix(0.5417 0 0 0.3133 213.5903 208.2427)" />
  <image id="pc_18_off" overflow="visible" width="53" height="43" xlink:href="off.jpg"  transform="matrix(0.5214 0 0 0.3446 249.1543 207.8765)" />
  <image id="pc_19_off" overflow="visible" width="53" height="43" xlink:href="off.jpg"  transform="matrix(0.5417 0 0 0.3446 285.7178 208.5596)" />
  <image id="pc_20_off" overflow="visible" width="53" height="43" xlink:href="off.jpg"  transform="matrix(0.5214 0 0 0.3446 213.0903 264.2173)" />
  <image id="pc_21_off" overflow="visible" width="53" height="43" xlink:href="off.jpg"  transform="matrix(0.5417 0 0 0.3446 248.6543 263.8511)" />
  <image id="pc_22_off" overflow="visible" width="53" height="43" xlink:href="off.jpg"  transform="matrix(0.5214 0 0 0.3446 285.2178 264.5342)" />
  <image id="pc_23_off" overflow="visible" width="53" height="43" xlink:href="off.jpg"  transform="matrix(0.5214 0 0 0.3446 213.104 322.6123)" />
  <image id="pc_24_off" overflow="visible" width="53" height="43" xlink:href="off.jpg"  transform="matrix(0.5417 0 0 0.3133 248.668 322.2461)" />
  <image id="pc_25_off" overflow="visible" width="53" height="43" xlink:href="off.jpg"  transform="matrix(0.5214 0 0 0.3446 285.2324 322.9292)" />
  <image id="pc_26_off" overflow="visible" width="53" height="43" xlink:href="off.jpg"  transform="matrix(0.5417 0 0 0.3446 212.5903 381.7383)" />
  <image id="pc_27_off" overflow="visible" width="53" height="43" xlink:href="off.jpg"  transform="matrix(0.5214 0 0 0.3133 248.1543 381.3711)" />
  <image id="pc_28_off" overflow="visible" width="53" height="43" xlink:href="off.jpg"  transform="matrix(0.5417 0 0 0.3446 284.7178 382.0547)" />
  <image id="pc_29_off" overflow="visible" width="53" height="43" xlink:href="off.jpg"  transform="matrix(0.5214 0 0 0.3446 213.0903 439.6924)" />
  <image id="pc_30_off" overflow="visible" width="53" height="43" xlink:href="off.jpg"  transform="matrix(0.5417 0 0 0.3133 248.6543 439.3252)" />
  <image id="pc_31_off" overflow="visible" width="53" height="43" xlink:href="off.jpg"  transform="matrix(0.5214 0 0 0.3446 285.2178 440.0088)" />
  <image id="pc_32_off" overflow="visible" width="53" height="43" xlink:href="off.jpg"  transform="matrix(0.5214 0 0 0.3446 332.1133 149.2109)" />
  <image id="pc_33_off" overflow="visible" width="53" height="43" xlink:href="off.jpg"  transform="matrix(0.5417 0 0 0.3446 367.6777 148.8447)" />
  <image id="pc_34_off" overflow="visible" width="53" height="43" xlink:href="off.jpg"  transform="matrix(0.5214 0 0 0.3446 404.2412 149.5278)" />
  <image id="pc_35_off" overflow="visible" width="53" height="43" xlink:href="off.jpg"  transform="matrix(0.5417 0 0 0.3133 332.6133 207.3789)" />
  <image id="pc_36_off" overflow="visible" width="53" height="43" xlink:href="off.jpg"  transform="matrix(0.5214 0 0 0.3446 368.1777 207.0127)" />
  <image id="pc_37_off" overflow="visible" width="53" height="43" xlink:href="off.jpg"  transform="matrix(0.5417 0 0 0.3446 404.7412 207.6958)" />
  <image id="pc_38_off" overflow="visible" width="53" height="43" xlink:href="off.jpg"  transform="matrix(0.5214 0 0 0.3133 332.1133 263.3535)" />
  <image id="pc_39_off" overflow="visible" width="53" height="43" xlink:href="off.jpg"  transform="matrix(0.5417 0 0 0.3446 367.6777 262.9873)" />
  <image id="pc_40_off" overflow="visible" width="53" height="43" xlink:href="off.jpg"  transform="matrix(0.5214 0 0 0.3446 404.2412 263.6704)" />
  <image id="pc_41_off" overflow="visible" width="53" height="43" xlink:href="off.jpg"  transform="matrix(0.5214 0 0 0.3446 332.127 321.7485)" />
  <image id="pc_42_off" overflow="visible" width="53" height="43" xlink:href="off.jpg"  transform="matrix(0.5417 0 0 0.3133 367.6914 321.3823)" />
  <image id="pc_43_off" overflow="visible" width="53" height="43" xlink:href="off.jpg"  transform="matrix(0.5214 0 0 0.3446 404.2559 322.0659)" />
  <image id="pc_44_off" overflow="visible" width="53" height="43" xlink:href="off.jpg"  transform="matrix(0.5417 0 0 0.3446 331.6133 380.875)" />
  <image id="pc_45_off" overflow="visible" width="53" height="43" xlink:href="off.jpg"  transform="matrix(0.5214 0 0 0.3446 367.1777 380.5078)" />
  <image id="pc_46_off" overflow="visible" width="53" height="43" xlink:href="off.jpg"  transform="matrix(0.5417 0 0 0.3446 403.7412 381.1914)" />
  <image id="pc_47_off" overflow="visible" width="53" height="43" xlink:href="off.jpg"  transform="matrix(0.5214 0 0 0.3446 332.1133 438.8281)" />
  <image id="pc_48_off" overflow="visible" width="53" height="43" xlink:href="off.jpg"  transform="matrix(0.5417 0 0 0.3133 367.6777 438.4609)" />
  <image id="pc_49_off" overflow="visible" width="53" height="43" xlink:href="off.jpg"  transform="matrix(0.5214 0 0 0.3446 404.2412 439.1445)" />
  <image id="pc_50_off" overflow="visible" width="53" height="43" xlink:href="off.jpg"  transform="matrix(0.5417 0 0 0.3133 332.627 498.3037)" />
  <image id="pc_51_off" overflow="visible" width="53" height="43" xlink:href="off.jpg"  transform="matrix(0.5214 0 0 0.3446 368.1914 497.9365)" />
  <image id="pc_52_off" overflow="visible" width="53" height="43" xlink:href="off.jpg"  transform="matrix(0.5417 0 0 0.3446 404.7549 498.6201)" />
</g>
</g>
<script xlink:href="http://ajax.googleapis.com/ajax/libs/jquery/1.7.2/jquery.min.js"/>
<script xlink:href="innersvg.js"/>
<script xlink:href="room.js"/>
</svg>
