<?xml version="1.0" encoding="utf-8"?>
<!-- Generator: Adobe Illustrator 16.0.0, SVG Export Plug-In . SVG Version: 6.00 Build 0)  -->
<!DOCTYPE svg PUBLIC "-//W3C//DTD SVG 1.1//EN" "http://www.w3.org/Graphics/SVG/1.1/DTD/svg11.dtd">
<svg version="1.1" xmlns="http://www.w3.org/2000/svg" xmlns:xlink="http://www.w3.org/1999/xlink" x="0px" y="0px" width="480px"
	 height="720px" viewBox="0 0 480 720" enable-background="new 0 0 480 720" xml:space="preserve">
<rect x="217.941" y="641.637" fill="#FFFFFF" stroke="#FFFFFF" stroke-miterlimit="10" width="42.224" height="12.274"/>
<rect x="31.513" y="107.381" fill="#FFFFFF" stroke="#000000" stroke-width="4" stroke-miterlimit="10" width="419.079" height="547.395"/>
<rect x="217.5" y="639.5" fill="#FFFFFF" width="41" height="20"/>
<rect x="166.326" y="23.533" fill="none" width="145.454" height="27.273"/>
<text transform="matrix(1 0 0 1 185.9922 37.6982)" font-family="'KozGoPr6N-Regular-83pv-RKSJ-H'" font-size="18" id="room_id"/>
<g id="on">
  <image id="pc__on" overflow="visible" width="52" height="41" xlink:href="on.jpg"  transform="matrix(0.5417 0 0 0.3446 58.6133 151.0552)" style="display:none"/>
  <image id="pc__on" overflow="visible" width="53" height="41" xlink:href="on.jpg"  transform="matrix(0.5214 0 0 0.28 94.1777 150.5137)" style="display:none"/>
  <image id="pc__on" overflow="visible" width="52" height="43" xlink:href="on.jpg"  transform="matrix(0.4953 0 0 0.287 130.7417 151.2661)" style="display:none"/>
  <image id="pc__on" overflow="visible" width="52" height="41" xlink:href="on.jpg"  transform="matrix(0.5417 0 0 0.3446 58.6133 209.188)" style="display:none"/>
  <image id="pc__on" overflow="visible" width="53" height="41" xlink:href="on.jpg"  transform="matrix(0.5214 0 0 0.3446 94.1777 208.8218)" style="display:none"/>
  <image id="pc__on" overflow="visible" width="52" height="41" xlink:href="on.jpg"  transform="matrix(0.5417 0 0 0.3446 130.7417 209.5049)" style="display:none"/>
  <image id="pc__on" overflow="visible" width="52" height="41" xlink:href="on.jpg"  transform="matrix(0.5417 0 0 0.3446 58.6133 265.188)" style="display:none"/>
  <image id="pc__on" overflow="visible" width="53" height="41" xlink:href="on.jpg"  transform="matrix(0.5214 0 0 0.3446 94.1777 264.8218)" style="display:none"/>
  <image id="pc__on" overflow="visible" width="52" height="41" xlink:href="on.jpg"  transform="matrix(0.5417 0 0 0.3446 130.7417 265.5049)" style="display:none"/>
  <image id="pc__on" overflow="visible" width="53" height="41" xlink:href="on.jpg"  transform="matrix(0.5214 0 0 0.3446 59.1279 322.8745)" style="display:none"/>
  <image id="pc__on" overflow="visible" width="52" height="41" xlink:href="on.jpg"  transform="matrix(0.5417 0 0 0.3446 94.6919 322.5083)" style="display:none"/>
  <image id="pc__on" overflow="visible" width="53" height="41" xlink:href="on.jpg"  transform="matrix(0.5214 0 0 0.3446 131.2554 323.1914)" style="display:none"/>
  <image id="pc__on" overflow="visible" width="53" height="41" xlink:href="on.jpg"  transform="matrix(0.5214 0 0 0.3446 59.1279 382)" style="display:none"/>
  <image id="pc__on" overflow="visible" width="52" height="41" xlink:href="on.jpg"  transform="matrix(0.5417 0 0 0.3446 94.6919 381.6348)" style="display:none"/>
  <image id="pc__on" overflow="visible" width="53" height="43" xlink:href="on.jpg"  transform="matrix(0.5214 0 0 0.3133 131.2559 382.3174)" style="display:none"/>
  <image id="pc__on" overflow="visible" width="52" height="43" xlink:href="on.jpg"  transform="matrix(0.5417 0 0 0.3133 211.5762 149.3735)" style="display:none"/>
  <image id="pc__on" overflow="visible" width="53" height="41" xlink:href="on.jpg"  transform="matrix(0.5214 0 0 0.3446 247.1406 149.0073)" style="display:none"/>
  <image id="pc__on" overflow="visible" width="52" height="41" xlink:href="on.jpg"  transform="matrix(0.5417 0 0 0.3446 283.7041 149.6904)" style="display:none"/>
  <image id="pc__on" overflow="visible" width="52" height="41" xlink:href="on.jpg"  transform="matrix(0.5417 0 0 0.3446 211.5762 207.5063)" style="display:none"/>
  <image id="pc__on" overflow="visible" width="53" height="41" xlink:href="on.jpg"  transform="matrix(0.5214 0 0 0.3446 247.1406 207.1401)" style="display:none"/>
  <image id="pc__on" overflow="visible" width="52" height="41" xlink:href="on.jpg"  transform="matrix(0.5417 0 0 0.3446 283.7041 207.8232)" style="display:none"/>
  <image id="pc__on" overflow="visible" width="52" height="41" xlink:href="on.jpg"  transform="matrix(0.5417 0 0 0.3446 211.5762 263.5063)" style="display:none"/>
  <image id="pc__on" overflow="visible" width="53" height="41" xlink:href="on.jpg"  transform="matrix(0.5214 0 0 0.3446 247.1406 263.1401)" style="display:none"/>
  <image id="pc__on" overflow="visible" width="52" height="41" xlink:href="on.jpg"  transform="matrix(0.5417 0 0 0.3446 283.7041 263.8232)" style="display:none"/>
  <image id="pc__on" overflow="visible" width="53" height="41" xlink:href="on.jpg"  transform="matrix(0.5214 0 0 0.3446 212.0908 321.1929)" style="display:none"/>
  <image id="pc__on" overflow="visible" width="52" height="41" xlink:href="on.jpg"  transform="matrix(0.5417 0 0 0.3446 247.6543 320.8267)" style="display:none"/>
  <image id="pc__on" overflow="visible" width="53" height="41" xlink:href="on.jpg"  transform="matrix(0.5214 0 0 0.3446 284.2188 321.5098)" style="display:none"/>
  <image id="pc__on" overflow="visible" width="53" height="43" xlink:href="on.jpg"  transform="matrix(0.5214 0 0 0.3133 212.0908 380.3184)" style="display:none"/>
  <image id="pc__on" overflow="visible" width="52" height="41" xlink:href="on.jpg"  transform="matrix(0.5417 0 0 0.3446 247.6543 379.9531)" style="display:none"/>
  <image id="pc__on" overflow="visible" width="53" height="41" xlink:href="on.jpg"  transform="matrix(0.5214 0 0 0.3446 284.2188 380.6357)" style="display:none"/>
  <image id="pc__on" overflow="visible" width="52" height="43" xlink:href="on.jpg"  transform="matrix(0.5417 0 0 0.3133 332.6133 148.3755)" style="display:none"/>
  <image id="pc__on" overflow="visible" width="53" height="41" xlink:href="on.jpg"  transform="matrix(0.5214 0 0 0.3446 368.1777 148.0093)" style="display:none"/>
  <image id="pc__on" overflow="visible" width="52" height="41" xlink:href="on.jpg"  transform="matrix(0.5417 0 0 0.3446 404.7412 148.6924)" style="display:none"/>
  <image id="pc__on" overflow="visible" width="52" height="41" xlink:href="on.jpg"  transform="matrix(0.5417 0 0 0.3446 332.6133 206.5083)" style="display:none"/>
  <image id="pc__on" overflow="visible" width="53" height="41" xlink:href="on.jpg"  transform="matrix(0.5214 0 0 0.3446 368.1777 206.1421)" style="display:none"/>
  <image id="pc__on" overflow="visible" width="52" height="41" xlink:href="on.jpg"  transform="matrix(0.5417 0 0 0.3446 404.7412 206.8252)" style="display:none"/>
  <image id="pc__on" overflow="visible" width="52" height="41" xlink:href="on.jpg"  transform="matrix(0.5417 0 0 0.3446 332.6133 262.5083)" style="display:none"/>
  <image id="pc__on" overflow="visible" width="53" height="41" xlink:href="on.jpg"  transform="matrix(0.5214 0 0 0.3446 368.1777 262.1421)" style="display:none"/>
  <image id="pc__on" overflow="visible" width="52" height="41" xlink:href="on.jpg"  transform="matrix(0.5417 0 0 0.3446 404.7412 262.8252)" style="display:none"/>
  <image id="pc__on" overflow="visible" width="53" height="41" xlink:href="on.jpg"  transform="matrix(0.5214 0 0 0.3446 333.127 320.1948)" style="display:none"/>
  <image id="pc__on" overflow="visible" width="52" height="41" xlink:href="on.jpg"  transform="matrix(0.5417 0 0 0.3446 368.6914 319.8286)" style="display:none"/>
  <image id="pc__on" overflow="visible" width="53" height="41" xlink:href="on.jpg"  transform="matrix(0.5214 0 0 0.3446 405.2559 320.5117)" style="display:none"/>
  <image id="pc__on" overflow="visible" width="53" height="43" xlink:href="on.jpg"  transform="matrix(0.5214 0 0 0.3133 333.127 379.3203)" style="display:none"/>
  <image id="pc__on" overflow="visible" width="52" height="41" xlink:href="on.jpg"  transform="matrix(0.5417 0 0 0.3446 368.6914 378.9551)" style="display:none"/>
  <image id="pc__on" overflow="visible" width="53" height="41" xlink:href="on.jpg"  transform="matrix(0.5214 0 0 0.3446 405.2559 379.6377)" style="display:none"/>
  <image id="pc__on" overflow="visible" width="52" height="41" xlink:href="on.jpg"  transform="matrix(0.5417 0 0 0.3446 213.5908 438.6328)" style="display:none"/>
  <image id="pc__on" overflow="visible" width="53" height="43" xlink:href="on.jpg"  transform="matrix(0.5214 0 0 0.3133 249.1543 438.2676)" style="display:none"/>
  <image id="pc__on" overflow="visible" width="52" height="41" xlink:href="on.jpg"  transform="matrix(0.5417 0 0 0.3446 285.7188 438.9502)" style="display:none"/>
  <image id="pc__on" overflow="visible" width="52" height="41" xlink:href="on.jpg"  transform="matrix(0.5417 0 0 0.3446 332.627 438.9736)" style="display:none"/>
  <image id="pc__on" overflow="visible" width="53" height="41" xlink:href="on.jpg"  transform="matrix(0.5214 0 0 0.3446 368.1914 438.6084)" style="display:none"/>
  <image id="pc__on" overflow="visible" width="52" height="43" xlink:href="on.jpg"  transform="matrix(0.5417 0 0 0.3133 404.7559 439.291)" style="display:none"/>
  <image id="pc__on" overflow="visible" width="53" height="41" xlink:href="on.jpg"  transform="matrix(0.5214 0 0 0.3446 333.127 497.585)" style="display:none"/>
  <image id="pc__on" overflow="visible" width="52" height="41" xlink:href="on.jpg"  transform="matrix(0.5417 0 0 0.3446 368.6914 497.2197)" style="display:none"/>
  <image id="pc__on" overflow="visible" width="53" height="41" xlink:href="on.jpg"  transform="matrix(0.5214 0 0 0.3446 405.2559 497.9023)" style="display:none"/>
  <image id="pc__on" overflow="visible" width="53" height="43" xlink:href="on.jpg"  transform="matrix(0.5214 0 0 0.3133 59.1133 209.2231)" style="display:none"/>
  <image id="pc__on" overflow="visible" width="52" height="41" xlink:href="on.jpg"  transform="matrix(0.5417 0 0 0.3446 94.6777 208.8569)" style="display:none"/>
  <image id="pc__on" overflow="visible" width="53" height="41" xlink:href="on.jpg"  transform="matrix(0.5214 0 0 0.3446 131.2417 209.54)" style="display:none"/>
  <image id="pc__on" overflow="visible" width="52" height="41" xlink:href="on.jpg"  transform="matrix(0.5417 0 0 0.3446 58.6133 265.1978)" style="display:none"/>
  <image id="pc__on" overflow="visible" width="53" height="41" xlink:href="on.jpg"  transform="matrix(0.5214 0 0 0.3446 94.1777 264.8315)" style="display:none"/>
  <image id="pc__on" overflow="visible" width="52" height="41" xlink:href="on.jpg"  transform="matrix(0.5417 0 0 0.3446 130.7417 265.5146)" style="display:none"/>
  <image id="pc__on" overflow="visible" width="52" height="41" xlink:href="on.jpg"  transform="matrix(0.5417 0 0 0.3446 58.6279 323.5928)" style="display:none"/>
  <image id="pc__on" overflow="visible" width="53" height="43" xlink:href="on.jpg"  transform="matrix(0.5214 0 0 0.3133 94.1919 323.2266)" style="display:none"/>
  <image id="pc__on" overflow="visible" width="52" height="41" xlink:href="on.jpg"  transform="matrix(0.5417 0 0 0.3446 130.7554 323.9097)" style="display:none"/>
  <image id="pc__on" overflow="visible" width="53" height="41" xlink:href="on.jpg"  transform="matrix(0.5214 0 0 0.3446 58.1133 382.7188)" style="display:none"/>
  <image id="pc__on" overflow="visible" width="52" height="43" xlink:href="on.jpg"  transform="matrix(0.5417 0 0 0.3133 93.6777 382.3516)" style="display:none"/>
  <image id="pc__on" overflow="visible" width="53" height="41" xlink:href="on.jpg"  transform="matrix(0.5214 0 0 0.3446 130.2417 383.0352)" style="display:none"/>
  <image id="pc__on" overflow="visible" width="53" height="41" xlink:href="on.jpg"  transform="matrix(0.5214 0 0 0.3446 213.0903 150.0747)" style="display:none"/>
  <image id="pc__on" overflow="visible" width="52" height="41" xlink:href="on.jpg"  transform="matrix(0.5417 0 0 0.3446 248.6543 149.7085)" style="display:none"/>
  <image id="pc__on" overflow="visible" width="53" height="43" xlink:href="on.jpg"  transform="matrix(0.5214 0 0 0.3133 285.2178 150.3916)" style="display:none"/>
  <image id="pc__on" overflow="visible" width="52" height="43" xlink:href="on.jpg"  transform="matrix(0.5417 0 0 0.3133 213.5903 208.2427)" style="display:none"/>
  <image id="pc__on" overflow="visible" width="53" height="41" xlink:href="on.jpg"  transform="matrix(0.5214 0 0 0.3446 249.1543 207.8765)" style="display:none"/>
  <image id="pc__on" overflow="visible" width="52" height="41" xlink:href="on.jpg"  transform="matrix(0.5417 0 0 0.3446 285.7178 208.5596)" style="display:none"/>
  <image id="pc__on" overflow="visible" width="53" height="41" xlink:href="on.jpg"  transform="matrix(0.5214 0 0 0.3446 213.0903 264.2173)" style="display:none"/>
  <image id="pc__on" overflow="visible" width="52" height="41" xlink:href="on.jpg"  transform="matrix(0.5417 0 0 0.3446 248.6543 263.8511)" style="display:none"/>
  <image id="pc__on" overflow="visible" width="53" height="41" xlink:href="on.jpg"  transform="matrix(0.5214 0 0 0.3446 285.2178 264.5342)" style="display:none"/>
  <image id="pc__on" overflow="visible" width="53" height="41" xlink:href="on.jpg"  transform="matrix(0.5214 0 0 0.3446 213.104 322.6123)" style="display:none"/>
  <image id="pc__on" overflow="visible" width="52" height="43" xlink:href="on.jpg"  transform="matrix(0.5417 0 0 0.3133 248.668 322.2461)" style="display:none"/>
  <image id="pc__on" overflow="visible" width="53" height="41" xlink:href="on.jpg"  transform="matrix(0.5214 0 0 0.3446 285.2324 322.9292)" style="display:none"/>
  <image id="pc__on" overflow="visible" width="52" height="41" xlink:href="on.jpg"  transform="matrix(0.5417 0 0 0.3446 212.5903 381.7383)" style="display:none"/>
  <image id="pc__on" overflow="visible" width="53" height="43" xlink:href="on.jpg"  transform="matrix(0.5214 0 0 0.3133 248.1543 381.3711)" style="display:none"/>
  <image id="pc__on" overflow="visible" width="52" height="41" xlink:href="on.jpg"  transform="matrix(0.5417 0 0 0.3446 284.7178 382.0547)" style="display:none"/>
  <image id="pc__on" overflow="visible" width="53" height="41" xlink:href="on.jpg"  transform="matrix(0.5214 0 0 0.3446 213.0903 439.6924)" style="display:none"/>
  <image id="pc__on" overflow="visible" width="52" height="43" xlink:href="on.jpg"  transform="matrix(0.5417 0 0 0.3133 248.6543 439.3252)" style="display:none"/>
  <image id="pc__on" overflow="visible" width="53" height="41" xlink:href="on.jpg"  transform="matrix(0.5214 0 0 0.3446 285.2178 440.0088)" style="display:none"/>
  <image id="pc__on" overflow="visible" width="53" height="41" xlink:href="on.jpg"  transform="matrix(0.5214 0 0 0.3446 332.1133 149.2109)" style="display:none"/>
  <image id="pc__on" overflow="visible" width="52" height="41" xlink:href="on.jpg"  transform="matrix(0.5417 0 0 0.3446 367.6777 148.8447)" style="display:none"/>
  <image id="pc__on" overflow="visible" width="53" height="41" xlink:href="on.jpg"  transform="matrix(0.5214 0 0 0.3446 404.2412 149.5278)" style="display:none"/>
  <image id="pc__on" overflow="visible" width="52" height="43" xlink:href="on.jpg"  transform="matrix(0.5417 0 0 0.3133 332.6133 207.3789)" style="display:none"/>
  <image id="pc__on" overflow="visible" width="53" height="41" xlink:href="on.jpg"  transform="matrix(0.5214 0 0 0.3446 368.1777 207.0127)" style="display:none"/>
  <image id="pc__on" overflow="visible" width="52" height="41" xlink:href="on.jpg"  transform="matrix(0.5417 0 0 0.3446 404.7412 207.6958)" style="display:none"/>
  <image id="pc__on" overflow="visible" width="53" height="43" xlink:href="on.jpg"  transform="matrix(0.5214 0 0 0.3133 332.1133 263.3535)" style="display:none"/>
  <image id="pc__on" overflow="visible" width="52" height="41" xlink:href="on.jpg"  transform="matrix(0.5417 0 0 0.3446 367.6777 262.9873)" style="display:none"/>
  <image id="pc__on" overflow="visible" width="53" height="41" xlink:href="on.jpg"  transform="matrix(0.5214 0 0 0.3446 404.2412 263.6704)" style="display:none"/>
  <image id="pc__on" overflow="visible" width="53" height="41" xlink:href="on.jpg"  transform="matrix(0.5214 0 0 0.3446 332.127 321.7485)" style="display:none"/>
  <image id="pc__on" overflow="visible" width="52" height="43" xlink:href="on.jpg"  transform="matrix(0.5417 0 0 0.3133 367.6914 321.3823)" style="display:none"/>
  <image id="pc__on" overflow="visible" width="53" height="41" xlink:href="on.jpg"  transform="matrix(0.5214 0 0 0.3446 404.2559 322.0659)" style="display:none"/>
  <image id="pc__on" overflow="visible" width="52" height="41" xlink:href="on.jpg"  transform="matrix(0.5417 0 0 0.3446 331.6133 380.875)" style="display:none"/>
  <image id="pc__on" overflow="visible" width="53" height="41" xlink:href="on.jpg"  transform="matrix(0.5214 0 0 0.3446 367.1777 380.5078)" style="display:none"/>
  <image id="pc__on" overflow="visible" width="52" height="41" xlink:href="on.jpg"  transform="matrix(0.5417 0 0 0.3446 403.7412 381.1914)" style="display:none"/>
  <image id="pc__on" overflow="visible" width="53" height="41" xlink:href="on.jpg"  transform="matrix(0.5214 0 0 0.3446 332.1133 438.8281)" style="display:none"/>
  <image id="pc__on" overflow="visible" width="52" height="43" xlink:href="on.jpg"  transform="matrix(0.5417 0 0 0.3133 367.6777 438.4609)" style="display:none"/>
  <image id="pc__on" overflow="visible" width="53" height="41" xlink:href="on.jpg"  transform="matrix(0.5214 0 0 0.3446 404.2412 439.1445)" style="display:none"/>
  <image id="pc__on" overflow="visible" width="52" height="43" xlink:href="on.jpg"  transform="matrix(0.5417 0 0 0.3133 332.627 498.3037)" style="display:none"/>
  <image id="pc__on" overflow="visible" width="53" height="41" xlink:href="on.jpg"  transform="matrix(0.5214 0 0 0.3446 368.1914 497.9365)" style="display:none"/>
  <image id="pc__on" overflow="visible" width="52" height="41" xlink:href="on.jpg"  transform="matrix(0.5417 0 0 0.3446 404.7549 498.6201)" style="display:none"/>
</g>
<g id="off">
  <image id="pc__off" overflow="visible" width="49" height="44" xlink:href="off.jpg"  transform="matrix(0.5045 0 0 0.2589 404.7549 497.1846)"/>
  <image id="pc__off" overflow="visible" width="49" height="44" xlink:href="off.jpg"  transform="matrix(0.5748 0 0 0.2516 130.7417 150.3535)"/>
  <image id="pc__off" overflow="visible" width="51" height="44" xlink:href="off.jpg"  transform="matrix(0.5177 0.0223 -0.0099 0.2289 58.5835 150.5273)"/>
  <image id="pc__off" overflow="visible" width="49" height="44" xlink:href="off.jpg"  transform="matrix(0.5284 0 0 0.2365 95.9189 150.1729)"/>
  <image id="pc__off" overflow="visible" width="49" height="44" xlink:href="off.jpg"  transform="matrix(0.5045 0 0 0.2589 773.7373 81.8403)"/>
  <image id="pc__off" overflow="visible" width="49" height="44" xlink:href="off.jpg"  transform="matrix(0.5045 0 0 0.2589 773.7373 53.0181)"/>
  <image id="pc__off" overflow="visible" width="49" height="44" xlink:href="off.jpg"  transform="matrix(0.5045 0 0 0.2589 773.7373 25.7456)"/>
  <image id="pc__off" overflow="visible" width="49" height="44" xlink:href="off.jpg"  transform="matrix(0.5045 0 0 0.2589 772.0469 -31.6074)"/>
  <image id="pc__off" overflow="visible" width="49" height="44" xlink:href="off.jpg"  transform="matrix(0.5045 0 0 0.2589 772.0479 -62.7197)"/>
  <image id="pc__off" overflow="visible" width="49" height="42" xlink:href="off.jpg"  transform="matrix(0.5045 0 0 0.2841 825.8838 -28.415)"/>
  <image id="pc__off" overflow="visible" width="49" height="44" xlink:href="off.jpg"  transform="matrix(0.5045 0 0 0.2589 825.8848 -62.7197)"/>
  <image id="pc__off" overflow="visible" width="49" height="44" xlink:href="off.jpg"  transform="matrix(0.5045 0 0 0.2589 132.2417 212.1035)"/>
  <image id="pc__off" overflow="visible" width="49" height="44" xlink:href="off.jpg"  transform="matrix(0.5045 0 0 0.2589 60.8545 211.1035)"/>
  <image id="pc__off" overflow="visible" width="51" height="44" xlink:href="off.jpg"  transform="matrix(0.4657 0 0 0.2589 96.4189 211.1035)"/>
  <image id="pc__off" overflow="visible" width="49" height="44" xlink:href="off.jpg"  transform="matrix(0.5045 0 0 0.2589 130.7417 264.0781)"/>
  <image id="pc__off" overflow="visible" width="51" height="44" xlink:href="off.jpg"  transform="matrix(0.4657 0 0 0.2589 60.3545 264.0781)"/>
  <image id="pc__off" overflow="visible" width="49" height="44" xlink:href="off.jpg"  transform="matrix(0.5045 0 0 0.2589 95.9189 264.0781)"/>
  <image id="pc__off" overflow="visible" width="49" height="44" xlink:href="off.jpg"  transform="matrix(0.5045 0 0 0.2589 130.7554 322.4731)"/>
  <image id="pc__off" overflow="visible" width="51" height="44" xlink:href="off.jpg"  transform="matrix(0.4657 0 0 0.2589 60.3691 322.4731)"/>
  <image id="pc__off" overflow="visible" width="49" height="44" xlink:href="off.jpg"  transform="matrix(0.5045 0 0 0.2589 95.9331 322.4731)"/>
  <image id="pc__off" overflow="visible" width="49" height="42" xlink:href="off.jpg"  transform="matrix(0.5045 0 0 0.2841 130.2417 381.5986)"/>
  <image id="pc__off" overflow="visible" width="49" height="42" xlink:href="off.jpg"  transform="matrix(0.5045 0 0 0.2841 59.8545 381.5986)"/>
  <image id="pc__off" overflow="visible" width="51" height="42" xlink:href="off.jpg"  transform="matrix(0.4657 0 0 0.2841 95.4189 381.5986)"/>
  <image id="pc__off" overflow="visible" width="49" height="44" xlink:href="off.jpg"  transform="matrix(0.5045 0 0 0.2589 285.2178 148.9551)"/>
  <image id="pc__off" overflow="visible" width="49" height="44" xlink:href="off.jpg"  transform="matrix(0.5045 0 0 0.2589 214.8311 148.9551)"/>
  <image id="pc__off" overflow="visible" width="51" height="44" xlink:href="off.jpg"  transform="matrix(0.4657 0 0 0.2589 250.3945 148.9551)"/>
  <image id="pc__off" overflow="visible" width="49" height="44" xlink:href="off.jpg"  transform="matrix(0.5045 0 0 0.2589 285.7178 207.123)"/>
  <image id="pc__off" overflow="visible" width="51" height="44" xlink:href="off.jpg"  transform="matrix(0.4657 0 0 0.2589 215.3311 207.123)"/>
  <image id="pc__off" overflow="visible" width="49" height="44" xlink:href="off.jpg"  transform="matrix(0.5045 0 0 0.2589 250.8945 207.123)"/>
  <image id="pc__off" overflow="visible" width="49" height="44" xlink:href="off.jpg"  transform="matrix(0.5045 0 0 0.2589 285.2178 263.0977)"/>
  <image id="pc__off" overflow="visible" width="49" height="44" xlink:href="off.jpg"  transform="matrix(0.5045 0 0 0.2589 214.8311 263.0977)"/>
  <image id="pc__off" overflow="visible" width="51" height="44" xlink:href="off.jpg"  transform="matrix(0.4657 0 0 0.2589 250.3945 263.0977)"/>
  <image id="pc__off" overflow="visible" width="49" height="44" xlink:href="off.jpg"  transform="matrix(0.5045 0 0 0.2589 285.2324 321.4927)"/>
  <image id="pc__off" overflow="visible" width="49" height="44" xlink:href="off.jpg"  transform="matrix(0.5045 0 0 0.2589 214.8457 321.4927)"/>
  <image id="pc__off" overflow="visible" width="51" height="44" xlink:href="off.jpg"  transform="matrix(0.4657 0 0 0.2589 250.4092 321.4927)"/>
  <image id="pc__off" overflow="visible" width="49" height="42" xlink:href="off.jpg"  transform="matrix(0.5045 0 0 0.2841 284.7178 380.6182)"/>
  <image id="pc__off" overflow="visible" width="51" height="42" xlink:href="off.jpg"  transform="matrix(0.4657 0 0 0.2841 214.3311 380.6182)"/>
  <image id="pc__off" overflow="visible" width="49" height="42" xlink:href="off.jpg"  transform="matrix(0.5045 0 0 0.2841 249.8945 380.6182)"/>
  <image id="pc__off" overflow="visible" width="49" height="42" xlink:href="off.jpg"  transform="matrix(0.5045 0 0 0.2841 285.2178 438.5723)"/>
  <image id="pc__off" overflow="visible" width="49" height="42" xlink:href="off.jpg"  transform="matrix(0.5045 0 0 0.2841 214.8311 438.5723)"/>
  <image id="pc__off" overflow="visible" width="51" height="42" xlink:href="off.jpg"  transform="matrix(0.4657 0 0 0.2841 250.3945 438.5723)"/>
  <image id="pc__off" overflow="visible" width="49" height="44" xlink:href="off.jpg"  transform="matrix(0.5045 0 0 0.2589 404.2412 148.0913)"/>
  <image id="pc__off" overflow="visible" width="49" height="44" xlink:href="off.jpg"  transform="matrix(0.5045 0 0 0.2589 333.8545 148.0913)"/>
  <image id="pc__off" overflow="visible" width="51" height="44" xlink:href="off.jpg"  transform="matrix(0.4657 0 0 0.2589 369.418 148.0913)"/>
  <image id="pc__off" overflow="visible" width="49" height="44" xlink:href="off.jpg"  transform="matrix(0.5045 0 0 0.2589 404.7412 206.2593)"/>
  <image id="pc__off" overflow="visible" width="51" height="44" xlink:href="off.jpg"  transform="matrix(0.4657 0 0 0.2589 334.3545 206.2593)"/>
  <image id="pc__off" overflow="visible" width="49" height="44" xlink:href="off.jpg"  transform="matrix(0.5045 0 0 0.2589 369.918 206.2593)"/>
  <image id="pc__off" overflow="visible" width="49" height="44" xlink:href="off.jpg"  transform="matrix(0.5045 0 0 0.2589 404.2412 262.2339)"/>
  <image id="pc__off" overflow="visible" width="49" height="44" xlink:href="off.jpg"  transform="matrix(0.5045 0 0 0.2589 333.8545 262.2339)"/>
  <image id="pc__off" overflow="visible" width="51" height="44" xlink:href="off.jpg"  transform="matrix(0.4657 0 0 0.2589 369.418 262.2339)"/>
  <image id="pc__off" overflow="visible" width="49" height="42" xlink:href="off.jpg"  transform="matrix(0.5045 0 0 0.2841 404.2559 320.6284)"/>
  <image id="pc__off" overflow="visible" width="49" height="42" xlink:href="off.jpg"  transform="matrix(0.5045 0 0 0.2841 333.8691 320.6284)"/>
  <image id="pc__off" overflow="visible" width="51" height="42" xlink:href="off.jpg"  transform="matrix(0.4657 0 0 0.2841 369.4326 320.6284)"/>
  <image id="pc__off" overflow="visible" width="49" height="44" xlink:href="off.jpg"  transform="matrix(0.5045 0 0 0.2589 403.7412 379.7539)"/>
  <image id="pc__off" overflow="visible" width="51" height="44" xlink:href="off.jpg"  transform="matrix(0.4657 0 0 0.2589 333.3545 379.7539)"/>
  <image id="pc__off" overflow="visible" width="49" height="44" xlink:href="off.jpg"  transform="matrix(0.5045 0 0 0.2589 368.918 379.7539)"/>
  <image id="pc__off" overflow="visible" width="49" height="42" xlink:href="off.jpg"  transform="matrix(0.5045 0 0 0.2841 404.2412 437.709)"/>
  <image id="pc__off" overflow="visible" width="49" height="42" xlink:href="off.jpg"  transform="matrix(0.5045 0 0 0.2841 333.8545 437.709)"/>
  <image id="pc__off" overflow="visible" width="51" height="42" xlink:href="off.jpg"  transform="matrix(0.4657 0 0 0.2841 369.418 437.709)"/>
  <image id="pc__off" overflow="visible" width="51" height="44" xlink:href="off.jpg"  transform="matrix(0.4657 0 0 0.2589 334.3682 497.1846)"/>
  <image id="pc__off" overflow="visible" width="49" height="44" xlink:href="off.jpg"  transform="matrix(0.5045 0 0 0.2589 369.9316 497.1846)"/>
</g>
<g id="japanese_words">
  <text transform="matrix(1 0 0 1 223.9097 633.0684)" font-family="'KozGoPr6N-Regular-83pv-RKSJ-H'" font-size="14">入口</text>
</g>
<g id="english_words">
  <text transform="matrix(1 0 0 1 223.9097 633.0684)" font-family="'KozGoPr6N-Regular-83pv-RKSJ-H'" font-size="14">Entrance</text>
</g>
<script xlink:href="http://ajax.googleapis.com/ajax/libs/jquery/1.7.2/jquery.min.js"/>
<script xlink:href="innersvg.js"/>
<script xlink:href="room.js"/>
</svg>
