<?xml version="1.0" encoding="utf-8"?>
<!-- Generator: Adobe Illustrator 16.0.0, SVG Export Plug-In . SVG Version: 6.00 Build 0)  -->
<!DOCTYPE svg PUBLIC "-//W3C//DTD SVG 1.1//EN" "http://www.w3.org/Graphics/SVG/1.1/DTD/svg11.dtd">
<svg version="1.1" xmlns="http://www.w3.org/2000/svg" xmlns:xlink="http://www.w3.org/1999/xlink" x="0px" y="0px" width="480px"
	 height="720px" viewBox="0 0 480 720" enable-background="new 0 0 480 720" xml:space="preserve">
<g id="レイヤー_1">
	
		<rect x="31.513" y="107.381" fill="#FFFFFF" stroke="#000000" stroke-width="4" stroke-miterlimit="10" width="419.079" height="547.395"/>
	<text transform="matrix(1 0 0 1 185.9922 37.6982)" font-family="'KozGoPr6N-Regular-83pv-RKSJ-H'" font-size="18">パソコン教</text>
	
		<text transform="matrix(1 0 0 1 275.9922 37.6982)" font-family="'KozGoPr6N-Regular-83pv-RKSJ-H'" font-size="18" letter-spacing="2">室A</text>
	
		<image overflow="visible" enable-background="new    " width="52" height="41" xlink:href="1B2D9D90FD579200.jpg"  transform="matrix(0.5417 0 0 0.3446 58.6133 151.0552)">
	</image>
	
		<image overflow="visible" enable-background="new    " width="53" height="41" xlink:href="1B2D9D90FD579201.jpg"  transform="matrix(0.5214 0 0 0.28 94.1777 150.5137)">
	</image>
	
		<image overflow="visible" enable-background="new    " width="52" height="43" xlink:href="1B2D9D90FD579207.jpg"  transform="matrix(0.4953 0 0 0.287 130.7417 151.2661)">
	</image>
	
		<image overflow="visible" enable-background="new    " width="52" height="41" xlink:href="1B2D9D90FD579202.jpg"  transform="matrix(0.5417 0 0 0.3446 58.6133 209.188)">
	</image>
	
		<image overflow="visible" enable-background="new    " width="53" height="41" xlink:href="1B2D9D90FD579203.jpg"  transform="matrix(0.5214 0 0 0.3446 94.1777 208.8218)">
	</image>
	
		<image overflow="visible" enable-background="new    " width="52" height="41" xlink:href="1B2D9D90FD57920E.jpg"  transform="matrix(0.5417 0 0 0.3446 130.7417 209.5049)">
	</image>
	
		<image overflow="visible" enable-background="new    " width="52" height="41" xlink:href="1B2D9D90FD57920F.jpg"  transform="matrix(0.5417 0 0 0.3446 58.6133 265.188)">
	</image>
	
		<image overflow="visible" enable-background="new    " width="53" height="41" xlink:href="1B2D9D90FD579204.jpg"  transform="matrix(0.5214 0 0 0.3446 94.1777 264.8218)">
	</image>
	
		<image overflow="visible" enable-background="new    " width="52" height="41" xlink:href="1B2D9D90FD579205.jpg"  transform="matrix(0.5417 0 0 0.3446 130.7417 265.5049)">
	</image>
	
		<image overflow="visible" enable-background="new    " width="53" height="41" xlink:href="ED97C5F49DA81A5F.jpg"  transform="matrix(0.5214 0 0 0.3446 59.1279 322.8745)">
	</image>
	
		<image overflow="visible" enable-background="new    " width="52" height="41" xlink:href="ED97C5F49DA81A5D.jpg"  transform="matrix(0.5417 0 0 0.3446 94.6919 322.5083)">
	</image>
	
		<image overflow="visible" enable-background="new    " width="53" height="41" xlink:href="ED97C5F49DA81A5B.jpg"  transform="matrix(0.5214 0 0 0.3446 131.2554 323.1914)">
	</image>
	
		<image overflow="visible" enable-background="new    " width="53" height="41" xlink:href="ED97C5F49DA81A55.jpg"  transform="matrix(0.5214 0 0 0.3446 59.1279 382)">
	</image>
	
		<image overflow="visible" enable-background="new    " width="52" height="41" xlink:href="ED97C5F49DA81A57.jpg"  transform="matrix(0.5417 0 0 0.3446 94.6919 381.6348)">
	</image>
	
		<image overflow="visible" enable-background="new    " width="53" height="43" xlink:href="ED97C5F49DA81A4A.jpg"  transform="matrix(0.5214 0 0 0.3133 131.2559 382.3174)">
	</image>
	
		<image overflow="visible" enable-background="new    " width="52" height="43" xlink:href="ED97C5F49DA81A4B.jpg"  transform="matrix(0.5417 0 0 0.3133 211.5762 149.3735)">
	</image>
	
		<image overflow="visible" enable-background="new    " width="53" height="41" xlink:href="ED97C5F49DA81A4D.jpg"  transform="matrix(0.5214 0 0 0.3446 247.1406 149.0073)">
	</image>
	
		<image overflow="visible" enable-background="new    " width="52" height="41" xlink:href="ED97C5F49DA81A4F.jpg"  transform="matrix(0.5417 0 0 0.3446 283.7041 149.6904)">
	</image>
	
		<image overflow="visible" enable-background="new    " width="52" height="41" xlink:href="ED97C5F49DA81A48.jpg"  transform="matrix(0.5417 0 0 0.3446 211.5762 207.5063)">
	</image>
	
		<image overflow="visible" enable-background="new    " width="53" height="41" xlink:href="ED97C5F49DA81A6E.jpg"  transform="matrix(0.5214 0 0 0.3446 247.1406 207.1401)">
	</image>
	
		<image overflow="visible" enable-background="new    " width="52" height="41" xlink:href="ED97C5F49DA81A6D.jpg"  transform="matrix(0.5417 0 0 0.3446 283.7041 207.8232)">
	</image>
	
		<image overflow="visible" enable-background="new    " width="52" height="41" xlink:href="ED97C5F49DA81A6A.jpg"  transform="matrix(0.5417 0 0 0.3446 211.5762 263.5063)">
	</image>
	
		<image overflow="visible" enable-background="new    " width="53" height="41" xlink:href="ED97C5F49DA81A65.jpg"  transform="matrix(0.5214 0 0 0.3446 247.1406 263.1401)">
	</image>
	
		<image overflow="visible" enable-background="new    " width="52" height="41" xlink:href="ED97C5F49DA81A66.jpg"  transform="matrix(0.5417 0 0 0.3446 283.7041 263.8232)">
	</image>
	
		<image overflow="visible" enable-background="new    " width="53" height="41" xlink:href="ED97C5F49DA81A64.jpg"  transform="matrix(0.5214 0 0 0.3446 212.0908 321.1929)">
	</image>
	
		<image overflow="visible" enable-background="new    " width="52" height="41" xlink:href="ED97C5F49DA81A9A.jpg"  transform="matrix(0.5417 0 0 0.3446 247.6543 320.8267)">
	</image>
	
		<image overflow="visible" enable-background="new    " width="53" height="41" xlink:href="ED97C5F49DA81A9D.jpg"  transform="matrix(0.5214 0 0 0.3446 284.2188 321.5098)">
	</image>
	
		<image overflow="visible" enable-background="new    " width="53" height="43" xlink:href="ED97C5F49DA81A9E.jpg"  transform="matrix(0.5214 0 0 0.3133 212.0908 380.3184)">
	</image>
	
		<image overflow="visible" enable-background="new    " width="52" height="41" xlink:href="ED97C5F49DA81A9C.jpg"  transform="matrix(0.5417 0 0 0.3446 247.6543 379.9531)">
	</image>
	
		<image overflow="visible" enable-background="new    " width="53" height="41" xlink:href="ED97C5F49DA81A81.jpg"  transform="matrix(0.5214 0 0 0.3446 284.2188 380.6357)">
	</image>
	
		<image overflow="visible" enable-background="new    " width="52" height="43" xlink:href="ED97C5F49DA81ABF.jpg"  transform="matrix(0.5417 0 0 0.3133 332.6133 148.3755)">
	</image>
	
		<image overflow="visible" enable-background="new    " width="53" height="41" xlink:href="ED97C5F49DA81A80.jpg"  transform="matrix(0.5214 0 0 0.3446 368.1777 148.0093)">
	</image>
	
		<image overflow="visible" enable-background="new    " width="52" height="41" xlink:href="ED97C5F49DA81A83.jpg"  transform="matrix(0.5417 0 0 0.3446 404.7412 148.6924)">
	</image>
	
		<image overflow="visible" enable-background="new    " width="52" height="41" xlink:href="ED97C5F49DA81A87.jpg"  transform="matrix(0.5417 0 0 0.3446 332.6133 206.5083)">
	</image>
	
		<image overflow="visible" enable-background="new    " width="53" height="41" xlink:href="ED97C5F49DA81A82.jpg"  transform="matrix(0.5214 0 0 0.3446 368.1777 206.1421)">
	</image>
	
		<image overflow="visible" enable-background="new    " width="52" height="41" xlink:href="ED97C5F49DA81A8D.jpg"  transform="matrix(0.5417 0 0 0.3446 404.7412 206.8252)">
	</image>
	
		<image overflow="visible" enable-background="new    " width="52" height="41" xlink:href="ED97C5F49DA81A8E.jpg"  transform="matrix(0.5417 0 0 0.3446 332.6133 262.5083)">
	</image>
	
		<image overflow="visible" enable-background="new    " width="53" height="41" xlink:href="ED97C5F49DA81A8F.jpg"  transform="matrix(0.5214 0 0 0.3446 368.1777 262.1421)">
	</image>
	
		<image overflow="visible" enable-background="new    " width="52" height="41" xlink:href="ED97C5F49DA81A84.jpg"  transform="matrix(0.5417 0 0 0.3446 404.7412 262.8252)">
	</image>
	
		<image overflow="visible" enable-background="new    " width="53" height="41" xlink:href="ED97C5F49DA81AEC.jpg"  transform="matrix(0.5214 0 0 0.3446 333.127 320.1948)">
	</image>
	
		<image overflow="visible" enable-background="new    " width="52" height="41" xlink:href="ED97C5F49DA81AEF.jpg"  transform="matrix(0.5417 0 0 0.3446 368.6914 319.8286)">
	</image>
	
		<image overflow="visible" enable-background="new    " width="53" height="41" xlink:href="ED97C5F49DA81AED.jpg"  transform="matrix(0.5214 0 0 0.3446 405.2559 320.5117)">
	</image>
	
		<image overflow="visible" enable-background="new    " width="53" height="43" xlink:href="ED97C5F49DA81AEB.jpg"  transform="matrix(0.5214 0 0 0.3133 333.127 379.3203)">
	</image>
	
		<image overflow="visible" enable-background="new    " width="52" height="41" xlink:href="ED97C5F49DA81AE4.jpg"  transform="matrix(0.5417 0 0 0.3446 368.6914 378.9551)">
	</image>
	
		<image overflow="visible" enable-background="new    " width="53" height="41" xlink:href="ED97C5F49DA81AE7.jpg"  transform="matrix(0.5214 0 0 0.3446 405.2559 379.6377)">
	</image>
	
		<image overflow="visible" enable-background="new    " width="52" height="41" xlink:href="ED97C5F49DA81AE5.jpg"  transform="matrix(0.5417 0 0 0.3446 213.5908 438.6328)">
	</image>
	
		<image overflow="visible" enable-background="new    " width="53" height="43" xlink:href="ED97C5F49DA81AFB.jpg"  transform="matrix(0.5214 0 0 0.3133 249.1543 438.2676)">
	</image>
	
		<image overflow="visible" enable-background="new    " width="52" height="41" xlink:href="ED97C5F49DA81AFC.jpg"  transform="matrix(0.5417 0 0 0.3446 285.7188 438.9502)">
	</image>
	
		<image overflow="visible" enable-background="new    " width="52" height="41" xlink:href="ED97C5F49DA81AFF.jpg"  transform="matrix(0.5417 0 0 0.3446 332.627 438.9736)">
	</image>
	
		<image overflow="visible" enable-background="new    " width="53" height="41" xlink:href="ED97C5F49DA81ADB.jpg"  transform="matrix(0.5214 0 0 0.3446 368.1914 438.6084)">
	</image>
	
		<image overflow="visible" enable-background="new    " width="52" height="43" xlink:href="ED97C5F49DA81AD9.jpg"  transform="matrix(0.5417 0 0 0.3133 404.7559 439.291)">
	</image>
	
		<image overflow="visible" enable-background="new    " width="53" height="41" xlink:href="ED97C5F49DA81ADF.jpg"  transform="matrix(0.5214 0 0 0.3446 333.127 497.585)">
	</image>
	
		<image overflow="visible" enable-background="new    " width="52" height="41" xlink:href="ED97C5F49DA81ADA.jpg"  transform="matrix(0.5417 0 0 0.3446 368.6914 497.2197)">
	</image>
	
		<image overflow="visible" enable-background="new    " width="53" height="41" xlink:href="ED97C5F49DA81AD5.jpg"  transform="matrix(0.5214 0 0 0.3446 405.2559 497.9023)">
	</image>
	
		<image overflow="visible" enable-background="new    " width="53" height="43" xlink:href="ED97C5F49DA81AD6.jpg"  transform="matrix(0.5214 0 0 0.3133 59.1133 209.2231)">
	</image>
	
		<image overflow="visible" enable-background="new    " width="52" height="41" xlink:href="ED97C5F49DA81AD7.jpg"  transform="matrix(0.5417 0 0 0.3446 94.6777 208.8569)">
	</image>
	
		<image overflow="visible" enable-background="new    " width="53" height="41" xlink:href="ED97C5F49DA81AC9.jpg"  transform="matrix(0.5214 0 0 0.3446 131.2417 209.54)">
	</image>
	
		<image overflow="visible" enable-background="new    " width="52" height="41" xlink:href="ED97C5F49DA81ACB.jpg"  transform="matrix(0.5417 0 0 0.3446 58.6133 265.1978)">
	</image>
	
		<image overflow="visible" enable-background="new    " width="53" height="41" xlink:href="ED97C5F49DA81ACE.jpg"  transform="matrix(0.5214 0 0 0.3446 94.1777 264.8315)">
	</image>
	
		<image overflow="visible" enable-background="new    " width="52" height="41" xlink:href="ED97C5F49DA81B32.jpg"  transform="matrix(0.5417 0 0 0.3446 130.7417 265.5146)">
	</image>
	
		<image overflow="visible" enable-background="new    " width="52" height="41" xlink:href="ED97C5F49DA81B31.jpg"  transform="matrix(0.5417 0 0 0.3446 58.6279 323.5928)">
	</image>
	
		<image overflow="visible" enable-background="new    " width="53" height="43" xlink:href="ED97C5F49DA81B2E.jpg"  transform="matrix(0.5214 0 0 0.3133 94.1919 323.2266)">
	</image>
	
		<image overflow="visible" enable-background="new    " width="52" height="41" xlink:href="ED97C5F49DA81B51.jpg"  transform="matrix(0.5417 0 0 0.3446 130.7554 323.9097)">
	</image>
	
		<image overflow="visible" enable-background="new    " width="53" height="41" xlink:href="ED97C5F49DA81B52.jpg"  transform="matrix(0.5214 0 0 0.3446 58.1133 382.7188)">
	</image>
	
		<image overflow="visible" enable-background="new    " width="52" height="43" xlink:href="ED97C5F49DA81B50.jpg"  transform="matrix(0.5417 0 0 0.3133 93.6777 382.3516)">
	</image>
	
		<image overflow="visible" enable-background="new    " width="53" height="41" xlink:href="ED97C5F49DA81B56.jpg"  transform="matrix(0.5214 0 0 0.3446 130.2417 383.0352)">
	</image>
	
		<image overflow="visible" enable-background="new    " width="53" height="41" xlink:href="ED97C5F49DA81B53.jpg"  transform="matrix(0.5214 0 0 0.3446 213.0903 150.0747)">
	</image>
	
		<image overflow="visible" enable-background="new    " width="52" height="41" xlink:href="ED97C5F49DA81B5E.jpg"  transform="matrix(0.5417 0 0 0.3446 248.6543 149.7085)">
	</image>
	
		<image overflow="visible" enable-background="new    " width="53" height="43" xlink:href="ED97C5F49DA81B5F.jpg"  transform="matrix(0.5214 0 0 0.3133 285.2178 150.3916)">
	</image>
	
		<image overflow="visible" enable-background="new    " width="52" height="43" xlink:href="ED97C5F49DA81B75.jpg"  transform="matrix(0.5417 0 0 0.3133 213.5903 208.2427)">
	</image>
	
		<image overflow="visible" enable-background="new    " width="53" height="41" xlink:href="ED97C5F49DA81B73.jpg"  transform="matrix(0.5214 0 0 0.3446 249.1543 207.8765)">
	</image>
	
		<image overflow="visible" enable-background="new    " width="52" height="41" xlink:href="ED97C5F49DA81B7D.jpg"  transform="matrix(0.5417 0 0 0.3446 285.7178 208.5596)">
	</image>
	
		<image overflow="visible" enable-background="new    " width="53" height="41" xlink:href="ED97C5F49DA81B7F.jpg"  transform="matrix(0.5214 0 0 0.3446 213.0903 264.2173)">
	</image>
	
		<image overflow="visible" enable-background="new    " width="52" height="41" xlink:href="ED97C5F49DA81B7C.jpg"  transform="matrix(0.5417 0 0 0.3446 248.6543 263.8511)">
	</image>
	
		<image overflow="visible" enable-background="new    " width="53" height="41" xlink:href="ED97C5F49DA81B74.jpg"  transform="matrix(0.5214 0 0 0.3446 285.2178 264.5342)">
	</image>
	
		<image overflow="visible" enable-background="new    " width="53" height="41" xlink:href="ED97C5F49DA81B77.jpg"  transform="matrix(0.5214 0 0 0.3446 213.104 322.6123)">
	</image>
	
		<image overflow="visible" enable-background="new    " width="52" height="43" xlink:href="ED97C5F49DA81B6A.jpg"  transform="matrix(0.5417 0 0 0.3133 248.668 322.2461)">
	</image>
	
		<image overflow="visible" enable-background="new    " width="53" height="41" xlink:href="ED97C5F49DA81B6B.jpg"  transform="matrix(0.5214 0 0 0.3446 285.2324 322.9292)">
	</image>
	
		<image overflow="visible" enable-background="new    " width="52" height="41" xlink:href="ED97C5F49DA81B6C.jpg"  transform="matrix(0.5417 0 0 0.3446 212.5903 381.7383)">
	</image>
	
		<image overflow="visible" enable-background="new    " width="53" height="43" xlink:href="ED97C5F49DA81B08.jpg"  transform="matrix(0.5214 0 0 0.3133 248.1543 381.3711)">
	</image>
	
		<image overflow="visible" enable-background="new    " width="52" height="41" xlink:href="ED97C5F49DA81B0B.jpg"  transform="matrix(0.5417 0 0 0.3446 284.7178 382.0547)">
	</image>
	
		<image overflow="visible" enable-background="new    " width="53" height="41" xlink:href="ED97C5F49DA81B09.jpg"  transform="matrix(0.5214 0 0 0.3446 213.0903 439.6924)">
	</image>
	
		<image overflow="visible" enable-background="new    " width="52" height="43" xlink:href="ED97C5F49DA81B0F.jpg"  transform="matrix(0.5417 0 0 0.3133 248.6543 439.3252)">
	</image>
	
		<image overflow="visible" enable-background="new    " width="53" height="41" xlink:href="ED97C5F49DA81B0A.jpg"  transform="matrix(0.5214 0 0 0.3446 285.2178 440.0088)">
	</image>
	
		<image overflow="visible" enable-background="new    " width="53" height="41" xlink:href="ED97C5F49DA81B05.jpg"  transform="matrix(0.5214 0 0 0.3446 332.1133 149.2109)">
	</image>
	
		<image overflow="visible" enable-background="new    " width="52" height="41" xlink:href="ED97C5F49DA81B06.jpg"  transform="matrix(0.5417 0 0 0.3446 367.6777 148.8447)">
	</image>
	
		<image overflow="visible" enable-background="new    " width="53" height="41" xlink:href="ED97C5F49DA81B07.jpg"  transform="matrix(0.5214 0 0 0.3446 404.2412 149.5278)">
	</image>
	
		<image overflow="visible" enable-background="new    " width="52" height="43" xlink:href="ED97C5F49DA81B38.jpg"  transform="matrix(0.5417 0 0 0.3133 332.6133 207.3789)">
	</image>
	
		<image overflow="visible" enable-background="new    " width="53" height="41" xlink:href="ED97C5F49DA81B3B.jpg"  transform="matrix(0.5214 0 0 0.3446 368.1777 207.0127)">
	</image>
	
		<image overflow="visible" enable-background="new    " width="52" height="41" xlink:href="ED97C5F49DA81B27.jpg"  transform="matrix(0.5417 0 0 0.3446 404.7412 207.6958)">
	</image>
	
		<image overflow="visible" enable-background="new    " width="53" height="43" xlink:href="ED97C5F49DA81B25.jpg"  transform="matrix(0.5214 0 0 0.3133 332.1133 263.3535)">
	</image>
	
		<image overflow="visible" enable-background="new    " width="52" height="41" xlink:href="ED97C5F49DA81B23.jpg"  transform="matrix(0.5417 0 0 0.3446 367.6777 262.9873)">
	</image>
	
		<image overflow="visible" enable-background="new    " width="53" height="41" xlink:href="ED97C5F49DA81BDD.jpg"  transform="matrix(0.5214 0 0 0.3446 404.2412 263.6704)">
	</image>
	
		<image overflow="visible" enable-background="new    " width="53" height="41" xlink:href="ED97C5F49DA81BDF.jpg"  transform="matrix(0.5214 0 0 0.3446 332.127 321.7485)">
	</image>
	
		<image overflow="visible" enable-background="new    " width="52" height="43" xlink:href="ED97C5F49DA81BE2.jpg"  transform="matrix(0.5417 0 0 0.3133 367.6914 321.3823)">
	</image>
	
		<image overflow="visible" enable-background="new    " width="53" height="41" xlink:href="ED97C5F49DA81BE3.jpg"  transform="matrix(0.5214 0 0 0.3446 404.2559 322.0659)">
	</image>
	
		<image overflow="visible" enable-background="new    " width="52" height="41" xlink:href="ED97C5F49DA81BE5.jpg"  transform="matrix(0.5417 0 0 0.3446 331.6133 380.875)">
	</image>
	
		<image overflow="visible" enable-background="new    " width="53" height="41" xlink:href="ED97C5F49DA81BE7.jpg"  transform="matrix(0.5214 0 0 0.3446 367.1777 380.5078)">
	</image>
	
		<image overflow="visible" enable-background="new    " width="52" height="41" xlink:href="ED97C5F49DA81BE0.jpg"  transform="matrix(0.5417 0 0 0.3446 403.7412 381.1914)">
	</image>
	
		<image overflow="visible" enable-background="new    " width="53" height="41" xlink:href="56EF9C5AC94BCE1D.jpg"  transform="matrix(0.5214 0 0 0.3446 332.1133 438.8281)">
	</image>
	
		<image overflow="visible" enable-background="new    " width="52" height="43" xlink:href="56EF9C5AC94BCE1F.jpg"  transform="matrix(0.5417 0 0 0.3133 367.6777 438.4609)">
	</image>
	
		<image overflow="visible" enable-background="new    " width="53" height="41" xlink:href="56EF9C5AC94BCE1C.jpg"  transform="matrix(0.5214 0 0 0.3446 404.2412 439.1445)">
	</image>
	
		<image overflow="visible" enable-background="new    " width="52" height="43" xlink:href="56EF9C5AC94BCE1B.jpg"  transform="matrix(0.5417 0 0 0.3133 332.627 498.3037)">
	</image>
	
		<image overflow="visible" enable-background="new    " width="53" height="41" xlink:href="56EF9C5AC94BCE15.jpg"  transform="matrix(0.5214 0 0 0.3446 368.1914 497.9365)">
	</image>
	
		<image display="none" overflow="visible" enable-background="new    " width="52" height="41" xlink:href="56EF9C5AC94BCE17.jpg"  transform="matrix(0.5417 0 0 0.3446 404.7549 498.6201)">
	</image>
	<rect x="217.5" y="639.5" fill="#FFFFFF" width="41" height="20"/>
</g>
<g id="レイヤー_2">
	
		<image overflow="visible" enable-background="new    " width="49" height="44" xlink:href="56EF9C5AC94BCE14.jpg"  transform="matrix(0.5045 0 0 0.2589 404.7549 497.1846)">
	</image>
	<rect x="166.326" y="23.533" fill="none" width="145.454" height="27.273"/>
	
		<image overflow="visible" enable-background="new    " width="49" height="44" xlink:href="56EF9C5AC94BCEEB.jpg"  transform="matrix(0.5748 0 0 0.2516 130.7417 150.3535)">
	</image>
	
		<image overflow="visible" enable-background="new    " width="51" height="44" xlink:href="56EF9C5AC94BCEED.jpg"  transform="matrix(0.5177 0.0223 -0.0099 0.2289 58.5835 150.5273)">
	</image>
	
		<image overflow="visible" enable-background="new    " width="49" height="44" xlink:href="56EF9C5AC94BCEEF.jpg"  transform="matrix(0.5284 0 0 0.2365 95.9189 150.1729)">
	</image>
	
		<image overflow="visible" enable-background="new    " width="49" height="44" xlink:href="56EF9C5AC94BCEF0.jpg"  transform="matrix(0.5045 0 0 0.2589 773.7373 81.8403)">
	</image>
	
		<image overflow="visible" enable-background="new    " width="49" height="44" xlink:href="56EF9C5AC94BCEEE.jpg"  transform="matrix(0.5045 0 0 0.2589 773.7373 53.0181)">
	</image>
	
		<image overflow="visible" enable-background="new    " width="49" height="44" xlink:href="56EF9C5AC94BCED0.jpg"  transform="matrix(0.5045 0 0 0.2589 773.7373 25.7456)">
	</image>
	
		<image overflow="visible" enable-background="new    " width="49" height="44" xlink:href="56EF9C5AC94BCED3.jpg"  transform="matrix(0.5045 0 0 0.2589 772.0469 -31.6074)">
	</image>
	
		<image overflow="visible" enable-background="new    " width="49" height="44" xlink:href="56EF9C5AC94BCED1.jpg"  transform="matrix(0.5045 0 0 0.2589 772.0479 -62.7197)">
	</image>
	
		<image overflow="visible" enable-background="new    " width="49" height="42" xlink:href="56EF9C5AC94BCED7.jpg"  transform="matrix(0.5045 0 0 0.2841 825.8838 -28.415)">
	</image>
	
		<image overflow="visible" enable-background="new    " width="49" height="44" xlink:href="56EF9C5AC94BCED2.jpg"  transform="matrix(0.5045 0 0 0.2589 825.8848 -62.7197)">
	</image>
	<rect x="217.941" y="641.637" fill="#FFFFFF" stroke="#FFFFFF" stroke-miterlimit="10" width="42.224" height="12.274"/>
	
		<image overflow="visible" enable-background="new    " width="49" height="44" xlink:href="56EF9C5AC94BCEDD.jpg"  transform="matrix(0.5045 0 0 0.2589 132.2417 212.1035)">
	</image>
	
		<image overflow="visible" enable-background="new    " width="49" height="44" xlink:href="56EF9C5AC94BCEDE.jpg"  transform="matrix(0.5045 0 0 0.2589 60.8545 211.1035)">
	</image>
	
		<image overflow="visible" enable-background="new    " width="51" height="44" xlink:href="56EF9C5AC94BCEDF.jpg"  transform="matrix(0.4657 0 0 0.2589 96.4189 211.1035)">
	</image>
	
		<image overflow="visible" enable-background="new    " width="49" height="44" xlink:href="56EF9C5AC94BCEBB.jpg"  transform="matrix(0.5045 0 0 0.2589 130.7417 264.0781)">
	</image>
	
		<image overflow="visible" enable-background="new    " width="51" height="44" xlink:href="56EF9C5AC94BCEBD.jpg"  transform="matrix(0.4657 0 0 0.2589 60.3545 264.0781)">
	</image>
	
		<image overflow="visible" enable-background="new    " width="49" height="44" xlink:href="56EF9C5AC94BCEBF.jpg"  transform="matrix(0.5045 0 0 0.2589 95.9189 264.0781)">
	</image>
	
		<image overflow="visible" enable-background="new    " width="49" height="44" xlink:href="56EF9C5AC94BCEBA.jpg"  transform="matrix(0.5045 0 0 0.2589 130.7554 322.4731)">
	</image>
	
		<image overflow="visible" enable-background="new    " width="51" height="44" xlink:href="56EF9C5AC94BCEB9.jpg"  transform="matrix(0.4657 0 0 0.2589 60.3691 322.4731)">
	</image>
	
		<image overflow="visible" enable-background="new    " width="49" height="44" xlink:href="56EF9C5AC94BCEB5.jpg"  transform="matrix(0.5045 0 0 0.2589 95.9331 322.4731)">
	</image>
	
		<image overflow="visible" enable-background="new    " width="49" height="42" xlink:href="56EF9C5AC94BCEB7.jpg"  transform="matrix(0.5045 0 0 0.2841 130.2417 381.5986)">
	</image>
	
		<image overflow="visible" enable-background="new    " width="49" height="42" xlink:href="56EF9C5AC94BCE4A.jpg"  transform="matrix(0.5045 0 0 0.2841 59.8545 381.5986)">
	</image>
	
		<image overflow="visible" enable-background="new    " width="51" height="42" xlink:href="56EF9C5AC94BCE4B.jpg"  transform="matrix(0.4657 0 0 0.2841 95.4189 381.5986)">
	</image>
	
		<image overflow="visible" enable-background="new    " width="49" height="44" xlink:href="56EF9C5AC94BCE4D.jpg"  transform="matrix(0.5045 0 0 0.2589 285.2178 148.9551)">
	</image>
	
		<image overflow="visible" enable-background="new    " width="49" height="44" xlink:href="56EF9C5AC94BCE6A.jpg"  transform="matrix(0.5045 0 0 0.2589 214.8311 148.9551)">
	</image>
	
		<image overflow="visible" enable-background="new    " width="51" height="44" xlink:href="56EF9C5AC94BCE6D.jpg"  transform="matrix(0.4657 0 0 0.2589 250.3945 148.9551)">
	</image>
	
		<image overflow="visible" enable-background="new    " width="49" height="44" xlink:href="56EF9C5AC94BCE6E.jpg"  transform="matrix(0.5045 0 0 0.2589 285.7178 207.123)">
	</image>
	
		<image overflow="visible" enable-background="new    " width="51" height="44" xlink:href="56EF9C5AC94BCE6C.jpg"  transform="matrix(0.4657 0 0 0.2589 215.3311 207.123)">
	</image>
	
		<image overflow="visible" enable-background="new    " width="49" height="44" xlink:href="56EF9C5AC94BCE6B.jpg"  transform="matrix(0.5045 0 0 0.2589 250.8945 207.123)">
	</image>
	
		<image overflow="visible" enable-background="new    " width="49" height="44" xlink:href="56EF9C5AC94BCE65.jpg"  transform="matrix(0.5045 0 0 0.2589 285.2178 263.0977)">
	</image>
	
		<image overflow="visible" enable-background="new    " width="49" height="44" xlink:href="56EF9C5AC94BCE66.jpg"  transform="matrix(0.5045 0 0 0.2589 214.8311 263.0977)">
	</image>
	
		<image overflow="visible" enable-background="new    " width="51" height="44" xlink:href="56EF9C5AC94BCE64.jpg"  transform="matrix(0.4657 0 0 0.2589 250.3945 263.0977)">
	</image>
	
		<image overflow="visible" enable-background="new    " width="49" height="44" xlink:href="56EF9C5AC94BCE7A.jpg"  transform="matrix(0.5045 0 0 0.2589 285.2324 321.4927)">
	</image>
	
		<image overflow="visible" enable-background="new    " width="49" height="44" xlink:href="56EF9C5AC94BCE7D.jpg"  transform="matrix(0.5045 0 0 0.2589 214.8457 321.4927)">
	</image>
	
		<image overflow="visible" enable-background="new    " width="51" height="44" xlink:href="56EF9C5AC94BCF81.jpg"  transform="matrix(0.4657 0 0 0.2589 250.4092 321.4927)">
	</image>
	
		<image overflow="visible" enable-background="new    " width="49" height="42" xlink:href="56EF9C5AC94BCF83.jpg"  transform="matrix(0.5045 0 0 0.2841 284.7178 380.6182)">
	</image>
	
		<image overflow="visible" enable-background="new    " width="51" height="42" xlink:href="56EF9C5AC94BCF80.jpg"  transform="matrix(0.4657 0 0 0.2841 214.3311 380.6182)">
	</image>
	
		<image overflow="visible" enable-background="new    " width="49" height="42" xlink:href="56EF9C5AC94BCF9F.jpg"  transform="matrix(0.5045 0 0 0.2841 249.8945 380.6182)">
	</image>
	
		<image overflow="visible" enable-background="new    " width="49" height="42" xlink:href="56EF9C5AC94BCF82.jpg"  transform="matrix(0.5045 0 0 0.2841 285.2178 438.5723)">
	</image>
	
		<image overflow="visible" enable-background="new    " width="49" height="42" xlink:href="56EF9C5AC94BCF86.jpg"  transform="matrix(0.5045 0 0 0.2841 214.8311 438.5723)">
	</image>
	
		<image overflow="visible" enable-background="new    " width="51" height="42" xlink:href="56EF9C5AC94BCF87.jpg"  transform="matrix(0.4657 0 0 0.2841 250.3945 438.5723)">
	</image>
	
		<image overflow="visible" enable-background="new    " width="49" height="44" xlink:href="56EF9C5AC94BCF8C.jpg"  transform="matrix(0.5045 0 0 0.2589 404.2412 148.0913)">
	</image>
	
		<image overflow="visible" enable-background="new    " width="49" height="44" xlink:href="56EF9C5AC94BCF8D.jpg"  transform="matrix(0.5045 0 0 0.2589 333.8545 148.0913)">
	</image>
	
		<image overflow="visible" enable-background="new    " width="51" height="44" xlink:href="56EF9C5AC94BCF8E.jpg"  transform="matrix(0.4657 0 0 0.2589 369.418 148.0913)">
	</image>
	
		<image overflow="visible" enable-background="new    " width="49" height="44" xlink:href="56EF9C5AC94BCFA4.jpg"  transform="matrix(0.5045 0 0 0.2589 404.7412 206.2593)">
	</image>
	
		<image overflow="visible" enable-background="new    " width="51" height="44" xlink:href="56EF9C5AC94BCFAB.jpg"  transform="matrix(0.4657 0 0 0.2589 334.3545 206.2593)">
	</image>
	
		<image overflow="visible" enable-background="new    " width="49" height="44" xlink:href="56EF9C5AC94BCFAC.jpg"  transform="matrix(0.5045 0 0 0.2589 369.918 206.2593)">
	</image>
	
		<image overflow="visible" enable-background="new    " width="49" height="44" xlink:href="56EF9C5AC94BCFAF.jpg"  transform="matrix(0.5045 0 0 0.2589 404.2412 262.2339)">
	</image>
	
		<image overflow="visible" enable-background="new    " width="49" height="44" xlink:href="56EF9C5AC94BCFAD.jpg"  transform="matrix(0.5045 0 0 0.2589 333.8545 262.2339)">
	</image>
	
		<image overflow="visible" enable-background="new    " width="51" height="44" xlink:href="56EF9C5AC94BCFAA.jpg"  transform="matrix(0.4657 0 0 0.2589 369.418 262.2339)">
	</image>
	
		<image overflow="visible" enable-background="new    " width="49" height="42" xlink:href="56EF9C5AC94BCFA5.jpg"  transform="matrix(0.5045 0 0 0.2841 404.2559 320.6284)">
	</image>
	
		<image overflow="visible" enable-background="new    " width="49" height="42" xlink:href="56EF9C5AC94BCFA7.jpg"  transform="matrix(0.5045 0 0 0.2841 333.8691 320.6284)">
	</image>
	
		<image overflow="visible" enable-background="new    " width="51" height="42" xlink:href="56EF9C5AC94BCF9A.jpg"  transform="matrix(0.4657 0 0 0.2841 369.4326 320.6284)">
	</image>
	
		<image overflow="visible" enable-background="new    " width="49" height="44" xlink:href="56EF9C5AC94BCF9B.jpg"  transform="matrix(0.5045 0 0 0.2589 403.7412 379.7539)">
	</image>
	
		<image overflow="visible" enable-background="new    " width="51" height="44" xlink:href="56EF9C5AC94BCFF7.jpg"  transform="matrix(0.4657 0 0 0.2589 333.3545 379.7539)">
	</image>
	
		<image overflow="visible" enable-background="new    " width="49" height="44" xlink:href="56EF9C5AC94BCFF9.jpg"  transform="matrix(0.5045 0 0 0.2589 368.918 379.7539)">
	</image>
	
		<image overflow="visible" enable-background="new    " width="49" height="42" xlink:href="56EF9C5AC94BCFFB.jpg"  transform="matrix(0.5045 0 0 0.2841 404.2412 437.709)">
	</image>
	
		<image overflow="visible" enable-background="new    " width="49" height="42" xlink:href="56EF9C5AC94BCFFE.jpg"  transform="matrix(0.5045 0 0 0.2841 333.8545 437.709)">
	</image>
	
		<image overflow="visible" enable-background="new    " width="51" height="42" xlink:href="56EF9C5AC94BCFFF.jpg"  transform="matrix(0.4657 0 0 0.2841 369.418 437.709)">
	</image>
	
		<image overflow="visible" enable-background="new    " width="51" height="44" xlink:href="56EF9C5AC94BCFFA.jpg"  transform="matrix(0.4657 0 0 0.2589 334.3682 497.1846)">
	</image>
	
		<image overflow="visible" enable-background="new    " width="49" height="44" xlink:href="56EF9C5AC94BCFF5.jpg"  transform="matrix(0.5045 0 0 0.2589 369.9316 497.1846)">
	</image>
	<text transform="matrix(1 0 0 1 223.9097 633.0684)" font-family="'KozGoPr6N-Regular-83pv-RKSJ-H'" font-size="14">入口</text>
</g>
</svg>
