<?xml version="1.0" encoding="utf-8"?>
<!-- Generator: Adobe Illustrator 16.0.0, SVG Export Plug-In . SVG Version: 6.00 Build 0)  -->
<!DOCTYPE svg PUBLIC "-//W3C//DTD SVG 1.1//EN" "http://www.w3.org/Graphics/SVG/1.1/DTD/svg11.dtd">
<svg version="1.1" id="レイヤー_1" xmlns="http://www.w3.org/2000/svg" xmlns:xlink="http://www.w3.org/1999/xlink" x="0px"
  y="0px" width="480px" height="720px" viewBox="0 0 480 720" xml:space="preserve">
<g id="レイヤー_1_1_" enable-background="new    ">
  <rect x="29.513" y="100.381" fill="#FFFFFF" stroke="#000000" stroke-width="4" stroke-miterlimit="10" width="419.079" height="547.395"/>
 <rect x="166.326" y="23.533" fill="none" width="145.454" height="27.273"/>
 <text transform="matrix(1 0 0 1 185.9922 37.6982)" font-family="'KozGoPr6N-Regular-83pv-RKSJ-H'" font-size="18">パソコン教</text>
  <text transform="matrix(1 0 0 1 275.9922 37.6982)" font-family="'KozGoPr6N-Regular-83pv-RKSJ-H'" font-size="18" letter-spacing="2">室B</text>
 <rect x="405.601" y="594.886" fill="none" width="31.168" height="18.184"/>
 <text transform="matrix(1 0 0 1 221.9097 613.0684)" font-family="'KozGoPr6N-Regular-83pv-RKSJ-H'" font-size="14">入口</text>
 <rect x="217.941" y="641.637" fill="#FFFFFF" stroke="#FFFFFF" stroke-miterlimit="10" width="42.224" height="12.274"/>
  <image id="pc__" overflow="visible" width="52" height="26" xlink:href="on.jpg"  transform="matrix(0.5334 0 0 0.9459 59.0952 148.3398)" style="desplay:none" />
  <image id="pc__" overflow="visible" width="52" height="26" xlink:href="on.jpg"  transform="matrix(0.5334 0 0 0.9459 95.1631 148.7871)" style="desplay:none" />
  <image id="pc__" overflow="visible" width="52" height="26" xlink:href="on.jpg"  transform="matrix(0.5334 0 0 0.9803 131.2324 148.3398)" style="desplay:none" />
  <image id="pc__" overflow="visible" width="52" height="26" xlink:href="on.jpg"  transform="matrix(0.5334 0 0 0.9459 59.0952 204.4102)" style="desplay:none" />
  <image id="pc__" overflow="visible" width="52" height="26" xlink:href="on.jpg"  transform="matrix(0.5334 0 0 0.9459 95.1631 204.9883)" style="desplay:none" />
  <image id="pc__" overflow="visible" width="52" height="26" xlink:href="on.jpg"  transform="matrix(0.5334 0 0 0.9803 131.2324 204.4102)" style="desplay:none" />
  <image id="pc__" overflow="visible" width="52" height="26" xlink:href="on.jpg"  transform="matrix(0.5334 0 0 0.9459 60.0952 264.5342)" style="desplay:none" />
  <image id="pc__" overflow="visible" width="52" height="26" xlink:href="on.jpg"  transform="matrix(0.5334 0 0 0.9459 96.1631 265.1123)" style="desplay:none" />
  <image id="pc__" overflow="visible" width="52" height="26" xlink:href="on.jpg"  transform="matrix(0.5334 0 0 0.9935 132.2324 264.4292)" style="desplay:none" />
  <image id="pc__" overflow="visible" width="52" height="26" xlink:href="on.jpg"  transform="matrix(0.5334 0 0 0.9459 60.0952 320.6045)" style="desplay:none" />
  <image id="pc__" overflow="visible" width="52" height="26" xlink:href="on.jpg"  transform="matrix(0.5334 0 0 0.9459 96.1631 321.1826)" style="desplay:none" />
  <image id="pc__" overflow="visible" width="52" height="26" xlink:href="on.jpg"  transform="matrix(0.5334 0 0 0.9459 132.2324 321.4995)" style="desplay:none" />
  <image id="pc__" overflow="visible" width="52" height="26" xlink:href="on.jpg"  transform="matrix(0.5334 0 0 0.9459 59.5952 379.4424)" style="desplay:none" />
  <image id="pc__" overflow="visible" width="52" height="26" xlink:href="on.jpg"  transform="matrix(0.5334 0 0 0.9459 95.6631 380.0205)" style="desplay:none" />
  <image id="pc__" overflow="visible" width="52" height="26" xlink:href="on.jpg"  transform="matrix(0.5334 0 0 0.9459 131.7324 380.3379)" style="desplay:none" />
  <image id="pc__" overflow="visible" width="52" height="26" xlink:href="on.jpg"  transform="matrix(0.5334 0 0 0.9459 60.5952 439.5664)" style="desplay:none" />
  <image id="pc__" overflow="visible" width="52" height="26" xlink:href="on.jpg"  transform="matrix(0.5334 0 0 0.9459 96.6631 440.1445)" style="desplay:none" />
  <image id="pc__" overflow="visible" width="52" height="26" xlink:href="on.jpg"  transform="matrix(0.5334 0 0 0.9459 132.7324 440.4609)" style="desplay:none" />
  <image id="pc__" overflow="visible" width="52" height="26" xlink:href="on.jpg"  transform="matrix(0.5334 0 0 0.9459 60.5952 495.6367)" style="desplay:none" />
  <image id="pc__" overflow="visible" width="52" height="26" xlink:href="on.jpg"  transform="matrix(0.5334 0 0 0.9459 96.6631 496.2148)" style="desplay:none" />
  <image id="pc__" overflow="visible" width="52" height="26" xlink:href="on.jpg"  transform="matrix(0.5334 0 0 0.9459 132.7324 496.5322)" style="desplay:none" />
  <image id="pc__" overflow="visible" width="52" height="26" xlink:href="on.jpg"  transform="matrix(0.5334 0 0 0.9459 197.1211 149.4736)" style="desplay:none" />
  <image id="pc__" overflow="visible" width="52" height="26" xlink:href="on.jpg"  transform="matrix(0.5334 0 0 0.9459 233.1895 149.9209)" style="desplay:none" />
  <image id="pc__" overflow="visible" width="52" height="26" xlink:href="on.jpg"  transform="matrix(0.5334 0 0 0.9803 269.2578 149.4736)" style="desplay:none" />
  <image id="pc__" overflow="visible" width="52" height="26" xlink:href="on.jpg"  transform="matrix(0.5334 0 0 0.9459 197.1211 205.5439)" style="desplay:none" />
  <image id="pc__" overflow="visible" width="52" height="26" xlink:href="on.jpg"  transform="matrix(0.5334 0 0 0.9459 233.1895 206.1221)" style="desplay:none" />
  <image id="pc__" overflow="visible" width="52" height="26" xlink:href="on.jpg"  transform="matrix(0.5334 0 0 0.9459 269.2578 206.439)" style="desplay:none" />
  <image id="pc__" overflow="visible" width="52" height="26" xlink:href="on.jpg"  transform="matrix(0.5334 0 0 0.9459 198.1211 265.668)" style="desplay:none" />
  <image id="pc__" overflow="visible" width="52" height="26" xlink:href="on.jpg"  transform="matrix(0.5334 0 0 0.9459 234.1895 266.2461)" style="desplay:none" />
  <image id="pc__" overflow="visible" width="52" height="26" xlink:href="on.jpg"  transform="matrix(0.5334 0 0 0.9459 270.2578 266.563)" style="desplay:none" />
  <image id="pc__" overflow="visible" width="52" height="26" xlink:href="on.jpg"  transform="matrix(0.5334 0 0 0.9459 198.1211 321.7383)" style="desplay:none" />
  <image id="pc__" overflow="visible" width="52" height="26" xlink:href="on.jpg"  transform="matrix(0.5334 0 0 0.9459 234.1895 322.3164)" style="desplay:none" />
  <image id="pc__" overflow="visible" width="52" height="26" xlink:href="on.jpg"  transform="matrix(0.5334 0 0 0.9459 270.2578 322.6333)" style="desplay:none" />
  <image id="pc__" overflow="visible" width="52" height="26" xlink:href="on.jpg"  transform="matrix(0.5334 0 0 0.9459 197.6211 380.5762)" style="desplay:none" />
  <image id="pc__" overflow="visible" width="52" height="26" xlink:href="on.jpg"  transform="matrix(0.5334 0 0 0.9459 233.6895 381.1543)" style="desplay:none" />
  <image id="pc__" overflow="visible" width="52" height="26" xlink:href="on.jpg"  transform="matrix(0.5334 0 0 0.9459 269.7578 381.4717)" style="desplay:none" />
  <image id="pc__" overflow="visible" width="52" height="26" xlink:href="on.jpg"  transform="matrix(0.5334 0 0 0.9459 198.6211 440.7002)" style="desplay:none" />
  <image id="pc__" overflow="visible" width="52" height="26" xlink:href="on.jpg"  transform="matrix(0.5334 0 0 0.9459 234.6895 440.2783)" style="desplay:none" />
  <image id="pc__" overflow="visible" width="52" height="26" xlink:href="on.jpg"  transform="matrix(0.5334 0 0 0.9459 270.7578 440.5947)" style="desplay:none" />
  <image id="pc__" overflow="visible" width="52" height="26" xlink:href="on.jpg"  transform="matrix(0.5334 0 0 0.9459 328.1211 150.4399)" style="desplay:none" />
  <image id="pc__" overflow="visible" width="52" height="26" xlink:href="on.jpg"  transform="matrix(0.5334 0 0 0.9459 364.1895 150.8872)" style="desplay:none" />
  <image id="pc__" overflow="visible" width="52" height="26" xlink:href="on.jpg"  transform="matrix(0.5334 0 0 0.9803 400.2578 150.4399)" style="desplay:none" />
  <image id="pc__" overflow="visible" width="52" height="26" xlink:href="on.jpg"  transform="matrix(0.5334 0 0 0.9459 328.1211 206.5103)" style="desplay:none" />
  <image id="pc__" overflow="visible" width="52" height="26" xlink:href="on.jpg"  transform="matrix(0.5334 0 0 0.9459 364.1895 207.0884)" style="desplay:none" />
  <image id="pc__" overflow="visible" width="52" height="26" xlink:href="on.jpg"  transform="matrix(0.5334 0 0 0.9803 400.2578 206.5103)" style="desplay:none" />
  <image id="pc__" overflow="visible" width="52" height="26" xlink:href="on.jpg"  transform="matrix(0.5334 0 0 0.9459 329.1211 266.6343)" style="desplay:none" />
  <image id="pc__" overflow="visible" width="52" height="26" xlink:href="on.jpg"  transform="matrix(0.5334 0 0 0.9709 365.1895 266.563)" style="desplay:none" />
  <image id="pc__" overflow="visible" width="52" height="26" xlink:href="on.jpg"  transform="matrix(0.5334 0 0 0.9459 401.2578 267.5293)" style="desplay:none" />
  <image id="pc__" overflow="visible" width="52" height="26" xlink:href="on.jpg"  transform="matrix(0.5334 0 0 0.9459 329.1211 322.7046)" style="desplay:none" />
  <image id="pc__" overflow="visible" width="52" height="26" xlink:href="on.jpg"  transform="matrix(0.5334 0 0 0.9459 401.2578 323.5991)" style="desplay:none" />
  <image id="pc__" overflow="visible" width="52" height="26" xlink:href="on.jpg"  transform="matrix(0.5334 0 0 0.9459 328.6211 381.543)" style="desplay:none" />
  <image id="pc__" overflow="visible" width="52" height="26" xlink:href="on.jpg"  transform="matrix(0.5334 0 0 0.9459 400.7578 382.4375)" style="desplay:none" />
</g>
<g id="レイヤー_2">
  <image id="pc__" overflow="visible" width="48" height="23" xlink:href="on.jpg"  transform="matrix(0.5858 0 0 0.9474 58.7124 149.7417)" style="desplay:none" />
  <image id="pc__" overflow="visible" width="48" height="23" xlink:href="on.jpg"  transform="matrix(0.5858 0 0 0.9474 95.4717 149.7417)" style="desplay:none" />
  <image id="pc__" overflow="visible" width="48" height="23" xlink:href="on.jpg"  transform="matrix(0.5858 0 0 0.9474 131.041 150.8755)" style="desplay:none" />
  <image id="pc__" overflow="visible" width="48" height="23" xlink:href="on.jpg"  transform="matrix(0.5858 0 0 0.9474 58.8076 205.2451)" style="desplay:none" />
  <image id="pc__" overflow="visible" width="48" height="23" xlink:href="on.jpg"  transform="matrix(0.5858 0 0 0.9474 95.5669 205.2451)" style="desplay:none" />
  <image id="pc__" overflow="visible" width="48" height="23" xlink:href="on.jpg"  transform="matrix(0.5858 0 0 0.9474 131.1367 206.3789)" style="desplay:none" />
  <image id="pc__" overflow="visible" width="48" height="23" xlink:href="on.jpg"  transform="matrix(0.5858 0 0 0.9474 58.8076 265.8838)" style="desplay:none" />
  <image id="pc__" overflow="visible" width="48" height="23" xlink:href="on.jpg"  transform="matrix(0.5858 0 0 0.9474 95.5669 265.8838)" style="desplay:none" />
  <image id="pc__" overflow="visible" width="48" height="23" xlink:href="on.jpg"  transform="matrix(0.5858 0 0 0.9474 131.1367 267.0176)" style="desplay:none" />
  <image id="pc__" overflow="visible" width="48" height="23" xlink:href="on.jpg"  transform="matrix(0.5858 0 0 0.9474 60.3076 321.4395)" style="desplay:none" />
  <image id="pc__" overflow="visible" width="48" height="23" xlink:href="on.jpg"  transform="matrix(0.5858 0 0 0.9474 97.0669 321.4395)" style="desplay:none" />
  <image id="pc__" overflow="visible" width="48" height="23" xlink:href="on.jpg"  transform="matrix(0.5858 0 0 0.9474 132.6367 322.5732)" style="desplay:none" />
  <image id="pc__" overflow="visible" width="48" height="23" xlink:href="on.jpg"  transform="matrix(0.5858 0 0 0.9474 60.498 380.2783)" style="desplay:none" />
  <image id="pc__" overflow="visible" width="48" height="23" xlink:href="on.jpg"  transform="matrix(0.5858 0 0 0.9474 97.2578 380.2783)" style="desplay:none" />
  <image id="pc__" overflow="visible" width="48" height="23" xlink:href="on.jpg"  transform="matrix(0.5858 0 0 0.9474 132.8271 381.4111)" style="desplay:none" />
  <image id="pc__" overflow="visible" width="48" height="23" xlink:href="on.jpg"  transform="matrix(0.5858 0 0 0.9474 60.9028 440.4004)" style="desplay:none" />
  <image id="pc__" overflow="visible" width="48" height="23" xlink:href="on.jpg"  transform="matrix(0.5858 0 0 0.9474 97.6626 440.4004)" style="desplay:none" />
  <image id="pc__" overflow="visible" width="48" height="23" xlink:href="on.jpg"  transform="matrix(0.5858 0 0 0.9474 133.2319 441.5352)" style="desplay:none" />
  <image id="pc__" overflow="visible" width="48" height="23" xlink:href="on.jpg"  transform="matrix(0.5858 0 0 0.9474 59.8076 496.4707)" style="desplay:none" />
  <image id="pc__" overflow="visible" width="48" height="23" xlink:href="on.jpg"  transform="matrix(0.5858 0 0 0.9474 96.5669 496.4707)" style="desplay:none" />
  <image id="pc__" overflow="visible" width="48" height="23" xlink:href="on.jpg"  transform="matrix(0.5858 0 0 0.9474 132.1367 497.6055)" style="desplay:none" />
  <image id="pc__" overflow="visible" width="48" height="23" xlink:href="on.jpg"  transform="matrix(0.5858 0 0 0.9474 196.8335 150.7559)" style="desplay:none" />
  <image id="pc__" overflow="visible" width="48" height="23" xlink:href="on.jpg"  transform="matrix(0.5858 0 0 0.9474 233.5928 150.7559)" style="desplay:none" />
  <image id="pc__" overflow="visible" width="48" height="23" xlink:href="on.jpg"  transform="matrix(0.5858 0 0 0.9474 269.1621 151.8896)" style="desplay:none" />
  <image id="pc__" overflow="visible" width="48" height="23" xlink:href="on.jpg"  transform="matrix(0.5858 0 0 0.9474 196.8335 207.6929)" style="desplay:none" />
  <image id="pc__" overflow="visible" width="48" height="23" xlink:href="on.jpg"  transform="matrix(0.5858 0 0 0.9474 233.5928 207.6929)" style="desplay:none" />
  <image id="pc__" overflow="visible" width="48" height="23" xlink:href="on.jpg"  transform="matrix(0.5858 0 0 0.9474 269.1621 208.8267)" style="desplay:none" />
  <image id="pc__" overflow="visible" width="48" height="23" xlink:href="on.jpg"  transform="matrix(0.5858 0 0 0.9474 198.3335 266.5029)" style="desplay:none" />
  <image id="pc__" overflow="visible" width="48" height="23" xlink:href="on.jpg"  transform="matrix(0.5858 0 0 0.9474 235.0928 266.5029)" style="desplay:none" />
  <image id="pc__" overflow="visible" width="48" height="23" xlink:href="on.jpg"  transform="matrix(0.5858 0 0 0.9474 270.6621 267.6367)" style="desplay:none" />
  <image id="pc__" overflow="visible" width="48" height="23" xlink:href="on.jpg"  transform="matrix(0.5858 0 0 0.9474 198.9292 322.5732)" style="desplay:none" />
  <image id="pc__" overflow="visible" width="48" height="23" xlink:href="on.jpg"  transform="matrix(0.5858 0 0 0.9474 235.6885 322.5732)" style="desplay:none" />
  <image id="pc__" overflow="visible" width="48" height="23" xlink:href="on.jpg"  transform="matrix(0.5858 0 0 0.9474 271.2578 323.707)" style="desplay:none" />
  <image id="pc__" overflow="visible" width="48" height="23" xlink:href="on.jpg"  transform="matrix(0.5858 0 0 0.9474 196.8335 381.9883)" style="desplay:none" />
  <image id="pc__" overflow="visible" width="48" height="23" xlink:href="on.jpg"  transform="matrix(0.5858 0 0 0.9474 233.5928 381.9883)" style="desplay:none" />
  <image id="pc__" overflow="visible" width="48" height="23" xlink:href="on.jpg"  transform="matrix(0.5858 0 0 0.9474 269.1621 383.123)" style="desplay:none" />
  <image id="pc__" overflow="visible" width="48" height="23" xlink:href="on.jpg"  transform="matrix(0.5858 0 0 0.9474 196.8335 441.5352)" style="desplay:none" />
  <image id="pc__" overflow="visible" width="48" height="23" xlink:href="on.jpg"  transform="matrix(0.5858 0 0 0.9474 233.5928 441.5352)" style="desplay:none" />
  <image id="pc__" overflow="visible" width="48" height="23" xlink:href="on.jpg"  transform="matrix(0.5858 0 0 0.9474 269.1621 442.668)" style="desplay:none" />
  <image id="pc__" overflow="visible" width="48" height="23" xlink:href="on.jpg"  transform="matrix(0.5858 0 0 0.9474 327.833 151.7559)" style="desplay:none" />
  <image id="pc__" overflow="visible" width="48" height="23" xlink:href="on.jpg"  transform="matrix(0.5858 0 0 0.9474 364.5928 151.7559)" style="desplay:none" />
  <image id="pc__" overflow="visible" width="48" height="23" xlink:href="on.jpg"  transform="matrix(0.5858 0 0 0.9474 400.1621 152.8896)" style="desplay:none" />
  <image id="pc__" overflow="visible" width="48" height="23" xlink:href="on.jpg"  transform="matrix(0.5858 0 0 0.9474 327.833 207.793)" style="desplay:none" />
  <image id="pc__" overflow="visible" width="48" height="23" xlink:href="on.jpg"  transform="matrix(0.5858 0 0 0.9474 364.5928 207.793)" style="desplay:none" />
  <image id="pc__" overflow="visible" width="48" height="23" xlink:href="on.jpg"  transform="matrix(0.5858 0 0 0.9474 400.1621 208.9268)" style="desplay:none" />
  <image id="pc__" overflow="visible" width="48" height="23" xlink:href="on.jpg"  transform="matrix(0.5858 0 0 0.9474 328.833 268.5029)" style="desplay:none" />
  <image id="pc__" overflow="visible" width="48" height="23" xlink:href="on.jpg"  transform="matrix(0.5858 0 0 0.9474 365.5928 268.5029)" style="desplay:none" />
  <image id="pc__" overflow="visible" width="48" height="23" xlink:href="on.jpg"  transform="matrix(0.5858 0 0 0.9474 401.1621 269.6367)" style="desplay:none" />
  <image id="pc__" overflow="visible" width="48" height="23" xlink:href="on.jpg"  transform="matrix(0.5858 0 0 0.9474 327.833 323.5396)" style="desplay:none" />
  <image id="pc__" overflow="visible" width="48" height="23" xlink:href="on.jpg"  transform="matrix(0.5858 0 0 0.9474 400.1621 324.6733)" style="desplay:none" />
  <image id="pc__" overflow="visible" width="48" height="23" xlink:href="on.jpg"  transform="matrix(0.5858 0 0 0.9474 327.833 382.5566)" style="desplay:none" />
  <image id="pc__" overflow="visible" width="48" height="23" xlink:href="on.jpg"  transform="matrix(0.5858 0 0 0.9474 400.1621 383.6895)" style="desplay:none" />
</g>
<script xlink:href="http://ajax.googleapis.com/ajax/libs/jquery/1.7.2/jquery.min.js" />
<script xlink:href="innersvg.js" />
<script xlink:href="room.js" />
<script xlink:href="roomT.js" />
</svg>
