<?xml version="1.0" encoding="utf-8"?>
<!-- Generator: Adobe Illustrator 16.0.0, SVG Export Plug-In . SVG Version: 6.00 Build 0)  -->
<!DOCTYPE svg PUBLIC "-//W3C//DTD SVG 1.1//EN" "http://www.w3.org/Graphics/SVG/1.1/DTD/svg11.dtd">
<svg version="1.1" id="レイヤー_1" xmlns="http://www.w3.org/2000/svg" xmlns:xlink="http://www.w3.org/1999/xlink" x="0px"
  y="0px" width="480px" height="1300px" viewBox="0 0 480 1300" enable-background="new 0 0 480 1300" xml:space="preserve">
<g id="ajax_loader">
  <image xlink:href="ajax-loader.gif" width="32" height="32" x="100" y="100"/>
</g>
<g id="pc_map" style="display:none">
<g id="timetable" transform="translate(50, 650)" font-family="KozGoPr6N-Regular-83pv-RKSJ-H" font-size="18">
  <text id="timetable_name" x="0" y="0"/>
  <text id="period_1" x="0" y="20"/>
  <text id="subject_1" x="0" y="40"/>
  <text id="lecturer_1" x="0" y="60"/>
  <text id="period_2" x="0" y="100"/>
  <text id="subject_2" x="0" y="120"/>
  <text id="lecturer_2" x="0" y="140"/>
  <text id="period_3" x="0" y="180"/>
  <text id="subject_3" x="0" y="200"/>
  <text id="lecturer_3" x="0" y="220"/>
  <text id="period_4" x="0" y="260"/>
  <text id="subject_4" x="0" y="280"/>
  <text id="lecturer_4" x="0" y="300"/>
  <text id="period_5" x="0" y="340"/>
  <text id="subject_5" x="0" y="360"/>
  <text id="lecturer_5" x="0" y="380"/>
  <text id="period_6" x="0" y="420"/>
  <text id="subject_6" x="0" y="440"/>
  <text id="lecturer_6" x="0" y="460"/>
  <rect x="0" y="0" stroke="#000000" fill="none" width="400" height="75"/>
  <rect x="0" y="80" stroke="#000000" fill="none" width="400" height="75"/>
  <rect x="0" y="160" stroke="#000000" fill="none" width="400" height="75"/>
  <rect x="0" y="240" stroke="#000000" fill="none" width="400" height="75"/>
  <rect x="0" y="320" stroke="#000000" fill="none" width="400" height="75"/>
  <rect x="0" y="400" stroke="#000000" fill="none" width="400" height="75"/>
</g>
<text transform="matrix(1 0 0 1 185.9922 37.6982)" font-family="'KozGoPr6N-Regular-83pv-RKSJ-H'" font-size="18" id="room_id" />
<g id="japanese_words">
  <text transform="matrix(1 0 0 1 221.9097 613.0684)" font-family="'KozGoPr6N-Regular-83pv-RKSJ-H'" font-size="14">入口</text>
</g>
<g id="english_words" style="display:none">
  <text transform="matrix(1 0 0 1 221.9097 613.0684)" font-family="'KozGoPr6N-Regular-83pv-RKSJ-H'" font-size="14">Entrance</text>
</g>
<path id="wall" d="m300,600 h150 v-540 h-420 v540 h 150" fill="none" stroke="black" stroke-width="3"/>
<g id="on">
  <image id="pc_1_on" overflow="visible" width="52" height="26" xlink:href="on.jpg"  transform="matrix(0.5334 0 0 0.9459 59.0952 148.3398)" style="display:none" />
  <image id="pc_2_on" overflow="visible" width="52" height="26" xlink:href="on.jpg"  transform="matrix(0.5334 0 0 0.9459 95.1631 148.7871)" style="display:none" />
  <image id="pc_3_on" overflow="visible" width="52" height="26" xlink:href="on.jpg"  transform="matrix(0.5334 0 0 0.9803 131.2324 148.3398)" style="display:none" />
  <image id="pc_4_on" overflow="visible" width="52" height="26" xlink:href="on.jpg"  transform="matrix(0.5334 0 0 0.9459 59.0952 204.4102)" style="display:none" />
  <image id="pc_5_on" overflow="visible" width="52" height="26" xlink:href="on.jpg"  transform="matrix(0.5334 0 0 0.9459 95.1631 204.9883)" style="display:none" />
  <image id="pc_6_on" overflow="visible" width="52" height="26" xlink:href="on.jpg"  transform="matrix(0.5334 0 0 0.9803 131.2324 204.4102)" style="display:none" />
  <image id="pc_7_on" overflow="visible" width="52" height="26" xlink:href="on.jpg"  transform="matrix(0.5334 0 0 0.9459 60.0952 264.5342)" style="display:none" />
  <image id="pc_8_on" overflow="visible" width="52" height="26" xlink:href="on.jpg"  transform="matrix(0.5334 0 0 0.9459 96.1631 265.1123)" style="display:none" />
  <image id="pc_9_on" overflow="visible" width="52" height="26" xlink:href="on.jpg"  transform="matrix(0.5334 0 0 0.9935 132.2324 264.4292)" style="display:none" />
  <image id="pc_10_on" overflow="visible" width="52" height="26" xlink:href="on.jpg"  transform="matrix(0.5334 0 0 0.9459 60.0952 320.6045)" style="display:none" />
  <image id="pc_11_on" overflow="visible" width="52" height="26" xlink:href="on.jpg"  transform="matrix(0.5334 0 0 0.9459 96.1631 321.1826)" style="display:none" />
  <image id="pc_12_on" overflow="visible" width="52" height="26" xlink:href="on.jpg"  transform="matrix(0.5334 0 0 0.9459 132.2324 321.4995)" style="display:none" />
  <image id="pc_13_on" overflow="visible" width="52" height="26" xlink:href="on.jpg"  transform="matrix(0.5334 0 0 0.9459 59.5952 379.4424)" style="display:none" />
  <image id="pc_14_on" overflow="visible" width="52" height="26" xlink:href="on.jpg"  transform="matrix(0.5334 0 0 0.9459 95.6631 380.0205)" style="display:none" />
  <image id="pc_15_on" overflow="visible" width="52" height="26" xlink:href="on.jpg"  transform="matrix(0.5334 0 0 0.9459 131.7324 380.3379)" style="display:none" />
  <image id="pc_16_on" overflow="visible" width="52" height="26" xlink:href="on.jpg"  transform="matrix(0.5334 0 0 0.9459 60.5952 439.5664)" style="display:none" />
  <image id="pc_17_on" overflow="visible" width="52" height="26" xlink:href="on.jpg"  transform="matrix(0.5334 0 0 0.9459 96.6631 440.1445)" style="display:none" />
  <image id="pc_18_on" overflow="visible" width="52" height="26" xlink:href="on.jpg"  transform="matrix(0.5334 0 0 0.9459 132.7324 440.4609)" style="display:none" />
  <image id="pc_19_on" overflow="visible" width="52" height="26" xlink:href="on.jpg"  transform="matrix(0.5334 0 0 0.9459 60.5952 495.6367)" style="display:none" />
  <image id="pc_20_on" overflow="visible" width="52" height="26" xlink:href="on.jpg"  transform="matrix(0.5334 0 0 0.9459 96.6631 496.2148)" style="display:none" />
  <image id="pc_21_on" overflow="visible" width="52" height="26" xlink:href="on.jpg"  transform="matrix(0.5334 0 0 0.9459 132.7324 496.5322)" style="display:none" />
  <image id="pc_22_on" overflow="visible" width="52" height="26" xlink:href="on.jpg"  transform="matrix(0.5334 0 0 0.9459 197.1211 149.4736)" style="display:none" />
  <image id="pc_23_on" overflow="visible" width="52" height="26" xlink:href="on.jpg"  transform="matrix(0.5334 0 0 0.9459 233.1895 149.9209)" style="display:none" />
  <image id="pc_24_on" overflow="visible" width="52" height="26" xlink:href="on.jpg"  transform="matrix(0.5334 0 0 0.9803 269.2578 149.4736)" style="display:none" />
  <image id="pc_25_on" overflow="visible" width="52" height="26" xlink:href="on.jpg"  transform="matrix(0.5334 0 0 0.9459 197.1211 205.5439)" style="display:none" />
  <image id="pc_26_on" overflow="visible" width="52" height="26" xlink:href="on.jpg"  transform="matrix(0.5334 0 0 0.9459 233.1895 206.1221)" style="display:none" />
  <image id="pc_27_on" overflow="visible" width="52" height="26" xlink:href="on.jpg"  transform="matrix(0.5334 0 0 0.9459 269.2578 206.439)" style="display:none" />
  <image id="pc_28_on" overflow="visible" width="52" height="26" xlink:href="on.jpg"  transform="matrix(0.5334 0 0 0.9459 198.1211 265.668)" style="display:none" />
  <image id="pc_29_on" overflow="visible" width="52" height="26" xlink:href="on.jpg"  transform="matrix(0.5334 0 0 0.9459 234.1895 266.2461)" style="display:none" />
  <image id="pc_30_on" overflow="visible" width="52" height="26" xlink:href="on.jpg"  transform="matrix(0.5334 0 0 0.9459 270.2578 266.563)" style="display:none" />
  <image id="pc_31_on" overflow="visible" width="52" height="26" xlink:href="on.jpg"  transform="matrix(0.5334 0 0 0.9459 198.1211 321.7383)" style="display:none" />
  <image id="pc_32_on" overflow="visible" width="52" height="26" xlink:href="on.jpg"  transform="matrix(0.5334 0 0 0.9459 234.1895 322.3164)" style="display:none" />
  <image id="pc_33_on" overflow="visible" width="52" height="26" xlink:href="on.jpg"  transform="matrix(0.5334 0 0 0.9459 270.2578 322.6333)" style="display:none" />
  <image id="pc_34_on" overflow="visible" width="52" height="26" xlink:href="on.jpg"  transform="matrix(0.5334 0 0 0.9459 197.6211 380.5762)" style="display:none" />
  <image id="pc_35_on" overflow="visible" width="52" height="26" xlink:href="on.jpg"  transform="matrix(0.5334 0 0 0.9459 233.6895 381.1543)" style="display:none" />
  <image id="pc_36_on" overflow="visible" width="52" height="26" xlink:href="on.jpg"  transform="matrix(0.5334 0 0 0.9459 269.7578 381.4717)" style="display:none" />
  <image id="pc_37_on" overflow="visible" width="52" height="26" xlink:href="on.jpg"  transform="matrix(0.5334 0 0 0.9459 198.6211 440.7002)" style="display:none" />
  <image id="pc_38_on" overflow="visible" width="52" height="26" xlink:href="on.jpg"  transform="matrix(0.5334 0 0 0.9459 234.6895 440.2783)" style="display:none" />
  <image id="pc_39_on" overflow="visible" width="52" height="26" xlink:href="on.jpg"  transform="matrix(0.5334 0 0 0.9459 270.7578 440.5947)" style="display:none" />
  <image id="pc_40_on" overflow="visible" width="52" height="26" xlink:href="on.jpg"  transform="matrix(0.5334 0 0 0.9459 328.1211 150.4399)" style="display:none" />
  <image id="pc_41_on" overflow="visible" width="52" height="26" xlink:href="on.jpg"  transform="matrix(0.5334 0 0 0.9459 364.1895 150.8872)" style="display:none" />
  <image id="pc_42_on" overflow="visible" width="52" height="26" xlink:href="on.jpg"  transform="matrix(0.5334 0 0 0.9803 400.2578 150.4399)" style="display:none" />
  <image id="pc_43_on" overflow="visible" width="52" height="26" xlink:href="on.jpg"  transform="matrix(0.5334 0 0 0.9459 328.1211 206.5103)" style="display:none" />
  <image id="pc_44_on" overflow="visible" width="52" height="26" xlink:href="on.jpg"  transform="matrix(0.5334 0 0 0.9459 364.1895 207.0884)" style="display:none" />
  <image id="pc_45_on" overflow="visible" width="52" height="26" xlink:href="on.jpg"  transform="matrix(0.5334 0 0 0.9803 400.2578 206.5103)" style="display:none" />
  <image id="pc_46_on" overflow="visible" width="52" height="26" xlink:href="on.jpg"  transform="matrix(0.5334 0 0 0.9459 329.1211 266.6343)" style="display:none" />
  <image id="pc_47_on" overflow="visible" width="52" height="26" xlink:href="on.jpg"  transform="matrix(0.5334 0 0 0.9709 365.1895 266.563)" style="display:none" />
  <image id="pc_48_on" overflow="visible" width="52" height="26" xlink:href="on.jpg"  transform="matrix(0.5334 0 0 0.9459 401.2578 267.5293)" style="display:none" />
  <image id="pc_49_on" overflow="visible" width="52" height="26" xlink:href="on.jpg"  transform="matrix(0.5334 0 0 0.9459 329.1211 322.7046)" style="display:none" />
  <image id="pc_50_on" overflow="visible" width="52" height="26" xlink:href="on.jpg"  transform="matrix(0.5334 0 0 0.9459 401.2578 323.5991)" style="display:none" />
  <image id="pc_51_on" overflow="visible" width="52" height="26" xlink:href="on.jpg"  transform="matrix(0.5334 0 0 0.9459 328.6211 381.543)" style="display:none" />
  <image id="pc_52_on" overflow="visible" width="52" height="26" xlink:href="on.jpg"  transform="matrix(0.5334 0 0 0.9459 400.7578 382.4375)" style="display:none" />
</g>
<g id="off">
  <image id="pc_1_off" overflow="visible" width="48" height="23" xlink:href="off.jpg"  transform="matrix(0.5858 0 0 0.9474 58.7124 149.7417)" />
  <image id="pc_2_off" overflow="visible" width="48" height="23" xlink:href="off.jpg"  transform="matrix(0.5858 0 0 0.9474 95.4717 149.7417)" />
  <image id="pc_3_off" overflow="visible" width="48" height="23" xlink:href="off.jpg"  transform="matrix(0.5858 0 0 0.9474 131.041 150.8755)" />
  <image id="pc_4_off" overflow="visible" width="48" height="23" xlink:href="off.jpg"  transform="matrix(0.5858 0 0 0.9474 58.8076 205.2451)" />
  <image id="pc_5_off" overflow="visible" width="48" height="23" xlink:href="off.jpg"  transform="matrix(0.5858 0 0 0.9474 95.5669 205.2451)" />
  <image id="pc_6_off" overflow="visible" width="48" height="23" xlink:href="off.jpg"  transform="matrix(0.5858 0 0 0.9474 131.1367 206.3789)" />
  <image id="pc_7_off" overflow="visible" width="48" height="23" xlink:href="off.jpg"  transform="matrix(0.5858 0 0 0.9474 58.8076 265.8838)" />
  <image id="pc_8_off" overflow="visible" width="48" height="23" xlink:href="off.jpg"  transform="matrix(0.5858 0 0 0.9474 95.5669 265.8838)" />
  <image id="pc_9_off" overflow="visible" width="48" height="23" xlink:href="off.jpg"  transform="matrix(0.5858 0 0 0.9474 131.1367 267.0176)" />
  <image id="pc_10_off" overflow="visible" width="48" height="23" xlink:href="off.jpg"  transform="matrix(0.5858 0 0 0.9474 60.3076 321.4395)" />
  <image id="pc_11_off" overflow="visible" width="48" height="23" xlink:href="off.jpg"  transform="matrix(0.5858 0 0 0.9474 97.0669 321.4395)" />
  <image id="pc_12_off" overflow="visible" width="48" height="23" xlink:href="off.jpg"  transform="matrix(0.5858 0 0 0.9474 132.6367 322.5732)" />
  <image id="pc_13_off" overflow="visible" width="48" height="23" xlink:href="off.jpg"  transform="matrix(0.5858 0 0 0.9474 60.498 380.2783)" />
  <image id="pc_14_off" overflow="visible" width="48" height="23" xlink:href="off.jpg"  transform="matrix(0.5858 0 0 0.9474 97.2578 380.2783)" />
  <image id="pc_15_off" overflow="visible" width="48" height="23" xlink:href="off.jpg"  transform="matrix(0.5858 0 0 0.9474 132.8271 381.4111)" />
  <image id="pc_16_off" overflow="visible" width="48" height="23" xlink:href="off.jpg"  transform="matrix(0.5858 0 0 0.9474 60.9028 440.4004)" />
  <image id="pc_17_off" overflow="visible" width="48" height="23" xlink:href="off.jpg"  transform="matrix(0.5858 0 0 0.9474 97.6626 440.4004)" />
  <image id="pc_18_off" overflow="visible" width="48" height="23" xlink:href="off.jpg"  transform="matrix(0.5858 0 0 0.9474 133.2319 441.5352)" />
  <image id="pc_19_off" overflow="visible" width="48" height="23" xlink:href="off.jpg"  transform="matrix(0.5858 0 0 0.9474 59.8076 496.4707)" />
  <image id="pc_20_off" overflow="visible" width="48" height="23" xlink:href="off.jpg"  transform="matrix(0.5858 0 0 0.9474 96.5669 496.4707)" />
  <image id="pc_21_off" overflow="visible" width="48" height="23" xlink:href="off.jpg"  transform="matrix(0.5858 0 0 0.9474 132.1367 497.6055)" />
  <image id="pc_22_off" overflow="visible" width="48" height="23" xlink:href="off.jpg"  transform="matrix(0.5858 0 0 0.9474 196.8335 150.7559)" />
  <image id="pc_23_off" overflow="visible" width="48" height="23" xlink:href="off.jpg"  transform="matrix(0.5858 0 0 0.9474 233.5928 150.7559)" />
  <image id="pc_24_off" overflow="visible" width="48" height="23" xlink:href="off.jpg"  transform="matrix(0.5858 0 0 0.9474 269.1621 151.8896)" />
  <image id="pc_25_off" overflow="visible" width="48" height="23" xlink:href="off.jpg"  transform="matrix(0.5858 0 0 0.9474 196.8335 207.6929)" />
  <image id="pc_26_off" overflow="visible" width="48" height="23" xlink:href="off.jpg"  transform="matrix(0.5858 0 0 0.9474 233.5928 207.6929)" />
  <image id="pc_27_off" overflow="visible" width="48" height="23" xlink:href="off.jpg"  transform="matrix(0.5858 0 0 0.9474 269.1621 208.8267)" />
  <image id="pc_28_off" overflow="visible" width="48" height="23" xlink:href="off.jpg"  transform="matrix(0.5858 0 0 0.9474 198.3335 266.5029)" />
  <image id="pc_29_off" overflow="visible" width="48" height="23" xlink:href="off.jpg"  transform="matrix(0.5858 0 0 0.9474 235.0928 266.5029)" />
  <image id="pc_30_off" overflow="visible" width="48" height="23" xlink:href="off.jpg"  transform="matrix(0.5858 0 0 0.9474 270.6621 267.6367)" />
  <image id="pc_31_off" overflow="visible" width="48" height="23" xlink:href="off.jpg"  transform="matrix(0.5858 0 0 0.9474 198.9292 322.5732)" />
  <image id="pc_32_off" overflow="visible" width="48" height="23" xlink:href="off.jpg"  transform="matrix(0.5858 0 0 0.9474 235.6885 322.5732)" />
  <image id="pc_33_off" overflow="visible" width="48" height="23" xlink:href="off.jpg"  transform="matrix(0.5858 0 0 0.9474 271.2578 323.707)" />
  <image id="pc_34_off" overflow="visible" width="48" height="23" xlink:href="off.jpg"  transform="matrix(0.5858 0 0 0.9474 196.8335 381.9883)" />
  <image id="pc_35_off" overflow="visible" width="48" height="23" xlink:href="off.jpg"  transform="matrix(0.5858 0 0 0.9474 233.5928 381.9883)" />
  <image id="pc_36_off" overflow="visible" width="48" height="23" xlink:href="off.jpg"  transform="matrix(0.5858 0 0 0.9474 269.1621 383.123)" />
  <image id="pc_37_off" overflow="visible" width="48" height="23" xlink:href="off.jpg"  transform="matrix(0.5858 0 0 0.9474 196.8335 441.5352)" />
  <image id="pc_38_off" overflow="visible" width="48" height="23" xlink:href="off.jpg"  transform="matrix(0.5858 0 0 0.9474 233.5928 441.5352)" />
  <image id="pc_39_off" overflow="visible" width="48" height="23" xlink:href="off.jpg"  transform="matrix(0.5858 0 0 0.9474 269.1621 442.668)" />
  <image id="pc_40_off" overflow="visible" width="48" height="23" xlink:href="off.jpg"  transform="matrix(0.5858 0 0 0.9474 327.833 151.7559)" />
  <image id="pc_41_off" overflow="visible" width="48" height="23" xlink:href="off.jpg"  transform="matrix(0.5858 0 0 0.9474 364.5928 151.7559)" />
  <image id="pc_42_off" overflow="visible" width="48" height="23" xlink:href="off.jpg"  transform="matrix(0.5858 0 0 0.9474 400.1621 152.8896)" />
  <image id="pc_43_off" overflow="visible" width="48" height="23" xlink:href="off.jpg"  transform="matrix(0.5858 0 0 0.9474 327.833 207.793)" />
  <image id="pc_44_off" overflow="visible" width="48" height="23" xlink:href="off.jpg"  transform="matrix(0.5858 0 0 0.9474 364.5928 207.793)" />
  <image id="pc_45_off" overflow="visible" width="48" height="23" xlink:href="off.jpg"  transform="matrix(0.5858 0 0 0.9474 400.1621 208.9268)" />
  <image id="pc_46_off" overflow="visible" width="48" height="23" xlink:href="off.jpg"  transform="matrix(0.5858 0 0 0.9474 328.833 268.5029)" />
  <image id="pc_47_off" overflow="visible" width="48" height="23" xlink:href="off.jpg"  transform="matrix(0.5858 0 0 0.9474 365.5928 268.5029)" />
  <image id="pc_48_off" overflow="visible" width="48" height="23" xlink:href="off.jpg"  transform="matrix(0.5858 0 0 0.9474 401.1621 269.6367)" />
  <image id="pc_49_off" overflow="visible" width="48" height="23" xlink:href="off.jpg"  transform="matrix(0.5858 0 0 0.9474 327.833 323.5396)" />
  <image id="pc_50_off" overflow="visible" width="48" height="23" xlink:href="off.jpg"  transform="matrix(0.5858 0 0 0.9474 400.1621 324.6733)" />
  <image id="pc_51_off" overflow="visible" width="48" height="23" xlink:href="off.jpg"  transform="matrix(0.5858 0 0 0.9474 327.833 382.5566)" />
  <image id="pc_52_off" overflow="visible" width="48" height="23" xlink:href="off.jpg"  transform="matrix(0.5858 0 0 0.9474 400.1621 383.6895)" />
</g>
</g>
<script xlink:href="http://ajax.googleapis.com/ajax/libs/jquery/1.7.2/jquery.min.js" />
<script xlink:href="innersvg.js" />
<script xlink:href="room.js" />
</svg>
