<?xml version="1.0" encoding="utf-8"?>
<!-- Generator: Adobe Illustrator 16.0.0, SVG Export Plug-In . SVG Version: 6.00 Build 0)  -->
<!DOCTYPE svg PUBLIC "-//W3C//DTD SVG 1.1//EN" "http://www.w3.org/Graphics/SVG/1.1/DTD/svg11.dtd">
<svg version="1.1" id="レイヤー_1" xmlns="http://www.w3.org/2000/svg" xmlns:xlink="http://www.w3.org/1999/xlink" x="0px"
	 y="0px" width="480px" height="720px" viewBox="0 0 480 720" enable-background="new 0 0 480 720" xml:space="preserve">
<g id="レイヤー_1_1_" enable-background="new    ">
	
		<rect x="29.513" y="100.381" fill="#FFFFFF" stroke="#000000" stroke-width="4" stroke-miterlimit="10" width="419.079" height="547.395"/>
	<rect x="166.326" y="23.533" fill="none" width="145.454" height="27.273"/>
	<text transform="matrix(1 0 0 1 185.9922 37.6982)" font-family="'KozGoPr6N-Regular-83pv-RKSJ-H'" font-size="18">パソコン教</text>
	
		<text transform="matrix(1 0 0 1 275.9922 37.6982)" font-family="'KozGoPr6N-Regular-83pv-RKSJ-H'" font-size="18" letter-spacing="2">室B</text>
	<rect x="405.601" y="594.886" fill="none" width="31.168" height="18.184"/>
	<text transform="matrix(1 0 0 1 221.9097 613.0684)" font-family="'KozGoPr6N-Regular-83pv-RKSJ-H'" font-size="14">入口</text>
	<rect x="217.941" y="641.637" fill="#FFFFFF" stroke="#FFFFFF" stroke-miterlimit="10" width="42.224" height="12.274"/>
	
		<image overflow="visible" enable-background="new    " width="52" height="26" xlink:href="FA25AC76B466566B.jpg"  transform="matrix(0.5334 0 0 0.9459 59.0952 148.3398)">
	</image>
	
		<image overflow="visible" enable-background="new    " width="52" height="26" xlink:href="FA25AC76B466566C.jpg"  transform="matrix(0.5334 0 0 0.9459 95.1631 148.7871)">
	</image>
	
		<image overflow="visible" enable-background="new    " width="52" height="26" xlink:href="FA25AC76B466566D.jpg"  transform="matrix(0.5334 0 0 0.9803 131.2324 148.3398)">
	</image>
	
		<image overflow="visible" enable-background="new    " width="52" height="26" xlink:href="FA25AC76B466566F.jpg"  transform="matrix(0.5334 0 0 0.9459 59.0952 204.4102)">
	</image>
	
		<image overflow="visible" enable-background="new    " width="52" height="26" xlink:href="FA25AC76B466566A.jpg"  transform="matrix(0.5334 0 0 0.9459 95.1631 204.9883)">
	</image>
	
		<image overflow="visible" enable-background="new    " width="52" height="26" xlink:href="FA25AC76B4665678.jpg"  transform="matrix(0.5334 0 0 0.9803 131.2324 204.4102)">
	</image>
	
		<image overflow="visible" enable-background="new    " width="52" height="26" xlink:href="FA25AC76B4665679.jpg"  transform="matrix(0.5334 0 0 0.9459 60.0952 264.5342)">
	</image>
	
		<image overflow="visible" enable-background="new    " width="52" height="26" xlink:href="FA25AC76B466567A.jpg"  transform="matrix(0.5334 0 0 0.9459 96.1631 265.1123)">
	</image>
	
		<image overflow="visible" enable-background="new    " width="52" height="26" xlink:href="FA25AC76B466567B.jpg"  transform="matrix(0.5334 0 0 0.9935 132.2324 264.4292)">
	</image>
	
		<image overflow="visible" enable-background="new    " width="52" height="26" xlink:href="2771ED2812CA7C74.jpg"  transform="matrix(0.5334 0 0 0.9459 60.0952 320.6045)">
	</image>
	
		<image overflow="visible" enable-background="new    " width="52" height="26" xlink:href="2771ED2812CA7C90.jpg"  transform="matrix(0.5334 0 0 0.9459 96.1631 321.1826)">
	</image>
	
		<image overflow="visible" enable-background="new    " width="52" height="26" xlink:href="2771ED2812CA7C91.jpg"  transform="matrix(0.5334 0 0 0.9459 132.2324 321.4995)">
	</image>
	
		<image overflow="visible" enable-background="new    " width="52" height="26" xlink:href="2771ED2812CA7C92.jpg"  transform="matrix(0.5334 0 0 0.9459 59.5952 379.4424)">
	</image>
	
		<image overflow="visible" enable-background="new    " width="52" height="26" xlink:href="2771ED2812CA7C96.jpg"  transform="matrix(0.5334 0 0 0.9459 95.6631 380.0205)">
	</image>
	
		<image overflow="visible" enable-background="new    " width="52" height="26" xlink:href="2771ED2812CA7C9C.jpg"  transform="matrix(0.5334 0 0 0.9459 131.7324 380.3379)">
	</image>
	
		<image overflow="visible" enable-background="new    " width="52" height="26" xlink:href="2771ED2812CA7C9D.jpg"  transform="matrix(0.5334 0 0 0.9459 60.5952 439.5664)">
	</image>
	
		<image overflow="visible" enable-background="new    " width="52" height="26" xlink:href="2771ED2812CA7C9E.jpg"  transform="matrix(0.5334 0 0 0.9459 96.6631 440.1445)">
	</image>
	
		<image overflow="visible" enable-background="new    " width="52" height="26" xlink:href="2771ED2812CA7C9F.jpg"  transform="matrix(0.5334 0 0 0.9459 132.7324 440.4609)">
	</image>
	
		<image overflow="visible" enable-background="new    " width="52" height="26" xlink:href="2771ED2812CA7CA8.jpg"  transform="matrix(0.5334 0 0 0.9459 60.5952 495.6367)">
	</image>
	
		<image overflow="visible" enable-background="new    " width="52" height="26" xlink:href="2771ED2812CA7CBC.jpg"  transform="matrix(0.5334 0 0 0.9459 96.6631 496.2148)">
	</image>
	
		<image overflow="visible" enable-background="new    " width="52" height="26" xlink:href="2771ED2812CA7CBD.jpg"  transform="matrix(0.5334 0 0 0.9459 132.7324 496.5322)">
	</image>
	
		<image overflow="visible" enable-background="new    " width="52" height="26" xlink:href="2771ED2812CA7CBE.jpg"  transform="matrix(0.5334 0 0 0.9459 197.1211 149.4736)">
	</image>
	
		<image overflow="visible" enable-background="new    " width="52" height="26" xlink:href="2771ED2812CA7CBB.jpg"  transform="matrix(0.5334 0 0 0.9459 233.1895 149.9209)">
	</image>
	
		<image overflow="visible" enable-background="new    " width="52" height="26" xlink:href="2771ED2812CA7CB4.jpg"  transform="matrix(0.5334 0 0 0.9803 269.2578 149.4736)">
	</image>
	
		<image overflow="visible" enable-background="new    " width="52" height="26" xlink:href="2771ED2812CA7C88.jpg"  transform="matrix(0.5334 0 0 0.9459 197.1211 205.5439)">
	</image>
	
		<image overflow="visible" enable-background="new    " width="52" height="26" xlink:href="2771ED2812CA7C8A.jpg"  transform="matrix(0.5334 0 0 0.9459 233.1895 206.1221)">
	</image>
	
		<image overflow="visible" enable-background="new    " width="52" height="26" xlink:href="2771ED2812CA7C83.jpg"  transform="matrix(0.5334 0 0 0.9459 269.2578 206.439)">
	</image>
	
		<image overflow="visible" enable-background="new    " width="52" height="26" xlink:href="2771ED2812CA7C84.jpg"  transform="matrix(0.5334 0 0 0.9459 198.1211 265.668)">
	</image>
	
		<image overflow="visible" enable-background="new    " width="52" height="26" xlink:href="2771ED2812CA7C85.jpg"  transform="matrix(0.5334 0 0 0.9459 234.1895 266.2461)">
	</image>
	
		<image overflow="visible" enable-background="new    " width="52" height="26" xlink:href="2771ED2812CA7CD6.jpg"  transform="matrix(0.5334 0 0 0.9459 270.2578 266.563)">
	</image>
	
		<image overflow="visible" enable-background="new    " width="52" height="26" xlink:href="2771ED2812CA7CE8.jpg"  transform="matrix(0.5334 0 0 0.9459 198.1211 321.7383)">
	</image>
	
		<image overflow="visible" enable-background="new    " width="52" height="26" xlink:href="2771ED2812CA7CEE.jpg"  transform="matrix(0.5334 0 0 0.9459 234.1895 322.3164)">
	</image>
	
		<image overflow="visible" enable-background="new    " width="52" height="26" xlink:href="2771ED2812CA7CE4.jpg"  transform="matrix(0.5334 0 0 0.9459 270.2578 322.6333)">
	</image>
	
		<image overflow="visible" enable-background="new    " width="52" height="26" xlink:href="2771ED2812CA7CE5.jpg"  transform="matrix(0.5334 0 0 0.9459 197.6211 380.5762)">
	</image>
	
		<image overflow="visible" enable-background="new    " width="52" height="26" xlink:href="2771ED2812CA7CE6.jpg"  transform="matrix(0.5334 0 0 0.9459 233.6895 381.1543)">
	</image>
	
		<image overflow="visible" enable-background="new    " width="52" height="26" xlink:href="2771ED2812CA7CE7.jpg"  transform="matrix(0.5334 0 0 0.9459 269.7578 381.4717)">
	</image>
	
		<image overflow="visible" enable-background="new    " width="52" height="26" xlink:href="2771ED2812CA7CF6.jpg"  transform="matrix(0.5334 0 0 0.9459 198.6211 440.7002)">
	</image>
	
		<image overflow="visible" enable-background="new    " width="52" height="26" xlink:href="2771ED2812CA7CF9.jpg"  transform="matrix(0.5334 0 0 0.9459 234.6895 440.2783)">
	</image>
	
		<image overflow="visible" enable-background="new    " width="52" height="26" xlink:href="2771ED2812CA7CFB.jpg"  transform="matrix(0.5334 0 0 0.9459 270.7578 440.5947)">
	</image>
	
		<image overflow="visible" enable-background="new    " width="52" height="26" xlink:href="2771ED2812CA7CC2.jpg"  transform="matrix(0.5334 0 0 0.9459 328.1211 150.4399)">
	</image>
	
		<image overflow="visible" enable-background="new    " width="52" height="26" xlink:href="2771ED2812CA7CC1.jpg"  transform="matrix(0.5334 0 0 0.9459 364.1895 150.8872)">
	</image>
	
		<image overflow="visible" enable-background="new    " width="52" height="26" xlink:href="2771ED2812CA7CDF.jpg"  transform="matrix(0.5334 0 0 0.9803 400.2578 150.4399)">
	</image>
	
		<image overflow="visible" enable-background="new    " width="52" height="26" xlink:href="2771ED2812CA7CC0.jpg"  transform="matrix(0.5334 0 0 0.9459 328.1211 206.5103)">
	</image>
	
		<image overflow="visible" enable-background="new    " width="52" height="26" xlink:href="2771ED2812CA7CCA.jpg"  transform="matrix(0.5334 0 0 0.9459 364.1895 207.0884)">
	</image>
	
		<image overflow="visible" enable-background="new    " width="52" height="26" xlink:href="2771ED2812CA7CCB.jpg"  transform="matrix(0.5334 0 0 0.9803 400.2578 206.5103)">
	</image>
	
		<image overflow="visible" enable-background="new    " width="52" height="26" xlink:href="2771ED2812CA7CCC.jpg"  transform="matrix(0.5334 0 0 0.9459 329.1211 266.6343)">
	</image>
	
		<image overflow="visible" enable-background="new    " width="52" height="26" xlink:href="2771ED2812CA7CCD.jpg"  transform="matrix(0.5334 0 0 0.9709 365.1895 266.563)">
	</image>
	
		<image overflow="visible" enable-background="new    " width="52" height="26" xlink:href="2771ED2812CA7CCE.jpg"  transform="matrix(0.5334 0 0 0.9459 401.2578 267.5293)">
	</image>
	
		<image overflow="visible" enable-background="new    " width="52" height="26" xlink:href="2771ED2812CA7CCF.jpg"  transform="matrix(0.5334 0 0 0.9459 329.1211 322.7046)">
	</image>
	
		<image overflow="visible" enable-background="new    " width="52" height="26" xlink:href="2771ED2812CA7D28.jpg"  transform="matrix(0.5334 0 0 0.9459 401.2578 323.5991)">
	</image>
	
		<image overflow="visible" enable-background="new    " width="52" height="26" xlink:href="2771ED2812CA7D2C.jpg"  transform="matrix(0.5334 0 0 0.9459 328.6211 381.543)">
	</image>
	
		<image overflow="visible" enable-background="new    " width="52" height="26" xlink:href="2771ED2812CA7D55.jpg"  transform="matrix(0.5334 0 0 0.9459 400.7578 382.4375)">
	</image>
</g>
<g id="レイヤー_2">
	
		<image overflow="visible" enable-background="new    " width="48" height="23" xlink:href="2771ED2812CA7D56.jpg"  transform="matrix(0.5858 0 0 0.9474 58.7124 149.7417)">
	</image>
	
		<image overflow="visible" enable-background="new    " width="48" height="23" xlink:href="2771ED2812CA7D57.jpg"  transform="matrix(0.5858 0 0 0.9474 95.4717 149.7417)">
	</image>
	
		<image overflow="visible" enable-background="new    " width="48" height="23" xlink:href="2771ED2812CA7D58.jpg"  transform="matrix(0.5858 0 0 0.9474 131.041 150.8755)">
	</image>
	
		<image overflow="visible" enable-background="new    " width="48" height="23" xlink:href="2771ED2812CA7D59.jpg"  transform="matrix(0.5858 0 0 0.9474 58.8076 205.2451)">
	</image>
	
		<image overflow="visible" enable-background="new    " width="48" height="23" xlink:href="2771ED2812CA7D5A.jpg"  transform="matrix(0.5858 0 0 0.9474 95.5669 205.2451)">
	</image>
	
		<image overflow="visible" enable-background="new    " width="48" height="23" xlink:href="2771ED2812CA7D5B.jpg"  transform="matrix(0.5858 0 0 0.9474 131.1367 206.3789)">
	</image>
	
		<image overflow="visible" enable-background="new    " width="48" height="23" xlink:href="2771ED2812CA7D5D.jpg"  transform="matrix(0.5858 0 0 0.9474 58.8076 265.8838)">
	</image>
	
		<image overflow="visible" enable-background="new    " width="48" height="23" xlink:href="2771ED2812CA7D78.jpg"  transform="matrix(0.5858 0 0 0.9474 95.5669 265.8838)">
	</image>
	
		<image overflow="visible" enable-background="new    " width="48" height="23" xlink:href="2771ED2812CA7D79.jpg"  transform="matrix(0.5858 0 0 0.9474 131.1367 267.0176)">
	</image>
	
		<image overflow="visible" enable-background="new    " width="48" height="23" xlink:href="2771ED2812CA7D7E.jpg"  transform="matrix(0.5858 0 0 0.9474 60.3076 321.4395)">
	</image>
	
		<image overflow="visible" enable-background="new    " width="48" height="23" xlink:href="2771ED2812CA7D73.jpg"  transform="matrix(0.5858 0 0 0.9474 97.0669 321.4395)">
	</image>
	
		<image overflow="visible" enable-background="new    " width="48" height="23" xlink:href="2771ED2812CA7D74.jpg"  transform="matrix(0.5858 0 0 0.9474 132.6367 322.5732)">
	</image>
	
		<image overflow="visible" enable-background="new    " width="48" height="23" xlink:href="2771ED2812CA7D75.jpg"  transform="matrix(0.5858 0 0 0.9474 60.498 380.2783)">
	</image>
	
		<image overflow="visible" enable-background="new    " width="48" height="23" xlink:href="2771ED2812CA7D76.jpg"  transform="matrix(0.5858 0 0 0.9474 97.2578 380.2783)">
	</image>
	
		<image overflow="visible" enable-background="new    " width="48" height="23" xlink:href="2771ED2812CA7D77.jpg"  transform="matrix(0.5858 0 0 0.9474 132.8271 381.4111)">
	</image>
	
		<image overflow="visible" enable-background="new    " width="48" height="23" xlink:href="2771ED2812CA7D08.jpg"  transform="matrix(0.5858 0 0 0.9474 60.9028 440.4004)">
	</image>
	
		<image overflow="visible" enable-background="new    " width="48" height="23" xlink:href="2771ED2812CA7D0B.jpg"  transform="matrix(0.5858 0 0 0.9474 97.6626 440.4004)">
	</image>
	
		<image overflow="visible" enable-background="new    " width="48" height="23" xlink:href="2771ED2812CA7D1A.jpg"  transform="matrix(0.5858 0 0 0.9474 133.2319 441.5352)">
	</image>
	
		<image overflow="visible" enable-background="new    " width="48" height="23" xlink:href="2771ED2812CA7D16.jpg"  transform="matrix(0.5858 0 0 0.9474 59.8076 496.4707)">
	</image>
	
		<image overflow="visible" enable-background="new    " width="48" height="23" xlink:href="2771ED2812CA7D15.jpg"  transform="matrix(0.5858 0 0 0.9474 96.5669 496.4707)">
	</image>
	
		<image overflow="visible" enable-background="new    " width="48" height="23" xlink:href="2771ED2812CA7D30.jpg"  transform="matrix(0.5858 0 0 0.9474 132.1367 497.6055)">
	</image>
	
		<image overflow="visible" enable-background="new    " width="48" height="23" xlink:href="2771ED2812CA7D31.jpg"  transform="matrix(0.5858 0 0 0.9474 196.8335 150.7559)">
	</image>
	
		<image overflow="visible" enable-background="new    " width="48" height="23" xlink:href="2771ED2812CA7D32.jpg"  transform="matrix(0.5858 0 0 0.9474 233.5928 150.7559)">
	</image>
	
		<image overflow="visible" enable-background="new    " width="48" height="23" xlink:href="2771ED2812CA7D33.jpg"  transform="matrix(0.5858 0 0 0.9474 269.1621 151.8896)">
	</image>
	
		<image overflow="visible" enable-background="new    " width="48" height="23" xlink:href="2771ED2812CA7D34.jpg"  transform="matrix(0.5858 0 0 0.9474 196.8335 207.6929)">
	</image>
	
		<image overflow="visible" enable-background="new    " width="48" height="23" xlink:href="2771ED2812CA7D37.jpg"  transform="matrix(0.5858 0 0 0.9474 233.5928 207.6929)">
	</image>
	
		<image overflow="visible" enable-background="new    " width="48" height="23" xlink:href="2771ED2812CA7D3E.jpg"  transform="matrix(0.5858 0 0 0.9474 269.1621 208.8267)">
	</image>
	
		<image overflow="visible" enable-background="new    " width="48" height="23" xlink:href="2771ED2812CA7DDA.jpg"  transform="matrix(0.5858 0 0 0.9474 198.3335 266.5029)">
	</image>
	
		<image overflow="visible" enable-background="new    " width="48" height="23" xlink:href="2771ED2812CA7DDB.jpg"  transform="matrix(0.5858 0 0 0.9474 235.0928 266.5029)">
	</image>
	
		<image overflow="visible" enable-background="new    " width="48" height="23" xlink:href="2771ED2812CA7DDC.jpg"  transform="matrix(0.5858 0 0 0.9474 270.6621 267.6367)">
	</image>
	
		<image overflow="visible" enable-background="new    " width="48" height="23" xlink:href="2771ED2812CA7DDD.jpg"  transform="matrix(0.5858 0 0 0.9474 198.9292 322.5732)">
	</image>
	
		<image overflow="visible" enable-background="new    " width="48" height="23" xlink:href="2771ED2812CA7DD9.jpg"  transform="matrix(0.5858 0 0 0.9474 235.6885 322.5732)">
	</image>
	
		<image overflow="visible" enable-background="new    " width="48" height="23" xlink:href="2771ED2812CA7DE7.jpg"  transform="matrix(0.5858 0 0 0.9474 271.2578 323.707)">
	</image>
	
		<image overflow="visible" enable-background="new    " width="48" height="23" xlink:href="2771ED2812CA7DE8.jpg"  transform="matrix(0.5858 0 0 0.9474 196.8335 381.9883)">
	</image>
	
		<image overflow="visible" enable-background="new    " width="48" height="23" xlink:href="2771ED2812CA7DE9.jpg"  transform="matrix(0.5858 0 0 0.9474 233.5928 381.9883)">
	</image>
	
		<image overflow="visible" enable-background="new    " width="48" height="23" xlink:href="2771ED2812CA7DEA.jpg"  transform="matrix(0.5858 0 0 0.9474 269.1621 383.123)">
	</image>
	
		<image overflow="visible" enable-background="new    " width="48" height="23" xlink:href="2771ED2812CA7DEB.jpg"  transform="matrix(0.5858 0 0 0.9474 196.8335 441.5352)">
	</image>
	
		<image overflow="visible" enable-background="new    " width="48" height="23" xlink:href="2771ED2812CA7DFC.jpg"  transform="matrix(0.5858 0 0 0.9474 233.5928 441.5352)">
	</image>
	
		<image overflow="visible" enable-background="new    " width="48" height="23" xlink:href="2771ED2812CA7DF6.jpg"  transform="matrix(0.5858 0 0 0.9474 269.1621 442.668)">
	</image>
	
		<image overflow="visible" enable-background="new    " width="48" height="23" xlink:href="2771ED2812CA7DC9.jpg"  transform="matrix(0.5858 0 0 0.9474 327.833 151.7559)">
	</image>
	
		<image overflow="visible" enable-background="new    " width="48" height="23" xlink:href="2771ED2812CA7DCA.jpg"  transform="matrix(0.5858 0 0 0.9474 364.5928 151.7559)">
	</image>
	
		<image overflow="visible" enable-background="new    " width="48" height="23" xlink:href="2771ED2812CA7DC8.jpg"  transform="matrix(0.5858 0 0 0.9474 400.1621 152.8896)">
	</image>
	
		<image overflow="visible" enable-background="new    " width="48" height="23" xlink:href="2771ED2812CA7DCE.jpg"  transform="matrix(0.5858 0 0 0.9474 327.833 207.793)">
	</image>
	
		<image overflow="visible" enable-background="new    " width="48" height="23" xlink:href="2771ED2812CA7DC5.jpg"  transform="matrix(0.5858 0 0 0.9474 364.5928 207.793)">
	</image>
	
		<image overflow="visible" enable-background="new    " width="48" height="23" xlink:href="2771ED2812CA7DC6.jpg"  transform="matrix(0.5858 0 0 0.9474 400.1621 208.9268)">
	</image>
	
		<image overflow="visible" enable-background="new    " width="48" height="23" xlink:href="2771ED2812CA7DC7.jpg"  transform="matrix(0.5858 0 0 0.9474 328.833 268.5029)">
	</image>
	
		<image overflow="visible" enable-background="new    " width="48" height="23" xlink:href="2771ED2812CA7DC0.jpg"  transform="matrix(0.5858 0 0 0.9474 365.5928 268.5029)">
	</image>
	
		<image overflow="visible" enable-background="new    " width="48" height="23" xlink:href="B37746CAB743FEEE.jpg"  transform="matrix(0.5858 0 0 0.9474 401.1621 269.6367)">
	</image>
	
		<image overflow="visible" enable-background="new    " width="48" height="23" xlink:href="B37746CAB743FEEA.jpg"  transform="matrix(0.5858 0 0 0.9474 327.833 323.5396)">
	</image>
	
		<image overflow="visible" enable-background="new    " width="48" height="23" xlink:href="B37746CAB743FEE5.jpg"  transform="matrix(0.5858 0 0 0.9474 400.1621 324.6733)">
	</image>
	
		<image overflow="visible" enable-background="new    " width="48" height="23" xlink:href="B37746CAB743FEE4.jpg"  transform="matrix(0.5858 0 0 0.9474 327.833 382.5566)">
	</image>
	
		<image overflow="visible" enable-background="new    " width="48" height="23" xlink:href="B37746CAB743FEE3.jpg"  transform="matrix(0.5858 0 0 0.9474 400.1621 383.6895)">
	</image>
</g>
</svg>
