<?xml version="1.0" encoding="utf-8"?>
<!-- Generator: Adobe Illustrator 16.0.0, SVG Export Plug-In . SVG Version: 6.00 Build 0)  -->
<!DOCTYPE svg PUBLIC "-//W3C//DTD SVG 1.1//EN" "http://www.w3.org/Graphics/SVG/1.1/DTD/svg11.dtd">
<svg version="1.1" id="レイヤー_1" xmlns="http://www.w3.org/2000/svg" xmlns:xlink="http://www.w3.org/1999/xlink" x="0px"
	 y="0px" width="480px" height="720px" viewBox="0 0 480 720" enable-background="new 0 0 480 720" xml:space="preserve">
<g id="レイヤー_1_1_">
	
		<rect x="30.46" y="49.132" fill="#FFFFFF" stroke="#000000" stroke-width="4" stroke-miterlimit="10" width="419.079" height="654.558"/>
	<rect x="166.325" y="21.559" fill="none" width="145.455" height="27.273"/>
	<text transform="matrix(1 0 0 1 166.3242 36.9414)" font-family="'KozGoPr6N-Regular-83pv-RKSJ-H'" font-size="18">パソコン教</text>
	
		<text transform="matrix(1 0 0 1 256.3242 36.9414)" font-family="'KozGoPr6N-Regular-83pv-RKSJ-H'" font-size="18" letter-spacing="3">室</text>
	<text transform="matrix(1 0 0 1 278.8242 37.3984)" font-family="'KozGoPr6N-Regular-83pv-RKSJ-H'" font-size="18">CD</text>
	<rect x="443.046" y="563.741" fill="#FFFFFF" stroke="#FFFFFF" stroke-miterlimit="10" width="12.987" height="36.362"/>
	<rect x="446.046" y="151.14" fill="#FFFFFF" stroke="#FFFFFF" stroke-miterlimit="10" width="12.987" height="36.363"/>
	<rect x="405.601" y="594.886" fill="none" width="31.168" height="18.183"/>
	<text transform="matrix(1 0 0 1 405.6016 607.2061)" font-family="'KozGoPr6N-Regular-83pv-RKSJ-H'" font-size="14">入口</text>
	
		<image overflow="visible" enable-background="new    " width="51" height="26" xlink:href="5C06F90C3C2E6F11.jpg"  transform="matrix(0.5631 0 0 0.8569 60.8477 660.5488)">
	</image>
	
		<image overflow="visible" enable-background="new    " width="51" height="26" xlink:href="5C06F90C3C2E6F13.jpg"  transform="matrix(0.5631 0 0 0.8569 60.8755 630.4414)">
	</image>
	
		<image overflow="visible" enable-background="new    " width="51" height="26" xlink:href="5C06F90C3C2E6F16.jpg"  transform="matrix(0.5631 0 0 0.8569 60.9004 603.1699)">
	</image>
	
		<image overflow="visible" enable-background="new    " width="51" height="26" xlink:href="5C06F90C3C2E6F17.jpg"  transform="matrix(0.5631 0 0 0.8569 114.9424 659.1816)">
	</image>
	
		<image overflow="visible" enable-background="new    " width="51" height="26" xlink:href="5C06F90C3C2E6F12.jpg"  transform="matrix(0.5631 0 0 0.8569 114.9702 629.0762)">
	</image>
	
		<image overflow="visible" enable-background="new    " width="51" height="26" xlink:href="5C06F90C3C2E6F1D.jpg"  transform="matrix(0.5631 0 0 0.8569 114.9951 601.8027)">
	</image>
	
		<image overflow="visible" enable-background="new    " width="51" height="26" xlink:href="5C06F90C3C2E6F1E.jpg"  transform="matrix(0.5631 0 0 0.8569 169.9746 660.1719)">
	</image>
	
		<image overflow="visible" enable-background="new    " width="51" height="26" xlink:href="5C06F90C3C2E6F1F.jpg"  transform="matrix(0.5631 0 0 0.8569 170.0024 630.0664)">
	</image>
	
		<image overflow="visible" enable-background="new    " width="51" height="26" xlink:href="5C06F90C3C2E6F14.jpg"  transform="matrix(0.5631 0 0 0.8569 170.0278 602.793)">
	</image>
	
		<image overflow="visible" enable-background="new    " width="51" height="26" xlink:href="4D01FEC4B2B60D8A.jpg"  transform="matrix(0.5631 0 0 0.8569 225.7866 660.2852)">
	</image>
	
		<image overflow="visible" enable-background="new    " width="51" height="26" xlink:href="4D01FEC4B2B60D8D.jpg"  transform="matrix(0.5631 0 0 0.8569 225.8145 630.1797)">
	</image>
	
		<image overflow="visible" enable-background="new    " width="51" height="26" xlink:href="4D01FEC4B2B60D8E.jpg"  transform="matrix(0.5631 0 0 0.8569 225.8398 602.9062)">
	</image>
	
		<image overflow="visible" enable-background="new    " width="51" height="26" xlink:href="4D01FEC4B2B60D8C.jpg"  transform="matrix(0.5631 0 0 0.8569 225.7866 660.2852)">
	</image>
	
		<image overflow="visible" enable-background="new    " width="51" height="26" xlink:href="4D01FEC4B2B60D8B.jpg"  transform="matrix(0.5631 0 0 0.8569 225.8145 630.1797)">
	</image>
	
		<image overflow="visible" enable-background="new    " width="51" height="26" xlink:href="4D01FEC4B2B60D95.jpg"  transform="matrix(0.5631 0 0 0.8569 225.8398 602.9062)">
	</image>
	
		<image overflow="visible" enable-background="new    " width="51" height="26" xlink:href="4D01FEC4B2B60D96.jpg"  transform="matrix(0.5631 0 0 0.8569 284.4375 660.2754)">
	</image>
	
		<image overflow="visible" enable-background="new    " width="51" height="26" xlink:href="4D01FEC4B2B60D94.jpg"  transform="matrix(0.5631 0 0 0.8569 284.4648 630.1699)">
	</image>
	
		<image overflow="visible" enable-background="new    " width="51" height="26" xlink:href="4D01FEC4B2B60D9A.jpg"  transform="matrix(0.5631 0 0 0.8569 284.4902 602.8965)">
	</image>
	
		<image overflow="visible" enable-background="new    " width="51" height="26" xlink:href="4D01FEC4B2B60D9D.jpg"  transform="matrix(0.5631 0 0 0.8569 60.2798 552.1523)">
	</image>
	
		<image overflow="visible" enable-background="new    " width="51" height="26" xlink:href="4D01FEC4B2B60DB1.jpg"  transform="matrix(0.5631 0 0 0.8569 60.3076 522.0469)">
	</image>
	
		<image overflow="visible" enable-background="new    " width="51" height="26" xlink:href="4D01FEC4B2B60DB3.jpg"  transform="matrix(0.5631 0 0 0.8569 60.3325 494.7734)">
	</image>
	
		<image overflow="visible" enable-background="new    " width="51" height="26" xlink:href="4D01FEC4B2B60DB0.jpg"  transform="matrix(0.5631 0 0 0.8569 114.3745 550.7871)">
	</image>
	
		<image overflow="visible" enable-background="new    " width="51" height="26" xlink:href="4D01FEC4B2B60DBF.jpg"  transform="matrix(0.5631 0 0 0.8569 114.4023 520.6816)">
	</image>
	
		<image overflow="visible" enable-background="new    " width="51" height="26" xlink:href="4D01FEC4B2B60DB2.jpg"  transform="matrix(0.5631 0 0 0.8569 114.4272 493.4082)">
	</image>
	
		<image overflow="visible" enable-background="new    " width="51" height="26" xlink:href="4D01FEC4B2B60DB6.jpg"  transform="matrix(0.5631 0 0 0.8569 225.2188 551.8887)">
	</image>
	
		<image overflow="visible" enable-background="new    " width="51" height="26" xlink:href="4D01FEC4B2B60DB7.jpg"  transform="matrix(0.5631 0 0 0.8569 225.2466 521.7832)">
	</image>
	
		<image overflow="visible" enable-background="new    " width="51" height="26" xlink:href="4D01FEC4B2B60D8F.jpg"  transform="matrix(0.5631 0 0 0.8569 225.2715 494.5098)">
	</image>
	
		<image overflow="visible" enable-background="new    " width="51" height="26" xlink:href="4D01FEC4B2B60D89.jpg"  transform="matrix(0.5631 0 0 0.8569 225.2188 551.8887)">
	</image>
	
		<image overflow="visible" enable-background="new    " width="51" height="26" xlink:href="4D01FEC4B2B60D88.jpg"  transform="matrix(0.5631 0 0 0.8569 225.2466 521.7832)">
	</image>
	
		<image overflow="visible" enable-background="new    " width="51" height="26" xlink:href="4D01FEC4B2B60DD4.jpg"  transform="matrix(0.5631 0 0 0.8569 225.2715 494.5098)">
	</image>
	
		<image overflow="visible" enable-background="new    " width="51" height="26" xlink:href="4D01FEC4B2B60DEB.jpg"  transform="matrix(0.5631 0 0 0.8569 283.8691 551.8809)">
	</image>
	
		<image overflow="visible" enable-background="new    " width="51" height="26" xlink:href="4D01FEC4B2B60DEC.jpg"  transform="matrix(0.5631 0 0 0.8569 283.8975 521.7754)">
	</image>
	
		<image overflow="visible" enable-background="new    " width="51" height="26" xlink:href="4D01FEC4B2B60DEF.jpg"  transform="matrix(0.5631 0 0 0.8569 283.9219 494.502)">
	</image>
	
		<image overflow="visible" enable-background="new    " width="51" height="26" xlink:href="4D01FEC4B2B60DED.jpg"  transform="matrix(0.5671 0 0 0.8464 339.9941 552.2637)">
	</image>
	
		<image overflow="visible" enable-background="new    " width="51" height="26" xlink:href="4D01FEC4B2B60DEA.jpg"  transform="matrix(0.5671 0 0 0.8464 339.7363 522.1582)">
	</image>
	
		<image overflow="visible" enable-background="new    " width="51" height="26" xlink:href="4D01FEC4B2B60DF4.jpg"  transform="matrix(0.5671 0 0 0.8464 339.5029 494.8867)">
	</image>
	
		<image overflow="visible" enable-background="new    " width="51" height="26" xlink:href="4D01FEC4B2B60DF7.jpg"  transform="matrix(0.5671 0 0 0.8464 339.9941 552.2637)">
	</image>
	
		<image overflow="visible" enable-background="new    " width="51" height="26" xlink:href="4D01FEC4B2B60DF5.jpg"  transform="matrix(0.5671 0 0 0.8464 339.7363 522.1582)">
	</image>
	
		<image overflow="visible" enable-background="new    " width="51" height="26" xlink:href="4D01FEC4B2B60DFB.jpg"  transform="matrix(0.5671 0 0 0.8464 339.5029 494.8867)">
	</image>
	
		<image overflow="visible" enable-background="new    " width="51" height="26" xlink:href="4D01FEC4B2B60DC7.jpg"  transform="matrix(0.5677 0 0 0.845 395.6582 551.4863)">
	</image>
	
		<image overflow="visible" enable-background="new    " width="51" height="26" xlink:href="4D01FEC4B2B60DD9.jpg"  transform="matrix(0.5677 0 0 0.845 395.3613 521.3828)">
	</image>
	
		<image overflow="visible" enable-background="new    " width="51" height="26" xlink:href="4D01FEC4B2B60DDB.jpg"  transform="matrix(0.5677 0 0 0.845 395.0928 494.1113)">
	</image>
	
		<image overflow="visible" enable-background="new    " width="51" height="26" xlink:href="4D01FEC4B2B60DDE.jpg"  transform="matrix(0.5631 0 0 0.8569 59.3394 451.8379)">
	</image>
	
		<image overflow="visible" enable-background="new    " width="51" height="26" xlink:href="4D01FEC4B2B60DDF.jpg"  transform="matrix(0.5631 0 0 0.8569 59.3672 421.7324)">
	</image>
	
		<image overflow="visible" enable-background="new    " width="51" height="26" xlink:href="4D01FEC4B2B60DDA.jpg"  transform="matrix(0.5631 0 0 0.8569 59.3921 394.459)">
	</image>
	
		<image overflow="visible" enable-background="new    " width="51" height="26" xlink:href="4D01FEC4B2B60DC5.jpg"  transform="matrix(0.5631 0 0 0.8569 114.4341 451.4727)">
	</image>
	
		<image overflow="visible" enable-background="new    " width="51" height="26" xlink:href="4D01FEC4B2B60DC6.jpg"  transform="matrix(0.5631 0 0 0.8569 114.4619 421.3672)">
	</image>
	
		<image overflow="visible" enable-background="new    " width="51" height="26" xlink:href="4D01FEC4B2B60DC4.jpg"  transform="matrix(0.5631 0 0 0.8569 114.4868 394.0938)">
	</image>
	
		<image overflow="visible" enable-background="new    " width="51" height="26" xlink:href="4D01FEC4B2B60DC9.jpg"  transform="matrix(0.5631 0 0 0.8569 168.4663 451.4609)">
	</image>
	
		<image overflow="visible" enable-background="new    " width="51" height="26" xlink:href="4D01FEC4B2B60E26.jpg"  transform="matrix(0.5631 0 0 0.8569 168.4941 421.3555)">
	</image>
	
		<image overflow="visible" enable-background="new    " width="51" height="26" xlink:href="4D01FEC4B2B60E21.jpg"  transform="matrix(0.5631 0 0 0.8569 168.5195 394.082)">
	</image>
	
		<image overflow="visible" enable-background="new    " width="51" height="26" xlink:href="4D01FEC4B2B60E22.jpg"  transform="matrix(0.5631 0 0 0.8569 224.2783 451.5742)">
	</image>
	
		<image overflow="visible" enable-background="new    " width="51" height="26" xlink:href="4D01FEC4B2B60E20.jpg"  transform="matrix(0.5631 0 0 0.8569 224.3062 421.4688)">
	</image>
	
		<image overflow="visible" enable-background="new    " width="51" height="26" xlink:href="4D01FEC4B2B60E2E.jpg"  transform="matrix(0.5631 0 0 0.8569 224.3311 394.1953)">
	</image>
	
		<image overflow="visible" enable-background="new    " width="51" height="26" xlink:href="4D01FEC4B2B60E23.jpg"  transform="matrix(0.5631 0 0 0.8569 224.2783 451.5742)">
	</image>
	
		<image overflow="visible" enable-background="new    " width="51" height="26" xlink:href="4D01FEC4B2B60E27.jpg"  transform="matrix(0.5631 0 0 0.8569 224.3062 421.4688)">
	</image>
	
		<image overflow="visible" enable-background="new    " width="51" height="26" xlink:href="4D01FEC4B2B60E25.jpg"  transform="matrix(0.5631 0 0 0.8569 224.3311 394.1953)">
	</image>
	
		<image overflow="visible" enable-background="new    " width="51" height="26" xlink:href="4D01FEC4B2B60E5C.jpg"  transform="matrix(0.5631 0 0 0.8569 283.9297 451.5684)">
	</image>
	
		<image overflow="visible" enable-background="new    " width="51" height="26" xlink:href="4D01FEC4B2B60E5D.jpg"  transform="matrix(0.5631 0 0 0.8569 283.957 421.4609)">
	</image>
	
		<image overflow="visible" enable-background="new    " width="51" height="26" xlink:href="4D01FEC4B2B60E05.jpg"  transform="matrix(0.5631 0 0 0.8569 283.9824 394.1875)">
	</image>
	
		<image overflow="visible" enable-background="new    " width="51" height="26" xlink:href="4D01FEC4B2B60E07.jpg"  transform="matrix(0.5671 0 0 0.8464 339.9883 438.75)">
	</image>
	
		<image overflow="visible" enable-background="new    " width="51" height="26" xlink:href="4D01FEC4B2B60E04.jpg"  transform="matrix(0.5671 0 0 0.8464 339.7539 406.3438)">
	</image>
	
		<image overflow="visible" enable-background="new    " width="51" height="26" xlink:href="4D01FEC4B2B60E03.jpg"  transform="matrix(0.5677 0 0 0.845 394.9121 440.3145)">
	</image>
	
		<image overflow="visible" enable-background="new    " width="51" height="26" xlink:href="4D01FEC4B2B60E7D.jpg"  transform="matrix(0.5677 0 0 0.845 394.5791 406.627)">
	</image>
	
		<image overflow="visible" enable-background="new    " width="51" height="26" xlink:href="4D01FEC4B2B60E7F.jpg"  transform="matrix(0.5631 0 0 0.8569 59.0693 340.144)">
	</image>
	
		<image overflow="visible" enable-background="new    " width="51" height="26" xlink:href="4D01FEC4B2B60E7C.jpg"  transform="matrix(0.5631 0 0 0.8569 59.0972 310.0376)">
	</image>
	
		<image overflow="visible" enable-background="new    " width="51" height="26" xlink:href="4D01FEC4B2B60E06.jpg"  transform="matrix(0.5631 0 0 0.8569 59.1221 282.7651)">
	</image>
	
		<image overflow="visible" enable-background="new    " width="51" height="26" xlink:href="4D01FEC4B2B60E09.jpg"  transform="matrix(0.5631 0 0 0.8569 114.1641 338.7769)">
	</image>
	
		<image overflow="visible" enable-background="new    " width="51" height="26" xlink:href="4D01FEC4B2B60E0A.jpg"  transform="matrix(0.5631 0 0 0.8569 114.1919 308.6714)">
	</image>
	
		<image overflow="visible" enable-background="new    " width="51" height="26" xlink:href="4D01FEC4B2B60E18.jpg"  transform="matrix(0.5631 0 0 0.8569 114.2168 281.3979)">
	</image>
	
		<image overflow="visible" enable-background="new    " width="51" height="26" xlink:href="4D01FEC4B2B60E17.jpg"  transform="matrix(0.5631 0 0 0.8569 169.1963 339.7671)">
	</image>
	
		<image overflow="visible" enable-background="new    " width="51" height="26" xlink:href="4D01FEC4B2B60E28.jpg"  transform="matrix(0.5631 0 0 0.8569 169.2241 309.6616)">
	</image>
	
		<image overflow="visible" enable-background="new    " width="51" height="26" xlink:href="4D01FEC4B2B60E2B.jpg"  transform="matrix(0.5631 0 0 0.8569 169.2495 282.3882)">
	</image>
	
		<image overflow="visible" enable-background="new    " width="51" height="26" xlink:href="4D01FEC4B2B60E29.jpg"  transform="matrix(0.5631 0 0 0.8569 225.0083 339.8804)">
	</image>
	
		<image overflow="visible" enable-background="new    " width="51" height="26" xlink:href="4D01FEC4B2B60E2F.jpg"  transform="matrix(0.5631 0 0 0.8569 225.0361 309.7749)">
	</image>
	
		<image overflow="visible" enable-background="new    " width="51" height="26" xlink:href="4D01FEC4B2B60E2A.jpg"  transform="matrix(0.5631 0 0 0.8569 225.0615 282.5015)">
	</image>
	
		<image overflow="visible" enable-background="new    " width="51" height="26" xlink:href="4D01FEC4B2B60E35.jpg"  transform="matrix(0.5631 0 0 0.8569 225.0083 339.8804)">
	</image>
	
		<image overflow="visible" enable-background="new    " width="51" height="26" xlink:href="4D01FEC4B2B60E36.jpg"  transform="matrix(0.5631 0 0 0.8569 225.0361 309.7749)">
	</image>
	
		<image overflow="visible" enable-background="new    " width="51" height="26" xlink:href="4D01FEC4B2B60E37.jpg"  transform="matrix(0.5631 0 0 0.8569 225.0615 282.5015)">
	</image>
	
		<image overflow="visible" enable-background="new    " width="51" height="26" xlink:href="4D01FEC4B2B60ED3.jpg"  transform="matrix(0.5631 0 0 0.8569 283.6592 339.8716)">
	</image>
	
		<image overflow="visible" enable-background="new    " width="51" height="26" xlink:href="4D01FEC4B2B60ED5.jpg"  transform="matrix(0.5631 0 0 0.8569 283.6865 309.7661)">
	</image>
	
		<image overflow="visible" enable-background="new    " width="51" height="26" xlink:href="4D01FEC4B2B60ED7.jpg"  transform="matrix(0.5631 0 0 0.8569 283.7119 282.4927)">
	</image>
	
		<image overflow="visible" enable-background="new    " width="51" height="26" xlink:href="4D01FEC4B2B60ED2.jpg"  transform="matrix(0.5631 0 0 0.8569 59.5015 230.7485)">
	</image>
	
		<image overflow="visible" enable-background="new    " width="51" height="26" xlink:href="4D01FEC4B2B60ED1.jpg"  transform="matrix(0.5631 0 0 0.8569 59.5293 200.6431)">
	</image>
	
		<image overflow="visible" enable-background="new    " width="51" height="26" xlink:href="4D01FEC4B2B60EDD.jpg"  transform="matrix(0.5631 0 0 0.8569 59.5542 173.3696)">
	</image>
	
		<image overflow="visible" enable-background="new    " width="51" height="26" xlink:href="4D01FEC4B2B60EDF.jpg"  transform="matrix(0.5631 0 0 0.8569 114.5962 230.3823)">
	</image>
	
		<image overflow="visible" enable-background="new    " width="51" height="26" xlink:href="4D01FEC4B2B60ED0.jpg"  transform="matrix(0.5631 0 0 0.8569 114.624 200.2769)">
	</image>
	
		<image overflow="visible" enable-background="new    " width="51" height="26" xlink:href="4D01FEC4B2B60ED6.jpg"  transform="matrix(0.5631 0 0 0.8569 114.6489 173.0034)">
	</image>
	
		<image overflow="visible" enable-background="new    " width="51" height="26" xlink:href="4D01FEC4B2B60EEC.jpg"  transform="matrix(0.5631 0 0 0.8569 226.4404 229.4849)">
	</image>
	
		<image overflow="visible" enable-background="new    " width="51" height="26" xlink:href="4D01FEC4B2B60EF2.jpg"  transform="matrix(0.5631 0 0 0.8569 226.4683 199.3794)">
	</image>
	
		<image overflow="visible" enable-background="new    " width="51" height="26" xlink:href="4D01FEC4B2B60EF5.jpg"  transform="matrix(0.5631 0 0 0.8569 226.4932 172.106)">
	</image>
	
		<image overflow="visible" enable-background="new    " width="51" height="26" xlink:href="4D01FEC4B2B60EF6.jpg"  transform="matrix(0.5631 0 0 0.8569 226.4404 229.4849)">
	</image>
	
		<image overflow="visible" enable-background="new    " width="51" height="26" xlink:href="4D01FEC4B2B60EF4.jpg"  transform="matrix(0.5631 0 0 0.8569 226.4683 199.3794)">
	</image>
	
		<image overflow="visible" enable-background="new    " width="51" height="26" xlink:href="4D01FEC4B2B60EF3.jpg"  transform="matrix(0.5631 0 0 0.8569 226.4932 172.106)">
	</image>
	
		<image overflow="visible" enable-background="new    " width="51" height="26" xlink:href="4D01FEC4B2B60ECD.jpg"  transform="matrix(0.5631 0 0 0.8569 285.0908 229.4761)">
	</image>
	
		<image overflow="visible" enable-background="new    " width="51" height="26" xlink:href="4D01FEC4B2B60ECE.jpg"  transform="matrix(0.5631 0 0 0.8569 285.1191 199.3706)">
	</image>
	
		<image overflow="visible" enable-background="new    " width="51" height="26" xlink:href="4D01FEC4B2B60ECC.jpg"  transform="matrix(0.5631 0 0 0.8569 285.1436 172.0972)">
	</image>
	
		<image overflow="visible" enable-background="new    " width="51" height="26" xlink:href="4D01FEC4B2B60ED4.jpg"  transform="matrix(0.5671 0 0 0.8464 341.2158 229.8589)">
	</image>
	
		<image overflow="visible" enable-background="new    " width="51" height="26" xlink:href="4D01FEC4B2B60ED9.jpg"  transform="matrix(0.5671 0 0 0.8464 340.958 199.7534)">
	</image>
	
		<image overflow="visible" enable-background="new    " width="51" height="26" xlink:href="2149D26DD44FF3D4.jpg"  transform="matrix(0.5671 0 0 0.8464 340.7246 172.4819)">
	</image>
	
		<image overflow="visible" enable-background="new    " width="51" height="26" xlink:href="2149D26DD44FF3D7.jpg"  transform="matrix(0.5671 0 0 0.8464 341.2158 229.8589)">
	</image>
	
		<image overflow="visible" enable-background="new    " width="51" height="26" xlink:href="2149D26DD44FF3D5.jpg"  transform="matrix(0.5671 0 0 0.8464 340.958 199.7534)">
	</image>
	
		<image overflow="visible" enable-background="new    " width="51" height="26" xlink:href="2149D26DD44FF3DB.jpg"  transform="matrix(0.5671 0 0 0.8464 340.7246 172.4819)">
	</image>
	
		<image overflow="visible" enable-background="new    " width="51" height="26" xlink:href="2149D26DD44FF3DC.jpg"  transform="matrix(0.5631 0 0 0.8569 59.561 125.4341)">
	</image>
	
		<image overflow="visible" enable-background="new    " width="51" height="26" xlink:href="2149D26DD44FF3DF.jpg"  transform="matrix(0.5631 0 0 0.8569 59.5889 95.3286)">
	</image>
	
		<image overflow="visible" enable-background="new    " width="51" height="26" xlink:href="2149D26DD44FF3DD.jpg"  transform="matrix(0.5631 0 0 0.8569 59.6138 68.0552)">
	</image>
	
		<image overflow="visible" enable-background="new    " width="51" height="26" xlink:href="2149D26DD44FF3DA.jpg"  transform="matrix(0.5631 0 0 0.8569 114.6558 124.0679)">
	</image>
	
		<image overflow="visible" enable-background="new    " width="51" height="26" xlink:href="2149D26DD44FF3D6.jpg"  transform="matrix(0.5631 0 0 0.8569 114.6836 93.9624)">
	</image>
	
		<image overflow="visible" enable-background="new    " width="51" height="26" xlink:href="2149D26DD44FF3C9.jpg"  transform="matrix(0.5631 0 0 0.8569 114.7085 66.689)">
	</image>
	
		<image overflow="visible" enable-background="new    " width="51" height="26" xlink:href="2149D26DD44FF3BB.jpg"  transform="matrix(0.5631 0 0 0.8569 168.688 125.0562)">
	</image>
	
		<image overflow="visible" enable-background="new    " width="51" height="26" xlink:href="2149D26DD44FF3B9.jpg"  transform="matrix(0.5631 0 0 0.8569 168.7158 94.9507)">
	</image>
	
		<image overflow="visible" enable-background="new    " width="51" height="26" xlink:href="2149D26DD44FF3A7.jpg"  transform="matrix(0.5631 0 0 0.8569 168.7412 67.6772)">
	</image>
	
		<image overflow="visible" enable-background="new    " width="51" height="26" xlink:href="2149D26DD44FF3A9.jpg"  transform="matrix(0.5631 0 0 0.8569 224.5 125.1704)">
	</image>
	
		<image overflow="visible" enable-background="new    " width="51" height="26" xlink:href="2149D26DD44FF3AB.jpg"  transform="matrix(0.5631 0 0 0.8569 224.5278 95.0649)">
	</image>
	
		<image overflow="visible" enable-background="new    " width="51" height="26" xlink:href="2149D26DD44FF3AE.jpg"  transform="matrix(0.5631 0 0 0.8569 224.5527 67.7915)">
	</image>
	
		<image overflow="visible" enable-background="new    " width="51" height="26" xlink:href="2149D26DD44FF3AF.jpg"  transform="matrix(0.5631 0 0 0.8569 224.5 125.1704)">
	</image>
	
		<image overflow="visible" enable-background="new    " width="51" height="26" xlink:href="2149D26DD44FF3AA.jpg"  transform="matrix(0.5631 0 0 0.8569 224.5278 95.0649)">
	</image>
	
		<image overflow="visible" enable-background="new    " width="51" height="26" xlink:href="2149D26DD44FF3A5.jpg"  transform="matrix(0.5631 0 0 0.8569 224.5527 67.7915)">
	</image>
	
		<image overflow="visible" enable-background="new    " width="51" height="26" xlink:href="2149D26DD44FF3A6.jpg"  transform="matrix(0.5631 0 0 0.8569 284.1514 125.1636)">
	</image>
	
		<image overflow="visible" enable-background="new    " width="51" height="26" xlink:href="2149D26DD44FF382.jpg"  transform="matrix(0.5631 0 0 0.8569 284.1787 95.0571)">
	</image>
	
		<image overflow="visible" enable-background="new    " width="51" height="26" xlink:href="2149D26DD44FF381.jpg"  transform="matrix(0.5631 0 0 0.8569 284.2041 67.7837)">
	</image>
	
		<image overflow="visible" enable-background="new    " width="51" height="26" xlink:href="2149D26DD44FF386.jpg"  transform="matrix(0.5671 0 0 0.8464 338.21 114.3462)">
	</image>
	
		<image overflow="visible" enable-background="new    " width="51" height="26" xlink:href="2149D26DD44FF380.jpg"  transform="matrix(0.5671 0 0 0.8464 337.9756 81.939)">
	</image>
	
		<image overflow="visible" enable-background="new    " width="51" height="26" xlink:href="2149D26DD44FF383.jpg"  transform="matrix(0.5677 0 0 0.845 392.1338 115.9097)">
	</image>
	
		<image overflow="visible" enable-background="new    " width="51" height="26" xlink:href="2149D26DD44FF37F.jpg"  transform="matrix(0.5677 0 0 0.845 391.8008 82.2222)">
	</image>
	<rect x="403.909" y="160.231" fill="none" width="31.168" height="18.182"/>
	<text transform="matrix(1 0 0 1 403.9102 172.5518)" font-family="'KozGoPr6N-Regular-83pv-RKSJ-H'" font-size="14">入口</text>
</g>
<g id="レイヤー_2">
	
		<image overflow="visible" enable-background="new    " width="48" height="23" xlink:href="2149D26DD44FF47E.jpg"  transform="matrix(0.5257 0 0 0.9474 60.9932 659.6289)">
	</image>
	
		<image overflow="visible" enable-background="new    " width="48" height="23" xlink:href="2149D26DD44FF481.jpg"  transform="matrix(0.5257 0 0 0.9474 60.9932 630.8066)">
	</image>
	
		<image overflow="visible" enable-background="new    " width="48" height="23" xlink:href="2149D26DD44FF482.jpg"  transform="matrix(0.5257 0 0 0.9474 60.9932 603.5332)">
	</image>
	
		<image overflow="visible" enable-background="new    " width="48" height="23" xlink:href="2149D26DD44FF480.jpg"  transform="matrix(0.5257 0 0 0.9474 60.9932 551.6289)">
	</image>
	
		<image overflow="visible" enable-background="new    " width="48" height="23" xlink:href="2149D26DD44FF49D.jpg"  transform="matrix(0.5257 0 0 0.9474 60.9932 522.8066)">
	</image>
	
		<image overflow="visible" enable-background="new    " width="48" height="23" xlink:href="2149D26DD44FF4A3.jpg"  transform="matrix(0.5257 0 0 0.9474 60.9932 495.5332)">
	</image>
	
		<image overflow="visible" enable-background="new    " width="48" height="23" xlink:href="2149D26DD44FF4A5.jpg"  transform="matrix(0.5257 0 0 0.9474 60.9932 451.6289)">
	</image>
	
		<image overflow="visible" enable-background="new    " width="48" height="23" xlink:href="2149D26DD44FF4A7.jpg"  transform="matrix(0.5257 0 0 0.9474 60.9932 422.8066)">
	</image>
	
		<image overflow="visible" enable-background="new    " width="48" height="23" xlink:href="2149D26DD44FF4A4.jpg"  transform="matrix(0.5257 0 0 0.9474 60.9932 395.5332)">
	</image>
	
		<image overflow="visible" enable-background="new    " width="48" height="23" xlink:href="2149D26DD44FF4AC.jpg"  transform="matrix(0.5257 0 0 0.9474 60.9932 338.854)">
	</image>
	
		<image overflow="visible" enable-background="new    " width="48" height="23" xlink:href="2149D26DD44FF4AD.jpg"  transform="matrix(0.5257 0 0 0.9474 60.9932 310.0317)">
	</image>
	
		<image overflow="visible" enable-background="new    " width="48" height="23" xlink:href="2149D26DD44FF4AF.jpg"  transform="matrix(0.5257 0 0 0.9474 60.9932 282.7593)">
	</image>
	
		<image overflow="visible" enable-background="new    " width="48" height="23" xlink:href="2149D26DD44FF4AB.jpg"  transform="matrix(0.5257 0 0 0.9474 60.9932 229.4858)">
	</image>
	
		<image overflow="visible" enable-background="new    " width="48" height="23" xlink:href="2149D26DD44FF4A6.jpg"  transform="matrix(0.5257 0 0 0.9474 60.9932 200.6636)">
	</image>
	
		<image overflow="visible" enable-background="new    " width="48" height="23" xlink:href="2149D26DD44FF4C8.jpg"  transform="matrix(0.5257 0 0 0.9474 60.9932 173.3911)">
	</image>
	
		<image overflow="visible" enable-background="new    " width="48" height="23" xlink:href="2149D26DD44FF4CB.jpg"  transform="matrix(0.5257 0 0 0.9474 60.9932 125.2607)">
	</image>
	
		<image overflow="visible" enable-background="new    " width="48" height="23" xlink:href="2149D26DD44FF4C9.jpg"  transform="matrix(0.5257 0 0 0.9474 60.9932 96.4385)">
	</image>
	
		<image overflow="visible" enable-background="new    " width="48" height="23" xlink:href="2149D26DD44FF4D7.jpg"  transform="matrix(0.5257 0 0 0.9474 60.9932 69.166)">
	</image>
	
		<image overflow="visible" enable-background="new    " width="48" height="23" xlink:href="2149D26DD44FF4D8.jpg"  transform="matrix(0.5257 0 0 0.9474 116.8047 125.2607)">
	</image>
	
		<image overflow="visible" enable-background="new    " width="48" height="23" xlink:href="2149D26DD44FF4DB.jpg"  transform="matrix(0.5257 0 0 0.9474 116.8047 96.4385)">
	</image>
	
		<image overflow="visible" enable-background="new    " width="48" height="23" xlink:href="2149D26DD44FF4D9.jpg"  transform="matrix(0.5257 0 0 0.9474 116.8047 69.166)">
	</image>
	
		<image overflow="visible" enable-background="new    " width="48" height="23" xlink:href="2149D26DD44FF4DF.jpg"  transform="matrix(0.5257 0 0 0.9474 116.8047 228.7109)">
	</image>
	
		<image overflow="visible" enable-background="new    " width="48" height="23" xlink:href="2149D26DD44FF4DA.jpg"  transform="matrix(0.5257 0 0 0.9474 116.8047 199.8887)">
	</image>
	
		<image overflow="visible" enable-background="new    " width="48" height="23" xlink:href="2149D26DD44FF4D5.jpg"  transform="matrix(0.5257 0 0 0.9474 116.8047 172.6162)">
	</image>
	
		<image overflow="visible" enable-background="new    " width="48" height="23" xlink:href="2149D26DD44FF4FF.jpg"  transform="matrix(0.5257 0 0 0.9474 116.8047 339.6284)">
	</image>
	
		<image overflow="visible" enable-background="new    " width="48" height="23" xlink:href="2149D26DD44FF4FD.jpg"  transform="matrix(0.5257 0 0 0.9474 116.8047 310.8062)">
	</image>
	
		<image overflow="visible" enable-background="new    " width="48" height="23" xlink:href="2149D26DD44FF4F3.jpg"  transform="matrix(0.5257 0 0 0.9474 116.8047 283.5337)">
	</image>
	
		<image overflow="visible" enable-background="new    " width="48" height="23" xlink:href="2149D26DD44FF4F5.jpg"  transform="matrix(0.5257 0 0 0.9474 116.8047 451.6289)">
	</image>
	
		<image overflow="visible" enable-background="new    " width="48" height="23" xlink:href="2149D26DD44FF4F7.jpg"  transform="matrix(0.5257 0 0 0.9474 116.8047 422.8066)">
	</image>
	
		<image overflow="visible" enable-background="new    " width="48" height="23" xlink:href="2149D26DD44FF4F2.jpg"  transform="matrix(0.5257 0 0 0.9474 116.8047 395.5332)">
	</image>
	
		<image overflow="visible" enable-background="new    " width="48" height="23" xlink:href="2149D26DD44FF4F1.jpg"  transform="matrix(0.5257 0 0 0.9474 116.8052 550.8535)">
	</image>
	
		<image overflow="visible" enable-background="new    " width="48" height="23" xlink:href="2149D26DD44FF4ED.jpg"  transform="matrix(0.5257 0 0 0.9474 116.8052 522.0312)">
	</image>
	
		<image overflow="visible" enable-background="new    " width="48" height="23" xlink:href="2149D26DD44FF4EF.jpg"  transform="matrix(0.5257 0 0 0.9474 116.8052 494.7598)">
	</image>
	<rect x="118.493" y="660.009" fill="none" stroke="#000000" stroke-miterlimit="10" width="21.858" height="21.03"/>
	<rect x="118.493" y="631.249" fill="none" stroke="#000000" stroke-miterlimit="10" width="21.858" height="20.904"/>
	<rect x="118.493" y="603.977" fill="none" stroke="#000000" stroke-miterlimit="10" width="21.858" height="20.904"/>
	
		<image overflow="visible" enable-background="new    " width="48" height="23" xlink:href="2149D26DD44FF4D2.jpg"  transform="matrix(0.5257 0 0 0.9474 116.8047 659.6289)">
	</image>
	
		<image overflow="visible" enable-background="new    " width="48" height="23" xlink:href="2149D26DD44FF42E.jpg"  transform="matrix(0.5257 0 0 0.9474 116.8047 630.8066)">
	</image>
	
		<image overflow="visible" enable-background="new    " width="48" height="23" xlink:href="2149D26DD44FF42D.jpg"  transform="matrix(0.5257 0 0 0.9474 116.8047 603.5332)">
	</image>
	
		<image overflow="visible" enable-background="new    " width="48" height="23" xlink:href="2149D26DD44FF432.jpg"  transform="matrix(0.5257 0 0 0.9474 171.0874 659.6289)">
	</image>
	
		<image overflow="visible" enable-background="new    " width="48" height="23" xlink:href="2149D26DD44FF435.jpg"  transform="matrix(0.5257 0 0 0.9474 171.0874 630.8066)">
	</image>
	
		<image overflow="visible" enable-background="new    " width="48" height="23" xlink:href="2149D26DD44FF436.jpg"  transform="matrix(0.5257 0 0 0.9474 171.0874 603.5332)">
	</image>
	
		<image overflow="visible" enable-background="new    " width="48" height="23" xlink:href="2149D26DD44FF434.jpg"  transform="matrix(0.5257 0 0 0.9474 171.0874 451.6289)">
	</image>
	
		<image overflow="visible" enable-background="new    " width="48" height="23" xlink:href="2149D26DD44FF433.jpg"  transform="matrix(0.5257 0 0 0.9474 171.0874 422.8066)">
	</image>
	
		<image overflow="visible" enable-background="new    " width="48" height="23" xlink:href="2149D26DD44FF43D.jpg"  transform="matrix(0.5257 0 0 0.9474 171.0874 395.5332)">
	</image>
	
		<image overflow="visible" enable-background="new    " width="48" height="23" xlink:href="2149D26DD44FF43E.jpg"  transform="matrix(0.5257 0 0 0.9474 171.0874 338.854)">
	</image>
	
		<image overflow="visible" enable-background="new    " width="48" height="23" xlink:href="2149D26DD44FF43C.jpg"  transform="matrix(0.5257 0 0 0.9474 171.0874 310.0317)">
	</image>
	
		<image overflow="visible" enable-background="new    " width="48" height="23" xlink:href="2149D26DD44FF419.jpg"  transform="matrix(0.5257 0 0 0.9474 171.0874 282.7593)">
	</image>
	
		<image overflow="visible" enable-background="new    " width="48" height="23" xlink:href="2149D26DD44FF41F.jpg"  transform="matrix(0.5257 0 0 0.9474 171.0874 125.2607)">
	</image>
	
		<image overflow="visible" enable-background="new    " width="48" height="23" xlink:href="2149D26DD44FF418.jpg"  transform="matrix(0.5257 0 0 0.9474 171.0874 96.4385)">
	</image>
	
		<image overflow="visible" enable-background="new    " width="48" height="23" xlink:href="2149D26DD44FF41B.jpg"  transform="matrix(0.5257 0 0 0.9474 171.0874 69.166)">
	</image>
	
		<image overflow="visible" enable-background="new    " width="48" height="23" xlink:href="2149D26DD44FF407.jpg"  transform="matrix(0.5257 0 0 0.9474 226.8989 125.2607)">
	</image>
	
		<image overflow="visible" enable-background="new    " width="48" height="23" xlink:href="2149D26DD44FF417.jpg"  transform="matrix(0.5257 0 0 0.9474 226.8989 96.4385)">
	</image>
	
		<image overflow="visible" enable-background="new    " width="48" height="23" xlink:href="2149D26DD44FF409.jpg"  transform="matrix(0.5257 0 0 0.9474 226.8989 69.166)">
	</image>
	
		<image overflow="visible" enable-background="new    " width="48" height="23" xlink:href="2149D26DD44FF40B.jpg"  transform="matrix(0.5257 0 0 0.9474 226.8989 228.7109)">
	</image>
	
		<image overflow="visible" enable-background="new    " width="48" height="23" xlink:href="2149D26DD44FF408.jpg"  transform="matrix(0.5257 0 0 0.9474 226.8989 199.8887)">
	</image>
	
		<image overflow="visible" enable-background="new    " width="48" height="23" xlink:href="2149D26DD44FF40F.jpg"  transform="matrix(0.5257 0 0 0.9474 226.8989 172.6162)">
	</image>
	
		<image overflow="visible" enable-background="new    " width="48" height="23" xlink:href="2149D26DD44FF46C.jpg"  transform="matrix(0.5257 0 0 0.9474 226.8989 339.6284)">
	</image>
	
		<image overflow="visible" enable-background="new    " width="48" height="23" xlink:href="2149D26DD44FF46F.jpg"  transform="matrix(0.5257 0 0 0.9474 226.8989 310.8062)">
	</image>
	
		<image overflow="visible" enable-background="new    " width="48" height="23" xlink:href="2149D26DD44FF46D.jpg"  transform="matrix(0.5257 0 0 0.9474 226.8989 283.5337)">
	</image>
	
		<image overflow="visible" enable-background="new    " width="48" height="23" xlink:href="2149D26DD44FF463.jpg"  transform="matrix(0.5257 0 0 0.9474 226.8989 451.6289)">
	</image>
	
		<image overflow="visible" enable-background="new    " width="48" height="23" xlink:href="2149D26DD44FF464.jpg"  transform="matrix(0.5257 0 0 0.9474 226.8989 422.8066)">
	</image>
	
		<image overflow="visible" enable-background="new    " width="48" height="23" xlink:href="2149D26DD44FF467.jpg"  transform="matrix(0.5257 0 0 0.9474 226.8989 395.5332)">
	</image>
	
		<image overflow="visible" enable-background="new    " width="48" height="23" xlink:href="2149D26DD44FF465.jpg"  transform="matrix(0.5257 0 0 0.9474 226.8994 550.8535)">
	</image>
	
		<image overflow="visible" enable-background="new    " width="48" height="23" xlink:href="2149D26DD44FF462.jpg"  transform="matrix(0.5257 0 0 0.9474 226.8994 522.0312)">
	</image>
	
		<image overflow="visible" enable-background="new    " width="48" height="23" xlink:href="2149D26DD44FF45C.jpg"  transform="matrix(0.5257 0 0 0.9474 226.8994 494.7598)">
	</image>
	
		<image overflow="visible" enable-background="new    " width="48" height="23" xlink:href="2149D26DD44FF45F.jpg"  transform="matrix(0.5257 0 0 0.9474 226.8989 659.6289)">
	</image>
	
		<image overflow="visible" enable-background="new    " width="48" height="23" xlink:href="2149D26DD44FF443.jpg"  transform="matrix(0.5257 0 0 0.9474 226.8989 630.8066)">
	</image>
	
		<image overflow="visible" enable-background="new    " width="48" height="23" xlink:href="2149D26DD44FF441.jpg"  transform="matrix(0.5257 0 0 0.9474 226.8989 603.5332)">
	</image>
	
		<image overflow="visible" enable-background="new    " width="48" height="23" xlink:href="2149D26DD44FF43F.jpg"  transform="matrix(0.5257 0 0 0.9474 286.3018 659.6289)">
	</image>
	
		<image overflow="visible" enable-background="new    " width="48" height="23" xlink:href="2149D26DD44FF5C1.jpg"  transform="matrix(0.5257 0 0 0.9474 286.3018 630.8066)">
	</image>
	
		<image overflow="visible" enable-background="new    " width="48" height="23" xlink:href="2149D26DD44FF5C3.jpg"  transform="matrix(0.5257 0 0 0.9474 286.3018 603.5332)">
	</image>
	
		<image overflow="visible" enable-background="new    " width="48" height="23" xlink:href="2149D26DD44FF5C6.jpg"  transform="matrix(0.5257 0 0 0.9474 286.3018 551.6289)">
	</image>
	
		<image overflow="visible" enable-background="new    " width="48" height="23" xlink:href="2149D26DD44FF5C7.jpg"  transform="matrix(0.5257 0 0 0.9474 286.3018 522.8066)">
	</image>
	
		<image overflow="visible" enable-background="new    " width="48" height="23" xlink:href="2149D26DD44FF5C2.jpg"  transform="matrix(0.5257 0 0 0.9474 286.3018 495.5332)">
	</image>
	
		<image overflow="visible" enable-background="new    " width="48" height="23" xlink:href="2149D26DD44FF5CD.jpg"  transform="matrix(0.5257 0 0 0.9474 286.3018 451.6289)">
	</image>
	
		<image overflow="visible" enable-background="new    " width="48" height="23" xlink:href="2149D26DD44FF5CE.jpg"  transform="matrix(0.5257 0 0 0.9474 286.3018 422.8066)">
	</image>
	
		<image overflow="visible" enable-background="new    " width="48" height="23" xlink:href="2149D26DD44FF9C1.jpg"  transform="matrix(0.5257 0 0 0.9474 286.3018 395.5332)">
	</image>
	
		<image overflow="visible" enable-background="new    " width="48" height="23" xlink:href="2149D26DD44FF9C3.jpg"  transform="matrix(0.5257 0 0 0.9474 286.3018 338.854)">
	</image>
	
		<image overflow="visible" enable-background="new    " width="48" height="23" xlink:href="2149D26DD44FF9C0.jpg"  transform="matrix(0.5257 0 0 0.9474 286.3018 310.0317)">
	</image>
	
		<image overflow="visible" enable-background="new    " width="48" height="23" xlink:href="2149D26DD44FF9C7.jpg"  transform="matrix(0.5257 0 0 0.9474 286.3018 282.7593)">
	</image>
	
		<image overflow="visible" enable-background="new    " width="48" height="23" xlink:href="2149D26DD44FF9C2.jpg"  transform="matrix(0.5257 0 0 0.9474 286.3018 229.4858)">
	</image>
	
		<image overflow="visible" enable-background="new    " width="48" height="23" xlink:href="2149D26DD44FF9DE.jpg"  transform="matrix(0.5257 0 0 0.9474 286.3018 200.6636)">
	</image>
	
		<image overflow="visible" enable-background="new    " width="48" height="23" xlink:href="2149D26DD44FF9DF.jpg"  transform="matrix(0.5257 0 0 0.9474 286.3018 173.3911)">
	</image>
	
		<image overflow="visible" enable-background="new    " width="48" height="23" xlink:href="2149D26DD44FF9C4.jpg"  transform="matrix(0.5257 0 0 0.9474 286.3018 125.2607)">
	</image>
	
		<image overflow="visible" enable-background="new    " width="48" height="23" xlink:href="2149D26DD44FF9C5.jpg"  transform="matrix(0.5257 0 0 0.9474 286.3018 96.4385)">
	</image>
	
		<image overflow="visible" enable-background="new    " width="48" height="23" xlink:href="2149D26DD44FF9C6.jpg"  transform="matrix(0.5257 0 0 0.9474 286.3018 69.166)">
	</image>
	
		<image overflow="visible" enable-background="new    " width="48" height="23" xlink:href="2149D26DD44FF9FC.jpg"  transform="matrix(0.5257 0 0 0.9474 342.1133 228.7109)">
	</image>
	
		<image overflow="visible" enable-background="new    " width="48" height="23" xlink:href="2149D26DD44FF9FB.jpg"  transform="matrix(0.5257 0 0 0.9474 342.1133 199.8887)">
	</image>
	
		<image overflow="visible" enable-background="new    " width="48" height="23" xlink:href="2149D26DD44FF9E4.jpg"  transform="matrix(0.5257 0 0 0.9474 342.1133 172.6162)">
	</image>
	
		<image overflow="visible" enable-background="new    " width="48" height="23" xlink:href="2149D26DD44FF9E7.jpg"  transform="matrix(0.5257 0 0 0.9474 342.1133 339.6284)">
	</image>
	
		<image overflow="visible" enable-background="new    " width="48" height="23" xlink:href="2149D26DD44FF9E5.jpg"  transform="matrix(0.5257 0 0 0.9474 342.1133 310.8062)">
	</image>
	
		<image overflow="visible" enable-background="new    " width="48" height="23" xlink:href="2149D26DD44FF9EB.jpg"  transform="matrix(0.5257 0 0 0.9474 342.1133 283.5337)">
	</image>
	
		<image overflow="visible" enable-background="new    " width="48" height="23" xlink:href="2149D26DD44FF9EC.jpg"  transform="matrix(0.5257 0 0 0.9474 342.1133 437.541)">
	</image>
	
		<image overflow="visible" enable-background="new    " width="48" height="23" xlink:href="2149D26DD44FF9EF.jpg"  transform="matrix(0.5257 0 0 0.9474 342.1143 406.4297)">
	</image>
	
		<image overflow="visible" enable-background="new    " width="48" height="23" xlink:href="2149D26DD44FF9ED.jpg"  transform="matrix(0.5257 0 0 0.9474 342.1133 550.8535)">
	</image>
	
		<image overflow="visible" enable-background="new    " width="48" height="23" xlink:href="2149D26DD44FF9EA.jpg"  transform="matrix(0.5257 0 0 0.9474 342.1133 522.0312)">
	</image>
	
		<image overflow="visible" enable-background="new    " width="48" height="23" xlink:href="2149D26DD44FF98F.jpg"  transform="matrix(0.5257 0 0 0.9474 342.1133 494.7598)">
	</image>
	
		<image overflow="visible" enable-background="new    " width="48" height="23" xlink:href="2149D26DD44FF989.jpg"  transform="matrix(0.5257 0 0 0.9474 395.9492 552.0723)">
	</image>
	
		<image overflow="visible" enable-background="new    " width="48" height="23" xlink:href="2149D26DD44FF98B.jpg"  transform="matrix(0.5257 0 0 0.9474 395.9492 523.25)">
	</image>
	
		<image overflow="visible" enable-background="new    " width="48" height="23" xlink:href="2149D26DD44FF9B6.jpg"  transform="matrix(0.5257 0 0 0.9474 395.9492 495.9766)">
	</image>
	
		<image overflow="visible" enable-background="new    " width="48" height="23" xlink:href="2149D26DD44FF9B7.jpg"  transform="matrix(0.5257 0 0 0.9474 395.9492 440.7344)">
	</image>
	
		<image overflow="visible" enable-background="new    " width="48" height="23" xlink:href="2149D26DD44FF9B9.jpg"  transform="matrix(0.5257 0 0 0.9474 395.9512 406.4297)">
	</image>
	
		<image overflow="visible" enable-background="new    " width="48" height="23" xlink:href="2149D26DD44FF9BB.jpg"  transform="matrix(0.5257 0 0 0.9474 340.4238 115.2632)">
	</image>
	
		<image overflow="visible" enable-background="new    " width="48" height="23" xlink:href="2149D26DD44FF9BE.jpg"  transform="matrix(0.5257 0 0 0.9474 340.4248 84.1509)">
	</image>
	
		<image overflow="visible" enable-background="new    " width="48" height="23" xlink:href="2149D26DD44FF9BF.jpg"  transform="matrix(0.5257 0 0 0.9474 394.2598 118.4556)">
	</image>
	
		<image overflow="visible" enable-background="new    " width="48" height="23" xlink:href="2149D26DD44FF9BA.jpg"  transform="matrix(0.5257 0 0 0.9474 394.2617 84.1509)">
	</image>
</g>
</svg>
