<?xml version="1.0" encoding="utf-8"?>
<!-- Generator: Adobe Illustrator 16.0.0, SVG Export Plug-In . SVG Version: 6.00 Build 0)  -->
<!DOCTYPE svg PUBLIC "-//W3C//DTD SVG 1.1//EN" "http://www.w3.org/Graphics/SVG/1.1/DTD/svg11.dtd">
<svg version="1.1" id="レイヤー_1" xmlns="http://www.w3.org/2000/svg" xmlns:xlink="http://www.w3.org/1999/xlink" x="0px"
  y="0px" width="480px" height="720px" viewBox="0 0 480 720" xml:space="preserve">
<rect x="30.46" y="49.132" fill="#FFFFFF" stroke="#000000" stroke-width="4" stroke-miterlimit="10" width="419.079" height="654.558"/>
<rect x="166.325" y="21.559" fill="none" width="145.455" height="27.273"/>
<rect x="403.909" y="160.231" fill="none" width="31.168" height="18.182"/>
<rect x="443.046" y="563.741" fill="#FFFFFF" stroke="#FFFFFF" stroke-miterlimit="10" width="12.987" height="36.362"/>
<rect x="446.046" y="151.14" fill="#FFFFFF" stroke="#FFFFFF" stroke-miterlimit="10" width="12.987" height="36.363"/>
<rect x="405.601" y="594.886" fill="none" width="31.168" height="18.183"/>
<g id="japanese_words">
  <text transform="matrix(1 0 0 1 166.3242 36.9414)" font-family="'KozGoPr6N-Regular-83pv-RKSJ-H'" font-size="18">ＰＣ教室ＣＤ</text>
  <text transform="matrix(1 0 0 1 405.6016 595)" font-family="'KozGoPr6N-Regular-83pv-RKSJ-H'" font-size="14">入口</text>
  <text transform="matrix(1 0 0 1 403.9102 172.5518)" font-family="'KozGoPr6N-Regular-83pv-RKSJ-H'" font-size="14">入口</text>
</g>
<g id="english_words" style="display:none">
  <text transform="matrix(1 0 0 1 166.3242 36.9414)" font-family="'KozGoPr6N-Regular-83pv-RKSJ-H'" font-size="18">Machine Shop CD</text>
  <text transform="matrix(1 0 0 1 405.6016 595)" font-family="'KozGoPr6N-Regular-83pv-RKSJ-H'" font-size="14">Entrance</text>
  <text transform="matrix(1 0 0 1 403.9102 172.5518)" font-family="'KozGoPr6N-Regular-83pv-RKSJ-H'" font-size="14">Entrance</text>
</g>
<g id="on">
  <image id="pc_d1_on" overflow="visible" width="51" height="26" xlink:href="on.jpg"  transform="matrix(0.5257 0 0 0.9474 60.9932 659.6289)" style="display:none" />
  <image id="pc_d2_on" overflow="visible" width="51" height="26" xlink:href="on.jpg"  transform="matrix(0.5257 0 0 0.9474 60.9932 630.8066)" style="display:none" />
  <image id="pc_d3_on" overflow="visible" width="51" height="26" xlink:href="on.jpg"  transform="matrix(0.5257 0 0 0.9474 60.9932 603.5332)" style="display:none" />
  <image id="pc_d16_on" overflow="visible" width="51" height="26" xlink:href="on.jpg"  transform="matrix(0.5257 0 0 0.9474 60.9932 551.6289)" style="display:none" />
  <image id="pc_d17_on" overflow="visible" width="51" height="26" xlink:href="on.jpg"  transform="matrix(0.5257 0 0 0.9474 60.9932 522.8066)" style="display:none" />
  <image id="pc_d18_on" overflow="visible" width="51" height="26" xlink:href="on.jpg"  transform="matrix(0.5257 0 0 0.9474 60.9932 495.5332)" style="display:none" />
  <image id="pc_d34_on" overflow="visible" width="51" height="26" xlink:href="on.jpg"  transform="matrix(0.5257 0 0 0.9474 60.9932 451.6289)" style="display:none" />
  <image id="pc_d35_on" overflow="visible" width="51" height="26" xlink:href="on.jpg"  transform="matrix(0.5257 0 0 0.9474 60.9932 422.8066)" style="display:none" />
  <image id="pc_d36_on" overflow="visible" width="51" height="26" xlink:href="on.jpg"  transform="matrix(0.5257 0 0 0.9474 60.9932 395.5332)" style="display:none" />
  <image id="pc_c1_on" overflow="visible" width="51" height="26" xlink:href="on.jpg"  transform="matrix(0.5257 0 0 0.9474 60.9932 338.854)" style="display:none" />
  <image id="pc_c2_on" overflow="visible" width="51" height="26" xlink:href="on.jpg"  transform="matrix(0.5257 0 0 0.9474 60.9932 310.0317)" style="display:none" />
  <image id="pc_c3_on" overflow="visible" width="51" height="26" xlink:href="on.jpg"  transform="matrix(0.5257 0 0 0.9474 60.9932 282.7593)" style="display:none" />
  <image id="pc_c19_on" overflow="visible" width="51" height="26" xlink:href="on.jpg"  transform="matrix(0.5257 0 0 0.9474 60.9932 229.4858)" style="display:none" />
  <image id="pc_c20_on" overflow="visible" width="51" height="26" xlink:href="on.jpg"  transform="matrix(0.5257 0 0 0.9474 60.9932 200.6636)" style="display:none" />
  <image id="pc_c21_on" overflow="visible" width="51" height="26" xlink:href="on.jpg"  transform="matrix(0.5257 0 0 0.9474 60.9932 173.3911)" style="display:none" />
  <image id="pc_c34_on" overflow="visible" width="51" height="26" xlink:href="on.jpg"  transform="matrix(0.5257 0 0 0.9474 60.9932 125.2607)" style="display:none" />
  <image id="pc_c35_on" overflow="visible" width="51" height="26" xlink:href="on.jpg"  transform="matrix(0.5257 0 0 0.9474 60.9932 96.4385)" style="display:none" />
  <image id="pc_c36_on" overflow="visible" width="51" height="26" xlink:href="on.jpg"  transform="matrix(0.5257 0 0 0.9474 60.9932 69.166)" style="display:none" />
  <image id="pc_c37_on" overflow="visible" width="51" height="26" xlink:href="on.jpg"  transform="matrix(0.5257 0 0 0.9474 116.8047 125.2607)" style="display:none" />
  <image id="pc_c38_on" overflow="visible" width="51" height="26" xlink:href="on.jpg"  transform="matrix(0.5257 0 0 0.9474 116.8047 96.4385)" style="display:none" />
  <image id="pc_c39_on" overflow="visible" width="51" height="26" xlink:href="on.jpg"  transform="matrix(0.5257 0 0 0.9474 116.8047 69.166)" style="display:none" />
  <image id="pc_c22_on" overflow="visible" width="51" height="26" xlink:href="on.jpg"  transform="matrix(0.5257 0 0 0.9474 116.8047 228.7109)" style="display:none" />
  <image id="pc_c23_on" overflow="visible" width="51" height="26" xlink:href="on.jpg"  transform="matrix(0.5257 0 0 0.9474 116.8047 199.8887)" style="display:none" />
  <image id="pc_c24_on" overflow="visible" width="51" height="26" xlink:href="on.jpg"  transform="matrix(0.5257 0 0 0.9474 116.8047 172.6162)" style="display:none" />
  <image id="pc_c4_on" overflow="visible" width="51" height="26" xlink:href="on.jpg"  transform="matrix(0.5257 0 0 0.9474 116.8047 339.6284)" style="display:none" />
  <image id="pc_c5_on" overflow="visible" width="51" height="26" xlink:href="on.jpg"  transform="matrix(0.5257 0 0 0.9474 116.8047 310.8062)" style="display:none" />
  <image id="pc_c6_on" overflow="visible" width="51" height="26" xlink:href="on.jpg"  transform="matrix(0.5257 0 0 0.9474 116.8047 283.5337)" style="display:none" />
  <image id="pc_d37_on" overflow="visible" width="51" height="26" xlink:href="on.jpg"  transform="matrix(0.5257 0 0 0.9474 116.8047 451.6289)" style="display:none" />
  <image id="pc_d38_on" overflow="visible" width="51" height="26" xlink:href="on.jpg"  transform="matrix(0.5257 0 0 0.9474 116.8047 422.8066)" style="display:none" />
  <image id="pc_d39_on" overflow="visible" width="51" height="26" xlink:href="on.jpg"  transform="matrix(0.5257 0 0 0.9474 116.8047 395.5332)" style="display:none" />
  <image id="pc_d19_on" overflow="visible" width="51" height="26" xlink:href="on.jpg"  transform="matrix(0.5257 0 0 0.9474 116.8052 550.8535)" style="display:none" />
  <image id="pc_d20_on" overflow="visible" width="51" height="26" xlink:href="on.jpg"  transform="matrix(0.5257 0 0 0.9474 116.8052 522.0312)" style="display:none" />
  <image id="pc_d21_on" overflow="visible" width="51" height="26" xlink:href="on.jpg"  transform="matrix(0.5257 0 0 0.9474 116.8052 494.7598)" style="display:none" />
  <image id="pc_d4_on" overflow="visible" width="51" height="26" xlink:href="on.jpg"  transform="matrix(0.5257 0 0 0.9474 116.8047 659.6289)" style="display:none" />
  <image id="pc_d5_on" overflow="visible" width="51" height="26" xlink:href="on.jpg"  transform="matrix(0.5257 0 0 0.9474 116.8047 630.8066)" style="display:none" />
  <image id="pc_d6_on" overflow="visible" width="51" height="26" xlink:href="on.jpg"  transform="matrix(0.5257 0 0 0.9474 116.8047 603.5332)" style="display:none" />
  <image id="pc_d7_on" overflow="visible" width="51" height="26" xlink:href="on.jpg"  transform="matrix(0.5257 0 0 0.9474 171.0874 659.6289)" style="display:none" />
  <image id="pc_d8_on" overflow="visible" width="51" height="26" xlink:href="on.jpg"  transform="matrix(0.5257 0 0 0.9474 171.0874 630.8066)" style="display:none" />
  <image id="pc_d9_on" overflow="visible" width="51" height="26" xlink:href="on.jpg"  transform="matrix(0.5257 0 0 0.9474 171.0874 603.5332)" style="display:none" />
  <image id="pc_d40_on" overflow="visible" width="51" height="26" xlink:href="on.jpg"  transform="matrix(0.5257 0 0 0.9474 171.0874 451.6289)" style="display:none" />
  <image id="pc_d41_on" overflow="visible" width="51" height="26" xlink:href="on.jpg"  transform="matrix(0.5257 0 0 0.9474 171.0874 422.8066)" style="display:none" />
  <image id="pc_d42_on" overflow="visible" width="51" height="26" xlink:href="on.jpg"  transform="matrix(0.5257 0 0 0.9474 171.0874 395.5332)" style="display:none" />
  <image id="pc_c7_on" overflow="visible" width="51" height="26" xlink:href="on.jpg"  transform="matrix(0.5257 0 0 0.9474 171.0874 338.854)" style="display:none" />
  <image id="pc_c8_on" overflow="visible" width="51" height="26" xlink:href="on.jpg"  transform="matrix(0.5257 0 0 0.9474 171.0874 310.0317)" style="display:none" />
  <image id="pc_c9_on" overflow="visible" width="51" height="26" xlink:href="on.jpg"  transform="matrix(0.5257 0 0 0.9474 171.0874 282.7593)" style="display:none" />
  <image id="pc_c40_on" overflow="visible" width="51" height="26" xlink:href="on.jpg"  transform="matrix(0.5257 0 0 0.9474 171.0874 125.2607)" style="display:none" />
  <image id="pc_c41_on" overflow="visible" width="51" height="26" xlink:href="on.jpg"  transform="matrix(0.5257 0 0 0.9474 171.0874 96.4385)" style="display:none" />
  <image id="pc_c42_on" overflow="visible" width="51" height="26" xlink:href="on.jpg"  transform="matrix(0.5257 0 0 0.9474 171.0874 69.166)" style="display:none" />
  <image id="pc_c43_on" overflow="visible" width="51" height="26" xlink:href="on.jpg"  transform="matrix(0.5257 0 0 0.9474 226.8989 125.2607)" style="display:none" />
  <image id="pc_c44_on" overflow="visible" width="51" height="26" xlink:href="on.jpg"  transform="matrix(0.5257 0 0 0.9474 226.8989 96.4385)" style="display:none" />
  <image id="pc_c45_on" overflow="visible" width="51" height="26" xlink:href="on.jpg"  transform="matrix(0.5257 0 0 0.9474 226.8989 69.166)" style="display:none" />
  <image id="pc_c25_on" overflow="visible" width="51" height="26" xlink:href="on.jpg"  transform="matrix(0.5257 0 0 0.9474 226.8989 228.7109)" style="display:none" />
  <image id="pc_c26_on" overflow="visible" width="51" height="26" xlink:href="on.jpg"  transform="matrix(0.5257 0 0 0.9474 226.8989 199.8887)" style="display:none" />
  <image id="pc_c27_on" overflow="visible" width="51" height="26" xlink:href="on.jpg"  transform="matrix(0.5257 0 0 0.9474 226.8989 172.6162)" style="display:none" />
  <image id="pc_c10_on" overflow="visible" width="51" height="26" xlink:href="on.jpg"  transform="matrix(0.5257 0 0 0.9474 226.8989 339.6284)" style="display:none" />
  <image id="pc_c11_on" overflow="visible" width="51" height="26" xlink:href="on.jpg"  transform="matrix(0.5257 0 0 0.9474 226.8989 310.8062)" style="display:none" />
  <image id="pc_c12_on" overflow="visible" width="51" height="26" xlink:href="on.jpg"  transform="matrix(0.5257 0 0 0.9474 226.8989 283.5337)" style="display:none" />
  <image id="pc_d43_on" overflow="visible" width="51" height="26" xlink:href="on.jpg"  transform="matrix(0.5257 0 0 0.9474 226.8989 451.6289)" style="display:none" />
  <image id="pc_d44_on" overflow="visible" width="51" height="26" xlink:href="on.jpg"  transform="matrix(0.5257 0 0 0.9474 226.8989 422.8066)" style="display:none" />
  <image id="pc_d45_on" overflow="visible" width="51" height="26" xlink:href="on.jpg"  transform="matrix(0.5257 0 0 0.9474 226.8989 395.5332)" style="display:none" />
  <image id="pc_d21_on" overflow="visible" width="51" height="26" xlink:href="on.jpg"  transform="matrix(0.5257 0 0 0.9474 226.8994 550.8535)" style="display:none" />
  <image id="pc_d22_on" overflow="visible" width="51" height="26" xlink:href="on.jpg"  transform="matrix(0.5257 0 0 0.9474 226.8994 522.0312)" style="display:none" />
  <image id="pc_d23_on" overflow="visible" width="51" height="26" xlink:href="on.jpg"  transform="matrix(0.5257 0 0 0.9474 226.8994 494.7598)" style="display:none" />
  <image id="pc_d10_on" overflow="visible" width="51" height="26" xlink:href="on.jpg"  transform="matrix(0.5257 0 0 0.9474 226.8989 659.6289)" style="display:none" />
  <image id="pc_d11_on" overflow="visible" width="51" height="26" xlink:href="on.jpg"  transform="matrix(0.5257 0 0 0.9474 226.8989 630.8066)" style="display:none" />
  <image id="pc_d12_on" overflow="visible" width="51" height="26" xlink:href="on.jpg"  transform="matrix(0.5257 0 0 0.9474 226.8989 603.5332)" style="display:none" />
  <image id="pc_d13_on" overflow="visible" width="51" height="26" xlink:href="on.jpg"  transform="matrix(0.5257 0 0 0.9474 286.3018 659.6289)" style="display:none" />
  <image id="pc_d14_on" overflow="visible" width="51" height="26" xlink:href="on.jpg"  transform="matrix(0.5257 0 0 0.9474 286.3018 630.8066)" style="display:none" />
  <image id="pc_d15_on" overflow="visible" width="51" height="26" xlink:href="on.jpg"  transform="matrix(0.5257 0 0 0.9474 286.3018 603.5332)" style="display:none" />
  <image id="pc_d25_on" overflow="visible" width="51" height="26" xlink:href="on.jpg"  transform="matrix(0.5257 0 0 0.9474 286.3018 551.6289)" style="display:none" />
  <image id="pc_d26_on" overflow="visible" width="51" height="26" xlink:href="on.jpg"  transform="matrix(0.5257 0 0 0.9474 286.3018 522.8066)" style="display:none" />
  <image id="pc_d27_on" overflow="visible" width="51" height="26" xlink:href="on.jpg"  transform="matrix(0.5257 0 0 0.9474 286.3018 495.5332)" style="display:none" />
  <image id="pc_d46_on" overflow="visible" width="51" height="26" xlink:href="on.jpg"  transform="matrix(0.5257 0 0 0.9474 286.3018 451.6289)" style="display:none" />
  <image id="pc_d47_on" overflow="visible" width="51" height="26" xlink:href="on.jpg"  transform="matrix(0.5257 0 0 0.9474 286.3018 422.8066)" style="display:none" />
  <image id="pc_d48_on" overflow="visible" width="51" height="26" xlink:href="on.jpg"  transform="matrix(0.5257 0 0 0.9474 286.3018 395.5332)" style="display:none" />
  <image id="pc_c13_on" overflow="visible" width="51" height="26" xlink:href="on.jpg"  transform="matrix(0.5257 0 0 0.9474 286.3018 338.854)" style="display:none" />
  <image id="pc_c14_on" overflow="visible" width="51" height="26" xlink:href="on.jpg"  transform="matrix(0.5257 0 0 0.9474 286.3018 310.0317)" style="display:none" />
  <image id="pc_c15_on" overflow="visible" width="51" height="26" xlink:href="on.jpg"  transform="matrix(0.5257 0 0 0.9474 286.3018 282.7593)" style="display:none" />
  <image id="pc_c28_on" overflow="visible" width="51" height="26" xlink:href="on.jpg"  transform="matrix(0.5257 0 0 0.9474 286.3018 229.4858)" style="display:none" />
  <image id="pc_c29_on" overflow="visible" width="51" height="26" xlink:href="on.jpg"  transform="matrix(0.5257 0 0 0.9474 286.3018 200.6636)" style="display:none" />
  <image id="pc_c30_on" overflow="visible" width="51" height="26" xlink:href="on.jpg"  transform="matrix(0.5257 0 0 0.9474 286.3018 173.3911)" style="display:none" />
  <image id="pc_c46_on" overflow="visible" width="51" height="26" xlink:href="on.jpg"  transform="matrix(0.5257 0 0 0.9474 286.3018 125.2607)" style="display:none" />
  <image id="pc_c47_on" overflow="visible" width="51" height="26" xlink:href="on.jpg"  transform="matrix(0.5257 0 0 0.9474 286.3018 96.4385)" style="display:none" />
  <image id="pc_c48_on" overflow="visible" width="51" height="26" xlink:href="on.jpg"  transform="matrix(0.5257 0 0 0.9474 286.3018 69.166)" style="display:none" />
  <image id="pc_c31_on" overflow="visible" width="51" height="26" xlink:href="on.jpg"  transform="matrix(0.5257 0 0 0.9474 342.1133 228.7109)" style="display:none" />
  <image id="pc_c32_on" overflow="visible" width="51" height="26" xlink:href="on.jpg"  transform="matrix(0.5257 0 0 0.9474 342.1133 199.8887)" style="display:none" />
  <image id="pc_c33_on" overflow="visible" width="51" height="26" xlink:href="on.jpg"  transform="matrix(0.5257 0 0 0.9474 342.1133 172.6162)" style="display:none" />
  <image id="pc_c16_on" overflow="visible" width="51" height="26" xlink:href="on.jpg"  transform="matrix(0.5257 0 0 0.9474 342.1133 339.6284)" style="display:none" />
  <image id="pc_c17_on" overflow="visible" width="51" height="26" xlink:href="on.jpg"  transform="matrix(0.5257 0 0 0.9474 342.1133 310.8062)" style="display:none" />
  <image id="pc_c18_on" overflow="visible" width="51" height="26" xlink:href="on.jpg"  transform="matrix(0.5257 0 0 0.9474 342.1133 283.5337)" style="display:none" />
  <image id="pc_d49_on" overflow="visible" width="51" height="26" xlink:href="on.jpg"  transform="matrix(0.5257 0 0 0.9474 342.1133 437.541)" style="display:none" />
  <image id="pc_d50_on" overflow="visible" width="51" height="26" xlink:href="on.jpg"  transform="matrix(0.5257 0 0 0.9474 342.1143 406.4297)" style="display:none" />
  <image id="pc_d28_on" overflow="visible" width="51" height="26" xlink:href="on.jpg"  transform="matrix(0.5257 0 0 0.9474 342.1133 550.8535)" style="display:none" />
  <image id="pc_d29_on" overflow="visible" width="51" height="26" xlink:href="on.jpg"  transform="matrix(0.5257 0 0 0.9474 342.1133 522.0312)" style="display:none" />
  <image id="pc_d30_on" overflow="visible" width="51" height="26" xlink:href="on.jpg"  transform="matrix(0.5257 0 0 0.9474 342.1133 494.7598)" style="display:none" />
  <image id="pc_d31_on" overflow="visible" width="51" height="26" xlink:href="on.jpg"  transform="matrix(0.5257 0 0 0.9474 395.9492 552.0723)" style="display:none" />
  <image id="pc_d32_on" overflow="visible" width="51" height="26" xlink:href="on.jpg"  transform="matrix(0.5257 0 0 0.9474 395.9492 523.25)" style="display:none" />
  <image id="pc_d33_on" overflow="visible" width="51" height="26" xlink:href="on.jpg"  transform="matrix(0.5257 0 0 0.9474 395.9492 495.9766)" style="display:none" />
  <image id="pc_d51_on" overflow="visible" width="51" height="26" xlink:href="on.jpg"  transform="matrix(0.5257 0 0 0.9474 395.9492 440.7344)" style="display:none" />
  <image id="pc_d52_on" overflow="visible" width="51" height="26" xlink:href="on.jpg"  transform="matrix(0.5257 0 0 0.9474 395.9512 406.4297)" style="display:none" />
  <image id="pc_c49_on" overflow="visible" width="51" height="26" xlink:href="on.jpg"  transform="matrix(0.5257 0 0 0.9474 340.4238 115.2632)" style="display:none" />
  <image id="pc_c50_on" overflow="visible" width="51" height="26" xlink:href="on.jpg"  transform="matrix(0.5257 0 0 0.9474 340.4248 84.1509)" style="display:none" />
  <image id="pc_c51_on" overflow="visible" width="51" height="26" xlink:href="on.jpg"  transform="matrix(0.5257 0 0 0.9474 394.2598 118.4556)" style="display:none" />
  <image id="pc_c52_on" overflow="visible" width="51" height="26" xlink:href="on.jpg"  transform="matrix(0.5257 0 0 0.9474 394.2617 84.1509)" style="display:none" />
</g>
<g id="off">
  <image id="pc_d1_off" overflow="visible" width="51" height="26" xlink:href="off.jpg"  transform="matrix(0.5257 0 0 0.9474 60.9932 659.6289)" />
  <image id="pc_d2_off" overflow="visible" width="51" height="26" xlink:href="off.jpg"  transform="matrix(0.5257 0 0 0.9474 60.9932 630.8066)" />
  <image id="pc_d3_off" overflow="visible" width="51" height="26" xlink:href="off.jpg"  transform="matrix(0.5257 0 0 0.9474 60.9932 603.5332)" />
  <image id="pc_d16_off" overflow="visible" width="51" height="26" xlink:href="off.jpg"  transform="matrix(0.5257 0 0 0.9474 60.9932 551.6289)" />
  <image id="pc_d17_off" overflow="visible" width="51" height="26" xlink:href="off.jpg"  transform="matrix(0.5257 0 0 0.9474 60.9932 522.8066)" />
  <image id="pc_d18_off" overflow="visible" width="51" height="26" xlink:href="off.jpg"  transform="matrix(0.5257 0 0 0.9474 60.9932 495.5332)" />
  <image id="pc_d34_off" overflow="visible" width="51" height="26" xlink:href="off.jpg"  transform="matrix(0.5257 0 0 0.9474 60.9932 451.6289)" />
  <image id="pc_d35_off" overflow="visible" width="51" height="26" xlink:href="off.jpg"  transform="matrix(0.5257 0 0 0.9474 60.9932 422.8066)" />
  <image id="pc_d36_off" overflow="visible" width="51" height="26" xlink:href="off.jpg"  transform="matrix(0.5257 0 0 0.9474 60.9932 395.5332)" />
  <image id="pc_c1_off" overflow="visible" width="51" height="26" xlink:href="off.jpg"  transform="matrix(0.5257 0 0 0.9474 60.9932 338.854)" />
  <image id="pc_c2_off" overflow="visible" width="51" height="26" xlink:href="off.jpg"  transform="matrix(0.5257 0 0 0.9474 60.9932 310.0317)" />
  <image id="pc_c3_off" overflow="visible" width="51" height="26" xlink:href="off.jpg"  transform="matrix(0.5257 0 0 0.9474 60.9932 282.7593)" />
  <image id="pc_c19_off" overflow="visible" width="51" height="26" xlink:href="off.jpg"  transform="matrix(0.5257 0 0 0.9474 60.9932 229.4858)" />
  <image id="pc_c20_off" overflow="visible" width="51" height="26" xlink:href="off.jpg"  transform="matrix(0.5257 0 0 0.9474 60.9932 200.6636)" />
  <image id="pc_c21_off" overflow="visible" width="51" height="26" xlink:href="off.jpg"  transform="matrix(0.5257 0 0 0.9474 60.9932 173.3911)" />
  <image id="pc_c34_off" overflow="visible" width="51" height="26" xlink:href="off.jpg"  transform="matrix(0.5257 0 0 0.9474 60.9932 125.2607)" />
  <image id="pc_c35_off" overflow="visible" width="51" height="26" xlink:href="off.jpg"  transform="matrix(0.5257 0 0 0.9474 60.9932 96.4385)" />
  <image id="pc_c36_off" overflow="visible" width="51" height="26" xlink:href="off.jpg"  transform="matrix(0.5257 0 0 0.9474 60.9932 69.166)" />
  <image id="pc_c37_off" overflow="visible" width="51" height="26" xlink:href="off.jpg"  transform="matrix(0.5257 0 0 0.9474 116.8047 125.2607)" />
  <image id="pc_c38_off" overflow="visible" width="51" height="26" xlink:href="off.jpg"  transform="matrix(0.5257 0 0 0.9474 116.8047 96.4385)" />
  <image id="pc_c39_off" overflow="visible" width="51" height="26" xlink:href="off.jpg"  transform="matrix(0.5257 0 0 0.9474 116.8047 69.166)" />
  <image id="pc_c22_off" overflow="visible" width="51" height="26" xlink:href="off.jpg"  transform="matrix(0.5257 0 0 0.9474 116.8047 228.7109)" />
  <image id="pc_c23_off" overflow="visible" width="51" height="26" xlink:href="off.jpg"  transform="matrix(0.5257 0 0 0.9474 116.8047 199.8887)" />
  <image id="pc_c24_off" overflow="visible" width="51" height="26" xlink:href="off.jpg"  transform="matrix(0.5257 0 0 0.9474 116.8047 172.6162)" />
  <image id="pc_c4_off" overflow="visible" width="51" height="26" xlink:href="off.jpg"  transform="matrix(0.5257 0 0 0.9474 116.8047 339.6284)" />
  <image id="pc_c5_off" overflow="visible" width="51" height="26" xlink:href="off.jpg"  transform="matrix(0.5257 0 0 0.9474 116.8047 310.8062)" />
  <image id="pc_c6_off" overflow="visible" width="51" height="26" xlink:href="off.jpg"  transform="matrix(0.5257 0 0 0.9474 116.8047 283.5337)" />
  <image id="pc_d37_off" overflow="visible" width="51" height="26" xlink:href="off.jpg"  transform="matrix(0.5257 0 0 0.9474 116.8047 451.6289)" />
  <image id="pc_d38_off" overflow="visible" width="51" height="26" xlink:href="off.jpg"  transform="matrix(0.5257 0 0 0.9474 116.8047 422.8066)" />
  <image id="pc_d39_off" overflow="visible" width="51" height="26" xlink:href="off.jpg"  transform="matrix(0.5257 0 0 0.9474 116.8047 395.5332)" />
  <image id="pc_d19_off" overflow="visible" width="51" height="26" xlink:href="off.jpg"  transform="matrix(0.5257 0 0 0.9474 116.8052 550.8535)" />
  <image id="pc_d20_off" overflow="visible" width="51" height="26" xlink:href="off.jpg"  transform="matrix(0.5257 0 0 0.9474 116.8052 522.0312)" />
  <image id="pc_d21_off" overflow="visible" width="51" height="26" xlink:href="off.jpg"  transform="matrix(0.5257 0 0 0.9474 116.8052 494.7598)" />
  <image id="pc_d4_off" overflow="visible" width="51" height="26" xlink:href="off.jpg"  transform="matrix(0.5257 0 0 0.9474 116.8047 659.6289)" />
  <image id="pc_d5_off" overflow="visible" width="51" height="26" xlink:href="off.jpg"  transform="matrix(0.5257 0 0 0.9474 116.8047 630.8066)" />
  <image id="pc_d6_off" overflow="visible" width="51" height="26" xlink:href="off.jpg"  transform="matrix(0.5257 0 0 0.9474 116.8047 603.5332)" />
  <image id="pc_d7_off" overflow="visible" width="51" height="26" xlink:href="off.jpg"  transform="matrix(0.5257 0 0 0.9474 171.0874 659.6289)" />
  <image id="pc_d8_off" overflow="visible" width="51" height="26" xlink:href="off.jpg"  transform="matrix(0.5257 0 0 0.9474 171.0874 630.8066)" />
  <image id="pc_d9_off" overflow="visible" width="51" height="26" xlink:href="off.jpg"  transform="matrix(0.5257 0 0 0.9474 171.0874 603.5332)" />
  <image id="pc_d40_off" overflow="visible" width="51" height="26" xlink:href="off.jpg"  transform="matrix(0.5257 0 0 0.9474 171.0874 451.6289)" />
  <image id="pc_d41_off" overflow="visible" width="51" height="26" xlink:href="off.jpg"  transform="matrix(0.5257 0 0 0.9474 171.0874 422.8066)" />
  <image id="pc_d42_off" overflow="visible" width="51" height="26" xlink:href="off.jpg"  transform="matrix(0.5257 0 0 0.9474 171.0874 395.5332)" />
  <image id="pc_c7_off" overflow="visible" width="51" height="26" xlink:href="off.jpg"  transform="matrix(0.5257 0 0 0.9474 171.0874 338.854)" />
  <image id="pc_c8_off" overflow="visible" width="51" height="26" xlink:href="off.jpg"  transform="matrix(0.5257 0 0 0.9474 171.0874 310.0317)" />
  <image id="pc_c9_off" overflow="visible" width="51" height="26" xlink:href="off.jpg"  transform="matrix(0.5257 0 0 0.9474 171.0874 282.7593)" />
  <image id="pc_c40_off" overflow="visible" width="51" height="26" xlink:href="off.jpg"  transform="matrix(0.5257 0 0 0.9474 171.0874 125.2607)" />
  <image id="pc_c41_off" overflow="visible" width="51" height="26" xlink:href="off.jpg"  transform="matrix(0.5257 0 0 0.9474 171.0874 96.4385)" />
  <image id="pc_c42_off" overflow="visible" width="51" height="26" xlink:href="off.jpg"  transform="matrix(0.5257 0 0 0.9474 171.0874 69.166)" />
  <image id="pc_c43_off" overflow="visible" width="51" height="26" xlink:href="off.jpg"  transform="matrix(0.5257 0 0 0.9474 226.8989 125.2607)" />
  <image id="pc_c44_off" overflow="visible" width="51" height="26" xlink:href="off.jpg"  transform="matrix(0.5257 0 0 0.9474 226.8989 96.4385)" />
  <image id="pc_c45_off" overflow="visible" width="51" height="26" xlink:href="off.jpg"  transform="matrix(0.5257 0 0 0.9474 226.8989 69.166)" />
  <image id="pc_c25_off" overflow="visible" width="51" height="26" xlink:href="off.jpg"  transform="matrix(0.5257 0 0 0.9474 226.8989 228.7109)" />
  <image id="pc_c26_off" overflow="visible" width="51" height="26" xlink:href="off.jpg"  transform="matrix(0.5257 0 0 0.9474 226.8989 199.8887)" />
  <image id="pc_c27_off" overflow="visible" width="51" height="26" xlink:href="off.jpg"  transform="matrix(0.5257 0 0 0.9474 226.8989 172.6162)" />
  <image id="pc_c10_off" overflow="visible" width="51" height="26" xlink:href="off.jpg"  transform="matrix(0.5257 0 0 0.9474 226.8989 339.6284)" />
  <image id="pc_c11_off" overflow="visible" width="51" height="26" xlink:href="off.jpg"  transform="matrix(0.5257 0 0 0.9474 226.8989 310.8062)" />
  <image id="pc_c12_off" overflow="visible" width="51" height="26" xlink:href="off.jpg"  transform="matrix(0.5257 0 0 0.9474 226.8989 283.5337)" />
  <image id="pc_d43_off" overflow="visible" width="51" height="26" xlink:href="off.jpg"  transform="matrix(0.5257 0 0 0.9474 226.8989 451.6289)" />
  <image id="pc_d44_off" overflow="visible" width="51" height="26" xlink:href="off.jpg"  transform="matrix(0.5257 0 0 0.9474 226.8989 422.8066)" />
  <image id="pc_d45_off" overflow="visible" width="51" height="26" xlink:href="off.jpg"  transform="matrix(0.5257 0 0 0.9474 226.8989 395.5332)" />
  <image id="pc_d21_off" overflow="visible" width="51" height="26" xlink:href="off.jpg"  transform="matrix(0.5257 0 0 0.9474 226.8994 550.8535)" />
  <image id="pc_d22_off" overflow="visible" width="51" height="26" xlink:href="off.jpg"  transform="matrix(0.5257 0 0 0.9474 226.8994 522.0312)" />
  <image id="pc_d23_off" overflow="visible" width="51" height="26" xlink:href="off.jpg"  transform="matrix(0.5257 0 0 0.9474 226.8994 494.7598)" />
  <image id="pc_d10_off" overflow="visible" width="51" height="26" xlink:href="off.jpg"  transform="matrix(0.5257 0 0 0.9474 226.8989 659.6289)" />
  <image id="pc_d11_off" overflow="visible" width="51" height="26" xlink:href="off.jpg"  transform="matrix(0.5257 0 0 0.9474 226.8989 630.8066)" />
  <image id="pc_d12_off" overflow="visible" width="51" height="26" xlink:href="off.jpg"  transform="matrix(0.5257 0 0 0.9474 226.8989 603.5332)" />
  <image id="pc_d13_off" overflow="visible" width="51" height="26" xlink:href="off.jpg"  transform="matrix(0.5257 0 0 0.9474 286.3018 659.6289)" />
  <image id="pc_d14_off" overflow="visible" width="51" height="26" xlink:href="off.jpg"  transform="matrix(0.5257 0 0 0.9474 286.3018 630.8066)" />
  <image id="pc_d15_off" overflow="visible" width="51" height="26" xlink:href="off.jpg"  transform="matrix(0.5257 0 0 0.9474 286.3018 603.5332)" />
  <image id="pc_d25_off" overflow="visible" width="51" height="26" xlink:href="off.jpg"  transform="matrix(0.5257 0 0 0.9474 286.3018 551.6289)" />
  <image id="pc_d26_off" overflow="visible" width="51" height="26" xlink:href="off.jpg"  transform="matrix(0.5257 0 0 0.9474 286.3018 522.8066)" />
  <image id="pc_d27_off" overflow="visible" width="51" height="26" xlink:href="off.jpg"  transform="matrix(0.5257 0 0 0.9474 286.3018 495.5332)" />
  <image id="pc_d46_off" overflow="visible" width="51" height="26" xlink:href="off.jpg"  transform="matrix(0.5257 0 0 0.9474 286.3018 451.6289)" />
  <image id="pc_d47_off" overflow="visible" width="51" height="26" xlink:href="off.jpg"  transform="matrix(0.5257 0 0 0.9474 286.3018 422.8066)" />
  <image id="pc_d48_off" overflow="visible" width="51" height="26" xlink:href="off.jpg"  transform="matrix(0.5257 0 0 0.9474 286.3018 395.5332)" />
  <image id="pc_c13_off" overflow="visible" width="51" height="26" xlink:href="off.jpg"  transform="matrix(0.5257 0 0 0.9474 286.3018 338.854)" />
  <image id="pc_c14_off" overflow="visible" width="51" height="26" xlink:href="off.jpg"  transform="matrix(0.5257 0 0 0.9474 286.3018 310.0317)" />
  <image id="pc_c15_off" overflow="visible" width="51" height="26" xlink:href="off.jpg"  transform="matrix(0.5257 0 0 0.9474 286.3018 282.7593)" />
  <image id="pc_c28_off" overflow="visible" width="51" height="26" xlink:href="off.jpg"  transform="matrix(0.5257 0 0 0.9474 286.3018 229.4858)" />
  <image id="pc_c29_off" overflow="visible" width="51" height="26" xlink:href="off.jpg"  transform="matrix(0.5257 0 0 0.9474 286.3018 200.6636)" />
  <image id="pc_c30_off" overflow="visible" width="51" height="26" xlink:href="off.jpg"  transform="matrix(0.5257 0 0 0.9474 286.3018 173.3911)" />
  <image id="pc_c46_off" overflow="visible" width="51" height="26" xlink:href="off.jpg"  transform="matrix(0.5257 0 0 0.9474 286.3018 125.2607)" />
  <image id="pc_c47_off" overflow="visible" width="51" height="26" xlink:href="off.jpg"  transform="matrix(0.5257 0 0 0.9474 286.3018 96.4385)" />
  <image id="pc_c48_off" overflow="visible" width="51" height="26" xlink:href="off.jpg"  transform="matrix(0.5257 0 0 0.9474 286.3018 69.166)" />
  <image id="pc_c31_off" overflow="visible" width="51" height="26" xlink:href="off.jpg"  transform="matrix(0.5257 0 0 0.9474 342.1133 228.7109)" />
  <image id="pc_c32_off" overflow="visible" width="51" height="26" xlink:href="off.jpg"  transform="matrix(0.5257 0 0 0.9474 342.1133 199.8887)" />
  <image id="pc_c33_off" overflow="visible" width="51" height="26" xlink:href="off.jpg"  transform="matrix(0.5257 0 0 0.9474 342.1133 172.6162)" />
  <image id="pc_c16_off" overflow="visible" width="51" height="26" xlink:href="off.jpg"  transform="matrix(0.5257 0 0 0.9474 342.1133 339.6284)" />
  <image id="pc_c17_off" overflow="visible" width="51" height="26" xlink:href="off.jpg"  transform="matrix(0.5257 0 0 0.9474 342.1133 310.8062)" />
  <image id="pc_c18_off" overflow="visible" width="51" height="26" xlink:href="off.jpg"  transform="matrix(0.5257 0 0 0.9474 342.1133 283.5337)" />
  <image id="pc_d49_off" overflow="visible" width="51" height="26" xlink:href="off.jpg"  transform="matrix(0.5257 0 0 0.9474 342.1133 437.541)" />
  <image id="pc_d50_off" overflow="visible" width="51" height="26" xlink:href="off.jpg"  transform="matrix(0.5257 0 0 0.9474 342.1143 406.4297)" />
  <image id="pc_d28_off" overflow="visible" width="51" height="26" xlink:href="off.jpg"  transform="matrix(0.5257 0 0 0.9474 342.1133 550.8535)" />
  <image id="pc_d29_off" overflow="visible" width="51" height="26" xlink:href="off.jpg"  transform="matrix(0.5257 0 0 0.9474 342.1133 522.0312)" />
  <image id="pc_d30_off" overflow="visible" width="51" height="26" xlink:href="off.jpg"  transform="matrix(0.5257 0 0 0.9474 342.1133 494.7598)" />
  <image id="pc_d31_off" overflow="visible" width="51" height="26" xlink:href="off.jpg"  transform="matrix(0.5257 0 0 0.9474 395.9492 552.0723)" />
  <image id="pc_d32_off" overflow="visible" width="51" height="26" xlink:href="off.jpg"  transform="matrix(0.5257 0 0 0.9474 395.9492 523.25)" />
  <image id="pc_d33_off" overflow="visible" width="51" height="26" xlink:href="off.jpg"  transform="matrix(0.5257 0 0 0.9474 395.9492 495.9766)" />
  <image id="pc_d51_off" overflow="visible" width="51" height="26" xlink:href="off.jpg"  transform="matrix(0.5257 0 0 0.9474 395.9492 440.7344)" />
  <image id="pc_d52_off" overflow="visible" width="51" height="26" xlink:href="off.jpg"  transform="matrix(0.5257 0 0 0.9474 395.9512 406.4297)" />
  <image id="pc_c49_off" overflow="visible" width="51" height="26" xlink:href="off.jpg"  transform="matrix(0.5257 0 0 0.9474 340.4238 115.2632)" />
  <image id="pc_c50_off" overflow="visible" width="51" height="26" xlink:href="off.jpg"  transform="matrix(0.5257 0 0 0.9474 340.4248 84.1509)" />
  <image id="pc_c51_off" overflow="visible" width="51" height="26" xlink:href="off.jpg"  transform="matrix(0.5257 0 0 0.9474 394.2598 118.4556)" />
  <image id="pc_c52_off" overflow="visible" width="51" height="26" xlink:href="off.jpg"  transform="matrix(0.5257 0 0 0.9474 394.2617 84.1509)" />
</g>

<script xlink:href="http://ajax.googleapis.com/ajax/libs/jquery/1.7.2/jquery.min.js" />
<script xlink:href="innersvg.js" />
<script xlink:href="roomCD.js" />
</svg>
