<?xml version="1.0" encoding="utf-8"?>
<!-- Generator: Adobe Illustrator 16.0.0, SVG Export Plug-In . SVG Version: 6.00 Build 0)  -->
<!DOCTYPE svg PUBLIC "-//W3C//DTD SVG 1.1//EN" "http://www.w3.org/Graphics/SVG/1.1/DTD/svg11.dtd">
<svg version="1.1" id="レイヤー_1" xmlns="http://www.w3.org/2000/svg" xmlns:xlink="http://www.w3.org/1999/xlink" x="0px"
	 y="0px" width="480px" height="720px" viewBox="0 0 480 720" enable-background="new 0 0 480 720" xml:space="preserve">
<g id="レイヤー_1_1_">
	<rect x="203.6" y="32.649" fill="none" width="105.195" height="25.974"/>
	<text transform="matrix(1 0 0 1 203.5996 48.4893)" font-family="'KozGoPr6N-Regular-83pv-RKSJ-H'" font-size="18">P</text>
	
		<text transform="matrix(1 0 0 1 213.8594 48.4893)" font-family="'KozGoPr6N-Regular-83pv-RKSJ-H'" font-size="18" letter-spacing="3">C</text>
	<text transform="matrix(1 0 0 1 229.5376 48.0312)" font-family="'KozGoPr6N-Regular-83pv-RKSJ-H'" font-size="18">教</text>
	
		<text transform="matrix(1 0 0 1 247.5371 48.0312)" font-family="'KozGoPr6N-Regular-83pv-RKSJ-H'" font-size="18" letter-spacing="3">室</text>
	<text transform="matrix(1 0 0 1 270.0371 48.4893)" font-family="'KozGoPr6N-Regular-83pv-RKSJ-H'" font-size="18">E</text>
	
		<rect x="62.429" y="104.675" fill="none" stroke="#000000" stroke-width="3" stroke-miterlimit="10" width="366.233" height="489.61"/>
	<rect x="420.221" y="389.74" fill="#FFFFFF" stroke="#FFFFFF" stroke-miterlimit="10" width="16.883" height="40.26"/>
	
		<image overflow="visible" enable-background="new    " width="51" height="26" xlink:href="D25D2E6DB5F67835.jpg"  transform="matrix(0.55 0 0 0.8889 102.9541 187.1309)">
	</image>
	
		<image overflow="visible" enable-background="new    " width="51" height="26" xlink:href="D25D2E6DB5F67837.jpg"  transform="matrix(0.55 0 0 0.8889 145.811 187.4316)">
	</image>
	
		<image overflow="visible" enable-background="new    " width="51" height="26" xlink:href="D25D2E6DB5F67832.jpg"  transform="matrix(0.55 0 0 0.8889 184.7705 187.9302)">
	</image>
	
		<image overflow="visible" enable-background="new    " width="51" height="26" xlink:href="D25D2E6DB5F67833.jpg"  transform="matrix(0.55 0 0 0.8889 101.9102 248.5293)">
	</image>
	
		<image overflow="visible" enable-background="new    " width="51" height="26" xlink:href="D25D2E6DB5F6783D.jpg"  transform="matrix(0.55 0 0 0.8889 144.7671 248.8301)">
	</image>
	
		<image overflow="visible" enable-background="new    " width="51" height="26" xlink:href="D25D2E6DB5F6783F.jpg"  transform="matrix(0.55 0 0 0.8889 183.7266 249.3286)">
	</image>
	
		<image overflow="visible" enable-background="new    " width="51" height="26" xlink:href="D25D2E6DB5F67830.jpg"  transform="matrix(0.55 0 0 0.8889 103.2085 309.5684)">
	</image>
	
		<image overflow="visible" enable-background="new    " width="51" height="26" xlink:href="D25D2E6DB5F67831.jpg"  transform="matrix(0.55 0 0 0.8889 146.0654 309.8691)">
	</image>
	
		<image overflow="visible" enable-background="new    " width="51" height="26" xlink:href="D25D2E6DB5F67836.jpg"  transform="matrix(0.55 0 0 0.8889 185.0249 310.3677)">
	</image>
	
		<image overflow="visible" enable-background="new    " width="51" height="26" xlink:href="6777B5DB4C9F5FBE.jpg"  transform="matrix(0.55 0 0 0.8889 102.6899 371.4082)">
	</image>
	
		<image overflow="visible" enable-background="new    " width="51" height="26" xlink:href="6777B5DB4C9F5FB9.jpg"  transform="matrix(0.55 0 0 0.8889 145.5469 371.709)">
	</image>
	
		<image overflow="visible" enable-background="new    " width="51" height="26" xlink:href="6777B5DB4C9F5FBA.jpg"  transform="matrix(0.55 0 0 0.8889 184.5063 372.207)">
	</image>
	
		<image overflow="visible" enable-background="new    " width="51" height="26" xlink:href="6777B5DB4C9F5FB8.jpg"  transform="matrix(0.55 0 0 0.8889 103.2085 428.0176)">
	</image>
	
		<image overflow="visible" enable-background="new    " width="51" height="26" xlink:href="6777B5DB4C9F5FB6.jpg"  transform="matrix(0.55 0 0 0.8889 146.0654 428.3184)">
	</image>
	
		<image overflow="visible" enable-background="new    " width="51" height="26" xlink:href="6777B5DB4C9F5FA9.jpg"  transform="matrix(0.55 0 0 0.8889 185.0249 428.8164)">
	</image>
	
		<image overflow="visible" enable-background="new    " width="51" height="26" xlink:href="6777B5DB4C9F5FAA.jpg"  transform="matrix(0.55 0 0 0.8889 101.3916 489.8574)">
	</image>
	
		<image overflow="visible" enable-background="new    " width="51" height="26" xlink:href="6777B5DB4C9F5FA8.jpg"  transform="matrix(0.55 0 0 0.8889 144.2485 490.1582)">
	</image>
	
		<image overflow="visible" enable-background="new    " width="51" height="26" xlink:href="6777B5DB4C9F5FAE.jpg"  transform="matrix(0.55 0 0 0.8889 183.208 490.6562)">
	</image>
	
		<image overflow="visible" enable-background="new    " width="51" height="26" xlink:href="6777B5DB4C9F5FAB.jpg"  transform="matrix(0.55 0 0 0.8889 271.0068 189.7275)">
	</image>
	
		<image overflow="visible" enable-background="new    " width="51" height="26" xlink:href="6777B5DB4C9F5FCD.jpg"  transform="matrix(0.55 0 0 0.8889 313.8633 190.0283)">
	</image>
	
		<image overflow="visible" enable-background="new    " width="51" height="26" xlink:href="6777B5DB4C9F5FCF.jpg"  transform="matrix(0.55 0 0 0.8889 352.8232 190.5269)">
	</image>
	
		<image overflow="visible" enable-background="new    " width="51" height="26" xlink:href="6777B5DB4C9F5FCC.jpg"  transform="matrix(0.55 0 0 0.8889 269.9629 251.126)">
	</image>
	
		<image overflow="visible" enable-background="new    " width="51" height="26" xlink:href="6777B5DB4C9F5FCB.jpg"  transform="matrix(0.55 0 0 0.8889 312.8203 251.4268)">
	</image>
	
		<image overflow="visible" enable-background="new    " width="51" height="26" xlink:href="6777B5DB4C9F5FC5.jpg"  transform="matrix(0.55 0 0 0.8889 351.7793 251.9253)">
	</image>
	
		<image overflow="visible" enable-background="new    " width="51" height="26" xlink:href="6777B5DB4C9F5FC7.jpg"  transform="matrix(0.55 0 0 0.8889 271.2617 312.165)">
	</image>
	
		<image overflow="visible" enable-background="new    " width="51" height="26" xlink:href="6777B5DB4C9F5FC4.jpg"  transform="matrix(0.55 0 0 0.8889 314.1182 312.4658)">
	</image>
	
		<image overflow="visible" enable-background="new    " width="51" height="26" xlink:href="6777B5DB4C9F5FFB.jpg"  transform="matrix(0.55 0 0 0.8889 353.0781 312.9644)">
	</image>
	
		<image overflow="visible" enable-background="new    " width="51" height="26" xlink:href="6777B5DB4C9F5FFD.jpg"  transform="matrix(0.55 0 0 0.8889 271.2617 430.6133)">
	</image>
	
		<image overflow="visible" enable-background="new    " width="51" height="26" xlink:href="6777B5DB4C9F5FFF.jpg"  transform="matrix(0.55 0 0 0.8889 314.1182 430.9141)">
	</image>
	
		<image overflow="visible" enable-background="new    " width="51" height="26" xlink:href="6777B5DB4C9F5FE0.jpg"  transform="matrix(0.55 0 0 0.8889 353.0781 431.4121)">
	</image>
	
		<image overflow="visible" enable-background="new    " width="51" height="26" xlink:href="6777B5DB4C9F5FDF.jpg"  transform="matrix(0.55 0 0 0.8889 269.4443 492.4531)">
	</image>
	
		<image overflow="visible" enable-background="new    " width="51" height="26" xlink:href="6777B5DB4C9F6020.jpg"  transform="matrix(0.55 0 0 0.8889 312.3008 492.7539)">
	</image>
	
		<image overflow="visible" enable-background="new    " width="51" height="26" xlink:href="6777B5DB4C9F6023.jpg"  transform="matrix(0.55 0 0 0.8889 351.2607 493.252)">
	</image>
	
		<image overflow="visible" enable-background="new    " width="51" height="26" xlink:href="6777B5DB4C9F6021.jpg"  transform="matrix(0.55 0 0 0.8889 311.1748 142.353)">
	</image>
</g>
<g id="レイヤー_2">
	
		<image overflow="visible" enable-background="new    " width="48" height="23" xlink:href="6777B5DB4C9F6027.jpg"  transform="matrix(0.5952 0 0 0.9474 103.4014 188.2466)">
	</image>
	
		<image overflow="visible" enable-background="new    " width="48" height="23" xlink:href="6777B5DB4C9F6022.jpg"  transform="matrix(0.5952 0 0 0.9474 144.9629 189.0449)">
	</image>
	
		<image overflow="visible" enable-background="new    " width="48" height="23" xlink:href="6777B5DB4C9F602D.jpg"  transform="matrix(0.5952 0 0 0.9474 185.8071 189.1309)">
	</image>
	
		<image overflow="visible" enable-background="new    " width="48" height="23" xlink:href="6777B5DB4C9F602E.jpg"  transform="matrix(0.5952 0 0 0.9474 103.1807 249.5195)">
	</image>
	
		<image overflow="visible" enable-background="new    " width="48" height="23" xlink:href="6777B5DB4C9F602F.jpg"  transform="matrix(0.5952 0 0 0.9474 144.7422 250.3179)">
	</image>
	
		<image overflow="visible" enable-background="new    " width="48" height="23" xlink:href="6777B5DB4C9F600B.jpg"  transform="matrix(0.5952 0 0 0.9474 185.5864 250.4038)">
	</image>
	
		<image overflow="visible" enable-background="new    " width="48" height="23" xlink:href="6777B5DB4C9F600D.jpg"  transform="matrix(0.5952 0 0 0.9474 103.9839 311.6978)">
	</image>
	
		<image overflow="visible" enable-background="new    " width="48" height="23" xlink:href="6777B5DB4C9F600F.jpg"  transform="matrix(0.5952 0 0 0.9474 145.5454 312.4961)">
	</image>
	
		<image overflow="visible" enable-background="new    " width="48" height="23" xlink:href="6777B5DB4C9F600A.jpg"  transform="matrix(0.5952 0 0 0.9474 186.3896 312.582)">
	</image>
	
		<image overflow="visible" enable-background="new    " width="48" height="23" xlink:href="6777B5DB4C9F6009.jpg"  transform="matrix(0.5952 0 0 0.9474 103.7632 372.9707)">
	</image>
	
		<image overflow="visible" enable-background="new    " width="48" height="23" xlink:href="6777B5DB4C9F6005.jpg"  transform="matrix(0.5952 0 0 0.9474 145.3247 373.7695)">
	</image>
	
		<image overflow="visible" enable-background="new    " width="48" height="23" xlink:href="6777B5DB4C9F6007.jpg"  transform="matrix(0.5952 0 0 0.9474 186.1689 373.8555)">
	</image>
	
		<image overflow="visible" enable-background="new    " width="48" height="23" xlink:href="6777B5DB4C9F601A.jpg"  transform="matrix(0.5952 0 0 0.9474 102.6855 429.8809)">
	</image>
	
		<image overflow="visible" enable-background="new    " width="48" height="23" xlink:href="6777B5DB4C9F601B.jpg"  transform="matrix(0.5952 0 0 0.9474 144.2471 430.6777)">
	</image>
	
		<image overflow="visible" enable-background="new    " width="48" height="23" xlink:href="6777B5DB4C9F601D.jpg"  transform="matrix(0.5952 0 0 0.9474 185.0913 430.7637)">
	</image>
	
		<image overflow="visible" enable-background="new    " width="48" height="23" xlink:href="6777B5DB4C9F607A.jpg"  transform="matrix(0.5952 0 0 0.9474 102.4648 491.1523)">
	</image>
	
		<image overflow="visible" enable-background="new    " width="48" height="23" xlink:href="6777B5DB4C9F607D.jpg"  transform="matrix(0.5952 0 0 0.9474 144.0264 491.9512)">
	</image>
	
		<image overflow="visible" enable-background="new    " width="48" height="23" xlink:href="6777B5DB4C9F607E.jpg"  transform="matrix(0.5952 0 0 0.9474 184.8706 492.0371)">
	</image>
	
		<image overflow="visible" enable-background="new    " width="48" height="23" xlink:href="6777B5DB4C9F607C.jpg"  transform="matrix(0.5952 0 0 0.9474 270.2178 190.4092)">
	</image>
	
		<image overflow="visible" enable-background="new    " width="48" height="23" xlink:href="6777B5DB4C9F607B.jpg"  transform="matrix(0.5952 0 0 0.9474 311.7793 191.2075)">
	</image>
	
		<image overflow="visible" enable-background="new    " width="48" height="23" xlink:href="6777B5DB4C9F6075.jpg"  transform="matrix(0.5952 0 0 0.9474 352.623 191.2935)">
	</image>
	
		<image overflow="visible" enable-background="new    " width="48" height="23" xlink:href="6777B5DB4C9F6076.jpg"  transform="matrix(0.5952 0 0 0.9474 269.9971 251.6821)">
	</image>
	
		<image overflow="visible" enable-background="new    " width="48" height="23" xlink:href="6777B5DB4C9F6074.jpg"  transform="matrix(0.5952 0 0 0.9474 311.5586 252.4805)">
	</image>
	
		<image overflow="visible" enable-background="new    " width="48" height="23" xlink:href="6777B5DB4C9F606A.jpg"  transform="matrix(0.5952 0 0 0.9474 352.4023 252.5664)">
	</image>
	
		<image overflow="visible" enable-background="new    " width="48" height="23" xlink:href="6777B5DB4C9F606D.jpg"  transform="matrix(0.5952 0 0 0.9474 270.8008 313.8604)">
	</image>
	
		<image overflow="visible" enable-background="new    " width="48" height="23" xlink:href="6777B5DB4C9F6051.jpg"  transform="matrix(0.5952 0 0 0.9474 312.3613 314.6587)">
	</image>
	
		<image overflow="visible" enable-background="new    " width="48" height="23" xlink:href="6777B5DB4C9F6053.jpg"  transform="matrix(0.5952 0 0 0.9474 353.2061 314.7446)">
	</image>
	
		<image overflow="visible" enable-background="new    " width="48" height="23" xlink:href="6777B5DB4C9F6050.jpg"  transform="matrix(0.5952 0 0 0.9474 269.502 432.043)">
	</image>
	
		<image overflow="visible" enable-background="new    " width="48" height="23" xlink:href="6777B5DB4C9F604F.jpg"  transform="matrix(0.5952 0 0 0.9474 311.0635 432.8418)">
	</image>
	
		<image overflow="visible" enable-background="new    " width="48" height="23" xlink:href="6777B5DB4C9F6031.jpg"  transform="matrix(0.5952 0 0 0.9474 351.9082 432.9277)">
	</image>
	
		<image overflow="visible" enable-background="new    " width="48" height="23" xlink:href="6777B5DB4C9F6033.jpg"  transform="matrix(0.5952 0 0 0.9474 269.2812 493.3164)">
	</image>
	
		<image overflow="visible" enable-background="new    " width="48" height="23" xlink:href="6777B5DB4C9F6030.jpg"  transform="matrix(0.5952 0 0 0.9474 310.8428 494.1133)">
	</image>
	
		<image overflow="visible" enable-background="new    " width="48" height="23" xlink:href="6777B5DB4C9F6037.jpg"  transform="matrix(0.5952 0 0 0.9474 351.6875 494.1992)">
	</image>
	
		<image overflow="visible" enable-background="new    " width="48" height="23" xlink:href="6777B5DB4C9F6032.jpg"  transform="matrix(0.5952 0 0 0.9474 312.3867 143.5518)">
	</image>
</g>
</svg>
