<?xml version="1.0" encoding="utf-8"?>
<!-- Generator: Adobe Illustrator 16.0.0, SVG Export Plug-In . SVG Version: 6.00 Build 0)  -->
<!DOCTYPE svg PUBLIC "-//W3C//DTD SVG 1.1//EN" "http://www.w3.org/Graphics/SVG/1.1/DTD/svg11.dtd">
<svg version="1.1" id="レイヤー_1" xmlns="http://www.w3.org/2000/svg" xmlns:xlink="http://www.w3.org/1999/xlink" x="0px"
  y="0px" width="480px" height="720px" viewBox="0 0 480 720" xml:space="preserve">
<g id="レイヤー_1_1_">
 <rect x="203.6" y="32.649" fill="none" width="105.195" height="25.974"/>
 <text transform="matrix(1 0 0 1 203.5996 48.4893)" font-family="'KozGoPr6N-Regular-83pv-RKSJ-H'" font-size="18">P</text>
  <text transform="matrix(1 0 0 1 213.8594 48.4893)" font-family="'KozGoPr6N-Regular-83pv-RKSJ-H'" font-size="18" letter-spacing="3">C</text>
 <text transform="matrix(1 0 0 1 229.5376 48.0312)" font-family="'KozGoPr6N-Regular-83pv-RKSJ-H'" font-size="18">教</text>
  <text transform="matrix(1 0 0 1 247.5371 48.0312)" font-family="'KozGoPr6N-Regular-83pv-RKSJ-H'" font-size="18" letter-spacing="3">室</text>
 <text transform="matrix(1 0 0 1 270.0371 48.4893)" font-family="'KozGoPr6N-Regular-83pv-RKSJ-H'" font-size="18">E</text>
  <rect x="62.429" y="104.675" fill="none" stroke="#000000" stroke-width="3" stroke-miterlimit="10" width="366.233" height="489.61"/>
 <rect x="420.221" y="389.74" fill="#FFFFFF" stroke="#FFFFFF" stroke-miterlimit="10" width="16.883" height="40.26"/>
  <image id="pc__" overflow="visible" width="51" height="26" xlink:href="on.jpg"  transform="matrix(0.55 0 0 0.8889 102.9541 187.1309)" style="display:none" />
  <image id="pc__" overflow="visible" width="51" height="26" xlink:href="on.jpg"  transform="matrix(0.55 0 0 0.8889 145.811 187.4316)" style="display:none" />
  <image id="pc__" overflow="visible" width="51" height="26" xlink:href="on.jpg"  transform="matrix(0.55 0 0 0.8889 184.7705 187.9302)" style="display:none" />
  <image id="pc__" overflow="visible" width="51" height="26" xlink:href="on.jpg"  transform="matrix(0.55 0 0 0.8889 101.9102 248.5293)" style="display:none" />
  <image id="pc__" overflow="visible" width="51" height="26" xlink:href="on.jpg"  transform="matrix(0.55 0 0 0.8889 144.7671 248.8301)" style="display:none" />
  <image id="pc__" overflow="visible" width="51" height="26" xlink:href="on.jpg"  transform="matrix(0.55 0 0 0.8889 183.7266 249.3286)" style="display:none" />
  <image id="pc__" overflow="visible" width="51" height="26" xlink:href="on.jpg"  transform="matrix(0.55 0 0 0.8889 103.2085 309.5684)" style="display:none" />
  <image id="pc__" overflow="visible" width="51" height="26" xlink:href="on.jpg"  transform="matrix(0.55 0 0 0.8889 146.0654 309.8691)" style="display:none" />
  <image id="pc__" overflow="visible" width="51" height="26" xlink:href="on.jpg"  transform="matrix(0.55 0 0 0.8889 185.0249 310.3677)" style="display:none" />
  <image id="pc__" overflow="visible" width="51" height="26" xlink:href="on.jpg"  transform="matrix(0.55 0 0 0.8889 102.6899 371.4082)" style="display:none" />
  <image id="pc__" overflow="visible" width="51" height="26" xlink:href="on.jpg"  transform="matrix(0.55 0 0 0.8889 145.5469 371.709)" style="display:none" />
  <image id="pc__" overflow="visible" width="51" height="26" xlink:href="on.jpg"  transform="matrix(0.55 0 0 0.8889 184.5063 372.207)" style="display:none" />
  <image id="pc__" overflow="visible" width="51" height="26" xlink:href="on.jpg"  transform="matrix(0.55 0 0 0.8889 103.2085 428.0176)" style="display:none" />
  <image id="pc__" overflow="visible" width="51" height="26" xlink:href="on.jpg"  transform="matrix(0.55 0 0 0.8889 146.0654 428.3184)" style="display:none" />
  <image id="pc__" overflow="visible" width="51" height="26" xlink:href="on.jpg"  transform="matrix(0.55 0 0 0.8889 185.0249 428.8164)" style="display:none" />
  <image id="pc__" overflow="visible" width="51" height="26" xlink:href="on.jpg"  transform="matrix(0.55 0 0 0.8889 101.3916 489.8574)" style="display:none" />
  <image id="pc__" overflow="visible" width="51" height="26" xlink:href="on.jpg"  transform="matrix(0.55 0 0 0.8889 144.2485 490.1582)" style="display:none" />
  <image id="pc__" overflow="visible" width="51" height="26" xlink:href="on.jpg"  transform="matrix(0.55 0 0 0.8889 183.208 490.6562)" style="display:none" />
  <image id="pc__" overflow="visible" width="51" height="26" xlink:href="on.jpg"  transform="matrix(0.55 0 0 0.8889 271.0068 189.7275)" style="display:none" />
  <image id="pc__" overflow="visible" width="51" height="26" xlink:href="on.jpg"  transform="matrix(0.55 0 0 0.8889 313.8633 190.0283)" style="display:none" />
  <image id="pc__" overflow="visible" width="51" height="26" xlink:href="on.jpg"  transform="matrix(0.55 0 0 0.8889 352.8232 190.5269)" style="display:none" />
  <image id="pc__" overflow="visible" width="51" height="26" xlink:href="on.jpg"  transform="matrix(0.55 0 0 0.8889 269.9629 251.126)" style="display:none" />
  <image id="pc__" overflow="visible" width="51" height="26" xlink:href="on.jpg"  transform="matrix(0.55 0 0 0.8889 312.8203 251.4268)" style="display:none" />
  <image id="pc__" overflow="visible" width="51" height="26" xlink:href="on.jpg"  transform="matrix(0.55 0 0 0.8889 351.7793 251.9253)" style="display:none" />
  <image id="pc__" overflow="visible" width="51" height="26" xlink:href="on.jpg"  transform="matrix(0.55 0 0 0.8889 271.2617 312.165)" style="display:none" />
  <image id="pc__" overflow="visible" width="51" height="26" xlink:href="on.jpg"  transform="matrix(0.55 0 0 0.8889 314.1182 312.4658)" style="display:none" />
  <image id="pc__" overflow="visible" width="51" height="26" xlink:href="on.jpg"  transform="matrix(0.55 0 0 0.8889 353.0781 312.9644)" style="display:none" />
  <image id="pc__" overflow="visible" width="51" height="26" xlink:href="on.jpg"  transform="matrix(0.55 0 0 0.8889 271.2617 430.6133)" style="display:none" />
  <image id="pc__" overflow="visible" width="51" height="26" xlink:href="on.jpg"  transform="matrix(0.55 0 0 0.8889 314.1182 430.9141)" style="display:none" />
  <image id="pc__" overflow="visible" width="51" height="26" xlink:href="on.jpg"  transform="matrix(0.55 0 0 0.8889 353.0781 431.4121)" style="display:none" />
  <image id="pc__" overflow="visible" width="51" height="26" xlink:href="on.jpg"  transform="matrix(0.55 0 0 0.8889 269.4443 492.4531)" style="display:none" />
  <image id="pc__" overflow="visible" width="51" height="26" xlink:href="on.jpg"  transform="matrix(0.55 0 0 0.8889 312.3008 492.7539)" style="display:none" />
  <image id="pc__" overflow="visible" width="51" height="26" xlink:href="on.jpg"  transform="matrix(0.55 0 0 0.8889 351.2607 493.252)" style="display:none" />
  <image id="pc__" overflow="visible" width="51" height="26" xlink:href="on.jpg"  transform="matrix(0.55 0 0 0.8889 311.1748 142.353)" style="display:none" />
</g>
<g id="レイヤー_2">
  <image id="pc__" overflow="visible" width="48" height="23" xlink:href="on.jpg"  transform="matrix(0.5952 0 0 0.9474 103.4014 188.2466)" style="display:none" />
  <image id="pc__" overflow="visible" width="48" height="23" xlink:href="on.jpg"  transform="matrix(0.5952 0 0 0.9474 144.9629 189.0449)" style="display:none" />
  <image id="pc__" overflow="visible" width="48" height="23" xlink:href="on.jpg"  transform="matrix(0.5952 0 0 0.9474 185.8071 189.1309)" style="display:none" />
  <image id="pc__" overflow="visible" width="48" height="23" xlink:href="on.jpg"  transform="matrix(0.5952 0 0 0.9474 103.1807 249.5195)" style="display:none" />
  <image id="pc__" overflow="visible" width="48" height="23" xlink:href="on.jpg"  transform="matrix(0.5952 0 0 0.9474 144.7422 250.3179)" style="display:none" />
  <image id="pc__" overflow="visible" width="48" height="23" xlink:href="on.jpg"  transform="matrix(0.5952 0 0 0.9474 185.5864 250.4038)" style="display:none" />
  <image id="pc__" overflow="visible" width="48" height="23" xlink:href="on.jpg"  transform="matrix(0.5952 0 0 0.9474 103.9839 311.6978)" style="display:none" />
  <image id="pc__" overflow="visible" width="48" height="23" xlink:href="on.jpg"  transform="matrix(0.5952 0 0 0.9474 145.5454 312.4961)" style="display:none" />
  <image id="pc__" overflow="visible" width="48" height="23" xlink:href="on.jpg"  transform="matrix(0.5952 0 0 0.9474 186.3896 312.582)" style="display:none" />
  <image id="pc__" overflow="visible" width="48" height="23" xlink:href="on.jpg"  transform="matrix(0.5952 0 0 0.9474 103.7632 372.9707)" style="display:none" />
  <image id="pc__" overflow="visible" width="48" height="23" xlink:href="on.jpg"  transform="matrix(0.5952 0 0 0.9474 145.3247 373.7695)" style="display:none" />
  <image id="pc__" overflow="visible" width="48" height="23" xlink:href="on.jpg"  transform="matrix(0.5952 0 0 0.9474 186.1689 373.8555)" style="display:none" />
  <image id="pc__" overflow="visible" width="48" height="23" xlink:href="on.jpg"  transform="matrix(0.5952 0 0 0.9474 102.6855 429.8809)" style="display:none" />
  <image id="pc__" overflow="visible" width="48" height="23" xlink:href="on.jpg"  transform="matrix(0.5952 0 0 0.9474 144.2471 430.6777)" style="display:none" />
  <image id="pc__" overflow="visible" width="48" height="23" xlink:href="on.jpg"  transform="matrix(0.5952 0 0 0.9474 185.0913 430.7637)" style="display:none" />
  <image id="pc__" overflow="visible" width="48" height="23" xlink:href="on.jpg"  transform="matrix(0.5952 0 0 0.9474 102.4648 491.1523)" style="display:none" />
  <image id="pc__" overflow="visible" width="48" height="23" xlink:href="on.jpg"  transform="matrix(0.5952 0 0 0.9474 144.0264 491.9512)" style="display:none" />
  <image id="pc__" overflow="visible" width="48" height="23" xlink:href="on.jpg"  transform="matrix(0.5952 0 0 0.9474 184.8706 492.0371)" style="display:none" />
  <image id="pc__" overflow="visible" width="48" height="23" xlink:href="on.jpg"  transform="matrix(0.5952 0 0 0.9474 270.2178 190.4092)" style="display:none" />
  <image id="pc__" overflow="visible" width="48" height="23" xlink:href="on.jpg"  transform="matrix(0.5952 0 0 0.9474 311.7793 191.2075)" style="display:none" />
  <image id="pc__" overflow="visible" width="48" height="23" xlink:href="on.jpg"  transform="matrix(0.5952 0 0 0.9474 352.623 191.2935)" style="display:none" />
  <image id="pc__" overflow="visible" width="48" height="23" xlink:href="on.jpg"  transform="matrix(0.5952 0 0 0.9474 269.9971 251.6821)" style="display:none" />
  <image id="pc__" overflow="visible" width="48" height="23" xlink:href="on.jpg"  transform="matrix(0.5952 0 0 0.9474 311.5586 252.4805)" style="display:none" />
  <image id="pc__" overflow="visible" width="48" height="23" xlink:href="on.jpg"  transform="matrix(0.5952 0 0 0.9474 352.4023 252.5664)" style="display:none" />
  <image id="pc__" overflow="visible" width="48" height="23" xlink:href="on.jpg"  transform="matrix(0.5952 0 0 0.9474 270.8008 313.8604)" style="display:none" />
  <image id="pc__" overflow="visible" width="48" height="23" xlink:href="on.jpg"  transform="matrix(0.5952 0 0 0.9474 312.3613 314.6587)" style="display:none" />
  <image id="pc__" overflow="visible" width="48" height="23" xlink:href="on.jpg"  transform="matrix(0.5952 0 0 0.9474 353.2061 314.7446)" style="display:none" />
  <image id="pc__" overflow="visible" width="48" height="23" xlink:href="on.jpg"  transform="matrix(0.5952 0 0 0.9474 269.502 432.043)" style="display:none" />
  <image id="pc__" overflow="visible" width="48" height="23" xlink:href="on.jpg"  transform="matrix(0.5952 0 0 0.9474 311.0635 432.8418)" style="display:none" />
  <image id="pc__" overflow="visible" width="48" height="23" xlink:href="on.jpg"  transform="matrix(0.5952 0 0 0.9474 351.9082 432.9277)" style="display:none" />
  <image id="pc__" overflow="visible" width="48" height="23" xlink:href="on.jpg"  transform="matrix(0.5952 0 0 0.9474 269.2812 493.3164)" style="display:none" />
  <image id="pc__" overflow="visible" width="48" height="23" xlink:href="on.jpg"  transform="matrix(0.5952 0 0 0.9474 310.8428 494.1133)" style="display:none" />
  <image id="pc__" overflow="visible" width="48" height="23" xlink:href="on.jpg"  transform="matrix(0.5952 0 0 0.9474 351.6875 494.1992)" style="display:none" />
  <image id="pc__" overflow="visible" width="48" height="23" xlink:href="on.jpg"  transform="matrix(0.5952 0 0 0.9474 312.3867 143.5518)" style="display:none" />
</g>
<script xlink:href="http://ajax.googleapis.com/ajax/libs/jquery/1.7.2/jquery.min.js" />
<script xlink:href="innersvg.js" />
<script xlink:href="room.js" />
<script xlink:href="roomT.js" />
</svg>
