<?xml version="1.0" encoding="utf-8"?>
<!-- Generator: Adobe Illustrator 16.0.0, SVG Export Plug-In . SVG Version: 6.00 Build 0)  -->
<!DOCTYPE svg PUBLIC "-//W3C//DTD SVG 1.1//EN" "http://www.w3.org/Graphics/SVG/1.1/DTD/svg11.dtd">
<svg version="1.1" id="レイヤー_1" xmlns="http://www.w3.org/2000/svg" xmlns:xlink="http://www.w3.org/1999/xlink" x="0px"
  y="0px" width="480px" height="1300px" viewBox="0 0 480 1300" enable-background="new 0 0 480 1300" xml:space="preserve">
<g id="ajax_loader">
  <image xlink:href="ajax-loader.gif" width="32" height="32" x="100" y="100"/>
</g>
<g id="pc_map" style="display:none">
<g id="timetable" transform="translate(50, 650)" font-family="KozGoPr6N-Regular-83pv-RKSJ-H" font-size="18">
  <text id="timetable_name" x="0" y="0"/>
  <text id="period_1" x="0" y="20"/>
  <text id="subject_1" x="0" y="40"/>
  <text id="lecturer_1" x="0" y="60"/>
  <text id="period_2" x="0" y="100"/>
  <text id="subject_2" x="0" y="120"/>
  <text id="lecturer_2" x="0" y="140"/>
  <text id="period_3" x="0" y="180"/>
  <text id="subject_3" x="0" y="200"/>
  <text id="lecturer_3" x="0" y="220"/>
  <text id="period_4" x="0" y="260"/>
  <text id="subject_4" x="0" y="280"/>
  <text id="lecturer_4" x="0" y="300"/>
  <text id="period_5" x="0" y="340"/>
  <text id="subject_5" x="0" y="360"/>
  <text id="lecturer_5" x="0" y="380"/>
  <text id="period_6" x="0" y="420"/>
  <text id="subject_6" x="0" y="440"/>
  <text id="lecturer_6" x="0" y="460"/>
  <rect x="0" y="0" stroke="#000000" fill="none" width="400" height="75"/>
  <rect x="0" y="80" stroke="#000000" fill="none" width="400" height="75"/>
  <rect x="0" y="160" stroke="#000000" fill="none" width="400" height="75"/>
  <rect x="0" y="240" stroke="#000000" fill="none" width="400" height="75"/>
  <rect x="0" y="320" stroke="#000000" fill="none" width="400" height="75"/>
  <rect x="0" y="400" stroke="#000000" fill="none" width="400" height="75"/>
</g>
  <rect x="203.6" y="32.649" fill="none" width="105.195" height="25.974"/>
  <text transform="matrix(1 0 0 1 203.5996 48.4893)" font-family="'KozGoPr6N-Regular-83pv-RKSJ-H'" font-size="18" id="room_id"/>
  <rect x="62.429" y="104.675" fill="none" stroke="#000000" stroke-width="3" stroke-miterlimit="10" width="366.233" height="489.61"/>
  <rect x="420.221" y="389.74" fill="#FFFFFF" stroke="#FFFFFF" stroke-miterlimit="10" width="16.883" height="40.26"/>
<g id="off">
  <image id="pc_1_off" overflow="visible" width="51" height="26" xlink:href="off.jpg"  transform="matrix(0.55 0 0 0.8889 102.9541 187.1309)"  />
  <image id="pc_2_off" overflow="visible" width="51" height="26" xlink:href="off.jpg"  transform="matrix(0.55 0 0 0.8889 145.811 187.4316)"  />
  <image id="pc_3_off" overflow="visible" width="51" height="26" xlink:href="off.jpg"  transform="matrix(0.55 0 0 0.8889 184.7705 187.9302)" />
  <image id="pc_4_off" overflow="visible" width="51" height="26" xlink:href="off.jpg"  transform="matrix(0.55 0 0 0.8889 101.9102 248.5293)" />
  <image id="pc_5_off" overflow="visible" width="51" height="26" xlink:href="off.jpg"  transform="matrix(0.55 0 0 0.8889 144.7671 248.8301)" />
  <image id="pc_6_off" overflow="visible" width="51" height="26" xlink:href="off.jpg"  transform="matrix(0.55 0 0 0.8889 183.7266 249.3286)" />
  <image id="pc_7_off" overflow="visible" width="51" height="26" xlink:href="off.jpg"  transform="matrix(0.55 0 0 0.8889 103.2085 309.5684)"  />
  <image id="pc_8_off" overflow="visible" width="51" height="26" xlink:href="off.jpg"  transform="matrix(0.55 0 0 0.8889 146.0654 309.8691)"  />
  <image id="pc_9_off" overflow="visible" width="51" height="26" xlink:href="off.jpg"  transform="matrix(0.55 0 0 0.8889 185.0249 310.3677)"  />
  <image id="pc_10_off" overflow="visible" width="51" height="26" xlink:href="off.jpg"  transform="matrix(0.55 0 0 0.8889 102.6899 371.4082)"  />
  <image id="pc_11_off" overflow="visible" width="51" height="26" xlink:href="off.jpg"  transform="matrix(0.55 0 0 0.8889 145.5469 371.709)"  />
  <image id="pc_12_off" overflow="visible" width="51" height="26" xlink:href="off.jpg"  transform="matrix(0.55 0 0 0.8889 184.5063 372.207)"  />
  <image id="pc_13_off" overflow="visible" width="51" height="26" xlink:href="off.jpg"  transform="matrix(0.55 0 0 0.8889 103.2085 428.0176)"  />
  <image id="pc_14_off" overflow="visible" width="51" height="26" xlink:href="off.jpg"  transform="matrix(0.55 0 0 0.8889 146.0654 428.3184)" />
  <image id="pc_15_off" overflow="visible" width="51" height="26" xlink:href="off.jpg"  transform="matrix(0.55 0 0 0.8889 185.0249 428.8164)"  />
  <image id="pc_16_off" overflow="visible" width="51" height="26" xlink:href="off.jpg"  transform="matrix(0.55 0 0 0.8889 101.3916 489.8574)"  />
  <image id="pc_17_off" overflow="visible" width="51" height="26" xlink:href="off.jpg"  transform="matrix(0.55 0 0 0.8889 144.2485 490.1582)"  />
  <image id="pc_18_off" overflow="visible" width="51" height="26" xlink:href="off.jpg"  transform="matrix(0.55 0 0 0.8889 183.208 490.6562)"  />
  <image id="pc_19_off" overflow="visible" width="51" height="26" xlink:href="off.jpg"  transform="matrix(0.55 0 0 0.8889 271.0068 189.7275)"  />
  <image id="pc_20_off" overflow="visible" width="51" height="26" xlink:href="off.jpg"  transform="matrix(0.55 0 0 0.8889 313.8633 190.0283)"  />
  <image id="pc_21_off" overflow="visible" width="51" height="26" xlink:href="off.jpg"  transform="matrix(0.55 0 0 0.8889 352.8232 190.5269)"  />
  <image id="pc_22_off" overflow="visible" width="51" height="26" xlink:href="off.jpg"  transform="matrix(0.55 0 0 0.8889 269.9629 251.126)"  />
  <image id="pc_23_off" overflow="visible" width="51" height="26" xlink:href="off.jpg"  transform="matrix(0.55 0 0 0.8889 312.8203 251.4268)"  />
  <image id="pc_24_off" overflow="visible" width="51" height="26" xlink:href="off.jpg"  transform="matrix(0.55 0 0 0.8889 351.7793 251.9253)" />
  <image id="pc_25_off" overflow="visible" width="51" height="26" xlink:href="off.jpg"  transform="matrix(0.55 0 0 0.8889 271.2617 312.165)" />
  <image id="pc_26_off" overflow="visible" width="51" height="26" xlink:href="off.jpg"  transform="matrix(0.55 0 0 0.8889 314.1182 312.4658)"  />
  <image id="pc_27_off" overflow="visible" width="51" height="26" xlink:href="off.jpg"  transform="matrix(0.55 0 0 0.8889 353.0781 312.9644)"  />
  <image id="pc_28_off" overflow="visible" width="51" height="26" xlink:href="off.jpg"  transform="matrix(0.55 0 0 0.8889 271.2617 430.6133)"  />
  <image id="pc_29_off" overflow="visible" width="51" height="26" xlink:href="off.jpg"  transform="matrix(0.55 0 0 0.8889 314.1182 430.9141)" />
  <image id="pc_30_off" overflow="visible" width="51" height="26" xlink:href="off.jpg"  transform="matrix(0.55 0 0 0.8889 353.0781 431.4121)" />
  <image id="pc_31_off" overflow="visible" width="51" height="26" xlink:href="off.jpg"  transform="matrix(0.55 0 0 0.8889 269.4443 492.4531)"  />
  <image id="pc_32_off" overflow="visible" width="51" height="26" xlink:href="off.jpg"  transform="matrix(0.55 0 0 0.8889 312.3008 492.7539)" />
  <image id="pc_33_off" overflow="visible" width="51" height="26" xlink:href="off.jpg"  transform="matrix(0.55 0 0 0.8889 351.2607 493.252)" />
  <image id="pc_34_off" overflow="visible" width="51" height="26" xlink:href="off.jpg"  transform="matrix(0.55 0 0 0.8889 311.1748 142.353)"  />
</g>
<g id="on">
  <image id="pc_1_on" overflow="visible" width="51" height="26" xlink:href="on.jpg"  transform="matrix(0.55 0 0 0.8889 102.9541 187.1309)"  style="display:none"/>
  <image id="pc_2_on" overflow="visible" width="51" height="26" xlink:href="on.jpg"  transform="matrix(0.55 0 0 0.8889 145.811 187.4316)"  style="display:none"/>
  <image id="pc_3_on" overflow="visible" width="51" height="26" xlink:href="on.jpg"  transform="matrix(0.55 0 0 0.8889 184.7705 187.9302)" style="display:none"/>
  <image id="pc_4_on" overflow="visible" width="51" height="26" xlink:href="on.jpg"  transform="matrix(0.55 0 0 0.8889 101.9102 248.5293)" style="display:none"/>
  <image id="pc_5_on" overflow="visible" width="51" height="26" xlink:href="on.jpg"  transform="matrix(0.55 0 0 0.8889 144.7671 248.8301)" style="display:none"/>
  <image id="pc_6_on" overflow="visible" width="51" height="26" xlink:href="on.jpg"  transform="matrix(0.55 0 0 0.8889 183.7266 249.3286)" style="display:none"/>
  <image id="pc_7_on" overflow="visible" width="51" height="26" xlink:href="on.jpg"  transform="matrix(0.55 0 0 0.8889 103.2085 309.5684)"  style="display:none"/>
  <image id="pc_8_on" overflow="visible" width="51" height="26" xlink:href="on.jpg"  transform="matrix(0.55 0 0 0.8889 146.0654 309.8691)"  style="display:none"/>
  <image id="pc_9_on" overflow="visible" width="51" height="26" xlink:href="on.jpg"  transform="matrix(0.55 0 0 0.8889 185.0249 310.3677)"  style="display:none"/>
  <image id="pc_10_on" overflow="visible" width="51" height="26" xlink:href="on.jpg"  transform="matrix(0.55 0 0 0.8889 102.6899 371.4082)"  style="display:none"/>
  <image id="pc_11_on" overflow="visible" width="51" height="26" xlink:href="on.jpg"  transform="matrix(0.55 0 0 0.8889 145.5469 371.709)"  style="display:none"/>
  <image id="pc_12_on" overflow="visible" width="51" height="26" xlink:href="on.jpg"  transform="matrix(0.55 0 0 0.8889 184.5063 372.207)"  style="display:none"/>
  <image id="pc_13_on" overflow="visible" width="51" height="26" xlink:href="on.jpg"  transform="matrix(0.55 0 0 0.8889 103.2085 428.0176)"  style="display:none"/>
  <image id="pc_14_on" overflow="visible" width="51" height="26" xlink:href="on.jpg"  transform="matrix(0.55 0 0 0.8889 146.0654 428.3184)" style="display:none"/>
  <image id="pc_15_on" overflow="visible" width="51" height="26" xlink:href="on.jpg"  transform="matrix(0.55 0 0 0.8889 185.0249 428.8164)"  style="display:none"/>
  <image id="pc_16_on" overflow="visible" width="51" height="26" xlink:href="on.jpg"  transform="matrix(0.55 0 0 0.8889 101.3916 489.8574)"  style="display:none"/>
  <image id="pc_17_on" overflow="visible" width="51" height="26" xlink:href="on.jpg"  transform="matrix(0.55 0 0 0.8889 144.2485 490.1582)"  style="display:none"/>
  <image id="pc_18_on" overflow="visible" width="51" height="26" xlink:href="on.jpg"  transform="matrix(0.55 0 0 0.8889 183.208 490.6562)"  style="display:none"/>
  <image id="pc_19_on" overflow="visible" width="51" height="26" xlink:href="on.jpg"  transform="matrix(0.55 0 0 0.8889 271.0068 189.7275)"  style="display:none"/>
  <image id="pc_20_on" overflow="visible" width="51" height="26" xlink:href="on.jpg"  transform="matrix(0.55 0 0 0.8889 313.8633 190.0283)"  style="display:none"/>
  <image id="pc_21_on" overflow="visible" width="51" height="26" xlink:href="on.jpg"  transform="matrix(0.55 0 0 0.8889 352.8232 190.5269)"  style="display:none"/>
  <image id="pc_22_on" overflow="visible" width="51" height="26" xlink:href="on.jpg"  transform="matrix(0.55 0 0 0.8889 269.9629 251.126)"  style="display:none"/>
  <image id="pc_23_on" overflow="visible" width="51" height="26" xlink:href="on.jpg"  transform="matrix(0.55 0 0 0.8889 312.8203 251.4268)"  style="display:none"/>
  <image id="pc_24_on" overflow="visible" width="51" height="26" xlink:href="on.jpg"  transform="matrix(0.55 0 0 0.8889 351.7793 251.9253)" style="display:none"/>
  <image id="pc_25_on" overflow="visible" width="51" height="26" xlink:href="on.jpg"  transform="matrix(0.55 0 0 0.8889 271.2617 312.165)" style="display:none"/>
  <image id="pc_26_on" overflow="visible" width="51" height="26" xlink:href="on.jpg"  transform="matrix(0.55 0 0 0.8889 314.1182 312.4658)"  style="display:none"/>
  <image id="pc_27_on" overflow="visible" width="51" height="26" xlink:href="on.jpg"  transform="matrix(0.55 0 0 0.8889 353.0781 312.9644)"  style="display:none"/>
  <image id="pc_28_on" overflow="visible" width="51" height="26" xlink:href="on.jpg"  transform="matrix(0.55 0 0 0.8889 271.2617 430.6133)"  style="display:none"/>
  <image id="pc_29_on" overflow="visible" width="51" height="26" xlink:href="on.jpg"  transform="matrix(0.55 0 0 0.8889 314.1182 430.9141)" style="display:none"/>
  <image id="pc_30_on" overflow="visible" width="51" height="26" xlink:href="on.jpg"  transform="matrix(0.55 0 0 0.8889 353.0781 431.4121)" style="display:none"/>
  <image id="pc_31_on" overflow="visible" width="51" height="26" xlink:href="on.jpg"  transform="matrix(0.55 0 0 0.8889 269.4443 492.4531)"  style="display:none"/>
  <image id="pc_32_on" overflow="visible" width="51" height="26" xlink:href="on.jpg"  transform="matrix(0.55 0 0 0.8889 312.3008 492.7539)" style="display:none"/>
  <image id="pc_33_on" overflow="visible" width="51" height="26" xlink:href="on.jpg"  transform="matrix(0.55 0 0 0.8889 351.2607 493.252)" style="display:none"/>
  <image id="pc_34_on" overflow="visible" width="51" height="26" xlink:href="on.jpg"  transform="matrix(0.55 0 0 0.8889 311.1748 142.353)"  style="display:none"/>
</g>
</g>
<script xlink:href="http://ajax.googleapis.com/ajax/libs/jquery/1.7.2/jquery.min.js" />
<script xlink:href="innersvg.js" />
<script xlink:href="room.js" />
</svg>
