<?xml version="1.0" encoding="utf-8"?>
<!-- Generator: Adobe Illustrator 16.0.0, SVG Export Plug-In . SVG Version: 6.00 Build 0)  -->
<!DOCTYPE svg PUBLIC "-//W3C//DTD SVG 1.1//EN" "http://www.w3.org/Graphics/SVG/1.1/DTD/svg11.dtd">
<svg version="1.1" id="レイヤー_1" xmlns="http://www.w3.org/2000/svg" xmlns:xlink="http://www.w3.org/1999/xlink" x="0px"
	 y="0px" width="480px" height="720px" viewBox="0 0 480 720" enable-background="new 0 0 480 720" xml:space="preserve">
<g id="レイヤー_1_1_">
	
		<rect x="30.46" y="81.599" fill="#FFFFFF" stroke="#000000" stroke-width="4" stroke-miterlimit="10" width="419.079" height="476.635"/>
	<rect x="175.417" y="28.052" fill="none" width="145.455" height="27.273"/>
	<text transform="matrix(1 0 0 1 175.416 43.4346)" font-family="'KozGoPr6N-Regular-83pv-RKSJ-H'" font-size="18">パソコン教</text>
	
		<text transform="matrix(1 0 0 1 265.416 43.4346)" font-family="'KozGoPr6N-Regular-83pv-RKSJ-H'" font-size="18" letter-spacing="3">室</text>
	<text transform="matrix(1 0 0 1 287.916 43.8926)" font-family="'KozGoPr6N-Regular-83pv-RKSJ-H'" font-size="18">F</text>
	<rect x="344.248" y="574.688" fill="none" width="31.168" height="18.182"/>
	<text transform="matrix(1 0 0 1 344.248 587.0068)" font-family="'KozGoPr6N-Regular-83pv-RKSJ-H'" font-size="14">入口</text>
	<rect x="332.56" y="552.608" fill="#FFFCFB" width="48.053" height="12.986"/>
	
		<image overflow="visible" enable-background="new    " width="52" height="26" xlink:href="672E209929DF759F.jpg"  transform="matrix(0.6004 0 0 0.8889 78 192.9302)">
	</image>
	
		<image overflow="visible" enable-background="new    " width="52" height="26" xlink:href="672E209929DF759A.jpg"  transform="matrix(0.6004 0 0 0.8889 125 193.9302)">
	</image>
	
		<image overflow="visible" enable-background="new    " width="52" height="26" xlink:href="672E209929DF7599.jpg"  transform="matrix(0.6004 0 0 0.8889 199 194.9302)">
	</image>
	
		<image overflow="visible" enable-background="new    " width="52" height="26" xlink:href="672E209929DF75A6.jpg"  transform="matrix(0.6004 0 0 0.8889 245 195.9302)">
	</image>
	
		<image overflow="visible" enable-background="new    " width="52" height="26" xlink:href="672E209929DF75A9.jpg"  transform="matrix(0.6004 0 0 0.8889 317 195.9302)">
	</image>
	
		<image overflow="visible" enable-background="new    " width="52" height="26" xlink:href="672E209929DF75AA.jpg"  transform="matrix(0.6004 0 0 0.8889 363 197.9302)">
	</image>
	
		<image overflow="visible" enable-background="new    " width="52" height="26" xlink:href="672E209929DF75A8.jpg"  transform="matrix(0.6004 0 0 0.8889 79 255.9302)">
	</image>
	
		<image overflow="visible" enable-background="new    " width="52" height="26" xlink:href="672E209929DF75AD.jpg"  transform="matrix(0.6004 0 0 0.8889 125 256.9302)">
	</image>
	
		<image overflow="visible" enable-background="new    " width="52" height="26" xlink:href="672E209929DF75AE.jpg"  transform="matrix(0.6004 0 0 0.8889 200 258.9302)">
	</image>
	
		<image overflow="visible" enable-background="new    " width="52" height="26" xlink:href="E9AAB6230D4BFFED.jpg"  transform="matrix(0.6004 0 0 0.8889 244 259.9302)">
	</image>
	
		<image overflow="visible" enable-background="new    " width="52" height="26" xlink:href="E9AAB6230D4BFFEE.jpg"  transform="matrix(0.6004 0 0 0.8889 318 258.9302)">
	</image>
	
		<image overflow="visible" enable-background="new    " width="52" height="26" xlink:href="E9AAB6230D4BFFEC.jpg"  transform="matrix(0.6004 0 0 0.8889 364 259.9302)">
	</image>
	
		<image overflow="visible" enable-background="new    " width="52" height="26" xlink:href="E9AAB6230D4BFFF4.jpg"  transform="matrix(0.6004 0 0 0.8889 124 320.9302)">
	</image>
	
		<image overflow="visible" enable-background="new    " width="52" height="26" xlink:href="E9AAB6230D4BFFF1.jpg"  transform="matrix(0.6004 0 0 0.8889 198 320.9302)">
	</image>
	
		<image overflow="visible" enable-background="new    " width="52" height="26" xlink:href="E9AAB6230D4BFFF2.jpg"  transform="matrix(0.6004 0 0 0.8889 245 320.9302)">
	</image>
	
		<image overflow="visible" enable-background="new    " width="52" height="26" xlink:href="E9AAB6230D4BFFF3.jpg"  transform="matrix(0.6004 0 0 0.8889 319 320.9302)">
	</image>
	
		<image overflow="visible" enable-background="new    " width="52" height="26" xlink:href="E9AAB6230D4BFFFA.jpg"  transform="matrix(0.6004 0 0 0.8889 362 321.9302)">
	</image>
	
		<image overflow="visible" enable-background="new    " width="52" height="26" xlink:href="E9AAB6230D4BFFFD.jpg"  transform="matrix(0.6004 0 0 0.8889 80 388.9297)">
	</image>
	
		<image overflow="visible" enable-background="new    " width="52" height="26" xlink:href="E9AAB6230D4BFFFF.jpg"  transform="matrix(0.6004 0 0 0.8889 126 387.9297)">
	</image>
	
		<image overflow="visible" enable-background="new    " width="52" height="26" xlink:href="E9AAB6230D4C001F.jpg"  transform="matrix(0.6004 0 0 0.8889 199 387.9297)">
	</image>
	
		<image overflow="visible" enable-background="new    " width="52" height="26" xlink:href="E9AAB6230D4C001D.jpg"  transform="matrix(0.6004 0 0 0.8889 245 387.9297)">
	</image>
	
		<image overflow="visible" enable-background="new    " width="52" height="26" xlink:href="E9AAB6230D4C0028.jpg"  transform="matrix(0.6004 0 0 0.8889 320 388.9297)">
	</image>
	
		<image overflow="visible" enable-background="new    " width="52" height="26" xlink:href="E9AAB6230D4C0029.jpg"  transform="matrix(0.6004 0 0 0.8889 364 386.9297)">
	</image>
	
		<image overflow="visible" enable-background="new    " width="52" height="26" xlink:href="E9AAB6230D4C002A.jpg"  transform="matrix(0.6389 0 0 0.8889 219 123.9302)">
	</image>
</g>
<g id="レイヤー_2">
	
		<image overflow="visible" enable-background="new    " width="48" height="23" xlink:href="E9AAB6230D4C002B.jpg"  transform="matrix(0.661 0 0 0.9474 79.1099 194.9614)">
	</image>
	
		<image overflow="visible" enable-background="new    " width="48" height="23" xlink:href="E9AAB6230D4C002C.jpg"  transform="matrix(0.7963 0 0 0.9474 216.5776 125.0615)">
	</image>
	
		<image overflow="visible" enable-background="new    " width="48" height="23" xlink:href="E9AAB6230D4C0025.jpg"  transform="matrix(0.661 0 0 0.9474 124.4995 195.3511)">
	</image>
	
		<image overflow="visible" enable-background="new    " width="48" height="23" xlink:href="E9AAB6230D4C0026.jpg"  transform="matrix(0.661 0 0 0.9474 79.5254 258.0005)">
	</image>
	
		<image overflow="visible" enable-background="new    " width="48" height="23" xlink:href="E9AAB6230D4C0027.jpg"  transform="matrix(0.661 0 0 0.9474 124.915 258.3901)">
	</image>
	
		<image overflow="visible" enable-background="new    " width="48" height="23" xlink:href="E9AAB6230D4C0034.jpg"  transform="matrix(0.661 0 0 0.9474 125.1099 323.377)">
	</image>
	
		<image overflow="visible" enable-background="new    " width="48" height="23" xlink:href="E9AAB6230D4C000E.jpg"  transform="matrix(0.661 0 0 0.9474 80.8242 389.4941)">
	</image>
	
		<image overflow="visible" enable-background="new    " width="48" height="23" xlink:href="E9AAB6230D4C0009.jpg"  transform="matrix(0.661 0 0 0.9474 126.2139 389.8828)">
	</image>
	
		<image overflow="visible" enable-background="new    " width="48" height="23" xlink:href="E9AAB6230D4C000A.jpg"  transform="matrix(0.661 0 0 0.9474 199.1099 196.9614)">
	</image>
	
		<image overflow="visible" enable-background="new    " width="48" height="23" xlink:href="E9AAB6230D4C000B.jpg"  transform="matrix(0.661 0 0 0.9474 244.5 197.3511)">
	</image>
	
		<image overflow="visible" enable-background="new    " width="48" height="23" xlink:href="E9AAB6230D4C0018.jpg"  transform="matrix(0.661 0 0 0.9474 199.5254 260.0005)">
	</image>
	
		<image overflow="visible" enable-background="new    " width="48" height="23" xlink:href="E9AAB6230D4C0019.jpg"  transform="matrix(0.661 0 0 0.9474 244.915 260.3901)">
	</image>
	
		<image overflow="visible" enable-background="new    " width="48" height="23" xlink:href="E9AAB6230D4C0002.jpg"  transform="matrix(0.661 0 0 0.9474 199.3042 321.9224)">
	</image>
	
		<image overflow="visible" enable-background="new    " width="48" height="23" xlink:href="E9AAB6230D4C0003.jpg"  transform="matrix(0.661 0 0 0.9474 244.6934 322.312)">
	</image>
	
		<image overflow="visible" enable-background="new    " width="48" height="23" xlink:href="E9AAB6230D4C0004.jpg"  transform="matrix(0.661 0 0 0.9474 199.7197 387.9609)">
	</image>
	
		<image overflow="visible" enable-background="new    " width="48" height="23" xlink:href="E9AAB6230D4C007C.jpg"  transform="matrix(0.661 0 0 0.9474 245.1094 388.3516)">
	</image>
	
		<image overflow="visible" enable-background="new    " width="48" height="23" xlink:href="E9AAB6230D4C007D.jpg"  transform="matrix(0.661 0 0 0.9474 318.3379 197.3506)">
	</image>
	
		<image overflow="visible" enable-background="new    " width="48" height="23" xlink:href="E9AAB6230D4C007E.jpg"  transform="matrix(0.661 0 0 0.9474 363.7266 197.7402)">
	</image>
	
		<image overflow="visible" enable-background="new    " width="48" height="23" xlink:href="E9AAB6230D4C0063.jpg"  transform="matrix(0.661 0 0 0.9474 318.7529 260.3896)">
	</image>
	
		<image overflow="visible" enable-background="new    " width="48" height="23" xlink:href="E9AAB6230D4C0064.jpg"  transform="matrix(0.661 0 0 0.9474 364.1426 260.7793)">
	</image>
	
		<image overflow="visible" enable-background="new    " width="48" height="23" xlink:href="E9AAB6230D4C0061.jpg"  transform="matrix(0.661 0 0 0.9474 318.5312 322.3115)">
	</image>
	
		<image overflow="visible" enable-background="new    " width="48" height="23" xlink:href="E9AAB6230D4C0062.jpg"  transform="matrix(0.661 0 0 0.9474 363.9219 322.7012)">
	</image>
	
		<image overflow="visible" enable-background="new    " width="48" height="23" xlink:href="E9AAB6230D4C0060.jpg"  transform="matrix(0.661 0 0 0.9474 318.9473 388.3516)">
	</image>
	
		<image overflow="visible" enable-background="new    " width="48" height="23" xlink:href="E9AAB6230D4C0069.jpg"  transform="matrix(0.661 0 0 0.9474 364.3369 388.7402)">
	</image>
</g>
</svg>
