<?xml version="1.0" encoding="utf-8"?>
<!-- Generator: Adobe Illustrator 16.0.0, SVG Export Plug-In . SVG Version: 6.00 Build 0)  -->
<!DOCTYPE svg PUBLIC "-//W3C//DTD SVG 1.1//EN" "http://www.w3.org/Graphics/SVG/1.1/DTD/svg11.dtd">
<svg version="1.1" id="レイヤー_1" xmlns="http://www.w3.org/2000/svg" xmlns:xlink="http://www.w3.org/1999/xlink" x="0px"
	 y="0px" width="480px" height="720px" viewBox="0 0 480 720" enable-background="new 0 0 480 720" xml:space="preserve">
<g id="レイヤー_1_1_">
	
		<rect x="40.402" y="82.757" fill="#FFFFFF" stroke="#000000" stroke-width="3" stroke-miterlimit="10" width="405.195" height="474.729"/>
	<rect x="166.325" y="21.559" fill="none" width="145.455" height="27.273"/>
	<text transform="matrix(1 0 0 1 166.3242 37.3984)" font-family="'KozGoPr6N-Regular-83pv-RKSJ-H'" font-size="18">経営学部１号館</text>
	<rect x="435.156" y="111.169" fill="#FFFFFF" stroke="#FFFFFF" stroke-miterlimit="10" width="12.986" height="36.363"/>
	<rect x="63.727" y="159.121" fill="none" stroke="#000000" stroke-miterlimit="10" width="33.766" height="20.268"/>
	<rect x="117.533" y="159.121" fill="none" stroke="#000000" stroke-miterlimit="10" width="33.766" height="20.268"/>
	<rect x="223.117" y="159.121" fill="none" stroke="#000000" stroke-miterlimit="10" width="33.766" height="20.268"/>
	<rect x="272.467" y="159.121" fill="none" stroke="#000000" stroke-miterlimit="10" width="33.768" height="20.268"/>
	<rect x="324.416" y="159.121" fill="none" stroke="#000000" stroke-miterlimit="10" width="33.766" height="20.268"/>
	<rect x="373.766" y="159.121" fill="none" stroke="#000000" stroke-miterlimit="10" width="33.768" height="20.268"/>
	<rect x="64.727" y="213.121" fill="none" stroke="#000000" stroke-miterlimit="10" width="33.766" height="20.268"/>
	<rect x="118.533" y="213.121" fill="none" stroke="#000000" stroke-miterlimit="10" width="33.766" height="20.268"/>
	<rect x="224.117" y="213.121" fill="none" stroke="#000000" stroke-miterlimit="10" width="33.766" height="20.268"/>
	<rect x="273.467" y="213.121" fill="none" stroke="#000000" stroke-miterlimit="10" width="33.768" height="20.268"/>
	<rect x="325.416" y="213.121" fill="none" stroke="#000000" stroke-miterlimit="10" width="33.766" height="20.268"/>
	<rect x="374.766" y="213.121" fill="none" stroke="#000000" stroke-miterlimit="10" width="33.768" height="20.268"/>
	<rect x="66.727" y="266.121" fill="none" stroke="#000000" stroke-miterlimit="10" width="33.766" height="20.268"/>
	<rect x="120.533" y="266.121" fill="none" stroke="#000000" stroke-miterlimit="10" width="33.766" height="20.268"/>
	<rect x="226.117" y="266.121" fill="none" stroke="#000000" stroke-miterlimit="10" width="33.766" height="20.268"/>
	<rect x="275.467" y="266.121" fill="none" stroke="#000000" stroke-miterlimit="10" width="33.768" height="20.268"/>
	<rect x="327.416" y="266.121" fill="none" stroke="#000000" stroke-miterlimit="10" width="33.766" height="20.268"/>
	<rect x="376.766" y="266.121" fill="none" stroke="#000000" stroke-miterlimit="10" width="33.768" height="20.268"/>
	<rect x="67.727" y="320.121" fill="none" stroke="#000000" stroke-miterlimit="10" width="33.766" height="20.268"/>
	<rect x="121.533" y="320.121" fill="none" stroke="#000000" stroke-miterlimit="10" width="33.766" height="20.268"/>
	<rect x="227.117" y="320.121" fill="none" stroke="#000000" stroke-miterlimit="10" width="33.766" height="20.268"/>
	<rect x="276.467" y="320.121" fill="none" stroke="#000000" stroke-miterlimit="10" width="33.768" height="20.268"/>
	<rect x="328.416" y="320.121" fill="none" stroke="#000000" stroke-miterlimit="10" width="33.766" height="20.268"/>
	<rect x="377.766" y="320.121" fill="none" stroke="#000000" stroke-miterlimit="10" width="33.768" height="20.268"/>
	<rect x="67.727" y="372.121" fill="none" stroke="#000000" stroke-miterlimit="10" width="33.766" height="20.268"/>
	<rect x="121.533" y="372.121" fill="none" stroke="#000000" stroke-miterlimit="10" width="33.766" height="20.268"/>
	<rect x="227.117" y="372.121" fill="none" stroke="#000000" stroke-miterlimit="10" width="33.766" height="20.268"/>
	<rect x="276.467" y="372.121" fill="none" stroke="#000000" stroke-miterlimit="10" width="33.768" height="20.268"/>
	<rect x="328.416" y="372.121" fill="none" stroke="#000000" stroke-miterlimit="10" width="33.766" height="20.268"/>
	<rect x="377.766" y="372.121" fill="none" stroke="#000000" stroke-miterlimit="10" width="33.768" height="20.268"/>
	<rect x="67.727" y="420.121" fill="none" stroke="#000000" stroke-miterlimit="10" width="33.766" height="20.268"/>
	<rect x="121.533" y="420.121" fill="none" stroke="#000000" stroke-miterlimit="10" width="33.766" height="20.268"/>
	<rect x="227.117" y="420.121" fill="none" stroke="#000000" stroke-miterlimit="10" width="33.766" height="20.268"/>
	<rect x="276.467" y="420.121" fill="none" stroke="#000000" stroke-miterlimit="10" width="33.768" height="20.268"/>
	<rect x="328.416" y="420.121" fill="none" stroke="#000000" stroke-miterlimit="10" width="33.766" height="20.268"/>
	<rect x="377.766" y="420.121" fill="none" stroke="#000000" stroke-miterlimit="10" width="33.768" height="20.268"/>
	<rect x="67.727" y="468.121" fill="none" stroke="#000000" stroke-miterlimit="10" width="33.766" height="20.268"/>
	<rect x="121.533" y="468.121" fill="none" stroke="#000000" stroke-miterlimit="10" width="33.766" height="20.268"/>
	<rect x="227.117" y="468.121" fill="none" stroke="#000000" stroke-miterlimit="10" width="33.766" height="20.268"/>
	<rect x="276.467" y="468.121" fill="none" stroke="#000000" stroke-miterlimit="10" width="33.768" height="20.268"/>
	<rect x="328.416" y="468.121" fill="none" stroke="#000000" stroke-miterlimit="10" width="33.766" height="20.268"/>
	<rect x="377.766" y="468.121" fill="none" stroke="#000000" stroke-miterlimit="10" width="33.768" height="20.268"/>
	<rect x="395.949" y="120.26" fill="none" width="31.168" height="18.182"/>
	<text transform="matrix(1 0 0 1 395.9492 132.5801)" font-family="'KozGoPr6N-Regular-83pv-RKSJ-H'" font-size="14">入口</text>
	
		<image overflow="visible" enable-background="new    " width="51" height="26" xlink:href="15ACDCFCDF45D360.jpg"  transform="matrix(0.7951 0 0 0.8889 63.3345 157.6992)">
	</image>
	
		<image overflow="visible" enable-background="new    " width="51" height="26" xlink:href="15ACDCFCDF45D361.jpg"  transform="matrix(0.7951 0 0 0.8889 115.1411 157.6992)">
	</image>
	
		<image overflow="visible" enable-background="new    " width="51" height="26" xlink:href="15ACDCFCDF45D367.jpg"  transform="matrix(0.7951 0 0 0.8889 63.335 211.6992)">
	</image>
	
		<image overflow="visible" enable-background="new    " width="51" height="26" xlink:href="15ACDCFCDF45D362.jpg"  transform="matrix(0.7951 0 0 0.8889 117.1411 211.6992)">
	</image>
	
		<image overflow="visible" enable-background="new    " width="51" height="26" xlink:href="15ACDCFCDF45D363.jpg"  transform="matrix(0.7951 0 0 0.8889 63.9448 264.9541)">
	</image>
	
		<image overflow="visible" enable-background="new    " width="51" height="26" xlink:href="15ACDCFCDF45D36E.jpg"  transform="matrix(0.7951 0 0 0.8889 118.1411 264.6992)">
	</image>
	
		<image overflow="visible" enable-background="new    " width="51" height="26" xlink:href="15ACDCFCDF45D36F.jpg"  transform="matrix(0.7951 0 0 0.8889 64.3354 318.6992)">
	</image>
	
		<image overflow="visible" enable-background="new    " width="51" height="26" xlink:href="15ACDCFCDF45D364.jpg"  transform="matrix(0.7951 0 0 0.8889 118.1411 318.6992)">
	</image>
	
		<image overflow="visible" enable-background="new    " width="51" height="26" xlink:href="15ACDCFCDF45D365.jpg"  transform="matrix(0.7951 0 0 0.8889 63.335 370.6992)">
	</image>
	
		<image overflow="visible" enable-background="new    " width="51" height="26" xlink:href="21FBF08C45178D3F.jpg"  transform="matrix(0.7951 0 0 0.8889 117.1411 370.6992)">
	</image>
	
		<image overflow="visible" enable-background="new    " width="51" height="26" xlink:href="21FBF08C45178D3D.jpg"  transform="matrix(0.7951 0 0 0.8889 64.3354 418.6992)">
	</image>
	
		<image overflow="visible" enable-background="new    " width="51" height="26" xlink:href="21FBF08C45178D3B.jpg"  transform="matrix(0.7951 0 0 0.8889 118.1411 418.6992)">
	</image>
	
		<image overflow="visible" enable-background="new    " width="51" height="26" xlink:href="21FBF08C45178D35.jpg"  transform="matrix(0.7951 0 0 0.8889 64.3354 466.6992)">
	</image>
	
		<image overflow="visible" enable-background="new    " width="51" height="26" xlink:href="21FBF08C45178D37.jpg"  transform="matrix(0.7951 0 0 0.8889 117.1411 466.6992)">
	</image>
	
		<image overflow="visible" enable-background="new    " width="51" height="26" xlink:href="21FBF08C45178D2A.jpg"  transform="matrix(0.7951 0 0 0.8889 222.7251 158.792)">
	</image>
	
		<image overflow="visible" enable-background="new    " width="51" height="26" xlink:href="21FBF08C45178D2B.jpg"  transform="matrix(0.7951 0 0 0.8889 222.7251 213.5371)">
	</image>
	
		<image overflow="visible" enable-background="new    " width="51" height="26" xlink:href="21FBF08C45178D2D.jpg"  transform="matrix(0.7951 0 0 0.8889 220.7251 266.5371)">
	</image>
	
		<image overflow="visible" enable-background="new    " width="51" height="26" xlink:href="21FBF08C45178D2F.jpg"  transform="matrix(0.7951 0 0 0.8889 222.7251 320.5376)">
	</image>
	
		<image overflow="visible" enable-background="new    " width="51" height="26" xlink:href="21FBF08C45178D28.jpg"  transform="matrix(0.7951 0 0 0.8889 223.7251 371.1152)">
	</image>
	
		<image overflow="visible" enable-background="new    " width="51" height="26" xlink:href="21FBF08C45178D4E.jpg"  transform="matrix(0.7951 0 0 0.8889 223.7251 418.6992)">
	</image>
	
		<image overflow="visible" enable-background="new    " width="51" height="26" xlink:href="21FBF08C45178D4D.jpg"  transform="matrix(0.7951 0 0 0.8889 223.7251 466.6992)">
	</image>
	
		<image overflow="visible" enable-background="new    " width="51" height="26" xlink:href="21FBF08C45178D4A.jpg"  transform="matrix(0.7951 0 0 0.8889 272.5742 159.1206)">
	</image>
	
		<image overflow="visible" enable-background="new    " width="51" height="26" xlink:href="21FBF08C45178D45.jpg"  transform="matrix(0.7951 0 0 0.8889 272.5742 213.8657)">
	</image>
	
		<image overflow="visible" enable-background="new    " width="51" height="26" xlink:href="21FBF08C45178D46.jpg"  transform="matrix(0.7951 0 0 0.8889 270.5742 266.8657)">
	</image>
	
		<image overflow="visible" enable-background="new    " width="51" height="26" xlink:href="21FBF08C45178D44.jpg"  transform="matrix(0.7951 0 0 0.8889 272.5742 320.8662)">
	</image>
	
		<image overflow="visible" enable-background="new    " width="51" height="26" xlink:href="21FBF08C45178D7A.jpg"  transform="matrix(0.7951 0 0 0.8889 273.5742 371.4434)">
	</image>
	
		<image overflow="visible" enable-background="new    " width="51" height="26" xlink:href="21FBF08C45178D7D.jpg"  transform="matrix(0.7951 0 0 0.8889 273.5742 419.0273)">
	</image>
	
		<image overflow="visible" enable-background="new    " width="51" height="26" xlink:href="21FBF08C45178D7E.jpg"  transform="matrix(0.7951 0 0 0.8889 273.5742 467.0273)">
	</image>
	
		<image overflow="visible" enable-background="new    " width="51" height="26" xlink:href="21FBF08C45178D7C.jpg"  transform="matrix(0.7951 0 0 0.8889 324.5234 159.1206)">
	</image>
	
		<image overflow="visible" enable-background="new    " width="51" height="26" xlink:href="21FBF08C45178D61.jpg"  transform="matrix(0.7951 0 0 0.8889 324.5234 213.8657)">
	</image>
	
		<image overflow="visible" enable-background="new    " width="51" height="26" xlink:href="21FBF08C45178D9F.jpg"  transform="matrix(0.7951 0 0 0.8889 322.5234 266.8657)">
	</image>
	
		<image overflow="visible" enable-background="new    " width="51" height="26" xlink:href="21FBF08C45178DA1.jpg"  transform="matrix(0.7951 0 0 0.8889 324.5234 320.8662)">
	</image>
	
		<image overflow="visible" enable-background="new    " width="51" height="26" xlink:href="21FBF08C45178DA3.jpg"  transform="matrix(0.7951 0 0 0.8889 325.5234 371.4434)">
	</image>
	
		<image overflow="visible" enable-background="new    " width="51" height="26" xlink:href="21FBF08C45178DA0.jpg"  transform="matrix(0.7951 0 0 0.8889 325.5234 419.0273)">
	</image>
	
		<image overflow="visible" enable-background="new    " width="51" height="26" xlink:href="21FBF08C45178DA7.jpg"  transform="matrix(0.7951 0 0 0.8889 325.5234 467.0273)">
	</image>
	
		<image overflow="visible" enable-background="new    " width="51" height="26" xlink:href="21FBF08C45178DA2.jpg"  transform="matrix(0.7951 0 0 0.8889 373.373 157.6987)">
	</image>
	
		<image overflow="visible" enable-background="new    " width="51" height="26" xlink:href="21FBF08C45178DAE.jpg"  transform="matrix(0.7951 0 0 0.8889 375.6738 213.8657)">
	</image>
	
		<image overflow="visible" enable-background="new    " width="51" height="26" xlink:href="21FBF08C45178DAF.jpg"  transform="matrix(0.7951 0 0 0.8889 374.1738 266.8657)">
	</image>
	
		<image overflow="visible" enable-background="new    " width="51" height="26" xlink:href="21FBF08C45178DA4.jpg"  transform="matrix(0.7951 0 0 0.8889 376.1738 320.8662)">
	</image>
	
		<image overflow="visible" enable-background="new    " width="51" height="26" xlink:href="21FBF08C45178D8C.jpg"  transform="matrix(0.7951 0 0 0.8889 377.1738 371.4434)">
	</image>
	
		<image overflow="visible" enable-background="new    " width="51" height="26" xlink:href="21FBF08C45178D8F.jpg"  transform="matrix(0.7951 0 0 0.8889 377.1738 419.0273)">
	</image>
	
		<image overflow="visible" enable-background="new    " width="51" height="26" xlink:href="21FBF08C45178D8D.jpg"  transform="matrix(0.7951 0 0 0.8889 377.1738 467.0273)">
	</image>
</g>
<g id="レイヤー_2" display="none">
	
		<image display="inline" overflow="visible" enable-background="new    " width="48" height="23" xlink:href="21FBF08C45178D8B.jpg"  transform="matrix(0.7644 0 0 0.9474 120.0698 265.3599)">
	</image>
	
		<image display="inline" overflow="visible" enable-background="new    " width="48" height="23" xlink:href="21FBF08C45178D84.jpg"  transform="matrix(0.8254 0 0 0.9474 64.8008 158.3594)">
	</image>
	
		<image display="inline" overflow="visible" enable-background="new    " width="48" height="23" xlink:href="21FBF08C45178D87.jpg"  transform="matrix(0.7949 0 0 0.9474 118.6064 158.3599)">
	</image>
	
		<image display="inline" overflow="visible" enable-background="new    " width="48" height="23" xlink:href="21FBF08C45178D85.jpg"  transform="matrix(0.7644 0 0 0.9474 66.2642 212.3599)">
	</image>
	
		<image display="inline" overflow="visible" enable-background="new    " width="48" height="23" xlink:href="21FBF08C45178D9B.jpg"  transform="matrix(0.7644 0 0 0.9474 120.0698 212.3599)">
	</image>
	
		<image display="inline" overflow="visible" enable-background="new    " width="48" height="23" xlink:href="21FBF08C45178D9C.jpg"  transform="matrix(0.7644 0 0 0.9474 66.2642 265.3599)">
	</image>
	
		<image display="inline" overflow="visible" enable-background="new    " width="48" height="23" xlink:href="21FBF08C45178D9E.jpg"  transform="matrix(0.8254 0 0 0.9474 65.4111 320.1147)">
	</image>
	
		<image display="inline" overflow="visible" enable-background="new    " width="48" height="23" xlink:href="21FBF08C45178DFB.jpg"  transform="matrix(0.7949 0 0 0.9474 119.3384 319.3604)">
	</image>
	
		<image display="inline" overflow="visible" enable-background="new    " width="48" height="23" xlink:href="21FBF08C45178DF9.jpg"  transform="matrix(0.7644 0 0 0.9474 66.2642 371.8613)">
	</image>
	
		<image display="inline" overflow="visible" enable-background="new    " width="48" height="23" xlink:href="21FBF08C45178DFF.jpg"  transform="matrix(0.7644 0 0 0.9474 120.0698 371.8613)">
	</image>
	
		<image display="inline" overflow="visible" enable-background="new    " width="48" height="23" xlink:href="21FBF08C45178DFA.jpg"  transform="matrix(0.7644 0 0 0.9474 66.2642 419.3613)">
	</image>
	
		<image display="inline" overflow="visible" enable-background="new    " width="48" height="23" xlink:href="21FBF08C45178DF5.jpg"  transform="matrix(0.7644 0 0 0.9474 119.0698 419.3613)">
	</image>
	
		<image display="inline" overflow="visible" enable-background="new    " width="48" height="23" xlink:href="21FBF08C45178DF6.jpg"  transform="matrix(0.7644 0 0 0.9474 66.2642 467.3594)">
	</image>
	
		<image display="inline" overflow="visible" enable-background="new    " width="48" height="23" xlink:href="21FBF08C45178DF7.jpg"  transform="matrix(0.7644 0 0 0.9474 119.0698 467.3594)">
	</image>
	
		<image display="inline" overflow="visible" enable-background="new    " width="48" height="23" xlink:href="21FBF08C45178DE9.jpg"  transform="matrix(0.8254 0 0 0.9474 221.8008 159.1206)">
	</image>
	
		<image display="inline" overflow="visible" enable-background="new    " width="48" height="23" xlink:href="21FBF08C45178DEB.jpg"  transform="matrix(0.7949 0 0 0.9474 271.2725 159.1211)">
	</image>
	
		<image display="inline" overflow="visible" enable-background="new    " width="48" height="23" xlink:href="21FBF08C45178DEE.jpg"  transform="matrix(0.7644 0 0 0.9474 223.2642 213.1211)">
	</image>
	
		<image display="inline" overflow="visible" enable-background="new    " width="48" height="23" xlink:href="21FBF08C45178DD2.jpg"  transform="matrix(0.7644 0 0 0.9474 274.0039 213.1211)">
	</image>
	
		<image display="inline" overflow="visible" enable-background="new    " width="48" height="23" xlink:href="21FBF08C45178DD1.jpg"  transform="matrix(0.7644 0 0 0.9474 223.2642 266.1211)">
	</image>
	
		<image display="inline" overflow="visible" enable-background="new    " width="48" height="23" xlink:href="21FBF08C45178DCE.jpg"  transform="matrix(0.7644 0 0 0.9474 275.0039 265.3599)">
	</image>
	
		<image display="inline" overflow="visible" enable-background="new    " width="48" height="23" xlink:href="21FBF08C45178DB1.jpg"  transform="matrix(0.8254 0 0 0.9474 224.1904 320.1147)">
	</image>
	
		<image display="inline" overflow="visible" enable-background="new    " width="48" height="23" xlink:href="21FBF08C45178DB2.jpg"  transform="matrix(0.7949 0 0 0.9474 276.3379 320.1216)">
	</image>
	
		<image display="inline" overflow="visible" enable-background="new    " width="48" height="23" xlink:href="21FBF08C45178DB0.jpg"  transform="matrix(0.7644 0 0 0.9474 225.6538 372.623)">
	</image>
	
		<image display="inline" overflow="visible" enable-background="new    " width="48" height="23" xlink:href="21FBF08C45178DB6.jpg"  transform="matrix(0.7644 0 0 0.9474 277.0703 372.623)">
	</image>
	
		<image display="inline" overflow="visible" enable-background="new    " width="48" height="23" xlink:href="21FBF08C45178DB3.jpg"  transform="matrix(0.7644 0 0 0.9474 225.6538 420.123)">
	</image>
	
		<image display="inline" overflow="visible" enable-background="new    " width="48" height="23" xlink:href="21FBF08C45178DBE.jpg"  transform="matrix(0.7644 0 0 0.9474 276.0703 420.123)">
	</image>
	
		<image display="inline" overflow="visible" enable-background="new    " width="48" height="23" xlink:href="21FBF08C45178DBF.jpg"  transform="matrix(0.7644 0 0 0.9474 226.2642 469.377)">
	</image>
	
		<image display="inline" overflow="visible" enable-background="new    " width="48" height="23" xlink:href="21FBF08C45178E55.jpg"  transform="matrix(0.7644 0 0 0.9474 276.0703 468.1211)">
	</image>
	
		<image display="inline" overflow="visible" enable-background="new    " width="48" height="23" xlink:href="21FBF08C45178E53.jpg"  transform="matrix(0.8254 0 0 0.9474 324.416 159.1211)">
	</image>
	
		<image display="inline" overflow="visible" enable-background="new    " width="48" height="23" xlink:href="21FBF08C45178E5D.jpg"  transform="matrix(0.7949 0 0 0.9474 374.5703 159.1211)">
	</image>
	
		<image display="inline" overflow="visible" enable-background="new    " width="48" height="23" xlink:href="21FBF08C45178E5F.jpg"  transform="matrix(0.7644 0 0 0.9474 325.8789 213.1216)">
	</image>
	
		<image display="inline" overflow="visible" enable-background="new    " width="48" height="23" xlink:href="21FBF08C45178E5C.jpg"  transform="matrix(0.7644 0 0 0.9474 375.3027 213.1216)">
	</image>
	
		<image display="inline" overflow="visible" enable-background="new    " width="48" height="23" xlink:href="21FBF08C45178E54.jpg"  transform="matrix(0.7644 0 0 0.9474 325.8789 266.1216)">
	</image>
	
		<image display="inline" overflow="visible" enable-background="new    " width="48" height="23" xlink:href="21FBF08C45178E57.jpg"  transform="matrix(0.7644 0 0 0.9474 376.334 264.3765)">
	</image>
	
		<image display="inline" overflow="visible" enable-background="new    " width="48" height="23" xlink:href="21FBF08C45178E4A.jpg"  transform="matrix(0.8254 0 0 0.9474 325.4893 320.8765)">
	</image>
	
		<image display="inline" overflow="visible" enable-background="new    " width="48" height="23" xlink:href="21FBF08C45178E4B.jpg"  transform="matrix(0.7949 0 0 0.9474 375.8691 320.1221)">
	</image>
	
		<image display="inline" overflow="visible" enable-background="new    " width="48" height="23" xlink:href="21FBF08C45178E4C.jpg"  transform="matrix(0.7644 0 0 0.9474 325.8789 372.623)">
	</image>
	
		<image display="inline" overflow="visible" enable-background="new    " width="48" height="23" xlink:href="21FBF08C45178E68.jpg"  transform="matrix(0.7644 0 0 0.9474 376.6016 372.623)">
	</image>
	
		<image display="inline" overflow="visible" enable-background="new    " width="48" height="23" xlink:href="21FBF08C45178E6B.jpg"  transform="matrix(0.7644 0 0 0.9474 325.8789 420.123)">
	</image>
	
		<image display="inline" overflow="visible" enable-background="new    " width="48" height="23" xlink:href="21FBF08C45178E69.jpg"  transform="matrix(0.7644 0 0 0.9474 378.6855 420.123)">
	</image>
	
		<image display="inline" overflow="visible" enable-background="new    " width="48" height="23" xlink:href="21FBF08C45178E6F.jpg"  transform="matrix(0.7644 0 0 0.9474 325.8789 468.1211)">
	</image>
	
		<image display="inline" overflow="visible" enable-background="new    " width="48" height="23" xlink:href="21FBF08C45178E6A.jpg"  transform="matrix(0.7644 0 0 0.9474 378.6855 468.1211)">
	</image>
</g>
</svg>
