<?xml version="1.0" encoding="utf-8"?>
<!-- Generator: Adobe Illustrator 16.0.0, SVG Export Plug-In . SVG Version: 6.00 Build 0)  -->
<!DOCTYPE svg PUBLIC "-//W3C//DTD SVG 1.1//EN" "http://www.w3.org/Graphics/SVG/1.1/DTD/svg11.dtd">
<svg version="1.1" id="レイヤー_1" xmlns="http://www.w3.org/2000/svg" xmlns:xlink="http://www.w3.org/1999/xlink" x="0px"
  y="0px" width="480px" height="1300px" viewBox="0 0 480 1300" enable-background="new 0 0 480 1300" xml:space="preserve">
<g id="ajax_loader">
  <image xlink:href="ajax-loader.gif" width="32" height="32" x="100" y="100"/>
</g>
<g id="pc_map" style="display:none">
<g id="timetable" transform="translate(50, 650)" font-family="KozGoPr6N-Regular-83pv-RKSJ-H" font-size="18">
  <text id="timetable_name" x="0" y="0"/>
  <text id="period_1" x="0" y="20"/>
  <text id="subject_1" x="0" y="40"/>
  <text id="lecturer_1" x="0" y="60"/>
  <text id="period_2" x="0" y="100"/>
  <text id="subject_2" x="0" y="120"/>
  <text id="lecturer_2" x="0" y="140"/>
  <text id="period_3" x="0" y="180"/>
  <text id="subject_3" x="0" y="200"/>
  <text id="lecturer_3" x="0" y="220"/>
  <text id="period_4" x="0" y="260"/>
  <text id="subject_4" x="0" y="280"/>
  <text id="lecturer_4" x="0" y="300"/>
  <text id="period_5" x="0" y="340"/>
  <text id="subject_5" x="0" y="360"/>
  <text id="lecturer_5" x="0" y="380"/>
  <text id="period_6" x="0" y="420"/>
  <text id="subject_6" x="0" y="440"/>
  <text id="lecturer_6" x="0" y="460"/>
  <rect x="0" y="0" stroke="#000000" fill="none" width="400" height="75"/>
  <rect x="0" y="80" stroke="#000000" fill="none" width="400" height="75"/>
  <rect x="0" y="160" stroke="#000000" fill="none" width="400" height="75"/>
  <rect x="0" y="240" stroke="#000000" fill="none" width="400" height="75"/>
  <rect x="0" y="320" stroke="#000000" fill="none" width="400" height="75"/>
  <rect x="0" y="400" stroke="#000000" fill="none" width="400" height="75"/>
</g>
<text transform="matrix(1 0 0 1 84.5068 48.4893)" font-family="'KozGoPr6N-Regular-83pv-RKSJ-H'" font-size="18" id="room_id" />
<g id="japanese_words">
  <text transform="matrix(1 0 0 1 50 450)" font-family="'KozGoPr6N-Regular-83pv-RKSJ-H'" font-size="14">入口</text>
</g>
<g id="english_words" style="display:none">
  <text transform="matrix(1 0 0 1 50 450)" font-family="'KozGoPr6N-Regular-83pv-RKSJ-H'" font-size="14">Entrance</text>
</g>
<path id="wall" d="m60,400 v-320 h360 v500 h-360 v-100" fill="none" stroke="black" stroke-width="3"/>
<g id="on">
  <image id="pc_1_on" overflow="visible" width="51" height="26" xlink:href="on.jpg"  transform="matrix(0.6875 0 0 0.8889 96.6558 117.3662)" style="display:none" />
  <image id="pc_2_on" overflow="visible" width="51" height="26" xlink:href="on.jpg"  transform="matrix(0.6875 0 0 0.8889 143.2725 117.6646)" style="display:none" />
  <image id="pc_3_on" overflow="visible" width="51" height="26" xlink:href="on.jpg"  transform="matrix(0.6875 0 0 0.8889 187.0063 117.6646)" style="display:none" />
  <image id="pc_4_on" overflow="visible" width="51" height="26" xlink:href="on.jpg"  transform="matrix(0.6875 0 0 0.8889 96.6558 174.3662)" style="display:none" />
  <image id="pc_5_on" overflow="visible" width="51" height="26" xlink:href="on.jpg"  transform="matrix(0.6875 0 0 0.8889 143.2725 174.3662)" style="display:none" />
  <image id="pc_6_on" overflow="visible" width="51" height="26" xlink:href="on.jpg"  transform="matrix(0.6875 0 0 0.8889 188.3052 174.3662)" style="display:none" />
  <image id="pc_7_on" overflow="visible" width="51" height="26" xlink:href="on.jpg"  transform="matrix(0.6875 0 0 0.8889 97.2983 231.3662)" style="display:none" />
  <image id="pc_8_on" overflow="visible" width="51" height="26" xlink:href="on.jpg"  transform="matrix(0.6875 0 0 0.8889 145.707 230.3662)" style="display:none" />
  <image id="pc_9_on" overflow="visible" width="51" height="26" xlink:href="on.jpg"  transform="matrix(0.6875 0 0 0.8889 188.3052 231.6646)" style="display:none" />
  <image id="pc_10_on" overflow="visible" width="51" height="26" xlink:href="on.jpg"  transform="matrix(0.6875 0 0 0.8889 145.707 293.3662)" style="display:none" />
  <image id="pc_11_on" overflow="visible" width="51" height="26" xlink:href="on.jpg"  transform="matrix(0.6875 0 0 0.8889 188.3052 294.1294)" style="display:none" />
  <image id="pc_12_on" overflow="visible" width="51" height="26" xlink:href="on.jpg"  transform="matrix(0.6875 0 0 0.8889 301.7148 117.3662)" style="display:none" />
  <image id="pc_13_on" overflow="visible" width="51" height="26" xlink:href="on.jpg"  transform="matrix(0.6875 0 0 0.8889 347.6875 117.6646)" style="display:none" />
  <image id="pc_14_on" overflow="visible" width="51" height="26" xlink:href="on.jpg"  transform="matrix(0.6875 0 0 0.8889 301.7148 174.3662)" style="display:none" />
  <image id="pc_15_on" overflow="visible" width="51" height="26" xlink:href="on.jpg"  transform="matrix(0.6875 0 0 0.8889 348.8242 174.3662)" style="display:none" />
  <image id="pc_16_on" overflow="visible" width="51" height="26" xlink:href="on.jpg"  transform="matrix(0.6875 0 0 0.8889 302.7148 231.6646)" style="display:none" />
  <image id="pc_17_on" overflow="visible" width="51" height="26" xlink:href="on.jpg"  transform="matrix(0.6875 0 0 0.8889 347.6885 230.3662)" style="display:none" />
  <image id="pc_18_on" overflow="visible" width="51" height="26" xlink:href="on.jpg"  transform="matrix(0.6875 0 0 0.8889 303.9863 292.314)" style="display:none" />
  <image id="pc_19_on" overflow="visible" width="51" height="26" xlink:href="on.jpg"  transform="matrix(0.6875 0 0 0.8889 347.584 292.314)" style="display:none" />
  <image id="pc_20_on" overflow="visible" width="51" height="26" xlink:href="on.jpg"  transform="matrix(0.6875 0 0 0.8889 302.7148 405.3672)" style="display:none" />
  <image id="pc_21_on" overflow="visible" width="51" height="26" xlink:href="on.jpg"  transform="matrix(0.6875 0 0 0.8889 348.8252 405.3672)" style="display:none" />
  <image id="pc_22_on" overflow="visible" width="51" height="26" xlink:href="on.jpg"  transform="matrix(0.678 0 0 0.9168 302.958 459.5059)" style="display:none" />
  <image id="pc_23_on" overflow="visible" width="51" height="26" xlink:href="on.jpg"  transform="matrix(0.6875 0 0 0.8889 351.2852 459.8652)" style="display:none" />
  <image id="pc_24_on" overflow="visible" width="51" height="26" xlink:href="on.jpg"  transform="matrix(0.6875 0 0 0.8889 303.8496 513.3672)" style="display:none" />
  <image id="pc_25_on" overflow="visible" width="51" height="26" xlink:href="on.jpg"  transform="matrix(0.6875 0 0 0.8889 351.2852 514.3672)" style="display:none" />
</g>
<g id="off">
  <image id="pc_1_off" overflow="visible" width="48" height="23" xlink:href="off.jpg"  transform="matrix(0.7411 0 0 0.9474 96.4028 116.8496)" />
  <image id="pc_2_off" overflow="visible" width="48" height="23" xlink:href="off.jpg"  transform="matrix(0.7644 0 0 0.9474 142.4585 116.8496)" />
  <image id="pc_3_off" overflow="visible" width="48" height="23" xlink:href="off.jpg"  transform="matrix(0.7644 0 0 0.9474 189.7661 118.0269)" />
  <image id="pc_4_off" overflow="visible" width="48" height="23" xlink:href="off.jpg"  transform="matrix(0.7644 0 0 0.9474 96.6865 175.0269)" />
  <image id="pc_5_off" overflow="visible" width="48" height="23" xlink:href="off.jpg"  transform="matrix(0.7644 0 0 0.9474 142.4585 175.0269)" />
  <image id="pc_6_off" overflow="visible" width="48" height="23" xlink:href="off.jpg"  transform="matrix(0.7644 0 0 0.9474 189.7661 175.0269)" />
  <image id="pc_7_off" overflow="visible" width="48" height="23" xlink:href="off.jpg"  transform="matrix(0.7644 0 0 0.9474 96.6865 232.0269)" />
  <image id="pc_8_off" overflow="visible" width="48" height="23" xlink:href="off.jpg"  transform="matrix(0.7644 0 0 0.9474 142.4585 232.0269)" />
  <image id="pc_9_off" overflow="visible" width="48" height="23" xlink:href="off.jpg"  transform="matrix(0.7644 0 0 0.9474 189.7661 232.0269)" />
  <image id="pc_10_off" overflow="visible" width="48" height="23" xlink:href="off.jpg"  transform="matrix(0.7644 0 0 0.9474 142.4585 294.0273)" />
  <image id="pc_11_off" overflow="visible" width="48" height="23" xlink:href="off.jpg"  transform="matrix(0.7644 0 0 0.9474 189.7661 294.0273)" />
  <image id="pc_12_off" overflow="visible" width="48" height="23" xlink:href="off.jpg"  transform="matrix(0.7644 0 0 0.9474 301.9014 116.8496)" />
  <image id="pc_13_off" overflow="visible" width="48" height="23" xlink:href="off.jpg"  transform="matrix(0.7644 0 0 0.9474 346.875 116.8496)" />
  <image id="pc_14_off" overflow="visible" width="48" height="23" xlink:href="off.jpg"  transform="matrix(0.7644 0 0 0.9474 300.9004 175.0273)" />
  <image id="pc_15_off" overflow="visible" width="48" height="23" xlink:href="off.jpg"  transform="matrix(0.7644 0 0 0.9474 349.1943 175.6582)" />
  <image id="pc_16_off" overflow="visible" width="48" height="23" xlink:href="off.jpg"  transform="matrix(0.7644 0 0 0.9474 300.623 231.3599)" />
  <image id="pc_17_off" overflow="visible" width="48" height="23" xlink:href="off.jpg"  transform="matrix(0.7644 0 0 0.9474 351.2852 232.0269)" />
  <image id="pc_18_off" overflow="visible" width="48" height="23" xlink:href="off.jpg"  transform="matrix(0.7644 0 0 0.9474 300.623 293.3599)" />
  <image id="pc_19_off" overflow="visible" width="48" height="23" xlink:href="off.jpg"  transform="matrix(0.7644 0 0 0.9474 351.2852 294.0273)" />
  <image id="pc_20_off" overflow="visible" width="48" height="23" xlink:href="off.jpg"  transform="matrix(0.7644 0 0 0.9474 301.9004 406.0273)" />
  <image id="pc_21_off" overflow="visible" width="48" height="23" xlink:href="off.jpg"  transform="matrix(0.7644 0 0 0.9474 351.2852 406.0293)" />
  <image id="pc_22_off" overflow="visible" width="48" height="23" xlink:href="off.jpg"  transform="matrix(0.7644 0 0 0.9474 301.9004 459.8594)" />
  <image id="pc_23_off" overflow="visible" width="48" height="23" xlink:href="off.jpg"  transform="matrix(0.7644 0 0 0.9474 351.2852 460.5273)" />
  <image id="pc_24_off" overflow="visible" width="48" height="23" xlink:href="off.jpg"  transform="matrix(0.7644 0 0 0.9474 301.4668 515.9629)" />
  <image id="pc_25_off" overflow="visible" width="48" height="23" xlink:href="off.jpg"  transform="matrix(0.7644 0 0 0.9474 351.2852 515.0273)" />
</g>
</g>
<script xlink:href="http://ajax.googleapis.com/ajax/libs/jquery/1.7.2/jquery.min.js" />
<script xlink:href="innersvg.js" />
<script xlink:href="room.js" />
</svg>
