<?xml version="1.0" encoding="utf-8"?>
<!-- Generator: Adobe Illustrator 16.0.0, SVG Export Plug-In . SVG Version: 6.00 Build 0)  -->
<!DOCTYPE svg PUBLIC "-//W3C//DTD SVG 1.1//EN" "http://www.w3.org/Graphics/SVG/1.1/DTD/svg11.dtd">
<svg version="1.1" id="レイヤー_1" xmlns="http://www.w3.org/2000/svg" xmlns:xlink="http://www.w3.org/1999/xlink" x="0px"
	 y="0px" width="480px" height="720px" viewBox="0 0 480 720" enable-background="new 0 0 480 720" xml:space="preserve">
<g id="レイヤー_1_1_">
	
		<rect x="30.46" y="81.599" fill="#FFFFFF" stroke="#000000" stroke-width="4" stroke-miterlimit="10" width="419.079" height="522.635"/>
	<rect x="138.417" y="32.052" fill="none" width="264.455" height="27.273"/>
	<text transform="matrix(1 0 0 1 138.416 47.4346)" font-family="'KozGoPr6N-Regular-83pv-RKSJ-H'" font-size="18">教育デザインセンタ</text>
	
		<text transform="matrix(1 0 0 1 300.416 47.4346)" font-family="'KozGoPr6N-Regular-83pv-RKSJ-H'" font-size="18" letter-spacing="2">ー</text>
	<text transform="matrix(1 0 0 1 322.916 47.8926)" font-family="'KozGoPr6N-Regular-83pv-RKSJ-H'" font-size="18">1F</text>
	<rect x="376.416" y="622.909" fill="none" width="31.168" height="18.182"/>
	<text transform="matrix(1 0 0 1 376.416 635.2295)" font-family="'KozGoPr6N-Regular-83pv-RKSJ-H'" font-size="14">入口</text>
	
		<image overflow="visible" enable-background="new    " width="53" height="40" xlink:href="9DF742C055AB7BF7.jpg"  transform="matrix(0.5257 0 0 0.7783 180.6797 321.9209)">
	</image>
	
		<image overflow="visible" enable-background="new    " width="53" height="40" xlink:href="9DF742C055AB7BF5.jpg"  transform="matrix(0.5257 0 0 0.7783 131.6797 207.9209)">
	</image>
	<rect x="367.56" y="596.608" fill="#FFFCFB" width="48.054" height="12.985"/>
	
		<image overflow="visible" enable-background="new    " width="53" height="40" xlink:href="9DF742C055AB7BFB.jpg"  transform="matrix(0.5257 0 0 0.7783 368.6797 157.9209)">
	</image>
	
		<image overflow="visible" enable-background="new    " width="53" height="40" xlink:href="9DF742C055AB7BFD.jpg"  transform="matrix(0.5257 0 0 0.7783 319.6797 212.9209)">
	</image>
	
		<image overflow="visible" enable-background="new    " width="53" height="40" xlink:href="9DF742C055AB7BFF.jpg"  transform="matrix(0.5257 0 0 0.7783 273.6797 378.9189)">
	</image>
	
		<image overflow="visible" enable-background="new    " width="53" height="40" xlink:href="9DF742C055AB7BFC.jpg"  transform="matrix(0.5257 0 0 0.7783 272.6797 211.9209)">
	</image>
	
		<image overflow="visible" enable-background="new    " width="53" height="40" xlink:href="9DF742C055AB7BF4.jpg"  transform="matrix(0.5257 0 0 0.7783 133.6797 320.9209)">
	</image>
	
		<image overflow="visible" enable-background="new    " width="53" height="40" xlink:href="9DF742C055AB7BF6.jpg"  transform="matrix(0.5257 0 0 0.7783 133.6797 434.9189)">
	</image>
	
		<image overflow="visible" enable-background="new    " width="53" height="40" xlink:href="9DF742C055AB7BF2.jpg"  transform="matrix(0.5257 0 0 0.7783 84.6797 206.9209)">
	</image>
	
		<image overflow="visible" enable-background="new    " width="53" height="40" xlink:href="D4BCA5CC61C8EAB4.jpg"  transform="matrix(0.5257 0 0 0.7783 132.6797 261.9209)">
	</image>
	
		<image overflow="visible" enable-background="new    " width="53" height="40" xlink:href="D4BCA5CC61C8EAB3.jpg"  transform="matrix(0.5257 0 0 0.7783 85.6797 260.9209)">
	</image>
	
		<image overflow="visible" enable-background="new    " width="53" height="40" xlink:href="D4BCA5CC61C8EACC.jpg"  transform="matrix(0.5257 0 0 0.7783 132.6797 484.9893)">
	</image>
	
		<image overflow="visible" enable-background="new    " width="53" height="40" xlink:href="D4BCA5CC61C8EACF.jpg"  transform="matrix(0.5257 0 0 0.7783 178.6797 208.9209)">
	</image>
	
		<image overflow="visible" enable-background="new    " width="53" height="40" xlink:href="D4BCA5CC61C8EACD.jpg"  transform="matrix(0.5257 0 0 0.7783 274.6797 434.9189)">
	</image>
	
		<image overflow="visible" enable-background="new    " width="53" height="40" xlink:href="D4BCA5CC61C8EAD3.jpg"  transform="matrix(0.5257 0 0 0.7783 179.6797 485.9893)">
	</image>
	
		<image overflow="visible" enable-background="new    " width="53" height="40" xlink:href="D4BCA5CC61C8EAD4.jpg"  transform="matrix(0.5257 0 0 0.7783 271.6797 155.9209)">
	</image>
	
		<image overflow="visible" enable-background="new    " width="53" height="40" xlink:href="D4BCA5CC61C8EAD7.jpg"  transform="matrix(0.5257 0 0 0.7783 318.6797 156.9209)">
	</image>
	
		<image overflow="visible" enable-background="new    " width="53" height="40" xlink:href="D4BCA5CC61C8EAD5.jpg"  transform="matrix(0.5257 0 0 0.7783 321.6797 435.9189)">
	</image>
	
		<image overflow="visible" enable-background="new    " width="53" height="40" xlink:href="D4BCA5CC61C8EAD2.jpg"  transform="matrix(0.5257 0 0 0.7783 132.6797 378.9189)">
	</image>
	
		<image overflow="visible" enable-background="new    " width="53" height="40" xlink:href="D4BCA5CC61C8EAF7.jpg"  transform="matrix(0.5257 0 0 0.7783 179.6797 379.9189)">
	</image>
	
		<image overflow="visible" enable-background="new    " width="53" height="40" xlink:href="D4BCA5CC61C8EAF1.jpg"  transform="matrix(0.5257 0 0 0.7783 180.6797 435.9189)">
	</image>
	
		<image overflow="visible" enable-background="new    " width="53" height="40" xlink:href="D4BCA5CC61C8EAF3.jpg"  transform="matrix(0.5257 0 0 0.7783 320.6797 485.9893)">
	</image>
	
		<image overflow="visible" enable-background="new    " width="53" height="40" xlink:href="D4BCA5CC61C8EAFE.jpg"  transform="matrix(0.5257 0 0 0.7783 274.6797 320.9209)">
	</image>
	
		<image overflow="visible" enable-background="new    " width="53" height="40" xlink:href="D4BCA5CC61C8EAFF.jpg"  transform="matrix(0.5257 0 0 0.7783 179.6797 262.9209)">
	</image>
	
		<image overflow="visible" enable-background="new    " width="53" height="40" xlink:href="D4BCA5CC61C8EAF2.jpg"  transform="matrix(0.5257 0 0 0.7783 320.6797 379.9189)">
	</image>
	
		<image overflow="visible" enable-background="new    " width="53" height="40" xlink:href="D4BCA5CC61C8EAF5.jpg"  transform="matrix(0.5257 0 0 0.7783 273.6797 264.9209)">
	</image>
	
		<image overflow="visible" enable-background="new    " width="53" height="40" xlink:href="D4BCA5CC61C8EAF6.jpg"  transform="matrix(0.5257 0 0 0.7783 320.6797 265.9209)">
	</image>
	
		<image overflow="visible" enable-background="new    " width="53" height="40" xlink:href="D4BCA5CC61C8EAF4.jpg"  transform="matrix(0.5257 0 0 0.7783 321.6797 321.9209)">
	</image>
	
		<image overflow="visible" enable-background="new    " width="53" height="40" xlink:href="D4BCA5CC61C8EACE.jpg"  transform="matrix(0.5257 0 0 0.7783 84.6797 156.9209)">
	</image>
	
		<image overflow="visible" enable-background="new    " width="53" height="40" xlink:href="D4BCA5CC61C8EB16.jpg"  transform="matrix(0.5257 0 0 0.7783 131.6797 157.9209)">
	</image>
	
		<image overflow="visible" enable-background="new    " width="53" height="40" xlink:href="D4BCA5CC61C8EB29.jpg"  transform="matrix(0.5257 0 0 0.7783 273.6797 484.9893)">
	</image>
	
		<image overflow="visible" enable-background="new    " width="53" height="40" xlink:href="D4BCA5CC61C8EB2A.jpg"  transform="matrix(0.5257 0 0 0.7783 178.6797 158.9209)">
	</image>
	
		<image overflow="visible" enable-background="new    " width="53" height="40" xlink:href="D4BCA5CC61C8EB28.jpg"  transform="matrix(0.5257 0 0 0.7783 369.6797 213.9209)">
	</image>
</g>
<g id="レイヤー_2">
	
		<image overflow="visible" enable-background="new    " width="50" height="35" xlink:href="D4BCA5CC61C8EB2E.jpg"  transform="matrix(0.5765 0 0 0.8262 85.5635 159.3984)">
	</image>
	
		<image overflow="visible" enable-background="new    " width="50" height="35" xlink:href="D4BCA5CC61C8EB2B.jpg"  transform="matrix(0.5765 0 0 0.8262 130.9521 159.7871)">
	</image>
	
		<image overflow="visible" enable-background="new    " width="50" height="35" xlink:href="D4BCA5CC61C8EB26.jpg"  transform="matrix(0.5765 0 0 0.8262 177.5635 159.3984)">
	</image>
	
		<image overflow="visible" enable-background="new    " width="50" height="35" xlink:href="D4BCA5CC61C8EB27.jpg"  transform="matrix(0.5765 0 0 0.8262 272.5625 158.3984)">
	</image>
	
		<image overflow="visible" enable-background="new    " width="48" height="35" xlink:href="D4BCA5CC61C8EB36.jpg"  transform="matrix(0.5922 0 0 0.8488 318.1504 158.3906)">
	</image>
	
		<image overflow="visible" enable-background="new    " width="50" height="35" xlink:href="D4BCA5CC61C8EB39.jpg"  transform="matrix(0.5765 0 0 0.8262 367.5625 158.3984)">
	</image>
	
		<image overflow="visible" enable-background="new    " width="50" height="35" xlink:href="D4BCA5CC61C8EB05.jpg"  transform="matrix(0.5765 0 0 0.8262 85.5635 209.3984)">
	</image>
	
		<image overflow="visible" enable-background="new    " width="50" height="35" xlink:href="D4BCA5CC61C8EB07.jpg"  transform="matrix(0.5765 0 0 0.8262 130.9521 209.7871)">
	</image>
	
		<image overflow="visible" enable-background="new    " width="50" height="35" xlink:href="D4BCA5CC61C8EB04.jpg"  transform="matrix(0.5765 0 0 0.8262 177.5635 209.3984)">
	</image>
	
		<image overflow="visible" enable-background="new    " width="50" height="35" xlink:href="D4BCA5CC61C8EB1B.jpg"  transform="matrix(0.5765 0 0 0.8262 86.5635 263.3984)">
	</image>
	
		<image overflow="visible" enable-background="new    " width="50" height="35" xlink:href="D4BCA5CC61C8EB1D.jpg"  transform="matrix(0.5765 0 0 0.8262 131.9521 263.7871)">
	</image>
	
		<image overflow="visible" enable-background="new    " width="50" height="35" xlink:href="D4BCA5CC61C8EB1F.jpg"  transform="matrix(0.5765 0 0 0.8262 178.5635 263.3984)">
	</image>
	
		<image overflow="visible" enable-background="new    " width="50" height="35" xlink:href="D4BCA5CC61C8EB1C.jpg"  transform="matrix(0.5765 0 0 0.8262 273.5625 214.3984)">
	</image>
	
		<image overflow="visible" enable-background="new    " width="48" height="35" xlink:href="D4BCA5CC61C8EB06.jpg"  transform="matrix(0.5922 0 0 0.8488 319.1504 214.3906)">
	</image>
	
		<image overflow="visible" enable-background="new    " width="50" height="35" xlink:href="D4BCA5CC61C8EB01.jpg"  transform="matrix(0.5765 0 0 0.8262 368.5625 214.3984)">
	</image>
	
		<image overflow="visible" enable-background="new    " width="50" height="35" xlink:href="D4BCA5CC61C8EB02.jpg"  transform="matrix(0.5765 0 0 0.8262 274.5625 267.3984)">
	</image>
	
		<image overflow="visible" enable-background="new    " width="48" height="35" xlink:href="D4BCA5CC61C8EB60.jpg"  transform="matrix(0.5922 0 0 0.8488 320.1504 267.3906)">
	</image>
	
		<image overflow="visible" enable-background="new    " width="50" height="35" xlink:href="D4BCA5CC61C8EB67.jpg"  transform="matrix(0.5765 0 0 0.8262 275.5625 323.3984)">
	</image>
	
		<image overflow="visible" enable-background="new    " width="48" height="35" xlink:href="D4BCA5CC61C8EB61.jpg"  transform="matrix(0.5922 0 0 0.8488 321.1504 323.3906)">
	</image>
	
		<image overflow="visible" enable-background="new    " width="50" height="35" xlink:href="D4BCA5CC61C8EB63.jpg"  transform="matrix(0.5765 0 0 0.8262 274.5625 381.3975)">
	</image>
	
		<image overflow="visible" enable-background="new    " width="48" height="35" xlink:href="D4BCA5CC61C8EB6E.jpg"  transform="matrix(0.5922 0 0 0.8488 320.1504 381.3926)">
	</image>
	
		<image overflow="visible" enable-background="new    " width="50" height="35" xlink:href="D4BCA5CC61C8EB6F.jpg"  transform="matrix(0.5765 0 0 0.8262 275.5625 437.3975)">
	</image>
	
		<image overflow="visible" enable-background="new    " width="48" height="35" xlink:href="D4BCA5CC61C8EB62.jpg"  transform="matrix(0.5922 0 0 0.8488 321.1504 437.3926)">
	</image>
	
		<image overflow="visible" enable-background="new    " width="50" height="35" xlink:href="D4BCA5CC61C8EB65.jpg"  transform="matrix(0.5765 0 0 0.8262 274.5625 487.4678)">
	</image>
	
		<image overflow="visible" enable-background="new    " width="48" height="35" xlink:href="D4BCA5CC61C8EB66.jpg"  transform="matrix(0.5922 0 0 0.8488 320.1504 487.4629)">
	</image>
	
		<image overflow="visible" enable-background="new    " width="50" height="35" xlink:href="D4BCA5CC61C8EB64.jpg"  transform="matrix(0.5765 0 0 0.8262 134.5625 323.3984)">
	</image>
	
		<image overflow="visible" enable-background="new    " width="48" height="35" xlink:href="D4BCA5CC61C8EB4B.jpg"  transform="matrix(0.5922 0 0 0.8488 180.1504 323.3906)">
	</image>
	
		<image overflow="visible" enable-background="new    " width="50" height="35" xlink:href="D4BCA5CC61C8EB45.jpg"  transform="matrix(0.5765 0 0 0.8262 133.5625 381.3975)">
	</image>
	
		<image overflow="visible" enable-background="new    " width="48" height="35" xlink:href="D4BCA5CC61C8EB47.jpg"  transform="matrix(0.5922 0 0 0.8488 179.1504 381.3926)">
	</image>
	
		<image overflow="visible" enable-background="new    " width="50" height="35" xlink:href="D4BCA5CC61C8EB3A.jpg"  transform="matrix(0.5765 0 0 0.8262 134.5625 437.3975)">
	</image>
	
		<image overflow="visible" enable-background="new    " width="48" height="35" xlink:href="D4BCA5CC61C8EB3B.jpg"  transform="matrix(0.5922 0 0 0.8488 180.1504 437.3926)">
	</image>
	
		<image overflow="visible" enable-background="new    " width="50" height="35" xlink:href="D4BCA5CC61C8EB3D.jpg"  transform="matrix(0.5765 0 0 0.8262 133.5625 487.4678)">
	</image>
	
		<image overflow="visible" enable-background="new    " width="48" height="35" xlink:href="D4BCA5CC61C8EB3F.jpg"  transform="matrix(0.5922 0 0 0.8488 179.1504 487.4629)">
	</image>
</g>
</svg>
