<?xml version="1.0" encoding="utf-8"?>
<!-- Generator: Adobe Illustrator 16.0.0, SVG Export Plug-In . SVG Version: 6.00 Build 0)  -->
<!DOCTYPE svg PUBLIC "-//W3C//DTD SVG 1.1//EN" "http://www.w3.org/Graphics/SVG/1.1/DTD/svg11.dtd">
<svg version="1.1" id="レイヤー_1" xmlns="http://www.w3.org/2000/svg" xmlns:xlink="http://www.w3.org/1999/xlink" x="0px"
	 y="0px" width="480px" height="720px" viewBox="0 0 480 720" enable-background="new 0 0 480 720" xml:space="preserve">
<g id="レイヤー_1_1_" enable-background="new    ">
	
		<rect x="29.513" y="115.5" fill="#FFFFFF" stroke="#000000" stroke-width="4" stroke-miterlimit="10" width="419.079" height="377"/>
	<rect x="405.601" y="594.886" fill="none" width="31.168" height="18.184"/>
	<text transform="matrix(1 0 0 1 401.75 169.7539)" font-family="'KozGoPr6N-Regular-83pv-RKSJ-H'" font-size="14">入口</text>
	<rect x="441.592" y="151.125" fill="#FFFFFF" width="14" height="45.3"/>
	<rect x="164.714" y="37.699" fill="none" width="228" height="30"/>
	<text transform="matrix(1 0 0 1 164.7139 53.5391)" font-family="'KozGoPr6N-Regular-83pv-RKSJ-H'" font-size="18">電情　計算機室</text>
	
		<image overflow="visible" enable-background="new    " width="52" height="26" xlink:href="3314EB6B63A54DD4.jpg"  transform="matrix(0.7041 0 0 0.7206 60.8887 189.9644)">
	</image>
	
		<image overflow="visible" enable-background="new    " width="52" height="26" xlink:href="3314EB6B63A54DD5.jpg"  transform="matrix(0.7041 0 0 0.7206 105.9448 189.9644)">
	</image>
	
		<image overflow="visible" enable-background="new    " width="52" height="26" xlink:href="3314EB6B63A54DD3.jpg"  transform="matrix(0.7041 0 0 0.7206 146.9448 189.9644)">
	</image>
	
		<image overflow="visible" enable-background="new    " width="52" height="26" xlink:href="3314EB6B63A54DDC.jpg"  transform="matrix(0.7041 0 0 0.7206 189.8198 189.9644)">
	</image>
	
		<image overflow="visible" enable-background="new    " width="52" height="26" xlink:href="3314EB6B63A54DDF.jpg"  transform="matrix(0.7041 0 0 0.7206 235.0698 189.9644)">
	</image>
	
		<image overflow="visible" enable-background="new    " width="52" height="26" xlink:href="3314EB6B63A54DDD.jpg"  transform="matrix(0.7041 0 0 0.7206 278.9453 189.9644)">
	</image>
	
		<image overflow="visible" enable-background="new    " width="52" height="26" xlink:href="3314EB6B63A54DD2.jpg"  transform="matrix(0.7041 0 0 0.7206 60.6582 213.9648)">
	</image>
	
		<image overflow="visible" enable-background="new    " width="52" height="26" xlink:href="3314EB6B63A54DD6.jpg"  transform="matrix(0.7041 0 0 0.7206 105.7139 213.9648)">
	</image>
	
		<image overflow="visible" enable-background="new    " width="52" height="26" xlink:href="3314EB6B63A54DD7.jpg"  transform="matrix(0.7041 0 0 0.7206 146.7139 213.9648)">
	</image>
	
		<image overflow="visible" enable-background="new    " width="52" height="26" xlink:href="6206068566E43FF3.jpg"  transform="matrix(0.7041 0 0 0.7206 189.5889 213.9648)">
	</image>
	
		<image overflow="visible" enable-background="new    " width="52" height="26" xlink:href="6206068566E43FF1.jpg"  transform="matrix(0.7041 0 0 0.7206 234.8389 213.9648)">
	</image>
	
		<image overflow="visible" enable-background="new    " width="52" height="26" xlink:href="6206068566E43FF7.jpg"  transform="matrix(0.7041 0 0 0.7206 278.7139 213.9648)">
	</image>
	
		<image overflow="visible" enable-background="new    " width="52" height="26" xlink:href="6206068566E43FF2.jpg"  transform="matrix(0.7041 0 0 0.7206 60.6582 267.9644)">
	</image>
	
		<image overflow="visible" enable-background="new    " width="52" height="26" xlink:href="6206068566E43FED.jpg"  transform="matrix(0.7041 0 0 0.7206 105.7139 267.9644)">
	</image>
	
		<image overflow="visible" enable-background="new    " width="52" height="26" xlink:href="6206068566E43FEE.jpg"  transform="matrix(0.7041 0 0 0.7206 146.7139 267.9644)">
	</image>
	
		<image overflow="visible" enable-background="new    " width="52" height="26" xlink:href="6206068566E43FEF.jpg"  transform="matrix(0.7041 0 0 0.7206 189.5889 267.9644)">
	</image>
	
		<image overflow="visible" enable-background="new    " width="52" height="26" xlink:href="6206068566E44011.jpg"  transform="matrix(0.7041 0 0 0.7206 60.249 292.5229)">
	</image>
	
		<image overflow="visible" enable-background="new    " width="52" height="26" xlink:href="6206068566E44013.jpg"  transform="matrix(0.7041 0 0 0.7206 105.3042 292.5229)">
	</image>
	
		<image overflow="visible" enable-background="new    " width="52" height="26" xlink:href="6206068566E44016.jpg"  transform="matrix(0.7041 0 0 0.7206 146.3042 292.5229)">
	</image>
	
		<image overflow="visible" enable-background="new    " width="52" height="26" xlink:href="6206068566E4400A.jpg"  transform="matrix(0.7041 0 0 0.7206 189.1792 292.5229)">
	</image>
	
		<image overflow="visible" enable-background="new    " width="52" height="26" xlink:href="6206068566E44009.jpg"  transform="matrix(0.7041 0 0 0.7206 251.7285 267.9644)">
	</image>
	
		<image overflow="visible" enable-background="new    " width="52" height="26" xlink:href="6206068566E44036.jpg"  transform="matrix(0.7041 0 0 0.7206 296.7842 267.9644)">
	</image>
	
		<image overflow="visible" enable-background="new    " width="52" height="26" xlink:href="6206068566E44039.jpg"  transform="matrix(0.7041 0 0 0.7206 337.7842 267.9644)">
	</image>
	
		<image overflow="visible" enable-background="new    " width="52" height="26" xlink:href="6206068566E4403A.jpg"  transform="matrix(0.7041 0 0 0.7206 380.6592 267.9644)">
	</image>
	
		<image overflow="visible" enable-background="new    " width="52" height="26" xlink:href="6206068566E44038.jpg"  transform="matrix(0.7041 0 0 0.7206 250.7285 291.9648)">
	</image>
	
		<image overflow="visible" enable-background="new    " width="52" height="26" xlink:href="6206068566E4403E.jpg"  transform="matrix(0.7041 0 0 0.7206 295.7842 291.9648)">
	</image>
	
		<image overflow="visible" enable-background="new    " width="52" height="26" xlink:href="6206068566E4403B.jpg"  transform="matrix(0.7041 0 0 0.7206 336.7842 291.9648)">
	</image>
	
		<image overflow="visible" enable-background="new    " width="52" height="26" xlink:href="6206068566E44006.jpg"  transform="matrix(0.7041 0 0 0.7206 379.6592 291.9648)">
	</image>
	
		<image overflow="visible" enable-background="new    " width="52" height="26" xlink:href="6206068566E44007.jpg"  transform="matrix(0.7041 0 0 0.7206 61.8989 339.353)">
	</image>
	
		<image overflow="visible" enable-background="new    " width="52" height="26" xlink:href="6206068566E4405D.jpg"  transform="matrix(0.7041 0 0 0.7206 106.9541 339.353)">
	</image>
	
		<image overflow="visible" enable-background="new    " width="52" height="26" xlink:href="6206068566E4405B.jpg"  transform="matrix(0.7041 0 0 0.7206 147.9541 339.353)">
	</image>
	
		<image overflow="visible" enable-background="new    " width="52" height="26" xlink:href="6206068566E44065.jpg"  transform="matrix(0.7041 0 0 0.7206 190.8291 339.353)">
	</image>
	
		<image overflow="visible" enable-background="new    " width="52" height="26" xlink:href="6206068566E44067.jpg"  transform="matrix(0.7041 0 0 0.7206 61.4888 363.9121)">
	</image>
	
		<image overflow="visible" enable-background="new    " width="52" height="26" xlink:href="6206068566E44064.jpg"  transform="matrix(0.7041 0 0 0.7206 106.5449 363.9121)">
	</image>
	
		<image overflow="visible" enable-background="new    " width="52" height="26" xlink:href="6206068566E4406B.jpg"  transform="matrix(0.7041 0 0 0.7206 147.5449 363.9121)">
	</image>
	
		<image overflow="visible" enable-background="new    " width="52" height="26" xlink:href="6206068566E4406D.jpg"  transform="matrix(0.7041 0 0 0.7206 190.4199 363.9121)">
	</image>
	
		<image overflow="visible" enable-background="new    " width="52" height="26" xlink:href="6206068566E4406F.jpg"  transform="matrix(0.7041 0 0 0.7206 253.9688 339.353)">
	</image>
	
		<image overflow="visible" enable-background="new    " width="52" height="26" xlink:href="6206068566E4406C.jpg"  transform="matrix(0.7041 0 0 0.7206 299.0244 339.353)">
	</image>
	
		<image overflow="visible" enable-background="new    " width="52" height="26" xlink:href="6206068566E44066.jpg"  transform="matrix(0.7041 0 0 0.7206 340.0244 339.353)">
	</image>
	
		<image overflow="visible" enable-background="new    " width="52" height="26" xlink:href="6206068566E44040.jpg"  transform="matrix(0.7041 0 0 0.7206 382.8994 339.353)">
	</image>
	
		<image overflow="visible" enable-background="new    " width="52" height="26" xlink:href="6206068566E44043.jpg"  transform="matrix(0.7041 0 0 0.7206 252.9688 363.3535)">
	</image>
	
		<image overflow="visible" enable-background="new    " width="52" height="26" xlink:href="6206068566E44041.jpg"  transform="matrix(0.7041 0 0 0.7206 298.0244 363.3535)">
	</image>
	
		<image overflow="visible" enable-background="new    " width="52" height="26" xlink:href="6206068566E44047.jpg"  transform="matrix(0.7041 0 0 0.7206 339.0244 363.3535)">
	</image>
	
		<image overflow="visible" enable-background="new    " width="52" height="26" xlink:href="6206068566E44042.jpg"  transform="matrix(0.7041 0 0 0.7206 381.8994 363.3535)">
	</image>
</g>
<g id="レイヤー_2">
	
		<image overflow="visible" enable-background="new    " width="48" height="23" xlink:href="6206068566E4405C.jpg"  transform="matrix(0.7187 0 0 0.7341 62 190.8901)">
	</image>
	
		<image overflow="visible" enable-background="new    " width="48" height="23" xlink:href="6206068566E4405E.jpg"  transform="matrix(0.7187 0 0 0.7341 106 190.8901)">
	</image>
	
		<image overflow="visible" enable-background="new    " width="48" height="23" xlink:href="6206068566E4405F.jpg"  transform="matrix(0.7187 0 0 0.7341 148.25 190.8901)">
	</image>
	
		<image overflow="visible" enable-background="new    " width="48" height="23" xlink:href="6206068566E44044.jpg"  transform="matrix(0.7187 0 0 0.7341 191.5 190.8901)">
	</image>
	
		<image overflow="visible" enable-background="new    " width="48" height="23" xlink:href="6206068566E44045.jpg"  transform="matrix(0.7187 0 0 0.7341 237 190.8901)">
	</image>
	
		<image overflow="visible" enable-background="new    " width="48" height="23" xlink:href="6206068566E440BF.jpg"  transform="matrix(0.7187 0 0 0.7341 280 190.8901)">
	</image>
	
		<image overflow="visible" enable-background="new    " width="48" height="23" xlink:href="6206068566E440BD.jpg"  transform="matrix(0.7187 0 0 0.7341 61.75 214.8906)">
	</image>
	
		<image overflow="visible" enable-background="new    " width="48" height="23" xlink:href="6206068566E440BB.jpg"  transform="matrix(0.7187 0 0 0.7341 105.75 214.8906)">
	</image>
	
		<image overflow="visible" enable-background="new    " width="48" height="23" xlink:href="6206068566E440A5.jpg"  transform="matrix(0.7187 0 0 0.7341 148 214.8906)">
	</image>
	
		<image overflow="visible" enable-background="new    " width="48" height="23" xlink:href="6206068566E440A7.jpg"  transform="matrix(0.7187 0 0 0.7341 191.25 214.8906)">
	</image>
	
		<image overflow="visible" enable-background="new    " width="48" height="23" xlink:href="6206068566E440AA.jpg"  transform="matrix(0.7187 0 0 0.7341 236.75 214.8906)">
	</image>
	
		<image overflow="visible" enable-background="new    " width="48" height="23" xlink:href="6206068566E440AB.jpg"  transform="matrix(0.7187 0 0 0.7341 279.75 214.8906)">
	</image>
	
		<image overflow="visible" enable-background="new    " width="48" height="23" xlink:href="6206068566E440AD.jpg"  transform="matrix(0.7187 0 0 0.7341 61.625 268.8901)">
	</image>
	
		<image overflow="visible" enable-background="new    " width="48" height="23" xlink:href="6206068566E440AF.jpg"  transform="matrix(0.7187 0 0 0.7341 105.625 268.8901)">
	</image>
	
		<image overflow="visible" enable-background="new    " width="48" height="23" xlink:href="6206068566E440A8.jpg"  transform="matrix(0.7187 0 0 0.7341 147.875 268.8901)">
	</image>
	
		<image overflow="visible" enable-background="new    " width="48" height="23" xlink:href="6206068566E4408E.jpg"  transform="matrix(0.7187 0 0 0.7341 191.125 268.8901)">
	</image>
	
		<image overflow="visible" enable-background="new    " width="48" height="23" xlink:href="6206068566E4408D.jpg"  transform="matrix(0.7187 0 0 0.7341 62.375 292.8906)">
	</image>
	
		<image overflow="visible" enable-background="new    " width="48" height="23" xlink:href="6206068566E4408A.jpg"  transform="matrix(0.7187 0 0 0.7341 105.375 292.8906)">
	</image>
	
		<image overflow="visible" enable-background="new    " width="48" height="23" xlink:href="6206068566E440F5.jpg"  transform="matrix(0.7187 0 0 0.7341 147.625 292.8906)">
	</image>
	
		<image overflow="visible" enable-background="new    " width="48" height="23" xlink:href="6206068566E440F6.jpg"  transform="matrix(0.7187 0 0 0.7341 190.875 292.8906)">
	</image>
	
		<image overflow="visible" enable-background="new    " width="48" height="23" xlink:href="6206068566E440F4.jpg"  transform="matrix(0.7187 0 0 0.7341 253.625 269.4482)">
	</image>
	
		<image overflow="visible" enable-background="new    " width="48" height="23" xlink:href="6206068566E440FA.jpg"  transform="matrix(0.7187 0 0 0.7341 297.625 269.4482)">
	</image>
	
		<image overflow="visible" enable-background="new    " width="48" height="23" xlink:href="6206068566E440FD.jpg"  transform="matrix(0.7187 0 0 0.7341 339.875 269.4482)">
	</image>
	
		<image overflow="visible" enable-background="new    " width="48" height="23" xlink:href="6206068566E440FE.jpg"  transform="matrix(0.7187 0 0 0.7341 383.125 269.4482)">
	</image>
	
		<image overflow="visible" enable-background="new    " width="48" height="23" xlink:href="6206068566E440FC.jpg"  transform="matrix(0.7187 0 0 0.7341 253.375 293.4487)">
	</image>
	
		<image overflow="visible" enable-background="new    " width="48" height="23" xlink:href="6206068566E44091.jpg"  transform="matrix(0.7187 0 0 0.7341 297.375 293.4487)">
	</image>
	
		<image overflow="visible" enable-background="new    " width="48" height="23" xlink:href="6206068566E4409F.jpg"  transform="matrix(0.7187 0 0 0.7341 339.625 293.4487)">
	</image>
	
		<image overflow="visible" enable-background="new    " width="48" height="23" xlink:href="6206068566E44090.jpg"  transform="matrix(0.7187 0 0 0.7341 382.875 293.4487)">
	</image>
	
		<image overflow="visible" enable-background="new    " width="48" height="23" xlink:href="6206068566E44093.jpg"  transform="matrix(0.7187 0 0 0.7341 62.25 340.9424)">
	</image>
	
		<image overflow="visible" enable-background="new    " width="48" height="23" xlink:href="6206068566E44097.jpg"  transform="matrix(0.7187 0 0 0.7341 106.25 340.9424)">
	</image>
	
		<image overflow="visible" enable-background="new    " width="48" height="23" xlink:href="6206068566E44092.jpg"  transform="matrix(0.7187 0 0 0.7341 148.5 340.9424)">
	</image>
	
		<image overflow="visible" enable-background="new    " width="48" height="23" xlink:href="6206068566E4408C.jpg"  transform="matrix(0.7187 0 0 0.7341 191.75 340.9424)">
	</image>
	
		<image overflow="visible" enable-background="new    " width="48" height="23" xlink:href="6206068566E4408F.jpg"  transform="matrix(0.7187 0 0 0.7341 63 364.9424)">
	</image>
	
		<image overflow="visible" enable-background="new    " width="48" height="23" xlink:href="6206068566E4408B.jpg"  transform="matrix(0.7187 0 0 0.7341 107 364.9424)">
	</image>
	
		<image overflow="visible" enable-background="new    " width="48" height="23" xlink:href="6206068566E440B0.jpg"  transform="matrix(0.7187 0 0 0.7341 149.25 364.9424)">
	</image>
	
		<image overflow="visible" enable-background="new    " width="48" height="23" xlink:href="6206068566E440AC.jpg"  transform="matrix(0.7187 0 0 0.7341 192.5 364.9424)">
	</image>
	
		<image overflow="visible" enable-background="new    " width="48" height="23" xlink:href="6206068566E440AE.jpg"  transform="matrix(0.7187 0 0 0.7341 254.25 341.5)">
	</image>
	
		<image overflow="visible" enable-background="new    " width="48" height="23" xlink:href="6206068566E440A9.jpg"  transform="matrix(0.7187 0 0 0.7341 298.25 341.5)">
	</image>
	
		<image overflow="visible" enable-background="new    " width="48" height="23" xlink:href="6206068566E440A6.jpg"  transform="matrix(0.7187 0 0 0.7341 340.5 341.5)">
	</image>
	
		<image overflow="visible" enable-background="new    " width="48" height="23" xlink:href="6206068566E44154.jpg"  transform="matrix(0.7187 0 0 0.7341 383.75 341.5)">
	</image>
	
		<image overflow="visible" enable-background="new    " width="48" height="23" xlink:href="6206068566E44157.jpg"  transform="matrix(0.7187 0 0 0.7341 255 365.501)">
	</image>
	
		<image overflow="visible" enable-background="new    " width="48" height="23" xlink:href="6206068566E44155.jpg"  transform="matrix(0.7187 0 0 0.7341 299 365.501)">
	</image>
	
		<image overflow="visible" enable-background="new    " width="48" height="23" xlink:href="6206068566E4415B.jpg"  transform="matrix(0.7187 0 0 0.7341 341.25 365.501)">
	</image>
	
		<image overflow="visible" enable-background="new    " width="48" height="23" xlink:href="6206068566E4415C.jpg"  transform="matrix(0.7187 0 0 0.7341 384.5 365.501)">
	</image>
</g>
</svg>
