<?xml version="1.0" encoding="utf-8"?>
<!-- Generator: Adobe Illustrator 16.0.0, SVG Export Plug-In . SVG Version: 6.00 Build 0)  -->
<!DOCTYPE svg PUBLIC "-//W3C//DTD SVG 1.1//EN" "http://www.w3.org/Graphics/SVG/1.1/DTD/svg11.dtd">
<svg version="1.1" id="レイヤー_1" xmlns="http://www.w3.org/2000/svg" xmlns:xlink="http://www.w3.org/1999/xlink" x="0px"
  y="0px" width="480px" height="1000px" viewBox="0 0 480 1000" enable-background="new 0 0 480 1000" xml:space="preserve">
<g id="ajax_loader">
  <image xlink:href="ajax-loader.gif" width="32" height="32" x="100" y="100"/>
</g>
<g id="pc_map" style="display:none">
<rect x="29.513" y="100.381" fill="#FFFFFF" stroke="#000000" stroke-width="4" stroke-miterlimit="10" width="419.079" height="547.395"/>
<rect x="166.326" y="23.533" fill="none" width="145.454" height="27.273"/>
<rect x="405.601" y="594.886" fill="none" width="31.168" height="18.184"/>
<rect x="441.592" y="128.474" fill="#FFFFFF" width="14" height="45.3"/>
<rect x="134.5" y="30.5" fill="none" width="228" height="30"/>
<text transform="matrix(1 0 0 1 134.5 46.3398)" font-family="'KozGoPr6N-Regular-83pv-RKSJ-H'" font-size="18" id="room_id"/>
<g id="japanese_words">
  <text transform="matrix(1 0 0 1 400.9102 157.7539)" font-family="'KozGoPr6N-Regular-83pv-RKSJ-H'" font-size="14">入口</text>
</g>
<g id="english_words" style="display:none">
  <text transform="matrix(1 0 0 1 400.9102 157.7539)" font-family="'KozGoPr6N-Regular-83pv-RKSJ-H'" font-size="14">Entrance</text>
</g>
<g id="on">
  <image id="pc_27_on" overflow="visible" width="52" height="26" xlink:href="on.jpg"  transform="matrix(0.5211 0 0 0.3623 112.813 124.4717)" style="display:none" />
  <image id="pc_54_on" overflow="visible" width="52" height="26" xlink:href="on.jpg"  transform="matrix(0.5211 0 0 0.3623 148.7075 123.7642)" style="display:none" />
  <image id="pc_26_on" overflow="visible" width="52" height="26" xlink:href="on.jpg"  transform="matrix(0.5211 0 0 0.3623 112.813 141.4023)" style="display:none" />
  <image id="pc_53_on" overflow="visible" width="52" height="26" xlink:href="on.jpg"  transform="matrix(0.5211 0 0 0.3623 148.708 140.6948)" style="display:none" />
  <image id="pc_25_on" overflow="visible" width="52" height="26" xlink:href="on.jpg"  transform="matrix(0.5211 0 0 0.3623 112.813 158.9927)" style="display:none" />
  <image id="pc_52_on" overflow="visible" width="52" height="26" xlink:href="on.jpg"  transform="matrix(0.5211 0 0 0.3623 148.708 158.2852)" style="display:none" />
  <image id="pc_24_on" overflow="visible" width="52" height="26" xlink:href="on.jpg"  transform="matrix(0.5211 0 0 0.3623 112.813 191.8389)" style="display:none" />
  <image id="pc_51_on" overflow="visible" width="52" height="26" xlink:href="on.jpg"  transform="matrix(0.5211 0 0 0.3623 148.708 191.1313)" style="display:none" />
  <image id="pc_23_on" overflow="visible" width="52" height="26" xlink:href="on.jpg"  transform="matrix(0.5211 0 0 0.3623 112.813 175.4902)" style="display:none" />
  <image id="pc_50_on" overflow="visible" width="52" height="26" xlink:href="on.jpg"  transform="matrix(0.5211 0 0 0.3623 148.708 174.7827)" style="display:none" />
  <image id="pc_22_on" overflow="visible" width="52" height="26" xlink:href="on.jpg"  transform="matrix(0.5211 0 0 0.3623 112.813 209.9165)" style="display:none" />
  <image id="pc_49_on" overflow="visible" width="52" height="26" xlink:href="on.jpg"  transform="matrix(0.5211 0 0 0.3623 148.708 209.209)" style="display:none" />
  <image id="pc_21_on" overflow="visible" width="52" height="26" xlink:href="on.jpg"  transform="matrix(0.5211 0 0 0.3623 112.813 226.8472)" style="display:none" />
  <image id="pc_48_on" overflow="visible" width="52" height="26" xlink:href="on.jpg"  transform="matrix(0.5211 0 0 0.3623 148.708 226.1396)" style="display:none" />
  <image id="pc_20_on" overflow="visible" width="52" height="26" xlink:href="on.jpg"  transform="matrix(0.5211 0 0 0.3623 112.813 244.4375)" style="display:none" />
  <image id="pc_47_on" overflow="visible" width="52" height="26" xlink:href="on.jpg"  transform="matrix(0.5211 0 0 0.3623 148.708 243.73)" style="display:none" />
  <image id="pc_19_on" overflow="visible" width="52" height="26" xlink:href="on.jpg"  transform="matrix(0.5211 0 0 0.3623 112.813 260.9351)" style="display:none" />
  <image id="pc_46_on" overflow="visible" width="52" height="26" xlink:href="on.jpg"  transform="matrix(0.5211 0 0 0.3623 148.708 260.2275)" style="display:none" />
  <image id="pc_18_on" overflow="visible" width="52" height="26" xlink:href="on.jpg"  transform="matrix(0.5211 0 0 0.3623 112.813 292.5508)" style="display:none" />
  <image id="pc_45_on" overflow="visible" width="52" height="26" xlink:href="on.jpg"  transform="matrix(0.5211 0 0 0.3623 148.708 291.8433)" style="display:none" />
  <image id="pc_17_on" overflow="visible" width="52" height="26" xlink:href="on.jpg"  transform="matrix(0.5211 0 0 0.3623 112.813 309.4814)" style="display:none" />
  <image id="pc_44_on" overflow="visible" width="52" height="26" xlink:href="on.jpg"  transform="matrix(0.5211 0 0 0.3623 148.708 308.7739)" style="display:none" />
  <image id="pc_16_on" overflow="visible" width="52" height="26" xlink:href="on.jpg"  transform="matrix(0.5211 0 0 0.3623 112.813 327.0718)" style="display:none" />
  <image id="pc_43_on" overflow="visible" width="52" height="26" xlink:href="on.jpg"  transform="matrix(0.5211 0 0 0.3623 148.708 326.3643)" style="display:none" />
  <image id="pc_15_on" overflow="visible" width="52" height="26" xlink:href="on.jpg"  transform="matrix(0.5211 0 0 0.3623 112.813 359.918)" style="display:none" />
  <image id="pc_42_on" overflow="visible" width="52" height="26" xlink:href="on.jpg"  transform="matrix(0.5211 0 0 0.3623 148.708 359.2104)" style="display:none" />
  <image id="pc_14_on" overflow="visible" width="52" height="26" xlink:href="on.jpg"  transform="matrix(0.5211 0 0 0.3623 112.813 343.5693)" style="display:none" />
  <image id="pc_41_on" overflow="visible" width="52" height="26" xlink:href="on.jpg"  transform="matrix(0.5211 0 0 0.3623 148.708 342.8618)" style="display:none" />
  <image id="pc_13_on" overflow="visible" width="52" height="26" xlink:href="on.jpg"  transform="matrix(0.5211 0 0 0.3623 112.813 377.9961)" style="display:none" />
  <image id="pc_40_on" overflow="visible" width="52" height="26" xlink:href="on.jpg"  transform="matrix(0.5211 0 0 0.3623 148.708 377.2881)" style="display:none" />
  <image id="pc_12_on" overflow="visible" width="52" height="26" xlink:href="on.jpg"  transform="matrix(0.5211 0 0 0.3623 112.813 413.1211)" style="display:none" />
  <image id="pc_39_on" overflow="visible" width="52" height="26" xlink:href="on.jpg"  transform="matrix(0.5211 0 0 0.3623 148.708 412.4141)" style="display:none" />
  <image id="pc_11_on" overflow="visible" width="52" height="26" xlink:href="on.jpg"  transform="matrix(0.5211 0 0 0.3623 112.813 430.0518)" style="display:none" />
  <image id="pc_38_on" overflow="visible" width="52" height="26" xlink:href="on.jpg"  transform="matrix(0.5211 0 0 0.3623 148.708 429.3438)" style="display:none" />
  <image id="pc_10_on" overflow="visible" width="52" height="26" xlink:href="on.jpg"  transform="matrix(0.5211 0 0 0.3623 112.813 447.6426)" style="display:none" />
  <image id="pc_37_on" overflow="visible" width="52" height="26" xlink:href="on.jpg"  transform="matrix(0.5211 0 0 0.3623 148.708 446.9346)" style="display:none" />
  <image id="pc_9_on" overflow="visible" width="52" height="26" xlink:href="on.jpg"  transform="matrix(0.5211 0 0 0.3623 112.813 480.4883)" style="display:none" />
  <image id="pc_36_on" overflow="visible" width="52" height="26" xlink:href="on.jpg"  transform="matrix(0.5211 0 0 0.3623 148.708 479.7812)" style="display:none" />
  <image id="pc_8_on" overflow="visible" width="52" height="26" xlink:href="on.jpg"  transform="matrix(0.5211 0 0 0.3623 112.813 464.1396)" style="display:none" />
  <image id="pc_35_on" overflow="visible" width="52" height="26" xlink:href="on.jpg"  transform="matrix(0.5211 0 0 0.3623 148.708 463.4316)" style="display:none" />
  <image id="pc_7_on" overflow="visible" width="52" height="26" xlink:href="on.jpg"  transform="matrix(0.5211 0 0 0.3623 112.813 498.5664)" style="display:none" />
  <image id="pc_34_on" overflow="visible" width="52" height="26" xlink:href="on.jpg"  transform="matrix(0.5211 0 0 0.3623 148.708 497.8584)" style="display:none" />
  <image id="pc_6_on" overflow="visible" width="52" height="26" xlink:href="on.jpg"  transform="matrix(0.5211 0 0 0.3623 112.813 533.2441)" style="display:none" />
  <image id="pc_33_on" overflow="visible" width="52" height="26" xlink:href="on.jpg"  transform="matrix(0.5211 0 0 0.3623 148.708 532.5371)" style="display:none" />
  <image id="pc_5_on" overflow="visible" width="52" height="26" xlink:href="on.jpg"  transform="matrix(0.5211 0 0 0.3623 112.813 550.1748)" style="display:none" />
  <image id="pc_32_on" overflow="visible" width="52" height="26" xlink:href="on.jpg"  transform="matrix(0.5211 0 0 0.3623 148.708 549.4668)" style="display:none" />
  <image id="pc_4_on" overflow="visible" width="52" height="26" xlink:href="on.jpg"  transform="matrix(0.5211 0 0 0.3623 112.813 567.7656)" style="display:none" />
  <image id="pc_31_on" overflow="visible" width="52" height="26" xlink:href="on.jpg"  transform="matrix(0.5211 0 0 0.3623 148.708 567.0576)" style="display:none" />
  <image id="pc_3_on" overflow="visible" width="52" height="26" xlink:href="on.jpg"  transform="matrix(0.5211 0 0 0.3623 112.813 600.6113)" style="display:none" />
  <image id="pc_30_on" overflow="visible" width="52" height="26" xlink:href="on.jpg"  transform="matrix(0.5211 0 0 0.3623 148.708 599.9043)" style="display:none" />
  <image id="pc_2_on" overflow="visible" width="52" height="26" xlink:href="on.jpg"  transform="matrix(0.5211 0 0 0.3623 112.813 584.2627)" style="display:none" />
  <image id="pc_29_on" overflow="visible" width="52" height="26" xlink:href="on.jpg"  transform="matrix(0.5211 0 0 0.3623 148.708 583.5547)" style="display:none" />
  <image id="pc_1_on" overflow="visible" width="52" height="26" xlink:href="on.jpg"  transform="matrix(0.5211 0 0 0.3623 112.813 618.6895)" style="display:none" />
  <image id="pc_28_on" overflow="visible" width="52" height="26" xlink:href="on.jpg"  transform="matrix(0.5211 0 0 0.3623 148.708 617.9814)" style="display:none" />
  <image id="pc_81_on" overflow="visible" width="52" height="26" xlink:href="on.jpg"  transform="matrix(0.5211 0 0 0.3623 266.998 125.2432)" style="display:none" />
  <image id="pc_108_on" overflow="visible" width="52" height="26" xlink:href="on.jpg"  transform="matrix(0.5211 0 0 0.3623 302.8926 124.5356)" style="display:none" />
  <image id="pc_80_on" overflow="visible" width="52" height="26" xlink:href="on.jpg"  transform="matrix(0.5211 0 0 0.3623 266.998 142.1738)" style="display:none" />
  <image id="pc_107_on" overflow="visible" width="52" height="26" xlink:href="on.jpg"  transform="matrix(0.5211 0 0 0.3623 302.8926 141.4663)" style="display:none" />
  <image id="pc_79_on" overflow="visible" width="52" height="26" xlink:href="on.jpg"  transform="matrix(0.5211 0 0 0.3623 266.998 159.7642)" style="display:none" />
  <image id="pc_106_on" overflow="visible" width="52" height="26" xlink:href="on.jpg"  transform="matrix(0.5211 0 0 0.3623 302.8926 159.0566)" style="display:none" />
  <image id="pc_78_on" overflow="visible" width="52" height="26" xlink:href="on.jpg"  transform="matrix(0.5211 0 0 0.3623 266.998 192.6104)" style="display:none" />
  <image id="pc_105_on" overflow="visible" width="52" height="26" xlink:href="on.jpg"  transform="matrix(0.5211 0 0 0.3623 302.8926 191.9028)" style="display:none" />
  <image id="pc_77_on" overflow="visible" width="52" height="26" xlink:href="on.jpg"  transform="matrix(0.5211 0 0 0.3623 266.998 176.2617)" style="display:none" />
  <image id="pc_104_on" overflow="visible" width="52" height="26" xlink:href="on.jpg"  transform="matrix(0.5211 0 0 0.3623 302.8926 175.5542)" style="display:none" />
  <image id="pc_76_on" overflow="visible" width="52" height="26" xlink:href="on.jpg"  transform="matrix(0.5211 0 0 0.3623 266.998 210.688)" style="display:none" />
  <image id="pc_103_on" overflow="visible" width="52" height="26" xlink:href="on.jpg"  transform="matrix(0.5211 0 0 0.3623 302.8926 209.9805)" style="display:none" />
  <image id="pc_75_on" overflow="visible" width="52" height="26" xlink:href="on.jpg"  transform="matrix(0.5211 0 0 0.3623 266.998 227.6187)" style="display:none" />
  <image id="pc_102_on" overflow="visible" width="52" height="26" xlink:href="on.jpg"  transform="matrix(0.5211 0 0 0.3623 302.8926 226.9111)" style="display:none" />
  <image id="pc_74_on" overflow="visible" width="52" height="26" xlink:href="on.jpg"  transform="matrix(0.5211 0 0 0.3623 266.998 245.209)" style="display:none" />
  <image id="pc_101_on" overflow="visible" width="52" height="26" xlink:href="on.jpg"  transform="matrix(0.5211 0 0 0.3623 302.8926 244.5015)" style="display:none" />
  <image id="pc_73_on" overflow="visible" width="52" height="26" xlink:href="on.jpg"  transform="matrix(0.5211 0 0 0.3623 266.998 261.7065)" style="display:none" />
  <image id="pc_100_on" overflow="visible" width="52" height="26" xlink:href="on.jpg"  transform="matrix(0.5211 0 0 0.3623 302.8926 260.999)" style="display:none" />
  <image id="pc_72_on" overflow="visible" width="52" height="26" xlink:href="on.jpg"  transform="matrix(0.5211 0 0 0.3623 266.998 293.3223)" style="display:none" />
  <image id="pc_99_on" overflow="visible" width="52" height="26" xlink:href="on.jpg"  transform="matrix(0.5211 0 0 0.3623 302.8926 292.6147)" style="display:none" />
  <image id="pc_71_on" overflow="visible" width="52" height="26" xlink:href="on.jpg"  transform="matrix(0.5211 0 0 0.3623 266.998 310.2529)" style="display:none" />
  <image id="pc_98_on" overflow="visible" width="52" height="26" xlink:href="on.jpg"  transform="matrix(0.5211 0 0 0.3623 302.8926 309.5454)" style="display:none" />
  <image id="pc_70_on" overflow="visible" width="52" height="26" xlink:href="on.jpg"  transform="matrix(0.5211 0 0 0.3623 266.998 327.8433)" style="display:none" />
  <image id="pc_97_on" overflow="visible" width="52" height="26" xlink:href="on.jpg"  transform="matrix(0.5211 0 0 0.3623 302.8926 327.1357)" style="display:none" />
  <image id="pc_69_on" overflow="visible" width="52" height="26" xlink:href="on.jpg"  transform="matrix(0.5211 0 0 0.3623 266.998 360.6895)" style="display:none" />
  <image id="pc_96_on" overflow="visible" width="52" height="26" xlink:href="on.jpg"  transform="matrix(0.5211 0 0 0.3623 302.8926 359.9819)" style="display:none" />
  <image id="pc_68_on" overflow="visible" width="52" height="26" xlink:href="on.jpg"  transform="matrix(0.5211 0 0 0.3623 266.998 344.3408)" style="display:none" />
  <image id="pc_95_on" overflow="visible" width="52" height="26" xlink:href="on.jpg"  transform="matrix(0.5211 0 0 0.3623 302.8926 343.6333)" style="display:none" />
  <image id="pc_67_on" overflow="visible" width="52" height="26" xlink:href="on.jpg"  transform="matrix(0.5211 0 0 0.3623 266.998 378.7676)" style="display:none" />
  <image id="pc_94_on" overflow="visible" width="52" height="26" xlink:href="on.jpg"  transform="matrix(0.5211 0 0 0.3623 302.8926 378.0596)" style="display:none" />
  <image id="pc_66_on" overflow="visible" width="52" height="26" xlink:href="on.jpg"  transform="matrix(0.5211 0 0 0.3623 266.998 413.8926)" style="display:none" />
  <image id="pc_93_on" overflow="visible" width="52" height="26" xlink:href="on.jpg"  transform="matrix(0.5211 0 0 0.3623 302.8926 413.1855)" style="display:none" />
  <image id="pc_65_on" overflow="visible" width="52" height="26" xlink:href="on.jpg"  transform="matrix(0.5211 0 0 0.3623 266.998 430.8232)" style="display:none" />
  <image id="pc_92_on" overflow="visible" width="52" height="26" xlink:href="on.jpg"  transform="matrix(0.5211 0 0 0.3623 302.8926 430.1152)" style="display:none" />
  <image id="pc_64_on" overflow="visible" width="52" height="26" xlink:href="on.jpg"  transform="matrix(0.5211 0 0 0.3623 266.998 448.4141)" style="display:none" />
  <image id="pc_91_on" overflow="visible" width="52" height="26" xlink:href="on.jpg"  transform="matrix(0.5211 0 0 0.3623 302.8926 447.7061)" style="display:none" />
  <image id="pc_63_on" overflow="visible" width="52" height="26" xlink:href="on.jpg"  transform="matrix(0.5211 0 0 0.3623 266.998 481.2598)" style="display:none" />
  <image id="pc_90_on" overflow="visible" width="52" height="26" xlink:href="on.jpg"  transform="matrix(0.5211 0 0 0.3623 302.8926 480.5527)" style="display:none" />
  <image id="pc_62_on" overflow="visible" width="52" height="26" xlink:href="on.jpg"  transform="matrix(0.5211 0 0 0.3623 266.998 464.9111)" style="display:none" />
  <image id="pc_89_on" overflow="visible" width="52" height="26" xlink:href="on.jpg"  transform="matrix(0.5211 0 0 0.3623 302.8926 464.2031)" style="display:none" />
  <image id="pc_61_on" overflow="visible" width="52" height="26" xlink:href="on.jpg"  transform="matrix(0.5211 0 0 0.3623 266.998 499.3379)" style="display:none" />
  <image id="pc_88_on" overflow="visible" width="52" height="26" xlink:href="on.jpg"  transform="matrix(0.5211 0 0 0.3623 302.8926 498.6299)" style="display:none" />
  <image id="pc_60_on" overflow="visible" width="52" height="26" xlink:href="on.jpg"  transform="matrix(0.5211 0 0 0.3623 266.998 534.0156)" style="display:none" />
  <image id="pc_87_on" overflow="visible" width="52" height="26" xlink:href="on.jpg"  transform="matrix(0.5211 0 0 0.3623 302.8926 533.3086)" style="display:none" />
  <image id="pc_59_on" overflow="visible" width="52" height="26" xlink:href="on.jpg"  transform="matrix(0.5211 0 0 0.3623 266.998 550.9463)" style="display:none" />
  <image id="pc_86_on" overflow="visible" width="52" height="26" xlink:href="on.jpg"  transform="matrix(0.5211 0 0 0.3623 302.8926 550.2383)" style="display:none" />
  <image id="pc_58_on" overflow="visible" width="52" height="26" xlink:href="on.jpg"  transform="matrix(0.5211 0 0 0.3623 266.998 568.5371)" style="display:none" />
  <image id="pc_85_on" overflow="visible" width="52" height="26" xlink:href="on.jpg"  transform="matrix(0.5211 0 0 0.3623 302.8926 567.8291)" style="display:none" />
  <image id="pc_57_on" overflow="visible" width="52" height="26" xlink:href="on.jpg"  transform="matrix(0.5211 0 0 0.3623 266.998 601.3828)" style="display:none" />
  <image id="pc_84_on" overflow="visible" width="52" height="26" xlink:href="on.jpg"  transform="matrix(0.5211 0 0 0.3623 302.8926 600.6758)" style="display:none" />
  <image id="pc_56_on" overflow="visible" width="52" height="26" xlink:href="on.jpg"  transform="matrix(0.5211 0 0 0.3623 266.998 585.0342)" style="display:none" />
  <image id="pc_83_on" overflow="visible" width="52" height="26" xlink:href="on.jpg"  transform="matrix(0.5211 0 0 0.3623 302.8926 584.3262)" style="display:none" />
  <image id="pc_55_on" overflow="visible" width="52" height="26" xlink:href="on.jpg"  transform="matrix(0.5211 0 0 0.3623 266.998 619.4609)" style="display:none" />
  <image id="pc_82_on" overflow="visible" width="52" height="26" xlink:href="on.jpg"  transform="matrix(0.5211 0 0 0.3623 302.8926 618.7529)" style="display:none" />
</g>
<g id="off">
  <image id="pc_27_off" overflow="visible" width="52" height="26" xlink:href="off.jpg"  transform="matrix(0.5759 0 0 0.4666 112.2891 124.0449)" />
  <image id="pc_54_off" overflow="visible" width="52" height="26" xlink:href="off.jpg"  transform="matrix(0.5759 0 0 0.4666 148.4321 124.0449)" />
  <image id="pc_26_off" overflow="visible" width="52" height="26" xlink:href="off.jpg"  transform="matrix(0.5759 0 0 0.4666 112.2891 140.3931)" />
  <image id="pc_53_off" overflow="visible" width="52" height="26" xlink:href="off.jpg"  transform="matrix(0.5759 0 0 0.4666 148.4321 140.3931)" />
  <image id="pc_25_off" overflow="visible" width="52" height="26" xlink:href="off.jpg"  transform="matrix(0.5759 0 0 0.4666 112.2891 157.9834)" />
  <image id="pc_52_off" overflow="visible" width="52" height="26" xlink:href="off.jpg"  transform="matrix(0.5759 0 0 0.4666 148.4321 157.9834)" />
  <image id="pc_24_off" overflow="visible" width="52" height="26" xlink:href="off.jpg"  transform="matrix(0.5759 0 0 0.4666 112.2891 174.71)" />
  <image id="pc_51_off" overflow="visible" width="52" height="26" xlink:href="off.jpg"  transform="matrix(0.5759 0 0 0.4666 148.4321 174.71)" />
  <image id="pc_23_off" overflow="visible" width="52" height="26" xlink:href="off.jpg"  transform="matrix(0.5759 0 0 0.4666 112.2891 191.0586)" />
  <image id="pc_50_off" overflow="visible" width="52" height="26" xlink:href="off.jpg"  transform="matrix(0.5759 0 0 0.4666 148.4321 191.0586)" />
  <image id="pc_22_off" overflow="visible" width="52" height="26" xlink:href="off.jpg"  transform="matrix(0.5759 0 0 0.4666 112.2891 208.6494)" />
  <image id="pc_49_off" overflow="visible" width="52" height="26" xlink:href="off.jpg"  transform="matrix(0.5759 0 0 0.4666 148.4321 208.6494)" />
  <image id="pc_21_off" overflow="visible" width="52" height="26" xlink:href="off.jpg"  transform="matrix(0.5759 0 0 0.4666 112.2891 226.4712)" />
  <image id="pc_48_off" overflow="visible" width="52" height="26" xlink:href="off.jpg"  transform="matrix(0.5759 0 0 0.4666 148.4321 226.4712)" />
  <image id="pc_20_off" overflow="visible" width="52" height="26" xlink:href="off.jpg"  transform="matrix(0.5759 0 0 0.4666 112.2891 242.8198)" />
  <image id="pc_47_off" overflow="visible" width="52" height="26" xlink:href="off.jpg"  transform="matrix(0.5759 0 0 0.4666 148.4321 242.8198)" />
  <image id="pc_19_off" overflow="visible" width="52" height="26" xlink:href="off.jpg"  transform="matrix(0.5759 0 0 0.4666 112.2891 260.4102)" />
  <image id="pc_46_off" overflow="visible" width="52" height="26" xlink:href="off.jpg"  transform="matrix(0.5759 0 0 0.4666 148.4321 260.4102)" />
  <image id="pc_18_off" overflow="visible" width="52" height="26" xlink:href="off.jpg"  transform="matrix(0.5759 0 0 0.4666 112.2891 292.9878)" />
  <image id="pc_45_off" overflow="visible" width="52" height="26" xlink:href="off.jpg"  transform="matrix(0.5759 0 0 0.4666 148.4321 292.9878)" />
  <image id="pc_17_off" overflow="visible" width="52" height="26" xlink:href="off.jpg"  transform="matrix(0.5759 0 0 0.4666 112.2891 309.3359)" />
  <image id="pc_44_off" overflow="visible" width="52" height="26" xlink:href="off.jpg"  transform="matrix(0.5759 0 0 0.4666 148.4321 309.3359)" />
  <image id="pc_16_off" overflow="visible" width="52" height="26" xlink:href="off.jpg"  transform="matrix(0.5759 0 0 0.4666 112.2891 326.9268)" />
  <image id="pc_43_off" overflow="visible" width="52" height="26" xlink:href="off.jpg"  transform="matrix(0.5759 0 0 0.4666 148.4321 326.9268)" />
  <image id="pc_15_off" overflow="visible" width="52" height="26" xlink:href="off.jpg"  transform="matrix(0.5759 0 0 0.4666 112.2891 343.6538)" />
  <image id="pc_42_off" overflow="visible" width="52" height="26" xlink:href="off.jpg"  transform="matrix(0.5759 0 0 0.4666 148.4321 343.6538)" />
  <image id="pc_14_off" overflow="visible" width="52" height="26" xlink:href="off.jpg"  transform="matrix(0.5759 0 0 0.4666 112.2891 360.002)" />
  <image id="pc_41_off" overflow="visible" width="52" height="26" xlink:href="off.jpg"  transform="matrix(0.5759 0 0 0.4666 148.4321 360.002)" />
  <image id="pc_13_off" overflow="visible" width="52" height="26" xlink:href="off.jpg"  transform="matrix(0.5759 0 0 0.4666 112.2891 377.5918)" />
  <image id="pc_40_off" overflow="visible" width="52" height="26" xlink:href="off.jpg"  transform="matrix(0.5759 0 0 0.4666 148.4321 377.5918)" />
  <image id="pc_12_off" overflow="visible" width="52" height="26" xlink:href="off.jpg"  transform="matrix(0.5759 0 0 0.4666 112.2891 411.4141)" />
  <image id="pc_39_off" overflow="visible" width="52" height="26" xlink:href="off.jpg"  transform="matrix(0.5759 0 0 0.4666 148.4321 411.4141)" />
  <image id="pc_11_off" overflow="visible" width="52" height="26" xlink:href="off.jpg"  transform="matrix(0.5759 0 0 0.4666 112.2891 427.7637)" />
  <image id="pc_38_off" overflow="visible" width="52" height="26" xlink:href="off.jpg"  transform="matrix(0.5759 0 0 0.4666 148.4321 427.7637)" />
  <image id="pc_10_off" overflow="visible" width="52" height="26" xlink:href="off.jpg"  transform="matrix(0.5759 0 0 0.4666 112.2891 445.3535)" />
  <image id="pc_37_off" overflow="visible" width="52" height="26" xlink:href="off.jpg"  transform="matrix(0.5759 0 0 0.4666 148.4321 445.3535)" />
  <image id="pc_9_off" overflow="visible" width="52" height="26" xlink:href="off.jpg"  transform="matrix(0.5759 0 0 0.4666 112.5376 464.9883)" />
  <image id="pc_36_off" overflow="visible" width="52" height="26" xlink:href="off.jpg"  transform="matrix(0.5759 0 0 0.4666 148.6802 464.9883)" />
  <image id="pc_8_off" overflow="visible" width="52" height="26" xlink:href="off.jpg"  transform="matrix(0.5759 0 0 0.4666 112.5376 481.3359)" />
  <image id="pc_35_off" overflow="visible" width="52" height="26" xlink:href="off.jpg"  transform="matrix(0.5759 0 0 0.4666 148.6802 481.3359)" />
  <image id="pc_7_off" overflow="visible" width="52" height="26" xlink:href="off.jpg"  transform="matrix(0.5759 0 0 0.4666 112.5376 498.9258)" />
  <image id="pc_34_off" overflow="visible" width="52" height="26" xlink:href="off.jpg"  transform="matrix(0.5759 0 0 0.4666 148.6802 498.9258)" />
  <image id="pc_6_off" overflow="visible" width="52" height="26" xlink:href="off.jpg"  transform="matrix(0.5759 0 0 0.4666 112.5376 532.6543)" />
  <image id="pc_33_off" overflow="visible" width="52" height="26" xlink:href="off.jpg"  transform="matrix(0.5759 0 0 0.4666 148.6802 532.6543)" />
  <image id="pc_5_off" overflow="visible" width="52" height="26" xlink:href="off.jpg"  transform="matrix(0.5759 0 0 0.4666 112.5376 549.002)" />
  <image id="pc_32_off" overflow="visible" width="52" height="26" xlink:href="off.jpg"  transform="matrix(0.5759 0 0 0.4666 148.6802 549.002)" />
  <image id="pc_4_off" overflow="visible" width="52" height="26" xlink:href="off.jpg"  transform="matrix(0.5759 0 0 0.4666 112.5376 566.5918)" />
  <image id="pc_31_off" overflow="visible" width="52" height="26" xlink:href="off.jpg"  transform="matrix(0.5759 0 0 0.4666 148.6802 566.5918)" />
  <image id="pc_3_off" overflow="visible" width="52" height="26" xlink:href="off.jpg"  transform="matrix(0.5759 0 0 0.4666 112.5376 584.4141)" />
  <image id="pc_30_off" overflow="visible" width="52" height="26" xlink:href="off.jpg"  transform="matrix(0.5759 0 0 0.4666 148.6802 584.4141)" />
  <image id="pc_2_off" overflow="visible" width="52" height="26" xlink:href="off.jpg"  transform="matrix(0.5759 0 0 0.4666 112.5376 600.7637)" />
  <image id="pc_29_off" overflow="visible" width="52" height="26" xlink:href="off.jpg"  transform="matrix(0.5759 0 0 0.4666 148.6802 600.7637)" />
  <image id="pc_1_off" overflow="visible" width="52" height="26" xlink:href="off.jpg"  transform="matrix(0.5759 0 0 0.4666 112.5376 618.3535)" />
  <image id="pc_28_off" overflow="visible" width="52" height="26" xlink:href="off.jpg"  transform="matrix(0.5759 0 0 0.4666 148.6802 618.3535)" />
  <image id="pc_81_off" overflow="visible" width="52" height="26" xlink:href="off.jpg"  transform="matrix(0.5759 0 0 0.4666 266.4746 123.8159)" />
  <image id="pc_108_off" overflow="visible" width="52" height="26" xlink:href="off.jpg"  transform="matrix(0.5759 0 0 0.4666 302.6172 123.8159)" />
  <image id="pc_80_off" overflow="visible" width="52" height="26" xlink:href="off.jpg"  transform="matrix(0.5759 0 0 0.4666 266.4746 140.1641)" />
  <image id="pc_107_off" overflow="visible" width="52" height="26" xlink:href="off.jpg"  transform="matrix(0.5759 0 0 0.4666 302.6172 140.1641)" />
  <image id="pc_79_off" overflow="visible" width="52" height="26" xlink:href="off.jpg"  transform="matrix(0.5759 0 0 0.4666 266.4746 157.7544)" />
  <image id="pc_106_off" overflow="visible" width="52" height="26" xlink:href="off.jpg"  transform="matrix(0.5759 0 0 0.4666 302.6172 157.7544)" />
  <image id="pc_78_off" overflow="visible" width="52" height="26" xlink:href="off.jpg"  transform="matrix(0.5759 0 0 0.4666 266.4746 174.481)" />
  <image id="pc_105_off" overflow="visible" width="52" height="26" xlink:href="off.jpg"  transform="matrix(0.5759 0 0 0.4666 302.6172 174.481)" />
  <image id="pc_77_off" overflow="visible" width="52" height="26" xlink:href="off.jpg"  transform="matrix(0.5759 0 0 0.4666 266.4746 190.8296)" />
  <image id="pc_104_off" overflow="visible" width="52" height="26" xlink:href="off.jpg"  transform="matrix(0.5759 0 0 0.4666 302.6172 190.8296)" />
  <image id="pc_76_off" overflow="visible" width="52" height="26" xlink:href="off.jpg"  transform="matrix(0.5759 0 0 0.4666 266.4746 208.4204)" />
  <image id="pc_103_off" overflow="visible" width="52" height="26" xlink:href="off.jpg"  transform="matrix(0.5759 0 0 0.4666 302.6172 208.4204)" />
  <image id="pc_75_off" overflow="visible" width="52" height="26" xlink:href="off.jpg"  transform="matrix(0.5759 0 0 0.4666 266.4746 226.2422)" />
  <image id="pc_102_off" overflow="visible" width="52" height="26" xlink:href="off.jpg"  transform="matrix(0.5759 0 0 0.4666 302.6172 226.2422)" />
  <image id="pc_74_off" overflow="visible" width="52" height="26" xlink:href="off.jpg"  transform="matrix(0.5759 0 0 0.4666 266.4746 242.5908)" />
  <image id="pc_101_off" overflow="visible" width="52" height="26" xlink:href="off.jpg"  transform="matrix(0.5759 0 0 0.4666 302.6172 242.5908)" />
  <image id="pc_73_off" overflow="visible" width="52" height="26" xlink:href="off.jpg"  transform="matrix(0.5759 0 0 0.4666 266.4746 260.1812)" />
  <image id="pc_100_off" overflow="visible" width="52" height="26" xlink:href="off.jpg"  transform="matrix(0.5759 0 0 0.4666 302.6172 260.1812)" />
  <image id="pc_72_off" overflow="visible" width="52" height="26" xlink:href="off.jpg"  transform="matrix(0.5759 0 0 0.4666 266.4746 292.7588)" />
  <image id="pc_99_off" overflow="visible" width="52" height="26" xlink:href="off.jpg"  transform="matrix(0.5759 0 0 0.4666 302.6172 292.7588)" />
  <image id="pc_71_off" overflow="visible" width="52" height="26" xlink:href="off.jpg"  transform="matrix(0.5759 0 0 0.4666 266.4746 309.1069)" />
  <image id="pc_98_off" overflow="visible" width="52" height="26" xlink:href="off.jpg"  transform="matrix(0.5759 0 0 0.4666 302.6172 309.1069)" />
  <image id="pc_70_off" overflow="visible" width="52" height="26" xlink:href="off.jpg"  transform="matrix(0.5759 0 0 0.4666 266.4746 326.6978)" />
  <image id="pc_97_off" overflow="visible" width="52" height="26" xlink:href="off.jpg"  transform="matrix(0.5759 0 0 0.4666 302.6172 326.6978)" />
  <image id="pc_69_off" overflow="visible" width="52" height="26" xlink:href="off.jpg"  transform="matrix(0.5759 0 0 0.4666 266.4746 343.4253)" />
  <image id="pc_96_off" overflow="visible" width="52" height="26" xlink:href="off.jpg"  transform="matrix(0.5759 0 0 0.4666 302.6172 343.4253)" />
  <image id="pc_68_off" overflow="visible" width="52" height="26" xlink:href="off.jpg"  transform="matrix(0.5759 0 0 0.4666 266.4746 359.7729)" />
  <image id="pc_95_off" overflow="visible" width="52" height="26" xlink:href="off.jpg"  transform="matrix(0.5759 0 0 0.4666 302.6172 359.7729)" />
  <image id="pc_67_off" overflow="visible" width="52" height="26" xlink:href="off.jpg"  transform="matrix(0.5759 0 0 0.4666 266.4746 377.3633)" />
  <image id="pc_94_off" overflow="visible" width="52" height="26" xlink:href="off.jpg"  transform="matrix(0.5759 0 0 0.4666 302.6172 377.3633)" />
  <image id="pc_66_off" overflow="visible" width="52" height="26" xlink:href="off.jpg"  transform="matrix(0.5759 0 0 0.4666 266.4746 411.1855)" />
  <image id="pc_93_off" overflow="visible" width="52" height="26" xlink:href="off.jpg"  transform="matrix(0.5759 0 0 0.4666 302.6172 411.1855)" />
  <image id="pc_65_off" overflow="visible" width="52" height="26" xlink:href="off.jpg"  transform="matrix(0.5759 0 0 0.4666 266.4746 427.5352)" />
  <image id="pc_92_off" overflow="visible" width="52" height="26" xlink:href="off.jpg"  transform="matrix(0.5759 0 0 0.4666 302.6172 427.5352)" />
  <image id="pc_64_off" overflow="visible" width="52" height="26" xlink:href="off.jpg"  transform="matrix(0.5759 0 0 0.4666 266.4746 445.125)" />
  <image id="pc_91_off" overflow="visible" width="52" height="26" xlink:href="off.jpg"  transform="matrix(0.5759 0 0 0.4666 302.6172 445.125)" />
  <image id="pc_63_off" overflow="visible" width="52" height="26" xlink:href="off.jpg"  transform="matrix(0.5759 0 0 0.4666 266.7227 464.7598)" />
  <image id="pc_90_off" overflow="visible" width="52" height="26" xlink:href="off.jpg"  transform="matrix(0.5759 0 0 0.4666 302.8652 464.7598)" />
  <image id="pc_62_off" overflow="visible" width="52" height="26" xlink:href="off.jpg"  transform="matrix(0.5759 0 0 0.4666 266.7227 481.1074)" />
  <image id="pc_89_off" overflow="visible" width="52" height="26" xlink:href="off.jpg"  transform="matrix(0.5759 0 0 0.4666 302.8652 481.1074)" />
  <image id="pc_61_off" overflow="visible" width="52" height="26" xlink:href="off.jpg"  transform="matrix(0.5759 0 0 0.4666 266.7227 498.6973)" />
  <image id="pc_88_off" overflow="visible" width="52" height="26" xlink:href="off.jpg"  transform="matrix(0.5759 0 0 0.4666 302.8652 498.6973)" />
  <image id="pc_60_off" overflow="visible" width="52" height="26" xlink:href="off.jpg"  transform="matrix(0.5759 0 0 0.4666 266.7227 532.4258)" />
  <image id="pc_87_off" overflow="visible" width="52" height="26" xlink:href="off.jpg"  transform="matrix(0.5759 0 0 0.4666 302.8652 532.4258)" />
  <image id="pc_59_off" overflow="visible" width="52" height="26" xlink:href="off.jpg"  transform="matrix(0.5759 0 0 0.4666 266.7227 548.7734)" />
  <image id="pc_86_off" overflow="visible" width="52" height="26" xlink:href="off.jpg"  transform="matrix(0.5759 0 0 0.4666 302.8652 548.7734)" />
  <image id="pc_58_off" overflow="visible" width="52" height="26" xlink:href="off.jpg"  transform="matrix(0.5759 0 0 0.4666 266.7227 566.3633)" />
  <image id="pc_85_off" overflow="visible" width="52" height="26" xlink:href="off.jpg"  transform="matrix(0.5759 0 0 0.4666 302.8652 566.3633)" />
  <image id="pc_57_off" overflow="visible" width="52" height="26" xlink:href="off.jpg"  transform="matrix(0.5759 0 0 0.4666 266.7227 584.1855)" />
  <image id="pc_84_off" overflow="visible" width="52" height="26" xlink:href="off.jpg"  transform="matrix(0.5759 0 0 0.4666 302.8652 584.1855)" />
  <image id="pc_56_off" overflow="visible" width="52" height="26" xlink:href="off.jpg"  transform="matrix(0.5759 0 0 0.4666 266.7227 600.5352)" />
  <image id="pc_83_off" overflow="visible" width="52" height="26" xlink:href="off.jpg"  transform="matrix(0.5759 0 0 0.4666 302.8652 600.5352)" />
  <image id="pc_55_off" overflow="visible" width="52" height="26" xlink:href="off.jpg"  transform="matrix(0.5759 0 0 0.4666 266.7227 618.125)" />
  <image id="pc_82_off" overflow="visible" width="52" height="26" xlink:href="off.jpg"  transform="matrix(0.5759 0 0 0.4666 302.8652 618.125)" />
</g>
</g>
<script xlink:href="http://ajax.googleapis.com/ajax/libs/jquery/1.7.2/jquery.min.js" />
<script xlink:href="innersvg.js" />
<script xlink:href="room.js" />
</svg>
