<?xml version="1.0" encoding="utf-8"?>
<!-- Generator: Adobe Illustrator 16.0.0, SVG Export Plug-In . SVG Version: 6.00 Build 0)  -->
<!DOCTYPE svg PUBLIC "-//W3C//DTD SVG 1.1//EN" "http://www.w3.org/Graphics/SVG/1.1/DTD/svg11.dtd">
<svg version="1.1" id="レイヤー_1" xmlns="http://www.w3.org/2000/svg" xmlns:xlink="http://www.w3.org/1999/xlink" x="0px"
	 y="0px" width="480px" height="720px" viewBox="0 0 480 720" enable-background="new 0 0 480 720" xml:space="preserve">
<g id="レイヤー_1_1_" enable-background="new    ">
	
		<rect x="29.513" y="100.381" fill="#FFFFFF" stroke="#000000" stroke-width="4" stroke-miterlimit="10" width="419.079" height="547.395"/>
	<rect x="166.326" y="23.533" fill="none" width="145.454" height="27.273"/>
	<rect x="405.601" y="594.886" fill="none" width="31.168" height="18.184"/>
	<text transform="matrix(1 0 0 1 400.9102 157.7539)" font-family="'KozGoPr6N-Regular-83pv-RKSJ-H'" font-size="14">入口</text>
	
		<image overflow="visible" enable-background="new    " width="52" height="26" xlink:href="2546721330011BAD.jpg"  transform="matrix(0.5211 0 0 0.3623 112.813 124.4717)">
	</image>
	<rect x="441.592" y="128.474" fill="#FFFFFF" width="14" height="45.3"/>
	
		<image overflow="visible" enable-background="new    " width="52" height="26" xlink:href="2546721330011BAF.jpg"  transform="matrix(0.5211 0 0 0.3623 148.7075 123.7642)">
	</image>
	
		<image overflow="visible" enable-background="new    " width="52" height="26" xlink:href="2546721330011BAA.jpg"  transform="matrix(0.5211 0 0 0.3623 112.813 141.4023)">
	</image>
	
		<image overflow="visible" enable-background="new    " width="52" height="26" xlink:href="2546721330011BAB.jpg"  transform="matrix(0.5211 0 0 0.3623 148.708 140.6948)">
	</image>
	
		<image overflow="visible" enable-background="new    " width="52" height="26" xlink:href="2546721330011BB5.jpg"  transform="matrix(0.5211 0 0 0.3623 112.813 158.9927)">
	</image>
	
		<image overflow="visible" enable-background="new    " width="52" height="26" xlink:href="2546721330011BB7.jpg"  transform="matrix(0.5211 0 0 0.3623 148.708 158.2852)">
	</image>
	
		<image overflow="visible" enable-background="new    " width="52" height="26" xlink:href="2546721330011BBA.jpg"  transform="matrix(0.5211 0 0 0.3623 112.813 191.8389)">
	</image>
	
		<image overflow="visible" enable-background="new    " width="52" height="26" xlink:href="2546721330011BBB.jpg"  transform="matrix(0.5211 0 0 0.3623 148.708 191.1313)">
	</image>
	
		<image overflow="visible" enable-background="new    " width="52" height="26" xlink:href="2546721330011BBD.jpg"  transform="matrix(0.5211 0 0 0.3623 112.813 175.4902)">
	</image>
	
		<image overflow="visible" enable-background="new    " width="52" height="26" xlink:href="632E7CC5F0290006.jpg"  transform="matrix(0.5211 0 0 0.3623 148.708 174.7827)">
	</image>
	
		<image overflow="visible" enable-background="new    " width="52" height="26" xlink:href="632E7CC5F0290001.jpg"  transform="matrix(0.5211 0 0 0.3623 112.813 209.9165)">
	</image>
	
		<image overflow="visible" enable-background="new    " width="52" height="26" xlink:href="632E7CC5F0290002.jpg"  transform="matrix(0.5211 0 0 0.3623 148.708 209.209)">
	</image>
	
		<image overflow="visible" enable-background="new    " width="52" height="26" xlink:href="632E7CC5F0290000.jpg"  transform="matrix(0.5211 0 0 0.3623 112.813 226.8472)">
	</image>
	
		<image overflow="visible" enable-background="new    " width="52" height="26" xlink:href="632E7CC5F029001E.jpg"  transform="matrix(0.5211 0 0 0.3623 148.708 226.1396)">
	</image>
	
		<image overflow="visible" enable-background="new    " width="52" height="26" xlink:href="632E7CC5F0290003.jpg"  transform="matrix(0.5211 0 0 0.3623 112.813 244.4375)">
	</image>
	
		<image overflow="visible" enable-background="new    " width="52" height="26" xlink:href="632E7CC5F0290007.jpg"  transform="matrix(0.5211 0 0 0.3623 148.708 243.73)">
	</image>
	
		<image overflow="visible" enable-background="new    " width="52" height="26" xlink:href="632E7CC5F0290005.jpg"  transform="matrix(0.5211 0 0 0.3623 112.813 260.9351)">
	</image>
	
		<image overflow="visible" enable-background="new    " width="52" height="26" xlink:href="632E7CC5F029000C.jpg"  transform="matrix(0.5211 0 0 0.3623 148.708 260.2275)">
	</image>
	
		<image overflow="visible" enable-background="new    " width="52" height="26" xlink:href="632E7CC5F029000D.jpg"  transform="matrix(0.5211 0 0 0.3623 112.813 292.5508)">
	</image>
	
		<image overflow="visible" enable-background="new    " width="52" height="26" xlink:href="632E7CC5F0290025.jpg"  transform="matrix(0.5211 0 0 0.3623 148.708 291.8433)">
	</image>
	
		<image overflow="visible" enable-background="new    " width="52" height="26" xlink:href="632E7CC5F0290027.jpg"  transform="matrix(0.5211 0 0 0.3623 112.813 309.4814)">
	</image>
	
		<image overflow="visible" enable-background="new    " width="52" height="26" xlink:href="632E7CC5F0290024.jpg"  transform="matrix(0.5211 0 0 0.3623 148.708 308.7739)">
	</image>
	
		<image overflow="visible" enable-background="new    " width="52" height="26" xlink:href="632E7CC5F0290023.jpg"  transform="matrix(0.5211 0 0 0.3623 112.813 327.0718)">
	</image>
	
		<image overflow="visible" enable-background="new    " width="52" height="26" xlink:href="632E7CC5F029002D.jpg"  transform="matrix(0.5211 0 0 0.3623 148.708 326.3643)">
	</image>
	
		<image overflow="visible" enable-background="new    " width="52" height="26" xlink:href="632E7CC5F029002F.jpg"  transform="matrix(0.5211 0 0 0.3623 112.813 359.918)">
	</image>
	
		<image overflow="visible" enable-background="new    " width="52" height="26" xlink:href="632E7CC5F029002C.jpg"  transform="matrix(0.5211 0 0 0.3623 148.708 359.2104)">
	</image>
	
		<image overflow="visible" enable-background="new    " width="52" height="26" xlink:href="632E7CC5F0290026.jpg"  transform="matrix(0.5211 0 0 0.3623 112.813 343.5693)">
	</image>
	
		<image overflow="visible" enable-background="new    " width="52" height="26" xlink:href="632E7CC5F0290019.jpg"  transform="matrix(0.5211 0 0 0.3623 148.708 342.8618)">
	</image>
	
		<image overflow="visible" enable-background="new    " width="52" height="26" xlink:href="632E7CC5F029001A.jpg"  transform="matrix(0.5211 0 0 0.3623 112.813 377.9961)">
	</image>
	
		<image overflow="visible" enable-background="new    " width="52" height="26" xlink:href="632E7CC5F0290048.jpg"  transform="matrix(0.5211 0 0 0.3623 148.708 377.2881)">
	</image>
	
		<image overflow="visible" enable-background="new    " width="52" height="26" xlink:href="632E7CC5F0290077.jpg"  transform="matrix(0.5211 0 0 0.3623 112.813 413.1211)">
	</image>
	
		<image overflow="visible" enable-background="new    " width="52" height="26" xlink:href="632E7CC5F0290078.jpg"  transform="matrix(0.5211 0 0 0.3623 148.708 412.4141)">
	</image>
	
		<image overflow="visible" enable-background="new    " width="52" height="26" xlink:href="632E7CC5F029007B.jpg"  transform="matrix(0.5211 0 0 0.3623 112.813 430.0518)">
	</image>
	
		<image overflow="visible" enable-background="new    " width="52" height="26" xlink:href="632E7CC5F0290079.jpg"  transform="matrix(0.5211 0 0 0.3623 148.708 429.3438)">
	</image>
	
		<image overflow="visible" enable-background="new    " width="52" height="26" xlink:href="632E7CC5F029007F.jpg"  transform="matrix(0.5211 0 0 0.3623 112.813 447.6426)">
	</image>
	
		<image overflow="visible" enable-background="new    " width="52" height="26" xlink:href="632E7CC5F029007A.jpg"  transform="matrix(0.5211 0 0 0.3623 148.708 446.9346)">
	</image>
	
		<image overflow="visible" enable-background="new    " width="52" height="26" xlink:href="632E7CC5F0290075.jpg"  transform="matrix(0.5211 0 0 0.3623 112.813 480.4883)">
	</image>
	
		<image overflow="visible" enable-background="new    " width="52" height="26" xlink:href="632E7CC5F0290076.jpg"  transform="matrix(0.5211 0 0 0.3623 148.708 479.7812)">
	</image>
	
		<image overflow="visible" enable-background="new    " width="52" height="26" xlink:href="632E7CC5F0290074.jpg"  transform="matrix(0.5211 0 0 0.3623 112.813 464.1396)">
	</image>
	
		<image overflow="visible" enable-background="new    " width="52" height="26" xlink:href="632E7CC5F0290053.jpg"  transform="matrix(0.5211 0 0 0.3623 148.708 463.4316)">
	</image>
	
		<image overflow="visible" enable-background="new    " width="52" height="26" xlink:href="632E7CC5F0290055.jpg"  transform="matrix(0.5211 0 0 0.3623 112.813 498.5664)">
	</image>
	
		<image overflow="visible" enable-background="new    " width="52" height="26" xlink:href="632E7CC5F0290057.jpg"  transform="matrix(0.5211 0 0 0.3623 148.708 497.8584)">
	</image>
	
		<image overflow="visible" enable-background="new    " width="52" height="26" xlink:href="632E7CC5F0290052.jpg"  transform="matrix(0.5211 0 0 0.3623 112.813 533.2441)">
	</image>
	
		<image overflow="visible" enable-background="new    " width="52" height="26" xlink:href="632E7CC5F0290051.jpg"  transform="matrix(0.5211 0 0 0.3623 148.708 532.5371)">
	</image>
	
		<image overflow="visible" enable-background="new    " width="52" height="26" xlink:href="632E7CC5F02900AD.jpg"  transform="matrix(0.5211 0 0 0.3623 112.813 550.1748)">
	</image>
	
		<image overflow="visible" enable-background="new    " width="52" height="26" xlink:href="632E7CC5F02900AF.jpg"  transform="matrix(0.5211 0 0 0.3623 148.708 549.4668)">
	</image>
	
		<image overflow="visible" enable-background="new    " width="52" height="26" xlink:href="632E7CC5F02900B2.jpg"  transform="matrix(0.5211 0 0 0.3623 112.813 567.7656)">
	</image>
	
		<image overflow="visible" enable-background="new    " width="52" height="26" xlink:href="632E7CC5F02900B3.jpg"  transform="matrix(0.5211 0 0 0.3623 148.708 567.0576)">
	</image>
	
		<image overflow="visible" enable-background="new    " width="52" height="26" xlink:href="632E7CC5F02900B5.jpg"  transform="matrix(0.5211 0 0 0.3623 112.813 600.6113)">
	</image>
	
		<image overflow="visible" enable-background="new    " width="52" height="26" xlink:href="632E7CC5F0290092.jpg"  transform="matrix(0.5211 0 0 0.3623 148.708 599.9043)">
	</image>
	
		<image overflow="visible" enable-background="new    " width="52" height="26" xlink:href="632E7CC5F0290095.jpg"  transform="matrix(0.5211 0 0 0.3623 112.813 584.2627)">
	</image>
	
		<image overflow="visible" enable-background="new    " width="52" height="26" xlink:href="632E7CC5F0290096.jpg"  transform="matrix(0.5211 0 0 0.3623 148.708 583.5547)">
	</image>
	
		<image overflow="visible" enable-background="new    " width="52" height="26" xlink:href="632E7CC5F0290094.jpg"  transform="matrix(0.5211 0 0 0.3623 112.813 618.6895)">
	</image>
	
		<image overflow="visible" enable-background="new    " width="52" height="26" xlink:href="632E7CC5F0290093.jpg"  transform="matrix(0.5211 0 0 0.3623 148.708 617.9814)">
	</image>
	
		<image overflow="visible" enable-background="new    " width="52" height="26" xlink:href="632E7CC5F029009D.jpg"  transform="matrix(0.5211 0 0 0.3623 266.998 125.2432)">
	</image>
	
		<image overflow="visible" enable-background="new    " width="52" height="26" xlink:href="632E7CC5F029009E.jpg"  transform="matrix(0.5211 0 0 0.3623 302.8926 124.5356)">
	</image>
	
		<image overflow="visible" enable-background="new    " width="52" height="26" xlink:href="632E7CC5F029009C.jpg"  transform="matrix(0.5211 0 0 0.3623 266.998 142.1738)">
	</image>
	
		<image overflow="visible" enable-background="new    " width="52" height="26" xlink:href="632E7CC5F0290097.jpg"  transform="matrix(0.5211 0 0 0.3623 302.8926 141.4663)">
	</image>
	
		<image overflow="visible" enable-background="new    " width="52" height="26" xlink:href="632E7CC5F02900E9.jpg"  transform="matrix(0.5211 0 0 0.3623 266.998 159.7642)">
	</image>
	
		<image overflow="visible" enable-background="new    " width="52" height="26" xlink:href="632E7CC5F02900F9.jpg"  transform="matrix(0.5211 0 0 0.3623 302.8926 159.0566)">
	</image>
	
		<image overflow="visible" enable-background="new    " width="52" height="26" xlink:href="632E7CC5F02900FB.jpg"  transform="matrix(0.5211 0 0 0.3623 266.998 192.6104)">
	</image>
	
		<image overflow="visible" enable-background="new    " width="52" height="26" xlink:href="632E7CC5F02900F8.jpg"  transform="matrix(0.5211 0 0 0.3623 302.8926 191.9028)">
	</image>
	
		<image overflow="visible" enable-background="new    " width="52" height="26" xlink:href="632E7CC5F02900F7.jpg"  transform="matrix(0.5211 0 0 0.3623 266.998 176.2617)">
	</image>
	
		<image overflow="visible" enable-background="new    " width="52" height="26" xlink:href="632E7CC5F0290089.jpg"  transform="matrix(0.5211 0 0 0.3623 302.8926 175.5542)">
	</image>
	
		<image overflow="visible" enable-background="new    " width="52" height="26" xlink:href="632E7CC5F029008B.jpg"  transform="matrix(0.5211 0 0 0.3623 266.998 210.688)">
	</image>
	
		<image overflow="visible" enable-background="new    " width="52" height="26" xlink:href="632E7CC5F0290088.jpg"  transform="matrix(0.5211 0 0 0.3623 302.8926 209.9805)">
	</image>
	
		<image overflow="visible" enable-background="new    " width="52" height="26" xlink:href="632E7CC5F029008F.jpg"  transform="matrix(0.5211 0 0 0.3623 266.998 227.6187)">
	</image>
	
		<image overflow="visible" enable-background="new    " width="52" height="26" xlink:href="632E7CC5F029008A.jpg"  transform="matrix(0.5211 0 0 0.3623 302.8926 226.9111)">
	</image>
	
		<image overflow="visible" enable-background="new    " width="52" height="26" xlink:href="632E7CC5F0290086.jpg"  transform="matrix(0.5211 0 0 0.3623 266.998 245.209)">
	</image>
	
		<image overflow="visible" enable-background="new    " width="52" height="26" xlink:href="632E7CC5F02900AC.jpg"  transform="matrix(0.5211 0 0 0.3623 302.8926 244.5015)">
	</image>
	
		<image overflow="visible" enable-background="new    " width="52" height="26" xlink:href="632E7CC5F02900A3.jpg"  transform="matrix(0.5211 0 0 0.3623 266.998 261.7065)">
	</image>
	
		<image overflow="visible" enable-background="new    " width="52" height="26" xlink:href="632E7CC5F02900A4.jpg"  transform="matrix(0.5211 0 0 0.3623 302.8926 260.999)">
	</image>
	
		<image overflow="visible" enable-background="new    " width="52" height="26" xlink:href="632E7CC5F02900A7.jpg"  transform="matrix(0.5211 0 0 0.3623 266.998 293.3223)">
	</image>
	
		<image overflow="visible" enable-background="new    " width="52" height="26" xlink:href="632E7CC5F02900A5.jpg"  transform="matrix(0.5211 0 0 0.3623 302.8926 292.6147)">
	</image>
	
		<image overflow="visible" enable-background="new    " width="52" height="26" xlink:href="632E7CC5F02900A2.jpg"  transform="matrix(0.5211 0 0 0.3623 266.998 310.2529)">
	</image>
	
		<image overflow="visible" enable-background="new    " width="52" height="26" xlink:href="632E7CC5F02900BC.jpg"  transform="matrix(0.5211 0 0 0.3623 302.8926 309.5454)">
	</image>
	
		<image overflow="visible" enable-background="new    " width="52" height="26" xlink:href="632E7CC5F02900BF.jpg"  transform="matrix(0.5211 0 0 0.3623 266.998 327.8433)">
	</image>
	
		<image overflow="visible" enable-background="new    " width="52" height="26" xlink:href="632E7CC5F02900BD.jpg"  transform="matrix(0.5211 0 0 0.3623 302.8926 327.1357)">
	</image>
	
		<image overflow="visible" enable-background="new    " width="52" height="26" xlink:href="632E7CC5F02900A1.jpg"  transform="matrix(0.5211 0 0 0.3623 266.998 360.6895)">
	</image>
	
		<image overflow="visible" enable-background="new    " width="52" height="26" xlink:href="632E7CC5F029015F.jpg"  transform="matrix(0.5211 0 0 0.3623 302.8926 359.9819)">
	</image>
	
		<image overflow="visible" enable-background="new    " width="52" height="26" xlink:href="632E7CC5F0290141.jpg"  transform="matrix(0.5211 0 0 0.3623 266.998 344.3408)">
	</image>
	
		<image overflow="visible" enable-background="new    " width="52" height="26" xlink:href="632E7CC5F0290143.jpg"  transform="matrix(0.5211 0 0 0.3623 302.8926 343.6333)">
	</image>
	
		<image overflow="visible" enable-background="new    " width="52" height="26" xlink:href="632E7CC5F0290146.jpg"  transform="matrix(0.5211 0 0 0.3623 266.998 378.7676)">
	</image>
	
		<image overflow="visible" enable-background="new    " width="52" height="26" xlink:href="632E7CC5F0290147.jpg"  transform="matrix(0.5211 0 0 0.3623 302.8926 378.0596)">
	</image>
	
		<image overflow="visible" enable-background="new    " width="52" height="26" xlink:href="632E7CC5F0290142.jpg"  transform="matrix(0.5211 0 0 0.3623 266.998 413.8926)">
	</image>
	
		<image overflow="visible" enable-background="new    " width="52" height="26" xlink:href="632E7CC5F029014D.jpg"  transform="matrix(0.5211 0 0 0.3623 302.8926 413.1855)">
	</image>
	
		<image overflow="visible" enable-background="new    " width="52" height="26" xlink:href="632E7CC5F029014E.jpg"  transform="matrix(0.5211 0 0 0.3623 266.998 430.8232)">
	</image>
	
		<image overflow="visible" enable-background="new    " width="52" height="26" xlink:href="632E7CC5F029014F.jpg"  transform="matrix(0.5211 0 0 0.3623 302.8926 430.1152)">
	</image>
	
		<image overflow="visible" enable-background="new    " width="52" height="26" xlink:href="632E7CC5F0290144.jpg"  transform="matrix(0.5211 0 0 0.3623 266.998 448.4141)">
	</image>
	
		<image overflow="visible" enable-background="new    " width="52" height="26" xlink:href="632E7CC5F029016E.jpg"  transform="matrix(0.5211 0 0 0.3623 302.8926 447.7061)">
	</image>
	
		<image overflow="visible" enable-background="new    " width="52" height="26" xlink:href="632E7CC5F0290169.jpg"  transform="matrix(0.5211 0 0 0.3623 266.998 481.2598)">
	</image>
	
		<image overflow="visible" enable-background="new    " width="52" height="26" xlink:href="632E7CC5F029016A.jpg"  transform="matrix(0.5211 0 0 0.3623 302.8926 480.5527)">
	</image>
	
		<image overflow="visible" enable-background="new    " width="52" height="26" xlink:href="632E7CC5F0290168.jpg"  transform="matrix(0.5211 0 0 0.3623 266.998 464.9111)">
	</image>
	
		<image overflow="visible" enable-background="new    " width="52" height="26" xlink:href="632E7CC5F0290166.jpg"  transform="matrix(0.5211 0 0 0.3623 302.8926 464.2031)">
	</image>
	
		<image overflow="visible" enable-background="new    " width="52" height="26" xlink:href="632E7CC5F0290159.jpg"  transform="matrix(0.5211 0 0 0.3623 266.998 499.3379)">
	</image>
	
		<image overflow="visible" enable-background="new    " width="52" height="26" xlink:href="632E7CC5F029015A.jpg"  transform="matrix(0.5211 0 0 0.3623 302.8926 498.6299)">
	</image>
	
		<image overflow="visible" enable-background="new    " width="52" height="26" xlink:href="632E7CC5F0290158.jpg"  transform="matrix(0.5211 0 0 0.3623 266.998 534.0156)">
	</image>
	
		<image overflow="visible" enable-background="new    " width="52" height="26" xlink:href="632E7CC5F029015E.jpg"  transform="matrix(0.5211 0 0 0.3623 302.8926 533.3086)">
	</image>
	
		<image overflow="visible" enable-background="new    " width="52" height="26" xlink:href="632E7CC5F029015B.jpg"  transform="matrix(0.5211 0 0 0.3623 266.998 550.9463)">
	</image>
	
		<image overflow="visible" enable-background="new    " width="52" height="26" xlink:href="55B8089BB5ED0188.jpg"  transform="matrix(0.5211 0 0 0.3623 302.8926 550.2383)">
	</image>
	
		<image overflow="visible" enable-background="new    " width="52" height="26" xlink:href="55B8089BB5ED018B.jpg"  transform="matrix(0.5211 0 0 0.3623 266.998 568.5371)">
	</image>
	
		<image overflow="visible" enable-background="new    " width="52" height="26" xlink:href="55B8089BB5ED0189.jpg"  transform="matrix(0.5211 0 0 0.3623 302.8926 567.8291)">
	</image>
	
		<image overflow="visible" enable-background="new    " width="52" height="26" xlink:href="55B8089BB5ED0187.jpg"  transform="matrix(0.5211 0 0 0.3623 266.998 601.3828)">
	</image>
	
		<image overflow="visible" enable-background="new    " width="52" height="26" xlink:href="55B8089BB5ED0198.jpg"  transform="matrix(0.5211 0 0 0.3623 302.8926 600.6758)">
	</image>
	
		<image overflow="visible" enable-background="new    " width="52" height="26" xlink:href="55B8089BB5ED019B.jpg"  transform="matrix(0.5211 0 0 0.3623 266.998 585.0342)">
	</image>
	
		<image overflow="visible" enable-background="new    " width="52" height="26" xlink:href="55B8089BB5ED0199.jpg"  transform="matrix(0.5211 0 0 0.3623 302.8926 584.3262)">
	</image>
	
		<image overflow="visible" enable-background="new    " width="52" height="26" xlink:href="55B8089BB5ED019F.jpg"  transform="matrix(0.5211 0 0 0.3623 266.998 619.4609)">
	</image>
	
		<image overflow="visible" enable-background="new    " width="52" height="26" xlink:href="55B8089BB5ED019A.jpg"  transform="matrix(0.5211 0 0 0.3623 302.8926 618.7529)">
	</image>
	<rect x="134.5" y="30.5" fill="none" width="228" height="30"/>
	<text transform="matrix(1 0 0 1 134.5 46.3398)" font-family="'KozGoPr6N-Regular-83pv-RKSJ-H'" font-size="18">生産工学棟３F  CAD室</text>
</g>
<g id="レイヤー_2">
	
		<image overflow="visible" enable-background="new    " width="48" height="23" xlink:href="55B8089BB5ED0185.jpg"  transform="matrix(0.5759 0 0 0.4666 112.2891 124.0449)">
	</image>
	
		<image overflow="visible" enable-background="new    " width="48" height="23" xlink:href="55B8089BB5ED027F.jpg"  transform="matrix(0.5759 0 0 0.4666 148.4321 124.0449)">
	</image>
	
		<image overflow="visible" enable-background="new    " width="48" height="23" xlink:href="55B8089BB5ED027D.jpg"  transform="matrix(0.5759 0 0 0.4666 112.2891 140.3931)">
	</image>
	
		<image overflow="visible" enable-background="new    " width="48" height="23" xlink:href="55B8089BB5ED0263.jpg"  transform="matrix(0.5759 0 0 0.4666 148.4321 140.3931)">
	</image>
	
		<image overflow="visible" enable-background="new    " width="48" height="23" xlink:href="55B8089BB5ED0265.jpg"  transform="matrix(0.5759 0 0 0.4666 112.2891 157.9834)">
	</image>
	
		<image overflow="visible" enable-background="new    " width="48" height="23" xlink:href="55B8089BB5ED0267.jpg"  transform="matrix(0.5759 0 0 0.4666 148.4321 157.9834)">
	</image>
	
		<image overflow="visible" enable-background="new    " width="48" height="23" xlink:href="55B8089BB5ED0262.jpg"  transform="matrix(0.5759 0 0 0.4666 112.2891 174.71)">
	</image>
	
		<image overflow="visible" enable-background="new    " width="48" height="23" xlink:href="55B8089BB5ED0261.jpg"  transform="matrix(0.5759 0 0 0.4666 148.4321 174.71)">
	</image>
	
		<image overflow="visible" enable-background="new    " width="48" height="23" xlink:href="55B8089BB5ED026D.jpg"  transform="matrix(0.5759 0 0 0.4666 112.2891 191.0586)">
	</image>
	
		<image overflow="visible" enable-background="new    " width="48" height="23" xlink:href="55B8089BB5ED026F.jpg"  transform="matrix(0.5759 0 0 0.4666 148.4321 191.0586)">
	</image>
	
		<image overflow="visible" enable-background="new    " width="48" height="23" xlink:href="55B8089BB5ED0260.jpg"  transform="matrix(0.5759 0 0 0.4666 112.2891 208.6494)">
	</image>
	
		<image overflow="visible" enable-background="new    " width="48" height="23" xlink:href="55B8089BB5ED024E.jpg"  transform="matrix(0.5759 0 0 0.4666 148.4321 208.6494)">
	</image>
	
		<image overflow="visible" enable-background="new    " width="48" height="23" xlink:href="55B8089BB5ED024D.jpg"  transform="matrix(0.5759 0 0 0.4666 112.2891 226.4712)">
	</image>
	
		<image overflow="visible" enable-background="new    " width="48" height="23" xlink:href="55B8089BB5ED0242.jpg"  transform="matrix(0.5759 0 0 0.4666 148.4321 226.4712)">
	</image>
	
		<image overflow="visible" enable-background="new    " width="48" height="23" xlink:href="55B8089BB5ED0245.jpg"  transform="matrix(0.5759 0 0 0.4666 112.2891 242.8198)">
	</image>
	
		<image overflow="visible" enable-background="new    " width="48" height="23" xlink:href="55B8089BB5ED0246.jpg"  transform="matrix(0.5759 0 0 0.4666 148.4321 242.8198)">
	</image>
	
		<image overflow="visible" enable-background="new    " width="48" height="23" xlink:href="55B8089BB5ED0244.jpg"  transform="matrix(0.5759 0 0 0.4666 112.2891 260.4102)">
	</image>
	
		<image overflow="visible" enable-background="new    " width="48" height="23" xlink:href="55B8089BB5ED0243.jpg"  transform="matrix(0.5759 0 0 0.4666 148.4321 260.4102)">
	</image>
	
		<image overflow="visible" enable-background="new    " width="48" height="23" xlink:href="55B8089BB5ED02BD.jpg"  transform="matrix(0.5759 0 0 0.4666 112.2891 292.9878)">
	</image>
	
		<image overflow="visible" enable-background="new    " width="48" height="23" xlink:href="55B8089BB5ED02BE.jpg"  transform="matrix(0.5759 0 0 0.4666 148.4321 292.9878)">
	</image>
	
		<image overflow="visible" enable-background="new    " width="48" height="23" xlink:href="55B8089BB5ED02BC.jpg"  transform="matrix(0.5759 0 0 0.4666 112.2891 309.3359)">
	</image>
	
		<image overflow="visible" enable-background="new    " width="48" height="23" xlink:href="55B8089BB5ED02D9.jpg"  transform="matrix(0.5759 0 0 0.4666 148.4321 309.3359)">
	</image>
	
		<image overflow="visible" enable-background="new    " width="48" height="23" xlink:href="55B8089BB5ED02DF.jpg"  transform="matrix(0.5759 0 0 0.4666 112.2891 326.9268)">
	</image>
	
		<image overflow="visible" enable-background="new    " width="48" height="23" xlink:href="55B8089BB5ED02D8.jpg"  transform="matrix(0.5759 0 0 0.4666 148.4321 326.9268)">
	</image>
	
		<image overflow="visible" enable-background="new    " width="48" height="23" xlink:href="55B8089BB5ED02DB.jpg"  transform="matrix(0.5759 0 0 0.4666 112.2891 343.6538)">
	</image>
	
		<image overflow="visible" enable-background="new    " width="48" height="23" xlink:href="55B8089BB5ED02D7.jpg"  transform="matrix(0.5759 0 0 0.4666 148.4321 343.6538)">
	</image>
	
		<image overflow="visible" enable-background="new    " width="48" height="23" xlink:href="55B8089BB5ED02E7.jpg"  transform="matrix(0.5759 0 0 0.4666 112.2891 360.002)">
	</image>
	
		<image overflow="visible" enable-background="new    " width="48" height="23" xlink:href="55B8089BB5ED02E9.jpg"  transform="matrix(0.5759 0 0 0.4666 148.4321 360.002)">
	</image>
	
		<image overflow="visible" enable-background="new    " width="48" height="23" xlink:href="55B8089BB5ED02EB.jpg"  transform="matrix(0.5759 0 0 0.4666 112.2891 377.5918)">
	</image>
	
		<image overflow="visible" enable-background="new    " width="48" height="23" xlink:href="55B8089BB5ED02E8.jpg"  transform="matrix(0.5759 0 0 0.4666 148.4321 377.5918)">
	</image>
	
		<image overflow="visible" enable-background="new    " width="48" height="23" xlink:href="55B8089BB5ED02EF.jpg"  transform="matrix(0.5759 0 0 0.4666 112.2891 411.4141)">
	</image>
	
		<image overflow="visible" enable-background="new    " width="48" height="23" xlink:href="55B8089BB5ED020C.jpg"  transform="matrix(0.5759 0 0 0.4666 148.4321 411.4141)">
	</image>
	
		<image overflow="visible" enable-background="new    " width="48" height="23" xlink:href="55B8089BB5ED020F.jpg"  transform="matrix(0.5759 0 0 0.4666 112.2891 427.7637)">
	</image>
	
		<image overflow="visible" enable-background="new    " width="48" height="23" xlink:href="55B8089BB5ED020D.jpg"  transform="matrix(0.5759 0 0 0.4666 148.4321 427.7637)">
	</image>
	
		<image overflow="visible" enable-background="new    " width="48" height="23" xlink:href="55B8089BB5ED0213.jpg"  transform="matrix(0.5759 0 0 0.4666 112.2891 445.3535)">
	</image>
	
		<image overflow="visible" enable-background="new    " width="48" height="23" xlink:href="55B8089BB5ED0214.jpg"  transform="matrix(0.5759 0 0 0.4666 148.4321 445.3535)">
	</image>
	
		<image overflow="visible" enable-background="new    " width="48" height="23" xlink:href="55B8089BB5ED0217.jpg"  transform="matrix(0.5759 0 0 0.4666 112.5376 464.9883)">
	</image>
	
		<image overflow="visible" enable-background="new    " width="48" height="23" xlink:href="55B8089BB5ED0215.jpg"  transform="matrix(0.5759 0 0 0.4666 148.6802 464.9883)">
	</image>
	
		<image overflow="visible" enable-background="new    " width="48" height="23" xlink:href="55B8089BB5ED0212.jpg"  transform="matrix(0.5759 0 0 0.4666 112.5376 481.3359)">
	</image>
	
		<image overflow="visible" enable-background="new    " width="48" height="23" xlink:href="55B8089BB5ED021C.jpg"  transform="matrix(0.5759 0 0 0.4666 148.6802 481.3359)">
	</image>
	
		<image overflow="visible" enable-background="new    " width="48" height="23" xlink:href="55B8089BB5ED021F.jpg"  transform="matrix(0.5759 0 0 0.4666 112.5376 498.9258)">
	</image>
	
		<image overflow="visible" enable-background="new    " width="48" height="23" xlink:href="55B8089BB5ED0233.jpg"  transform="matrix(0.5759 0 0 0.4666 148.6802 498.9258)">
	</image>
	
		<image overflow="visible" enable-background="new    " width="48" height="23" xlink:href="55B8089BB5ED0231.jpg"  transform="matrix(0.5759 0 0 0.4666 112.5376 532.6543)">
	</image>
	
		<image overflow="visible" enable-background="new    " width="48" height="23" xlink:href="55B8089BB5ED023F.jpg"  transform="matrix(0.5759 0 0 0.4666 148.6802 532.6543)">
	</image>
	
		<image overflow="visible" enable-background="new    " width="48" height="23" xlink:href="55B8089BB5ED0232.jpg"  transform="matrix(0.5759 0 0 0.4666 112.5376 549.002)">
	</image>
	
		<image overflow="visible" enable-background="new    " width="48" height="23" xlink:href="55B8089BB5ED0235.jpg"  transform="matrix(0.5759 0 0 0.4666 148.6802 549.002)">
	</image>
	
		<image overflow="visible" enable-background="new    " width="48" height="23" xlink:href="55B8089BB5ED0236.jpg"  transform="matrix(0.5759 0 0 0.4666 112.5376 566.5918)">
	</image>
	
		<image overflow="visible" enable-background="new    " width="48" height="23" xlink:href="55B8089BB5ED0237.jpg"  transform="matrix(0.5759 0 0 0.4666 148.6802 566.5918)">
	</image>
	
		<image overflow="visible" enable-background="new    " width="48" height="23" xlink:href="55B8089BB5ED020E.jpg"  transform="matrix(0.5759 0 0 0.4666 112.5376 584.4141)">
	</image>
	
		<image overflow="visible" enable-background="new    " width="48" height="23" xlink:href="55B8089BB5ED0209.jpg"  transform="matrix(0.5759 0 0 0.4666 148.6802 584.4141)">
	</image>
	
		<image overflow="visible" enable-background="new    " width="48" height="23" xlink:href="55B8089BB5ED020A.jpg"  transform="matrix(0.5759 0 0 0.4666 112.5376 600.7637)">
	</image>
	
		<image overflow="visible" enable-background="new    " width="48" height="23" xlink:href="55B8089BB5ED026A.jpg"  transform="matrix(0.5759 0 0 0.4666 148.6802 600.7637)">
	</image>
	
		<image overflow="visible" enable-background="new    " width="48" height="23" xlink:href="55B8089BB5ED0269.jpg"  transform="matrix(0.5759 0 0 0.4666 112.5376 618.3535)">
	</image>
	
		<image overflow="visible" enable-background="new    " width="48" height="23" xlink:href="55B8089BB5ED026E.jpg"  transform="matrix(0.5759 0 0 0.4666 148.6802 618.3535)">
	</image>
	
		<image overflow="visible" enable-background="new    " width="48" height="23" xlink:href="55B8089BB5ED0268.jpg"  transform="matrix(0.5759 0 0 0.4666 266.4746 123.8159)">
	</image>
	
		<image overflow="visible" enable-background="new    " width="48" height="23" xlink:href="55B8089BB5ED026B.jpg"  transform="matrix(0.5759 0 0 0.4666 302.6172 123.8159)">
	</image>
	
		<image overflow="visible" enable-background="new    " width="48" height="23" xlink:href="55B8089BB5ED0266.jpg"  transform="matrix(0.5759 0 0 0.4666 266.4746 140.1641)">
	</image>
	
		<image overflow="visible" enable-background="new    " width="48" height="23" xlink:href="55B8089BB5ED0276.jpg"  transform="matrix(0.5759 0 0 0.4666 302.6172 140.1641)">
	</image>
	
		<image overflow="visible" enable-background="new    " width="48" height="23" xlink:href="55B8089BB5ED0279.jpg"  transform="matrix(0.5759 0 0 0.4666 266.4746 157.7544)">
	</image>
	
		<image overflow="visible" enable-background="new    " width="48" height="23" xlink:href="55B8089BB5ED027A.jpg"  transform="matrix(0.5759 0 0 0.4666 302.6172 157.7544)">
	</image>
	
		<image overflow="visible" enable-background="new    " width="48" height="23" xlink:href="55B8089BB5ED0278.jpg"  transform="matrix(0.5759 0 0 0.4666 266.4746 174.481)">
	</image>
	
		<image overflow="visible" enable-background="new    " width="48" height="23" xlink:href="55B8089BB5ED0241.jpg"  transform="matrix(0.5759 0 0 0.4666 302.6172 174.481)">
	</image>
	
		<image overflow="visible" enable-background="new    " width="48" height="23" xlink:href="55B8089BB5ED025B.jpg"  transform="matrix(0.5759 0 0 0.4666 266.4746 190.8296)">
	</image>
	
		<image overflow="visible" enable-background="new    " width="48" height="23" xlink:href="55B8089BB5ED025D.jpg"  transform="matrix(0.5759 0 0 0.4666 302.6172 190.8296)">
	</image>
	
		<image overflow="visible" enable-background="new    " width="48" height="23" xlink:href="55B8089BB5ED025F.jpg"  transform="matrix(0.5759 0 0 0.4666 266.4746 208.4204)">
	</image>
	
		<image overflow="visible" enable-background="new    " width="48" height="23" xlink:href="55B8089BB5ED025C.jpg"  transform="matrix(0.5759 0 0 0.4666 302.6172 208.4204)">
	</image>
	
		<image overflow="visible" enable-background="new    " width="48" height="23" xlink:href="55B8089BB5ED0247.jpg"  transform="matrix(0.5759 0 0 0.4666 266.4746 226.2422)">
	</image>
	
		<image overflow="visible" enable-background="new    " width="48" height="23" xlink:href="55B8089BB5ED0240.jpg"  transform="matrix(0.5759 0 0 0.4666 302.6172 226.2422)">
	</image>
	
		<image overflow="visible" enable-background="new    " width="48" height="23" xlink:href="55B8089BB5ED024F.jpg"  transform="matrix(0.5759 0 0 0.4666 266.4746 242.5908)">
	</image>
	
		<image overflow="visible" enable-background="new    " width="48" height="23" xlink:href="55B8089BB5ED024C.jpg"  transform="matrix(0.5759 0 0 0.4666 302.6172 242.5908)">
	</image>
	
		<image overflow="visible" enable-background="new    " width="48" height="23" xlink:href="55B8089BB5ED024B.jpg"  transform="matrix(0.5759 0 0 0.4666 266.4746 260.1812)">
	</image>
	
		<image overflow="visible" enable-background="new    " width="48" height="23" xlink:href="55B8089BB5ED03A0.jpg"  transform="matrix(0.5759 0 0 0.4666 302.6172 260.1812)">
	</image>
	
		<image overflow="visible" enable-background="new    " width="48" height="23" xlink:href="55B8089BB5ED03A3.jpg"  transform="matrix(0.5759 0 0 0.4666 266.4746 292.7588)">
	</image>
	
		<image overflow="visible" enable-background="new    " width="48" height="23" xlink:href="55B8089BB5ED03A1.jpg"  transform="matrix(0.5759 0 0 0.4666 302.6172 292.7588)">
	</image>
	
		<image overflow="visible" enable-background="new    " width="48" height="23" xlink:href="55B8089BB5ED03AF.jpg"  transform="matrix(0.5759 0 0 0.4666 266.4746 309.1069)">
	</image>
	
		<image overflow="visible" enable-background="new    " width="48" height="23" xlink:href="55B8089BB5ED03A2.jpg"  transform="matrix(0.5759 0 0 0.4666 302.6172 309.1069)">
	</image>
	
		<image overflow="visible" enable-background="new    " width="48" height="23" xlink:href="55B8089BB5ED03A5.jpg"  transform="matrix(0.5759 0 0 0.4666 266.4746 326.6978)">
	</image>
	
		<image overflow="visible" enable-background="new    " width="48" height="23" xlink:href="55B8089BB5ED03A6.jpg"  transform="matrix(0.5759 0 0 0.4666 302.6172 326.6978)">
	</image>
	
		<image overflow="visible" enable-background="new    " width="48" height="23" xlink:href="55B8089BB5ED03A7.jpg"  transform="matrix(0.5759 0 0 0.4666 266.4746 343.4253)">
	</image>
	
		<image overflow="visible" enable-background="new    " width="48" height="23" xlink:href="55B8089BB5ED03DC.jpg"  transform="matrix(0.5759 0 0 0.4666 302.6172 343.4253)">
	</image>
	
		<image overflow="visible" enable-background="new    " width="48" height="23" xlink:href="55B8089BB5ED03DD.jpg"  transform="matrix(0.5759 0 0 0.4666 266.4746 359.7729)">
	</image>
	
		<image overflow="visible" enable-background="new    " width="48" height="23" xlink:href="55B8089BB5ED0387.jpg"  transform="matrix(0.5759 0 0 0.4666 302.6172 359.7729)">
	</image>
	
		<image overflow="visible" enable-background="new    " width="48" height="23" xlink:href="55B8089BB5ED0385.jpg"  transform="matrix(0.5759 0 0 0.4666 266.4746 377.3633)">
	</image>
	
		<image overflow="visible" enable-background="new    " width="48" height="23" xlink:href="55B8089BB5ED03FB.jpg"  transform="matrix(0.5759 0 0 0.4666 302.6172 377.3633)">
	</image>
	
		<image overflow="visible" enable-background="new    " width="48" height="23" xlink:href="55B8089BB5ED03FD.jpg"  transform="matrix(0.5759 0 0 0.4666 266.4746 411.1855)">
	</image>
	
		<image overflow="visible" enable-background="new    " width="48" height="23" xlink:href="55B8089BB5ED03FF.jpg"  transform="matrix(0.5759 0 0 0.4666 302.6172 411.1855)">
	</image>
	
		<image overflow="visible" enable-background="new    " width="48" height="23" xlink:href="55B8089BB5ED03FA.jpg"  transform="matrix(0.5759 0 0 0.4666 266.4746 427.5352)">
	</image>
	
		<image overflow="visible" enable-background="new    " width="48" height="23" xlink:href="55B8089BB5ED03F9.jpg"  transform="matrix(0.5759 0 0 0.4666 302.6172 427.5352)">
	</image>
	
		<image overflow="visible" enable-background="new    " width="48" height="23" xlink:href="55B8089BB5ED0386.jpg"  transform="matrix(0.5759 0 0 0.4666 266.4746 445.125)">
	</image>
	
		<image overflow="visible" enable-background="new    " width="48" height="23" xlink:href="55B8089BB5ED0389.jpg"  transform="matrix(0.5759 0 0 0.4666 302.6172 445.125)">
	</image>
	
		<image overflow="visible" enable-background="new    " width="48" height="23" xlink:href="55B8089BB5ED038A.jpg"  transform="matrix(0.5759 0 0 0.4666 266.7227 464.7598)">
	</image>
	
		<image overflow="visible" enable-background="new    " width="48" height="23" xlink:href="55B8089BB5ED078D.jpg"  transform="matrix(0.5759 0 0 0.4666 302.8652 464.7598)">
	</image>
	
		<image overflow="visible" enable-background="new    " width="48" height="23" xlink:href="55B8089BB5ED078F.jpg"  transform="matrix(0.5759 0 0 0.4666 266.7227 481.1074)">
	</image>
	
		<image overflow="visible" enable-background="new    " width="48" height="23" xlink:href="55B8089BB5ED078C.jpg"  transform="matrix(0.5759 0 0 0.4666 302.8652 481.1074)">
	</image>
	
		<image overflow="visible" enable-background="new    " width="48" height="23" xlink:href="55B8089BB5ED0783.jpg"  transform="matrix(0.5759 0 0 0.4666 266.7227 498.6973)">
	</image>
	
		<image overflow="visible" enable-background="new    " width="48" height="23" xlink:href="55B8089BB5ED0785.jpg"  transform="matrix(0.5759 0 0 0.4666 302.8652 498.6973)">
	</image>
	
		<image overflow="visible" enable-background="new    " width="48" height="23" xlink:href="55B8089BB5ED0787.jpg"  transform="matrix(0.5759 0 0 0.4666 266.7227 532.4258)">
	</image>
	
		<image overflow="visible" enable-background="new    " width="48" height="23" xlink:href="55B8089BB5ED0784.jpg"  transform="matrix(0.5759 0 0 0.4666 302.8652 532.4258)">
	</image>
	
		<image overflow="visible" enable-background="new    " width="48" height="23" xlink:href="55B8089BB5ED079C.jpg"  transform="matrix(0.5759 0 0 0.4666 266.7227 548.7734)">
	</image>
	
		<image overflow="visible" enable-background="new    " width="48" height="23" xlink:href="55B8089BB5ED079D.jpg"  transform="matrix(0.5759 0 0 0.4666 302.8652 548.7734)">
	</image>
	
		<image overflow="visible" enable-background="new    " width="48" height="23" xlink:href="55B8089BB5ED079F.jpg"  transform="matrix(0.5759 0 0 0.4666 266.7227 566.3633)">
	</image>
	
		<image overflow="visible" enable-background="new    " width="48" height="23" xlink:href="55B8089BB5ED07B8.jpg"  transform="matrix(0.5759 0 0 0.4666 302.8652 566.3633)">
	</image>
	
		<image overflow="visible" enable-background="new    " width="48" height="23" xlink:href="55B8089BB5ED07BF.jpg"  transform="matrix(0.5759 0 0 0.4666 266.7227 584.1855)">
	</image>
	
		<image overflow="visible" enable-background="new    " width="48" height="23" xlink:href="55B8089BB5ED07B9.jpg"  transform="matrix(0.5759 0 0 0.4666 302.8652 584.1855)">
	</image>
	
		<image overflow="visible" enable-background="new    " width="48" height="23" xlink:href="55B8089BB5ED07BB.jpg"  transform="matrix(0.5759 0 0 0.4666 266.7227 600.5352)">
	</image>
	
		<image overflow="visible" enable-background="new    " width="48" height="23" xlink:href="55B8089BB5ED07B6.jpg"  transform="matrix(0.5759 0 0 0.4666 302.8652 600.5352)">
	</image>
	
		<image overflow="visible" enable-background="new    " width="48" height="23" xlink:href="55B8089BB5ED07B7.jpg"  transform="matrix(0.5759 0 0 0.4666 266.7227 618.125)">
	</image>
	
		<image overflow="visible" enable-background="new    " width="48" height="23" xlink:href="55B8089BB5ED07A8.jpg"  transform="matrix(0.5759 0 0 0.4666 302.8652 618.125)">
	</image>
</g>
</svg>
