<?xml version="1.0" encoding="utf-8"?>
<!-- Generator: Adobe Illustrator 16.0.0, SVG Export Plug-In . SVG Version: 6.00 Build 0)  -->
<!DOCTYPE svg PUBLIC "-//W3C//DTD SVG 1.1//EN" "http://www.w3.org/Graphics/SVG/1.1/DTD/svg11.dtd">
<svg version="1.1" id="レイヤー_1" xmlns="http://www.w3.org/2000/svg" xmlns:xlink="http://www.w3.org/1999/xlink" x="0px"
  y="0px" width="480px" height="720px" viewBox="0 0 480 720" xml:space="preserve">
<g id="ajax_loader">
  <image xlink:href="ajax-loader.gif" width="32" height="32" x="100" y="100"/>
</g>
<g id="pc_map" style="display:none">
  <rect x="169.073" y="32.649" fill="none" width="176.909" height="25.974"/>
  <text transform="matrix(1 0 0 1 169.0732 48.0312)" font-family="'KozGoPr6N-Regular-83pv-RKSJ-H'" font-size="18" id="room_id"/>
  <rect x="62.429" y="91.688" fill="none" stroke="#000000" stroke-width="3" stroke-miterlimit="10" width="366.233" height="507.792"/>
  <rect x="54.636" y="486.961" fill="#FFFFFF" stroke="#FFFFFF" stroke-miterlimit="10" width="16.883" height="40.26"/>
  <rect x="98.517" y="518.13" fill="none" width="31.168" height="18.183"/>
  <rect x="199.078" y="148.832" fill="none" width="128.571" height="15.584"/>
<g id="japanese_words">
  <text transform="matrix(1 0 0 1 98.5166 530.4502)" font-family="'KozGoPr6N-Regular-83pv-RKSJ-H'" font-size="14">入口</text>
  <text transform="matrix(1 0 0 1 199.0776 159.3916)" font-family="'KozGoPr6N-Regular-83pv-RKSJ-H'" font-size="12">ホワイトボード</text>
</g>
<g id="english_words" style="display:none">
  <text transform="matrix(1 0 0 1 98.5166 530.4502)" font-family="'KozGoPr6N-Regular-83pv-RKSJ-H'" font-size="14">Entrance</text>
  <text transform="matrix(1 0 0 1 199.0776 159.3916)" font-family="'KozGoPr6N-Regular-83pv-RKSJ-H'" font-size="12">White Board</text>
</g>
<g id="off">
  <image id="pc_1_off" overflow="visible" width="51" height="26" xlink:href="off.jpg"  transform="matrix(0.4444 0 0 0.8889 100.481 244.084)" />
  <image id="pc_51_off" overflow="visible" width="51" height="26" xlink:href="off.jpg"  transform="matrix(0.4444 0 0 0.8889 165.8911 206.7559)" />
  <image id="pc_2_off" overflow="visible" width="51" height="26" xlink:href="off.jpg"  transform="matrix(0.4444 0 0 0.8889 132.7729 244.0845)" />
  <image id="pc_3_off" overflow="visible" width="51" height="26" xlink:href="off.jpg"  transform="matrix(0.4444 0 0 0.8889 165.8916 244.3271)"  />
  <image id="pc_4_off" overflow="visible" width="51" height="26" xlink:href="off.jpg"  transform="matrix(0.4444 0 0 0.8889 200.1235 244.0845)"  />
  <image id="pc_5_off" overflow="visible" width="51" height="26" xlink:href="off.jpg"  transform="matrix(0.4444 0 0 0.8889 103.272 285.5435)"  />
  <image id="pc_6_off" overflow="visible" width="51" height="26" xlink:href="off.jpg"  transform="matrix(0.4444 0 0 0.8889 135.5786 285.5439)"  />
  <image id="pc_7_off" overflow="visible" width="51" height="26" xlink:href="off.jpg"  transform="matrix(0.4444 0 0 0.8889 168.6826 285.7866)"  />
  <image id="pc_8_off" overflow="visible" width="51" height="26" xlink:href="off.jpg"  transform="matrix(0.4444 0 0 0.8889 202.9146 285.5439)"  />
  <image id="pc_9_off" overflow="visible" width="51" height="26" xlink:href="off.jpg"  transform="matrix(0.4444 0 0 0.8889 100.2764 330.8032)"  />
  <image id="pc_10_off" overflow="visible" width="51" height="26" xlink:href="off.jpg"  transform="matrix(0.4444 0 0 0.8889 132.583 330.8037)" />
  <image id="pc_11_off" overflow="visible" width="51" height="26" xlink:href="off.jpg"  transform="matrix(0.4444 0 0 0.8889 165.687 331.0464)"  />
  <image id="pc_12_off" overflow="visible" width="51" height="26" xlink:href="off.jpg"  transform="matrix(0.4444 0 0 0.8889 199.9189 330.8037)"  />
  <image id="pc_13_off" overflow="visible" width="51" height="26" xlink:href="off.jpg"  transform="matrix(0.4444 0 0 0.8889 104.3413 371.543)"  />
  <image id="pc_14_off" overflow="visible" width="51" height="26" xlink:href="off.jpg"  transform="matrix(0.4444 0 0 0.8889 136.6479 371.5449)" />
  <image id="pc_15_off" overflow="visible" width="51" height="26" xlink:href="off.jpg"  transform="matrix(0.4444 0 0 0.8889 169.752 371.7871)"  />
  <image id="pc_16_off" overflow="visible" width="51" height="26" xlink:href="off.jpg"  transform="matrix(0.4444 0 0 0.8889 203.9839 371.5449)"  />
  <image id="pc_17_off" overflow="visible" width="51" height="26" xlink:href="off.jpg"  transform="matrix(0.4444 0 0 0.8889 101.3457 412.207)" />
  <image id="pc_18_off" overflow="visible" width="51" height="26" xlink:href="off.jpg"  transform="matrix(0.4444 0 0 0.8889 133.6523 412.207)" />
  <image id="pc_19_off" overflow="visible" width="51" height="26" xlink:href="off.jpg"  transform="matrix(0.4444 0 0 0.8889 166.7568 412.4492)" />
  <image id="pc_20_off" overflow="visible" width="51" height="26" xlink:href="off.jpg"  transform="matrix(0.4444 0 0 0.8889 200.9883 412.207)"  />
  <image id="pc_21_off" overflow="visible" width="51" height="26" xlink:href="off.jpg"  transform="matrix(0.4444 0 0 0.8889 136.6479 461.666)"  />
  <image id="pc_22_off" overflow="visible" width="51" height="26" xlink:href="off.jpg"  transform="matrix(0.4444 0 0 0.8889 170.8887 462.5254)"  />
  <image id="pc_23_off" overflow="visible" width="51" height="26" xlink:href="off.jpg"  transform="matrix(0.4444 0 0 0.8889 205.1206 462.2832)"  />
  <image id="pc_24_off" overflow="visible" width="51" height="26" xlink:href="off.jpg"  transform="matrix(0.4444 0 0 0.8889 274.2764 217.8032)"  />
  <image id="pc_25_off" overflow="visible" width="51" height="26" xlink:href="off.jpg"  transform="matrix(0.4444 0 0 0.8889 306.583 217.8037)"  />
  <image id="pc_26_off" overflow="visible" width="51" height="26" xlink:href="off.jpg"  transform="matrix(0.4444 0 0 0.8889 339.6875 218.0464)" />
  <image id="pc_27_off" overflow="visible" width="51" height="26" xlink:href="off.jpg"  transform="matrix(0.4444 0 0 0.8889 373.9189 217.8037)"  />
  <image id="pc_28_off" overflow="visible" width="51" height="26" xlink:href="off.jpg"  transform="matrix(0.4444 0 0 0.8889 276.2764 253.8032)"  />
  <image id="pc_29_off" overflow="visible" width="51" height="26" xlink:href="off.jpg"  transform="matrix(0.5107 0 0 0.8889 308.583 253.8037)" />
  <image id="pc_30_off" overflow="visible" width="51" height="26" xlink:href="off.jpg"  transform="matrix(0.4444 0 0 0.8889 341.6875 254.0464)"  />
  <image id="pc_31_off" overflow="visible" width="51" height="26" xlink:href="off.jpg"  transform="matrix(0.4444 0 0 0.8889 375.9189 253.8037)" />
  <image id="pc_32_off" overflow="visible" width="51" height="26" xlink:href="off.jpg"  transform="matrix(0.4444 0 0 0.8889 273.2764 296.8032)" />
  <image id="pc_33_off" overflow="visible" width="51" height="26" xlink:href="off.jpg"  transform="matrix(0.4444 0 0 0.8889 305.583 296.8037)"  />
  <image id="pc_34_off" overflow="visible" width="51" height="26" xlink:href="off.jpg"  transform="matrix(0.4444 0 0 0.8889 338.6875 297.0464)"  />
  <image id="pc_35_off" overflow="visible" width="51" height="26" xlink:href="off.jpg"  transform="matrix(0.4444 0 0 0.8889 372.9189 296.8037)"  />
  <image id="pc_36_off" overflow="visible" width="51" height="26" xlink:href="off.jpg"  transform="matrix(0.4444 0 0 0.8889 274.9512 337.6006)" />
  <image id="pc_37_off" overflow="visible" width="51" height="26" xlink:href="off.jpg"  transform="matrix(0.4444 0 0 0.8889 307.2578 337.6011)" />
  <image id="pc_38_off" overflow="visible" width="51" height="26" xlink:href="off.jpg"  transform="matrix(0.4444 0 0 0.8889 340.3623 337.8438)"  />
  <image id="pc_39_off" overflow="visible" width="51" height="26" xlink:href="off.jpg"  transform="matrix(0.4444 0 0 0.8889 274.2764 382.8027)" />
  <image id="pc_40_off" overflow="visible" width="51" height="26" xlink:href="off.jpg"  transform="matrix(0.4444 0 0 0.8889 306.583 382.8047)" />
  <image id="pc_41_off" overflow="visible" width="51" height="26" xlink:href="off.jpg"  transform="matrix(0.4444 0 0 0.8889 339.6875 383.0469)"  />
  <image id="pc_42_off" overflow="visible" width="51" height="26" xlink:href="off.jpg"  transform="matrix(0.4444 0 0 0.8889 373.9189 382.8047)" />
  <image id="pc_43_off" overflow="visible" width="51" height="26" xlink:href="off.jpg"  transform="matrix(0.4444 0 0 0.8889 274.2764 420.8027)" />
  <image id="pc_44_off" overflow="visible" width="51" height="26" xlink:href="off.jpg"  transform="matrix(0.4444 0 0 0.8889 306.583 420.8047)"  />
  <image id="pc_45_off" overflow="visible" width="51" height="26" xlink:href="off.jpg"  transform="matrix(0.4444 0 0 0.8889 339.6875 421.0469)" />
  <image id="pc_46_off" overflow="visible" width="51" height="26" xlink:href="off.jpg"  transform="matrix(0.4444 0 0 0.8889 373.9189 420.8047)" />
  <image id="pc_47_off" overflow="visible" width="51" height="26" xlink:href="off.jpg"  transform="matrix(0.4444 0 0 0.8889 274.2764 460.8027)"  />
  <image id="pc_48_off" overflow="visible" width="51" height="26" xlink:href="off.jpg"  transform="matrix(0.4444 0 0 0.8889 306.583 460.8047)"  />
  <image id="pc_49_off" overflow="visible" width="51" height="26" xlink:href="off.jpg"  transform="matrix(0.4444 0 0 0.8889 339.6875 461.0469)"  />
  <image id="pc_50_off" overflow="visible" width="51" height="26" xlink:href="off.jpg"  transform="matrix(0.4444 0 0 0.8889 373.9189 460.8047)"  />
</g>
<g id="on">
  <image id="pc_1_on" overflow="visible" width="51" height="26" xlink:href="on.jpg"  transform="matrix(0.4444 0 0 0.8889 100.481 244.084)" style="display:none"/>
  <image id="pc_51_on" overflow="visible" width="51" height="26" xlink:href="on.jpg"  transform="matrix(0.4444 0 0 0.8889 165.8911 206.7559)" style="display:none"/>
  <image id="pc_2_on" overflow="visible" width="51" height="26" xlink:href="on.jpg"  transform="matrix(0.4444 0 0 0.8889 132.7729 244.0845)" style="display:none"/>
  <image id="pc_3_on" overflow="visible" width="51" height="26" xlink:href="on.jpg"  transform="matrix(0.4444 0 0 0.8889 165.8916 244.3271)"  style="display:none"/>
  <image id="pc_4_on" overflow="visible" width="51" height="26" xlink:href="on.jpg"  transform="matrix(0.4444 0 0 0.8889 200.1235 244.0845)"  style="display:none"/>
  <image id="pc_5_on" overflow="visible" width="51" height="26" xlink:href="on.jpg"  transform="matrix(0.4444 0 0 0.8889 103.272 285.5435)"  style="display:none"/>
  <image id="pc_6_on" overflow="visible" width="51" height="26" xlink:href="on.jpg"  transform="matrix(0.4444 0 0 0.8889 135.5786 285.5439)"  style="display:none"/>
  <image id="pc_7_on" overflow="visible" width="51" height="26" xlink:href="on.jpg"  transform="matrix(0.4444 0 0 0.8889 168.6826 285.7866)"  style="display:none"/>
  <image id="pc_8_on" overflow="visible" width="51" height="26" xlink:href="on.jpg"  transform="matrix(0.4444 0 0 0.8889 202.9146 285.5439)"  style="display:none"/>
  <image id="pc_9_on" overflow="visible" width="51" height="26" xlink:href="on.jpg"  transform="matrix(0.4444 0 0 0.8889 100.2764 330.8032)"  style="display:none"/>
  <image id="pc_10_on" overflow="visible" width="51" height="26" xlink:href="on.jpg"  transform="matrix(0.4444 0 0 0.8889 132.583 330.8037)" style="display:none"/>
  <image id="pc_11_on" overflow="visible" width="51" height="26" xlink:href="on.jpg"  transform="matrix(0.4444 0 0 0.8889 165.687 331.0464)"  style="display:none"/>
  <image id="pc_12_on" overflow="visible" width="51" height="26" xlink:href="on.jpg"  transform="matrix(0.4444 0 0 0.8889 199.9189 330.8037)"  style="display:none"/>
  <image id="pc_13_on" overflow="visible" width="51" height="26" xlink:href="on.jpg"  transform="matrix(0.4444 0 0 0.8889 104.3413 371.543)"  style="display:none"/>
  <image id="pc_14_on" overflow="visible" width="51" height="26" xlink:href="on.jpg"  transform="matrix(0.4444 0 0 0.8889 136.6479 371.5449)" style="display:none"/>
  <image id="pc_15_on" overflow="visible" width="51" height="26" xlink:href="on.jpg"  transform="matrix(0.4444 0 0 0.8889 169.752 371.7871)"  style="display:none"/>
  <image id="pc_16_on" overflow="visible" width="51" height="26" xlink:href="on.jpg"  transform="matrix(0.4444 0 0 0.8889 203.9839 371.5449)"  style="display:none"/>
  <image id="pc_17_on" overflow="visible" width="51" height="26" xlink:href="on.jpg"  transform="matrix(0.4444 0 0 0.8889 101.3457 412.207)" style="display:none"/>
  <image id="pc_18_on" overflow="visible" width="51" height="26" xlink:href="on.jpg"  transform="matrix(0.4444 0 0 0.8889 133.6523 412.207)" style="display:none"/>
  <image id="pc_19_on" overflow="visible" width="51" height="26" xlink:href="on.jpg"  transform="matrix(0.4444 0 0 0.8889 166.7568 412.4492)" style="display:none"/>
  <image id="pc_20_on" overflow="visible" width="51" height="26" xlink:href="on.jpg"  transform="matrix(0.4444 0 0 0.8889 200.9883 412.207)"  style="display:none"/>
  <image id="pc_21_on" overflow="visible" width="51" height="26" xlink:href="on.jpg"  transform="matrix(0.4444 0 0 0.8889 136.6479 461.666)"  style="display:none"/>
  <image id="pc_22_on" overflow="visible" width="51" height="26" xlink:href="on.jpg"  transform="matrix(0.4444 0 0 0.8889 170.8887 462.5254)"  style="display:none"/>
  <image id="pc_23_on" overflow="visible" width="51" height="26" xlink:href="on.jpg"  transform="matrix(0.4444 0 0 0.8889 205.1206 462.2832)"  style="display:none"/>
  <image id="pc_24_on" overflow="visible" width="51" height="26" xlink:href="on.jpg"  transform="matrix(0.4444 0 0 0.8889 274.2764 217.8032)"  style="display:none"/>
  <image id="pc_25_on" overflow="visible" width="51" height="26" xlink:href="on.jpg"  transform="matrix(0.4444 0 0 0.8889 306.583 217.8037)"  style="display:none"/>
  <image id="pc_26_on" overflow="visible" width="51" height="26" xlink:href="on.jpg"  transform="matrix(0.4444 0 0 0.8889 339.6875 218.0464)" style="display:none"/>
  <image id="pc_27_on" overflow="visible" width="51" height="26" xlink:href="on.jpg"  transform="matrix(0.4444 0 0 0.8889 373.9189 217.8037)"  style="display:none"/>
  <image id="pc_28_on" overflow="visible" width="51" height="26" xlink:href="on.jpg"  transform="matrix(0.4444 0 0 0.8889 276.2764 253.8032)" style="display:none" />
  <image id="pc_29_on" overflow="visible" width="51" height="26" xlink:href="on.jpg"  transform="matrix(0.4444 0 0 0.8889 308.583 253.8037)" style="display:none"/>
  <image id="pc_30_on" overflow="visible" width="51" height="26" xlink:href="on.jpg"  transform="matrix(0.4444 0 0 0.8889 341.6875 254.0464)"  style="display:none"/>
  <image id="pc_31_on" overflow="visible" width="51" height="26" xlink:href="on.jpg"  transform="matrix(0.4444 0 0 0.8889 375.9189 253.8037)" style="display:none"/>
  <image id="pc_32_on" overflow="visible" width="51" height="26" xlink:href="on.jpg"  transform="matrix(0.4444 0 0 0.8889 273.2764 296.8032)" style="display:none"/>
  <image id="pc_33_on" overflow="visible" width="51" height="26" xlink:href="on.jpg"  transform="matrix(0.4444 0 0 0.8889 305.583 296.8037)"  style="display:none"/>
  <image id="pc_34_on" overflow="visible" width="51" height="26" xlink:href="on.jpg"  transform="matrix(0.4444 0 0 0.8889 338.6875 297.0464)"  style="display:none"/>
  <image id="pc_35_on" overflow="visible" width="51" height="26" xlink:href="on.jpg"  transform="matrix(0.4444 0 0 0.8889 372.9189 296.8037)"  style="display:none"/>
  <image id="pc_36_on" overflow="visible" width="51" height="26" xlink:href="on.jpg"  transform="matrix(0.4444 0 0 0.8889 274.9512 337.6006)" style="display:none"/>
  <image id="pc_37_on" overflow="visible" width="51" height="26" xlink:href="on.jpg"  transform="matrix(0.4444 0 0 0.8889 307.2578 337.6011)" style="display:none"/>
  <image id="pc_38_on" overflow="visible" width="51" height="26" xlink:href="on.jpg"  transform="matrix(0.4444 0 0 0.8889 340.3623 337.8438)"  style="display:none"/>
  <image id="pc_39_on" overflow="visible" width="51" height="26" xlink:href="on.jpg"  transform="matrix(0.4444 0 0 0.8889 274.2764 382.8027)" style="display:none"/>
  <image id="pc_40_on" overflow="visible" width="51" height="26" xlink:href="on.jpg"  transform="matrix(0.4444 0 0 0.8889 306.583 382.8047)" style="display:none"/>
  <image id="pc_41_on" overflow="visible" width="51" height="26" xlink:href="on.jpg"  transform="matrix(0.4444 0 0 0.8889 339.6875 383.0469)"  style="display:none"/>
  <image id="pc_42_on" overflow="visible" width="51" height="26" xlink:href="on.jpg"  transform="matrix(0.4444 0 0 0.8889 373.9189 382.8047)" style="display:none"/>
  <image id="pc_43_on" overflow="visible" width="51" height="26" xlink:href="on.jpg"  transform="matrix(0.4444 0 0 0.8889 274.2764 420.8027)" style="display:none"/>
  <image id="pc_44_on" overflow="visible" width="51" height="26" xlink:href="on.jpg"  transform="matrix(0.4444 0 0 0.8889 306.583 420.8047)"  style="display:none"/>
  <image id="pc_45_on" overflow="visible" width="51" height="26" xlink:href="on.jpg"  transform="matrix(0.4444 0 0 0.8889 339.6875 421.0469)" style="display:none"/>
  <image id="pc_46_on" overflow="visible" width="51" height="26" xlink:href="on.jpg"  transform="matrix(0.4444 0 0 0.8889 373.9189 420.8047)" style="display:none"/>
  <image id="pc_47_on" overflow="visible" width="51" height="26" xlink:href="on.jpg"  transform="matrix(0.4444 0 0 0.8889 274.2764 460.8027)"  style="display:none"/>
  <image id="pc_48_on" overflow="visible" width="51" height="26" xlink:href="on.jpg"  transform="matrix(0.4444 0 0 0.8889 306.583 460.8047)"  style="display:none"/>
  <image id="pc_49_on" overflow="visible" width="51" height="26" xlink:href="on.jpg"  transform="matrix(0.4444 0 0 0.8889 339.6875 461.0469)"  style="display:none"/>
  <image id="pc_50_on" overflow="visible" width="51" height="26" xlink:href="on.jpg"  transform="matrix(0.4444 0 0 0.8889 373.9189 460.8047)"  style="display:none"/>
</g>
</g>
<script xlink:href="http://ajax.googleapis.com/ajax/libs/jquery/1.7.2/jquery.min.js" />
<script xlink:href="innersvg.js" />
<script xlink:href="room.js" />
</svg>
