<?xml version="1.0" encoding="utf-8"?>
<!-- Generator: Adobe Illustrator 16.0.0, SVG Export Plug-In . SVG Version: 6.00 Build 0)  -->
<!DOCTYPE svg PUBLIC "-//W3C//DTD SVG 1.1//EN" "http://www.w3.org/Graphics/SVG/1.1/DTD/svg11.dtd">
<svg version="1.1" id="レイヤー_1" xmlns="http://www.w3.org/2000/svg" xmlns:xlink="http://www.w3.org/1999/xlink" x="0px"
  y="0px" width="480px" height="720px" viewBox="0 0 480 720" xml:space="preserve">
<g id="レイヤー_1_1_">
 <rect x="99.721" y="246.143" fill="none" stroke="#000000" stroke-miterlimit="10" width="22.532" height="19.48"/>
 <rect x="169.073" y="32.649" fill="none" width="176.909" height="25.974"/>
 <text transform="matrix(1 0 0 1 169.0732 48.0312)" font-family="'KozGoPr6N-Regular-83pv-RKSJ-H'" font-size="18">総合研究</text>
  <text transform="matrix(1 0 0 1 241.0723 48.0312)" font-family="'KozGoPr6N-Regular-83pv-RKSJ-H'" font-size="18" letter-spacing="3">棟</text>
 <text transform="matrix(1 0 0 1 263.5723 48.4893)" font-family="'KozGoPr6N-Regular-83pv-RKSJ-H'" font-size="18">W204</text>
  <rect x="62.429" y="91.688" fill="none" stroke="#000000" stroke-width="3" stroke-miterlimit="10" width="366.233" height="507.792"/>
 <rect x="54.636" y="486.961" fill="#FFFFFF" stroke="#FFFFFF" stroke-miterlimit="10" width="16.883" height="40.26"/>
 <rect x="98.517" y="518.13" fill="none" width="31.168" height="18.183"/>
 <text transform="matrix(1 0 0 1 98.5166 530.4502)" font-family="'KozGoPr6N-Regular-83pv-RKSJ-H'" font-size="14">入口</text>
 <rect x="132.84" y="246.143" fill="none" stroke="#000000" stroke-miterlimit="10" width="22.532" height="19.48"/>
 <rect x="165.959" y="246.143" fill="none" stroke="#000000" stroke-miterlimit="10" width="22.532" height="19.48"/>
 <rect x="199.078" y="246.143" fill="none" stroke="#000000" stroke-miterlimit="10" width="22.532" height="19.48"/>
 <rect x="104.834" y="287.48" fill="none" stroke="#000000" stroke-miterlimit="10" width="22.532" height="19.48"/>
 <rect x="137.954" y="287.48" fill="none" stroke="#000000" stroke-miterlimit="10" width="22.532" height="19.48"/>
 <rect x="171.072" y="287.48" fill="none" stroke="#000000" stroke-miterlimit="10" width="22.531" height="19.48"/>
 <rect x="204.191" y="287.48" fill="none" stroke="#000000" stroke-miterlimit="10" width="22.531" height="19.48"/>
 <rect x="101.721" y="332.143" fill="none" stroke="#000000" stroke-miterlimit="10" width="22.532" height="19.48"/>
 <rect x="134.84" y="332.143" fill="none" stroke="#000000" stroke-miterlimit="10" width="22.532" height="19.48"/>
 <rect x="167.959" y="332.143" fill="none" stroke="#000000" stroke-miterlimit="10" width="22.531" height="19.48"/>
 <rect x="201.078" y="332.143" fill="none" stroke="#000000" stroke-miterlimit="10" width="22.531" height="19.48"/>
 <rect x="102.834" y="373.48" fill="none" stroke="#000000" stroke-miterlimit="10" width="22.532" height="19.479"/>
 <rect x="135.954" y="373.48" fill="none" stroke="#000000" stroke-miterlimit="10" width="22.532" height="19.479"/>
 <rect x="169.072" y="373.48" fill="none" stroke="#000000" stroke-miterlimit="10" width="22.531" height="19.479"/>
 <rect x="202.191" y="373.48" fill="none" stroke="#000000" stroke-miterlimit="10" width="22.531" height="19.479"/>
 <rect x="101.721" y="414.143" fill="none" stroke="#000000" stroke-miterlimit="10" width="22.532" height="19.48"/>
 <rect x="134.84" y="414.143" fill="none" stroke="#000000" stroke-miterlimit="10" width="22.532" height="19.48"/>
 <rect x="167.959" y="414.143" fill="none" stroke="#000000" stroke-miterlimit="10" width="22.531" height="19.48"/>
 <rect x="201.078" y="414.143" fill="none" stroke="#000000" stroke-miterlimit="10" width="22.531" height="19.48"/>
 <rect x="165.959" y="208.571" fill="none" stroke="#000000" stroke-miterlimit="10" width="22.531" height="19.48"/>
 <rect x="136.954" y="464.221" fill="none" stroke="#000000" stroke-miterlimit="10" width="22.532" height="19.48"/>
 <rect x="170.072" y="464.221" fill="none" stroke="#000000" stroke-miterlimit="10" width="22.531" height="19.48"/>
 <rect x="203.191" y="464.221" fill="none" stroke="#000000" stroke-miterlimit="10" width="22.531" height="19.48"/>
 <rect x="274.124" y="255.883" fill="none" stroke="#000000" stroke-miterlimit="10" width="22.532" height="19.48"/>
 <rect x="307.243" y="255.883" fill="none" stroke="#000000" stroke-miterlimit="10" width="22.532" height="19.48"/>
 <rect x="340.362" y="255.883" fill="none" stroke="#000000" stroke-miterlimit="10" width="22.53" height="19.48"/>
 <rect x="373.481" y="255.883" fill="none" stroke="#000000" stroke-miterlimit="10" width="22.53" height="19.48"/>
 <rect x="307.243" y="218.312" fill="none" stroke="#000000" stroke-miterlimit="10" width="22.532" height="19.48"/>
 <rect x="340.362" y="218.312" fill="none" stroke="#000000" stroke-miterlimit="10" width="22.53" height="19.48"/>
 <rect x="373.481" y="218.312" fill="none" stroke="#000000" stroke-miterlimit="10" width="22.53" height="19.48"/>
 <rect x="274.124" y="297.221" fill="none" stroke="#000000" stroke-miterlimit="10" width="22.532" height="19.48"/>
 <rect x="307.243" y="297.221" fill="none" stroke="#000000" stroke-miterlimit="10" width="22.532" height="19.48"/>
 <rect x="340.362" y="297.221" fill="none" stroke="#000000" stroke-miterlimit="10" width="22.53" height="19.48"/>
 <rect x="373.481" y="297.221" fill="none" stroke="#000000" stroke-miterlimit="10" width="22.53" height="19.48"/>
 <rect x="274.124" y="337.844" fill="none" stroke="#000000" stroke-miterlimit="10" width="22.532" height="19.48"/>
 <rect x="307.243" y="337.844" fill="none" stroke="#000000" stroke-miterlimit="10" width="22.532" height="19.48"/>
 <rect x="340.362" y="337.844" fill="none" stroke="#000000" stroke-miterlimit="10" width="22.53" height="19.48"/>
 <rect x="274.124" y="218.312" fill="none" stroke="#000000" stroke-miterlimit="10" width="22.532" height="19.48"/>
 <rect x="274.831" y="383.221" fill="none" stroke="#000000" stroke-miterlimit="10" width="22.532" height="19.48"/>
 <rect x="307.95" y="383.221" fill="none" stroke="#000000" stroke-miterlimit="10" width="22.532" height="19.48"/>
 <rect x="341.069" y="383.221" fill="none" stroke="#000000" stroke-miterlimit="10" width="22.53" height="19.48"/>
 <rect x="374.188" y="383.221" fill="none" stroke="#000000" stroke-miterlimit="10" width="22.531" height="19.48"/>
 <rect x="274.831" y="423.883" fill="none" stroke="#000000" stroke-miterlimit="10" width="22.532" height="19.48"/>
 <rect x="307.95" y="423.883" fill="none" stroke="#000000" stroke-miterlimit="10" width="22.532" height="19.48"/>
 <rect x="341.069" y="423.883" fill="none" stroke="#000000" stroke-miterlimit="10" width="22.53" height="19.48"/>
 <rect x="374.188" y="423.883" fill="none" stroke="#000000" stroke-miterlimit="10" width="22.531" height="19.48"/>
 <rect x="274.124" y="463.48" fill="none" stroke="#000000" stroke-miterlimit="10" width="22.532" height="19.479"/>
 <rect x="307.243" y="463.48" fill="none" stroke="#000000" stroke-miterlimit="10" width="22.532" height="19.479"/>
 <rect x="340.362" y="463.48" fill="none" stroke="#000000" stroke-miterlimit="10" width="22.53" height="19.479"/>
 <rect x="373.481" y="463.48" fill="none" stroke="#000000" stroke-miterlimit="10" width="22.53" height="19.479"/>
 <rect x="160.047" y="117.663" fill="none" stroke="#000000" stroke-miterlimit="10" width="170.997" height="14.286"/>
 <rect x="199.078" y="148.832" fill="none" width="128.571" height="15.584"/>
 <text transform="matrix(1 0 0 1 199.0776 159.3916)" font-family="'KozGoPr6N-Regular-83pv-RKSJ-H'" font-size="12">ホワイトボード</text>
  <image id="pc__" overflow="visible" width="51" height="26" xlink:href="on.jpg"  transform="matrix(0.4444 0 0 0.8889 100.481 244.084)" style="desplay:none" />
  <image id="pc__" overflow="visible" width="51" height="26" xlink:href="on.jpg"  transform="matrix(0.4444 0 0 0.8889 165.8911 206.7559)" style="desplay:none" />
  <image id="pc__" overflow="visible" width="51" height="26" xlink:href="on.jpg"  transform="matrix(0.4444 0 0 0.8889 132.7729 244.0845)" style="desplay:none" />
  <image id="pc__" overflow="visible" width="51" height="26" xlink:href="on.jpg"  transform="matrix(0.4444 0 0 0.8889 165.8916 244.3271)" style="desplay:none" />
  <image id="pc__" overflow="visible" width="51" height="26" xlink:href="on.jpg"  transform="matrix(0.4444 0 0 0.8889 200.1235 244.0845)" style="desplay:none" />
 <rect x="102.512" y="287.602" fill="none" stroke="#000000" stroke-miterlimit="10" width="22.532" height="19.48"/>
 <rect x="135.631" y="287.602" fill="none" stroke="#000000" stroke-miterlimit="10" width="22.532" height="19.48"/>
 <rect x="168.75" y="287.602" fill="none" stroke="#000000" stroke-miterlimit="10" width="22.531" height="19.48"/>
 <rect x="201.869" y="287.602" fill="none" stroke="#000000" stroke-miterlimit="10" width="22.531" height="19.48"/>
  <image id="pc__" overflow="visible" width="51" height="26" xlink:href="on.jpg"  transform="matrix(0.4444 0 0 0.8889 103.272 285.5435)" style="desplay:none" />
  <image id="pc__" overflow="visible" width="51" height="26" xlink:href="on.jpg"  transform="matrix(0.5107 0 0 0.8889 135.5786 285.5439)" style="desplay:none" />
  <image id="pc__" overflow="visible" width="51" height="26" xlink:href="on.jpg"  transform="matrix(0.4444 0 0 0.8889 168.6826 285.7866)" style="desplay:none" />
  <image id="pc__" overflow="visible" width="51" height="26" xlink:href="on.jpg"  transform="matrix(0.4444 0 0 0.8889 202.9146 285.5439)" style="desplay:none" />
 <rect x="101.839" y="332.74" fill="none" stroke="#000000" stroke-miterlimit="10" width="22.532" height="19.48"/>
 <rect x="134.958" y="332.74" fill="none" stroke="#000000" stroke-miterlimit="10" width="22.532" height="19.48"/>
 <rect x="168.077" y="332.74" fill="none" stroke="#000000" stroke-miterlimit="10" width="22.531" height="19.48"/>
 <rect x="201.196" y="332.74" fill="none" stroke="#000000" stroke-miterlimit="10" width="22.531" height="19.48"/>
 <rect x="99.517" y="332.862" fill="none" stroke="#000000" stroke-miterlimit="10" width="22.532" height="19.48"/>
 <rect x="132.636" y="332.862" fill="none" stroke="#000000" stroke-miterlimit="10" width="22.532" height="19.48"/>
 <rect x="165.754" y="332.862" fill="none" stroke="#000000" stroke-miterlimit="10" width="22.531" height="19.48"/>
 <rect x="198.874" y="332.862" fill="none" stroke="#000000" stroke-miterlimit="10" width="22.531" height="19.48"/>
  <image id="pc__" overflow="visible" width="51" height="26" xlink:href="on.jpg"  transform="matrix(0.4444 0 0 0.8889 100.2764 330.8032)" style="desplay:none" />
  <image id="pc__" overflow="visible" width="51" height="26" xlink:href="on.jpg"  transform="matrix(0.5107 0 0 0.8889 132.583 330.8037)" style="desplay:none" />
  <image id="pc__" overflow="visible" width="51" height="26" xlink:href="on.jpg"  transform="matrix(0.4444 0 0 0.8889 165.687 331.0464)" style="desplay:none" />
  <image id="pc__" overflow="visible" width="51" height="26" xlink:href="on.jpg"  transform="matrix(0.4444 0 0 0.8889 199.9189 330.8037)" style="desplay:none" />
 <rect x="105.904" y="373.48" fill="none" stroke="#000000" stroke-miterlimit="10" width="22.532" height="19.479"/>
 <rect x="139.023" y="373.48" fill="none" stroke="#000000" stroke-miterlimit="10" width="22.532" height="19.479"/>
 <rect x="172.142" y="373.48" fill="none" stroke="#000000" stroke-miterlimit="10" width="22.531" height="19.479"/>
 <rect x="205.261" y="373.48" fill="none" stroke="#000000" stroke-miterlimit="10" width="22.531" height="19.479"/>
 <rect x="103.582" y="373.602" fill="none" stroke="#000000" stroke-miterlimit="10" width="22.532" height="19.48"/>
 <rect x="136.701" y="373.602" fill="none" stroke="#000000" stroke-miterlimit="10" width="22.532" height="19.48"/>
 <rect x="169.819" y="373.602" fill="none" stroke="#000000" stroke-miterlimit="10" width="22.531" height="19.48"/>
 <rect x="202.938" y="373.602" fill="none" stroke="#000000" stroke-miterlimit="10" width="22.531" height="19.48"/>
  <image id="pc__" overflow="visible" width="51" height="26" xlink:href="on.jpg"  transform="matrix(0.4444 0 0 0.8889 104.3413 371.543)" style="desplay:none" />
  <image id="pc__" overflow="visible" width="51" height="26" xlink:href="on.jpg"  transform="matrix(0.5107 0 0 0.8889 136.6479 371.5449)" style="desplay:none" />
  <image id="pc__" overflow="visible" width="51" height="26" xlink:href="on.jpg"  transform="matrix(0.4444 0 0 0.8889 169.752 371.7871)" style="desplay:none" />
  <image id="pc__" overflow="visible" width="51" height="26" xlink:href="on.jpg"  transform="matrix(0.4444 0 0 0.8889 203.9839 371.5449)" style="desplay:none" />
 <rect x="102.908" y="414.143" fill="none" stroke="#000000" stroke-miterlimit="10" width="22.532" height="19.48"/>
 <rect x="136.027" y="414.143" fill="none" stroke="#000000" stroke-miterlimit="10" width="22.532" height="19.48"/>
 <rect x="169.146" y="414.143" fill="none" stroke="#000000" stroke-miterlimit="10" width="22.531" height="19.48"/>
 <rect x="202.265" y="414.143" fill="none" stroke="#000000" stroke-miterlimit="10" width="22.531" height="19.48"/>
 <rect x="100.586" y="414.266" fill="none" stroke="#000000" stroke-miterlimit="10" width="22.532" height="19.479"/>
 <rect x="133.705" y="414.266" fill="none" stroke="#000000" stroke-miterlimit="10" width="22.532" height="19.479"/>
 <rect x="166.824" y="414.266" fill="none" stroke="#000000" stroke-miterlimit="10" width="22.531" height="19.479"/>
 <rect x="199.943" y="414.266" fill="none" stroke="#000000" stroke-miterlimit="10" width="22.531" height="19.479"/>
  <image id="pc__" overflow="visible" width="51" height="26" xlink:href="on.jpg"  transform="matrix(0.4444 0 0 0.8889 101.3457 412.207)" style="desplay:none" />
  <image id="pc__" overflow="visible" width="51" height="26" xlink:href="on.jpg"  transform="matrix(0.5107 0 0 0.8889 133.6523 412.207)" style="desplay:none" />
  <image id="pc__" overflow="visible" width="51" height="26" xlink:href="on.jpg"  transform="matrix(0.4645 0 0 0.8889 166.7568 412.4492)" style="desplay:none" />
  <image id="pc__" overflow="visible" width="51" height="26" xlink:href="on.jpg"  transform="matrix(0.4444 0 0 0.8889 200.9883 412.207)" style="desplay:none" />
 <rect x="138.973" y="464.22" fill="none" stroke="#000000" stroke-miterlimit="10" width="22.532" height="19.48"/>
 <rect x="172.091" y="464.22" fill="none" stroke="#000000" stroke-miterlimit="10" width="22.531" height="19.48"/>
 <rect x="205.21" y="464.22" fill="none" stroke="#000000" stroke-miterlimit="10" width="22.531" height="19.48"/>
 <rect x="140.16" y="464.22" fill="none" stroke="#000000" stroke-miterlimit="10" width="22.532" height="19.48"/>
 <rect x="173.279" y="464.22" fill="none" stroke="#000000" stroke-miterlimit="10" width="22.531" height="19.48"/>
 <rect x="206.398" y="464.22" fill="none" stroke="#000000" stroke-miterlimit="10" width="22.531" height="19.48"/>
 <rect x="137.837" y="464.342" fill="none" stroke="#000000" stroke-miterlimit="10" width="22.532" height="19.479"/>
 <rect x="170.957" y="464.342" fill="none" stroke="#000000" stroke-miterlimit="10" width="22.531" height="19.479"/>
 <rect x="204.076" y="464.342" fill="none" stroke="#000000" stroke-miterlimit="10" width="22.531" height="19.479"/>
  <image id="pc__" overflow="visible" width="51" height="26" xlink:href="on.jpg"  transform="matrix(0.5107 0 0 0.8889 136.6479 461.666)" style="desplay:none" />
  <image id="pc__" overflow="visible" width="51" height="26" xlink:href="on.jpg"  transform="matrix(0.4444 0 0 0.8889 170.8887 462.5254)" style="desplay:none" />
  <image id="pc__" overflow="visible" width="51" height="26" xlink:href="on.jpg"  transform="matrix(0.4444 0 0 0.8889 205.1206 462.2832)" style="desplay:none" />
 <rect x="275.721" y="219.143" fill="none" stroke="#000000" stroke-miterlimit="10" width="22.532" height="19.48"/>
 <rect x="308.84" y="219.143" fill="none" stroke="#000000" stroke-miterlimit="10" width="22.532" height="19.48"/>
 <rect x="341.959" y="219.143" fill="none" stroke="#000000" stroke-miterlimit="10" width="22.531" height="19.48"/>
 <rect x="375.078" y="219.143" fill="none" stroke="#000000" stroke-miterlimit="10" width="22.531" height="19.48"/>
 <rect x="275.839" y="219.74" fill="none" stroke="#000000" stroke-miterlimit="10" width="22.532" height="19.48"/>
 <rect x="308.958" y="219.74" fill="none" stroke="#000000" stroke-miterlimit="10" width="22.532" height="19.48"/>
 <rect x="342.076" y="219.74" fill="none" stroke="#000000" stroke-miterlimit="10" width="22.531" height="19.48"/>
 <rect x="375.195" y="219.74" fill="none" stroke="#000000" stroke-miterlimit="10" width="22.53" height="19.48"/>
 <rect x="273.518" y="219.861" fill="none" stroke="#000000" stroke-miterlimit="10" width="22.531" height="19.48"/>
 <rect x="306.636" y="219.861" fill="none" stroke="#000000" stroke-miterlimit="10" width="22.532" height="19.48"/>
 <rect x="339.754" y="219.861" fill="none" stroke="#000000" stroke-miterlimit="10" width="22.531" height="19.48"/>
 <rect x="372.873" y="219.861" fill="none" stroke="#000000" stroke-miterlimit="10" width="22.531" height="19.48"/>
  <image id="pc__" overflow="visible" width="51" height="26" xlink:href="on.jpg"  transform="matrix(0.4444 0 0 0.8889 274.2764 217.8032)" style="desplay:none" />
  <image id="pc__" overflow="visible" width="51" height="26" xlink:href="on.jpg"  transform="matrix(0.5107 0 0 0.8889 306.583 217.8037)" style="desplay:none" />
  <image id="pc__" overflow="visible" width="51" height="26" xlink:href="on.jpg"  transform="matrix(0.4444 0 0 0.8889 339.6875 218.0464)" style="desplay:none" />
  <image id="pc__" overflow="visible" width="51" height="26" xlink:href="on.jpg"  transform="matrix(0.4444 0 0 0.8889 373.9189 217.8037)" style="desplay:none" />
 <rect x="277.721" y="255.143" fill="none" stroke="#000000" stroke-miterlimit="10" width="22.532" height="19.48"/>
 <rect x="310.84" y="255.143" fill="none" stroke="#000000" stroke-miterlimit="10" width="22.532" height="19.48"/>
 <rect x="343.959" y="255.143" fill="none" stroke="#000000" stroke-miterlimit="10" width="22.531" height="19.48"/>
 <rect x="377.078" y="255.143" fill="none" stroke="#000000" stroke-miterlimit="10" width="22.531" height="19.48"/>
 <rect x="277.839" y="255.74" fill="none" stroke="#000000" stroke-miterlimit="10" width="22.532" height="19.48"/>
 <rect x="310.958" y="255.74" fill="none" stroke="#000000" stroke-miterlimit="10" width="22.532" height="19.48"/>
 <rect x="344.076" y="255.74" fill="none" stroke="#000000" stroke-miterlimit="10" width="22.531" height="19.48"/>
 <rect x="377.195" y="255.74" fill="none" stroke="#000000" stroke-miterlimit="10" width="22.53" height="19.48"/>
 <rect x="275.518" y="255.861" fill="none" stroke="#000000" stroke-miterlimit="10" width="22.531" height="19.48"/>
 <rect x="308.636" y="255.861" fill="none" stroke="#000000" stroke-miterlimit="10" width="22.532" height="19.48"/>
 <rect x="341.754" y="255.861" fill="none" stroke="#000000" stroke-miterlimit="10" width="22.531" height="19.48"/>
 <rect x="374.873" y="255.861" fill="none" stroke="#000000" stroke-miterlimit="10" width="22.531" height="19.48"/>
  <image id="pc__" overflow="visible" width="51" height="26" xlink:href="on.jpg"  transform="matrix(0.4444 0 0 0.8889 276.2764 253.8032)" style="desplay:none" />
  <image id="pc__" overflow="visible" width="51" height="26" xlink:href="on.jpg"  transform="matrix(0.5107 0 0 0.8889 308.583 253.8037)" style="desplay:none" />
  <image id="pc__" overflow="visible" width="51" height="26" xlink:href="on.jpg"  transform="matrix(0.4444 0 0 0.8889 341.6875 254.0464)" style="desplay:none" />
  <image id="pc__" overflow="visible" width="51" height="26" xlink:href="on.jpg"  transform="matrix(0.4444 0 0 0.8889 375.9189 253.8037)" style="desplay:none" />
 <rect x="274.721" y="298.143" fill="none" stroke="#000000" stroke-miterlimit="10" width="22.532" height="19.48"/>
 <rect x="307.84" y="298.143" fill="none" stroke="#000000" stroke-miterlimit="10" width="22.532" height="19.48"/>
 <rect x="340.959" y="298.143" fill="none" stroke="#000000" stroke-miterlimit="10" width="22.531" height="19.48"/>
 <rect x="374.078" y="298.143" fill="none" stroke="#000000" stroke-miterlimit="10" width="22.531" height="19.48"/>
 <rect x="274.839" y="298.74" fill="none" stroke="#000000" stroke-miterlimit="10" width="22.532" height="19.48"/>
 <rect x="307.958" y="298.74" fill="none" stroke="#000000" stroke-miterlimit="10" width="22.532" height="19.48"/>
 <rect x="341.076" y="298.74" fill="none" stroke="#000000" stroke-miterlimit="10" width="22.531" height="19.48"/>
 <rect x="374.195" y="298.74" fill="none" stroke="#000000" stroke-miterlimit="10" width="22.53" height="19.48"/>
 <rect x="272.518" y="298.861" fill="none" stroke="#000000" stroke-miterlimit="10" width="22.531" height="19.48"/>
 <rect x="305.636" y="298.861" fill="none" stroke="#000000" stroke-miterlimit="10" width="22.532" height="19.48"/>
 <rect x="338.754" y="298.861" fill="none" stroke="#000000" stroke-miterlimit="10" width="22.531" height="19.48"/>
 <rect x="371.873" y="298.861" fill="none" stroke="#000000" stroke-miterlimit="10" width="22.531" height="19.48"/>
  <image id="pc__" overflow="visible" width="51" height="26" xlink:href="on.jpg"  transform="matrix(0.4444 0 0 0.8889 273.2764 296.8032)" style="desplay:none" />
  <image id="pc__" overflow="visible" width="51" height="26" xlink:href="on.jpg"  transform="matrix(0.5107 0 0 0.8889 305.583 296.8037)" style="desplay:none" />
  <image id="pc__" overflow="visible" width="51" height="26" xlink:href="on.jpg"  transform="matrix(0.4444 0 0 0.8889 338.6875 297.0464)" style="desplay:none" />
  <image id="pc__" overflow="visible" width="51" height="26" xlink:href="on.jpg"  transform="matrix(0.4444 0 0 0.8889 372.9189 296.8037)" style="desplay:none" />
 <rect x="275.799" y="338.018" fill="none" stroke="#000000" stroke-miterlimit="10" width="22.532" height="19.48"/>
 <rect x="308.918" y="338.018" fill="none" stroke="#000000" stroke-miterlimit="10" width="22.532" height="19.48"/>
 <rect x="342.037" y="338.018" fill="none" stroke="#000000" stroke-miterlimit="10" width="22.531" height="19.48"/>
 <rect x="276.396" y="338.94" fill="none" stroke="#000000" stroke-miterlimit="10" width="22.531" height="19.48"/>
 <rect x="309.515" y="338.94" fill="none" stroke="#000000" stroke-miterlimit="10" width="22.532" height="19.48"/>
 <rect x="342.634" y="338.94" fill="none" stroke="#000000" stroke-miterlimit="10" width="22.531" height="19.48"/>
 <rect x="276.514" y="339.538" fill="none" stroke="#000000" stroke-miterlimit="10" width="22.532" height="19.48"/>
 <rect x="309.633" y="339.538" fill="none" stroke="#000000" stroke-miterlimit="10" width="22.532" height="19.48"/>
 <rect x="342.751" y="339.538" fill="none" stroke="#000000" stroke-miterlimit="10" width="22.531" height="19.48"/>
 <rect x="274.191" y="339.659" fill="none" stroke="#000000" stroke-miterlimit="10" width="22.531" height="19.48"/>
 <rect x="307.311" y="339.659" fill="none" stroke="#000000" stroke-miterlimit="10" width="22.532" height="19.48"/>
 <rect x="340.429" y="339.659" fill="none" stroke="#000000" stroke-miterlimit="10" width="22.531" height="19.48"/>
  <image id="pc__" overflow="visible" width="51" height="26" xlink:href="on.jpg"  transform="matrix(0.4444 0 0 0.8889 274.9512 337.6006)" style="desplay:none" />
  <image id="pc__" overflow="visible" width="51" height="26" xlink:href="on.jpg"  transform="matrix(0.5107 0 0 0.8889 307.2578 337.6011)" style="desplay:none" />
  <image id="pc__" overflow="visible" width="51" height="26" xlink:href="on.jpg"  transform="matrix(0.4444 0 0 0.8889 340.3623 337.8438)" style="desplay:none" />
 <rect x="307.243" y="383.312" fill="none" stroke="#000000" stroke-miterlimit="10" width="22.532" height="19.479"/>
 <rect x="340.362" y="383.312" fill="none" stroke="#000000" stroke-miterlimit="10" width="22.53" height="19.479"/>
 <rect x="373.481" y="383.312" fill="none" stroke="#000000" stroke-miterlimit="10" width="22.53" height="19.479"/>
 <rect x="274.124" y="383.312" fill="none" stroke="#000000" stroke-miterlimit="10" width="22.532" height="19.479"/>
 <rect x="275.721" y="384.143" fill="none" stroke="#000000" stroke-miterlimit="10" width="22.532" height="19.48"/>
 <rect x="308.84" y="384.143" fill="none" stroke="#000000" stroke-miterlimit="10" width="22.532" height="19.48"/>
 <rect x="341.959" y="384.143" fill="none" stroke="#000000" stroke-miterlimit="10" width="22.531" height="19.48"/>
 <rect x="375.078" y="384.143" fill="none" stroke="#000000" stroke-miterlimit="10" width="22.531" height="19.48"/>
 <rect x="275.839" y="384.74" fill="none" stroke="#000000" stroke-miterlimit="10" width="22.532" height="19.48"/>
 <rect x="308.958" y="384.74" fill="none" stroke="#000000" stroke-miterlimit="10" width="22.532" height="19.48"/>
 <rect x="342.076" y="384.74" fill="none" stroke="#000000" stroke-miterlimit="10" width="22.531" height="19.48"/>
 <rect x="375.195" y="384.74" fill="none" stroke="#000000" stroke-miterlimit="10" width="22.53" height="19.48"/>
 <rect x="273.518" y="384.861" fill="none" stroke="#000000" stroke-miterlimit="10" width="22.531" height="19.479"/>
 <rect x="306.636" y="384.861" fill="none" stroke="#000000" stroke-miterlimit="10" width="22.532" height="19.479"/>
 <rect x="339.754" y="384.861" fill="none" stroke="#000000" stroke-miterlimit="10" width="22.531" height="19.479"/>
 <rect x="372.873" y="384.861" fill="none" stroke="#000000" stroke-miterlimit="10" width="22.531" height="19.479"/>
  <image id="pc__" overflow="visible" width="51" height="26" xlink:href="on.jpg"  transform="matrix(0.4444 0 0 0.8889 274.2764 382.8027)" style="desplay:none" />
  <image id="pc__" overflow="visible" width="51" height="26" xlink:href="on.jpg"  transform="matrix(0.5107 0 0 0.8889 306.583 382.8047)" style="desplay:none" />
  <image id="pc__" overflow="visible" width="51" height="26" xlink:href="on.jpg"  transform="matrix(0.4444 0 0 0.8889 339.6875 383.0469)" style="desplay:none" />
  <image id="pc__" overflow="visible" width="51" height="26" xlink:href="on.jpg"  transform="matrix(0.4444 0 0 0.8889 373.9189 382.8047)" style="desplay:none" />
 <rect x="307.243" y="421.312" fill="none" stroke="#000000" stroke-miterlimit="10" width="22.532" height="19.479"/>
 <rect x="340.362" y="421.312" fill="none" stroke="#000000" stroke-miterlimit="10" width="22.53" height="19.479"/>
 <rect x="373.481" y="421.312" fill="none" stroke="#000000" stroke-miterlimit="10" width="22.53" height="19.479"/>
 <rect x="274.124" y="421.312" fill="none" stroke="#000000" stroke-miterlimit="10" width="22.532" height="19.479"/>
 <rect x="275.721" y="422.143" fill="none" stroke="#000000" stroke-miterlimit="10" width="22.532" height="19.48"/>
 <rect x="308.84" y="422.143" fill="none" stroke="#000000" stroke-miterlimit="10" width="22.532" height="19.48"/>
 <rect x="341.959" y="422.143" fill="none" stroke="#000000" stroke-miterlimit="10" width="22.531" height="19.48"/>
 <rect x="375.078" y="422.143" fill="none" stroke="#000000" stroke-miterlimit="10" width="22.531" height="19.48"/>
 <rect x="275.839" y="422.74" fill="none" stroke="#000000" stroke-miterlimit="10" width="22.532" height="19.479"/>
 <rect x="308.958" y="422.74" fill="none" stroke="#000000" stroke-miterlimit="10" width="22.532" height="19.479"/>
 <rect x="342.076" y="422.74" fill="none" stroke="#000000" stroke-miterlimit="10" width="22.531" height="19.479"/>
 <rect x="375.195" y="422.74" fill="none" stroke="#000000" stroke-miterlimit="10" width="22.53" height="19.479"/>
 <rect x="273.518" y="422.861" fill="none" stroke="#000000" stroke-miterlimit="10" width="22.531" height="19.479"/>
 <rect x="306.636" y="422.861" fill="none" stroke="#000000" stroke-miterlimit="10" width="22.532" height="19.479"/>
 <rect x="339.754" y="422.861" fill="none" stroke="#000000" stroke-miterlimit="10" width="22.531" height="19.479"/>
 <rect x="372.873" y="422.861" fill="none" stroke="#000000" stroke-miterlimit="10" width="22.531" height="19.479"/>
  <image id="pc__" overflow="visible" width="51" height="26" xlink:href="on.jpg"  transform="matrix(0.4444 0 0 0.8889 274.2764 420.8027)" style="desplay:none" />
  <image id="pc__" overflow="visible" width="51" height="26" xlink:href="on.jpg"  transform="matrix(0.5107 0 0 0.8889 306.583 420.8047)" style="desplay:none" />
  <image id="pc__" overflow="visible" width="51" height="26" xlink:href="on.jpg"  transform="matrix(0.4444 0 0 0.8889 339.6875 421.0469)" style="desplay:none" />
  <image id="pc__" overflow="visible" width="51" height="26" xlink:href="on.jpg"  transform="matrix(0.4444 0 0 0.8889 373.9189 420.8047)" style="desplay:none" />
 <rect x="307.243" y="461.312" fill="none" stroke="#000000" stroke-miterlimit="10" width="22.532" height="19.479"/>
 <rect x="340.362" y="461.312" fill="none" stroke="#000000" stroke-miterlimit="10" width="22.53" height="19.479"/>
 <rect x="373.481" y="461.312" fill="none" stroke="#000000" stroke-miterlimit="10" width="22.53" height="19.479"/>
 <rect x="274.124" y="461.312" fill="none" stroke="#000000" stroke-miterlimit="10" width="22.532" height="19.479"/>
 <rect x="275.721" y="462.143" fill="none" stroke="#000000" stroke-miterlimit="10" width="22.532" height="19.48"/>
 <rect x="308.84" y="462.143" fill="none" stroke="#000000" stroke-miterlimit="10" width="22.532" height="19.48"/>
 <rect x="341.959" y="462.143" fill="none" stroke="#000000" stroke-miterlimit="10" width="22.531" height="19.48"/>
 <rect x="375.078" y="462.143" fill="none" stroke="#000000" stroke-miterlimit="10" width="22.531" height="19.48"/>
 <rect x="275.839" y="462.74" fill="none" stroke="#000000" stroke-miterlimit="10" width="22.532" height="19.479"/>
 <rect x="308.958" y="462.74" fill="none" stroke="#000000" stroke-miterlimit="10" width="22.532" height="19.479"/>
 <rect x="342.076" y="462.74" fill="none" stroke="#000000" stroke-miterlimit="10" width="22.531" height="19.479"/>
 <rect x="375.195" y="462.74" fill="none" stroke="#000000" stroke-miterlimit="10" width="22.53" height="19.479"/>
 <rect x="273.518" y="462.861" fill="none" stroke="#000000" stroke-miterlimit="10" width="22.531" height="19.479"/>
 <rect x="306.636" y="462.861" fill="none" stroke="#000000" stroke-miterlimit="10" width="22.532" height="19.479"/>
 <rect x="339.754" y="462.861" fill="none" stroke="#000000" stroke-miterlimit="10" width="22.531" height="19.479"/>
 <rect x="372.873" y="462.861" fill="none" stroke="#000000" stroke-miterlimit="10" width="22.531" height="19.479"/>
  <image id="pc__" overflow="visible" width="51" height="26" xlink:href="on.jpg"  transform="matrix(0.4444 0 0 0.8889 274.2764 460.8027)" style="desplay:none" />
  <image id="pc__" overflow="visible" width="51" height="26" xlink:href="on.jpg"  transform="matrix(0.5107 0 0 0.8889 306.583 460.8047)" style="desplay:none" />
  <image id="pc__" overflow="visible" width="51" height="26" xlink:href="on.jpg"  transform="matrix(0.4444 0 0 0.8889 339.6875 461.0469)" style="desplay:none" />
  <image id="pc__" overflow="visible" width="51" height="26" xlink:href="on.jpg"  transform="matrix(0.4444 0 0 0.8889 373.9189 460.8047)" style="desplay:none" />
</g>
<g id="レイヤー_2" display="none">
  <image id="pc__" overflow="visible" width="48" height="23" xlink:href="on.jpg"  transform="matrix(0.4737 0 0 0.9474 99.6187 244.9883)" style="desplay:none" />
  <image id="pc__" overflow="visible" width="48" height="23" xlink:href="on.jpg"  transform="matrix(0.4737 0 0 0.9474 132.7378 244.9883)" style="desplay:none" />
  <image id="pc__" overflow="visible" width="48" height="23" xlink:href="on.jpg"  transform="matrix(0.4737 0 0 0.9474 165.8564 245.5459)" style="desplay:none" />
  <image id="pc__" overflow="visible" width="48" height="23" xlink:href="on.jpg"  transform="matrix(0.4737 0 0 0.9474 198.6118 245.5459)" style="desplay:none" />
  <rect x="100.721" y="287.143" fill="none" stroke="#000000" stroke-miterlimit="10" width="22.532" height="19.48"/>
  <rect x="133.84" y="287.143" fill="none" stroke="#000000" stroke-miterlimit="10" width="22.532" height="19.48"/>
  <rect x="166.959" y="287.143" fill="none" stroke="#000000" stroke-miterlimit="10" width="22.531" height="19.48"/>
  <rect x="200.078" y="287.143" fill="none" stroke="#000000" stroke-miterlimit="10" width="22.531" height="19.48"/>
  <image id="pc__" overflow="visible" width="48" height="23" xlink:href="on.jpg"  transform="matrix(0.4737 0 0 0.9474 100.6187 285.9883)" style="desplay:none" />
  <image id="pc__" overflow="visible" width="48" height="23" xlink:href="on.jpg"  transform="matrix(0.4737 0 0 0.9474 133.7378 285.9883)" style="desplay:none" />
  <image id="pc__" overflow="visible" width="48" height="23" xlink:href="on.jpg"  transform="matrix(0.4737 0 0 0.9474 166.8564 286.5459)" style="desplay:none" />
  <image id="pc__" overflow="visible" width="48" height="23" xlink:href="on.jpg"  transform="matrix(0.4737 0 0 0.9474 199.6118 286.5459)" style="desplay:none" />
  <rect x="102.721" y="332.143" fill="none" stroke="#000000" stroke-miterlimit="10" width="22.532" height="19.48"/>
  <rect x="135.84" y="332.143" fill="none" stroke="#000000" stroke-miterlimit="10" width="22.532" height="19.48"/>
  <rect x="168.959" y="332.143" fill="none" stroke="#000000" stroke-miterlimit="10" width="22.531" height="19.48"/>
  <rect x="202.078" y="332.143" fill="none" stroke="#000000" stroke-miterlimit="10" width="22.531" height="19.48"/>
  <image id="pc__" overflow="visible" width="48" height="23" xlink:href="on.jpg"  transform="matrix(0.4737 0 0 0.9474 102.6187 330.9883)" style="desplay:none" />
  <image id="pc__" overflow="visible" width="48" height="23" xlink:href="on.jpg"  transform="matrix(0.4737 0 0 0.9474 135.7378 330.9883)" style="desplay:none" />
  <image id="pc__" overflow="visible" width="48" height="23" xlink:href="on.jpg"  transform="matrix(0.4737 0 0 0.9474 168.8564 331.5459)" style="desplay:none" />
  <image id="pc__" overflow="visible" width="48" height="23" xlink:href="on.jpg"  transform="matrix(0.4737 0 0 0.9474 201.6118 331.5459)" style="desplay:none" />
  <rect x="103.721" y="370.143" fill="none" stroke="#000000" stroke-miterlimit="10" width="22.532" height="19.48"/>
  <rect x="136.84" y="370.143" fill="none" stroke="#000000" stroke-miterlimit="10" width="22.532" height="19.48"/>
  <rect x="169.959" y="370.143" fill="none" stroke="#000000" stroke-miterlimit="10" width="22.531" height="19.48"/>
  <rect x="203.078" y="370.143" fill="none" stroke="#000000" stroke-miterlimit="10" width="22.531" height="19.48"/>
  <image id="pc__" overflow="visible" width="48" height="23" xlink:href="on.jpg"  transform="matrix(0.4737 0 0 0.9474 103.6187 368.9883)" style="desplay:none" />
  <image id="pc__" overflow="visible" width="48" height="23" xlink:href="on.jpg"  transform="matrix(0.4737 0 0 0.9474 136.7378 368.9883)" style="desplay:none" />
  <image id="pc__" overflow="visible" width="48" height="23" xlink:href="on.jpg"  transform="matrix(0.4737 0 0 0.9474 169.8564 369.5469)" style="desplay:none" />
  <image id="pc__" overflow="visible" width="48" height="23" xlink:href="on.jpg"  transform="matrix(0.4737 0 0 0.9474 202.6118 369.5469)" style="desplay:none" />
  <rect x="102.721" y="412.143" fill="none" stroke="#000000" stroke-miterlimit="10" width="22.532" height="19.48"/>
  <rect x="135.84" y="412.143" fill="none" stroke="#000000" stroke-miterlimit="10" width="22.532" height="19.48"/>
  <rect x="168.959" y="412.143" fill="none" stroke="#000000" stroke-miterlimit="10" width="22.531" height="19.48"/>
  <rect x="202.078" y="412.143" fill="none" stroke="#000000" stroke-miterlimit="10" width="22.531" height="19.48"/>
  <image id="pc__" overflow="visible" width="48" height="23" xlink:href="on.jpg"  transform="matrix(0.4737 0 0 0.9474 102.6187 410.9883)" style="desplay:none" />
  <image id="pc__" overflow="visible" width="48" height="23" xlink:href="on.jpg"  transform="matrix(0.4737 0 0 0.9474 135.7378 410.9883)" style="desplay:none" />
  <image id="pc__" overflow="visible" width="48" height="23" xlink:href="on.jpg"  transform="matrix(0.4737 0 0 0.9474 168.8564 411.5469)" style="desplay:none" />
  <image id="pc__" overflow="visible" width="48" height="23" xlink:href="on.jpg"  transform="matrix(0.4737 0 0 0.9474 201.6118 411.5469)" style="desplay:none" />
  <rect x="136.84" y="461.143" fill="none" stroke="#000000" stroke-miterlimit="10" width="22.532" height="19.48"/>
  <rect x="169.959" y="461.143" fill="none" stroke="#000000" stroke-miterlimit="10" width="22.531" height="19.48"/>
  <rect x="203.078" y="461.143" fill="none" stroke="#000000" stroke-miterlimit="10" width="22.531" height="19.48"/>
  <image id="pc__" overflow="visible" width="48" height="23" xlink:href="on.jpg"  transform="matrix(0.4737 0 0 0.9474 136.7378 459.9883)" style="desplay:none" />
  <image id="pc__" overflow="visible" width="48" height="23" xlink:href="on.jpg"  transform="matrix(0.4737 0 0 0.9474 169.8564 460.5469)" style="desplay:none" />
  <image id="pc__" overflow="visible" width="48" height="23" xlink:href="on.jpg"  transform="matrix(0.4737 0 0 0.9474 202.6118 460.5469)" style="desplay:none" />
  <image id="pc__" overflow="visible" width="48" height="23" xlink:href="on.jpg"  transform="matrix(0.4737 0 0 0.9474 165.856 207.4165)" style="desplay:none" />
  <image id="pc__" overflow="visible" width="48" height="23" xlink:href="on.jpg"  transform="matrix(0.4737 0 0 0.9474 273.8965 217.311)" style="desplay:none" />
  <image id="pc__" overflow="visible" width="48" height="23" xlink:href="on.jpg"  transform="matrix(0.4737 0 0 0.9474 307.1406 217.1567)" style="desplay:none" />
  <image id="pc__" overflow="visible" width="48" height="23" xlink:href="on.jpg"  transform="matrix(0.4737 0 0 0.9474 373.3789 218.3115)" style="desplay:none" />
  <image id="pc__" overflow="visible" width="48" height="23" xlink:href="on.jpg"  transform="matrix(0.4737 0 0 0.9474 340.9668 218.3115)" style="desplay:none" />
  <image id="pc__" overflow="visible" width="48" height="23" xlink:href="on.jpg"  transform="matrix(0.4737 0 0 0.9474 273.9346 255.46)" style="desplay:none" />
  <image id="pc__" overflow="visible" width="48" height="23" xlink:href="on.jpg"  transform="matrix(0.4737 0 0 0.9474 307.1787 255.3057)" style="desplay:none" />
  <image id="pc__" overflow="visible" width="48" height="23" xlink:href="on.jpg"  transform="matrix(0.4737 0 0 0.9474 373.417 256.4604)" style="desplay:none" />
  <image id="pc__" overflow="visible" width="48" height="23" xlink:href="on.jpg"  transform="matrix(0.4737 0 0 0.9474 341.0049 256.4604)" style="desplay:none" />
  <image id="pc__" overflow="visible" width="48" height="23" xlink:href="on.jpg"  transform="matrix(0.4737 0 0 0.9474 274.8965 296.311)" style="desplay:none" />
  <image id="pc__" overflow="visible" width="48" height="23" xlink:href="on.jpg"  transform="matrix(0.4737 0 0 0.9474 308.1406 296.1567)" style="desplay:none" />
  <image id="pc__" overflow="visible" width="48" height="23" xlink:href="on.jpg"  transform="matrix(0.4737 0 0 0.9474 374.3789 297.3115)" style="desplay:none" />
  <image id="pc__" overflow="visible" width="48" height="23" xlink:href="on.jpg"  transform="matrix(0.4737 0 0 0.9474 341.9668 297.3115)" style="desplay:none" />
  <image id="pc__" overflow="visible" width="48" height="23" xlink:href="on.jpg"  transform="matrix(0.4737 0 0 0.9474 274.8965 337.311)" style="desplay:none" />
  <image id="pc__" overflow="visible" width="48" height="23" xlink:href="on.jpg"  transform="matrix(0.4737 0 0 0.9474 308.1406 337.1567)" style="desplay:none" />
  <image id="pc__" overflow="visible" width="48" height="23" xlink:href="on.jpg"  transform="matrix(0.4737 0 0 0.9474 341.9668 338.3115)" style="desplay:none" />
  <image id="pc__" overflow="visible" width="48" height="23" xlink:href="on.jpg"  transform="matrix(0.4737 0 0 0.9474 273.9346 380.6426)" style="desplay:none" />
  <image id="pc__" overflow="visible" width="48" height="23" xlink:href="on.jpg"  transform="matrix(0.4737 0 0 0.9474 307.1787 380.4883)" style="desplay:none" />
  <image id="pc__" overflow="visible" width="48" height="23" xlink:href="on.jpg"  transform="matrix(0.4737 0 0 0.9474 373.417 381.6445)" style="desplay:none" />
  <image id="pc__" overflow="visible" width="48" height="23" xlink:href="on.jpg"  transform="matrix(0.4737 0 0 0.9474 341.0049 381.6445)" style="desplay:none" />
  <image id="pc__" overflow="visible" width="48" height="23" xlink:href="on.jpg"  transform="matrix(0.4737 0 0 0.9474 273.8965 421.3105)" style="desplay:none" />
  <image id="pc__" overflow="visible" width="48" height="23" xlink:href="on.jpg"  transform="matrix(0.4737 0 0 0.9474 307.1406 421.1562)" style="desplay:none" />
  <image id="pc__" overflow="visible" width="48" height="23" xlink:href="on.jpg"  transform="matrix(0.4737 0 0 0.9474 373.3789 422.3125)" style="desplay:none" />
  <image id="pc__" overflow="visible" width="48" height="23" xlink:href="on.jpg"  transform="matrix(0.4737 0 0 0.9474 340.9668 422.3125)" style="desplay:none" />
  <image id="pc__" overflow="visible" width="48" height="23" xlink:href="on.jpg"  transform="matrix(0.4737 0 0 0.9474 273.8965 460.3105)" style="desplay:none" />
  <image id="pc__" overflow="visible" width="48" height="23" xlink:href="on.jpg"  transform="matrix(0.4737 0 0 0.9474 307.1406 460.1562)" style="desplay:none" />
  <image id="pc__" overflow="visible" width="48" height="23" xlink:href="on.jpg"  transform="matrix(0.4737 0 0 0.9474 373.3789 461.3125)" style="desplay:none" />
  <image id="pc__" overflow="visible" width="48" height="23" xlink:href="on.jpg"  transform="matrix(0.4737 0 0 0.9474 340.9668 461.3125)" style="desplay:none" />
</g>
<script xlink:href="http://ajax.googleapis.com/ajax/libs/jquery/1.7.2/jquery.min.js" />
<script xlink:href="innersvg.js" />
<script xlink:href="room.js" />
<script xlink:href="roomT.js" />
</svg>
