<?xml version="1.0" encoding="utf-8"?>
<!-- Generator: Adobe Illustrator 16.0.0, SVG Export Plug-In . SVG Version: 6.00 Build 0)  -->
<!DOCTYPE svg PUBLIC "-//W3C//DTD SVG 1.1//EN" "http://www.w3.org/Graphics/SVG/1.1/DTD/svg11.dtd">
<svg version="1.1" xmlns="http://www.w3.org/2000/svg" xmlns:xlink="http://www.w3.org/1999/xlink" x="0px" y="0px" width="480px"
	 height="720px" viewBox="0 0 480 720" enable-background="new 0 0 480 720" xml:space="preserve">
<g id="レイヤー_1">
	
		<rect x="31.26" y="51.429" fill="none" stroke="#000000" stroke-width="3" stroke-miterlimit="10" width="422.078" height="638.961"/>
	<rect x="24.117" y="86.494" fill="#FFFFFF" stroke="#FFFFFF" stroke-miterlimit="10" width="16.883" height="40.26"/>
	
		<image overflow="visible" width="51" height="26" xlink:href="../Desktop/5990003E711BB326.jpg"  transform="matrix(0.5167 0 0 0.5392 60.2168 69.8755)">
	</image>
	<rect x="24.117" y="491.039" fill="#FFFFFF" stroke="#FFFFFF" stroke-miterlimit="10" width="16.883" height="40.26"/>
	<rect x="444.701" y="92.273" fill="#FFFFFF" stroke="#FFFFFF" stroke-miterlimit="10" width="16.883" height="40.26"/>
	
		<image overflow="visible" width="51" height="26" xlink:href="../Desktop/5990003E711BB326.jpg"  transform="matrix(0.4838 0 0 0.4717 83.2075 147.688)">
	</image>
	
		<image overflow="visible" width="51" height="26" xlink:href="../Desktop/5990003E711BB326.jpg"  transform="matrix(-0.2825 0.3928 -0.383 -0.2754 122.4551 168.4502)">
	</image>
	
		<image overflow="visible" width="51" height="26" xlink:href="../Desktop/5990003E711BB326.jpg"  transform="matrix(0.3345 0.3496 -0.3408 0.3261 77.603 160.4326)">
	</image>
	
		<image overflow="visible" width="51" height="26" xlink:href="../Desktop/5990003E711BB326.jpg"  transform="matrix(-0.4823 -0.039 0.0381 -0.4702 101.8613 256.3564)">
	</image>
	
		<image overflow="visible" width="51" height="26" xlink:href="../Desktop/5990003E711BB326.jpg"  transform="matrix(0.2588 -0.4088 0.3986 0.2523 65.3018 234.2109)">
	</image>
	
		<image overflow="visible" width="51" height="26" xlink:href="../Desktop/5990003E711BB326.jpg"  transform="matrix(-0.3052 -0.3754 0.366 -0.2976 108.481 244.1094)">
	</image>
	
		<image overflow="visible" width="51" height="26" xlink:href="../Desktop/5990003E711BB326.jpg"  transform="matrix(-0.4551 0.1642 -0.1601 -0.4437 109.1436 319.416)">
	</image>
	
		<image overflow="visible" width="51" height="26" xlink:href="../Desktop/5990003E711BB326.jpg"  transform="matrix(0.0011 -0.4838 0.4717 0.0011 68.2886 315.3501)">
	</image>
	
		<image overflow="visible" width="51" height="26" xlink:href="../Desktop/5990003E711BB326.jpg"  transform="matrix(-0.4333 -0.2153 0.2099 -0.4225 104.8906 305.5312)">
	</image>
	
		<image overflow="visible" width="51" height="26" xlink:href="../Desktop/5990003E711BB326.jpg"  transform="matrix(-0.0033 0.4838 -0.4717 -0.0033 97.2163 379.5098)">
	</image>
	
		<image overflow="visible" width="51" height="26" xlink:href="../Desktop/5990003E711BB326.jpg"  transform="matrix(-0.4268 -0.2279 0.2222 -0.4161 77.8242 417.6152)">
	</image>
	
		<image overflow="visible" width="51" height="26" xlink:href="../Desktop/5990003E711BB326.jpg"  transform="matrix(-0.3519 0.3321 -0.3238 -0.3431 84.5049 373.8164)">
	</image>
	
		<image overflow="visible" width="51" height="26" xlink:href="../Desktop/5990003E711BB326.jpg"  transform="matrix(0.4103 0.2564 -0.25 0.4 88.6401 442.7441)">
	</image>
	
		<image overflow="visible" width="51" height="26" xlink:href="../Desktop/5990003E711BB326.jpg"  transform="matrix(-0.4178 0.244 -0.2379 -0.4073 110.9307 479.2246)">
	</image>
	
		<image overflow="visible" width="51" height="26" xlink:href="../Desktop/5990003E711BB326.jpg"  transform="matrix(0.0984 0.4737 -0.4619 0.096 77.1382 450.5879)">
	</image>
	
		<image overflow="visible" width="51" height="26" xlink:href="../Desktop/5990003E711BB326.jpg"  transform="matrix(-0.0033 0.4838 -0.4717 -0.0033 105.0093 549.6406)">
	</image>
	
		<image overflow="visible" width="51" height="26" xlink:href="../Desktop/5990003E711BB326.jpg"  transform="matrix(-0.3421 -0.2328 0.2654 -0.39 84.375 588.5273)">
	</image>
	
		<image overflow="visible" width="51" height="26" xlink:href="../Desktop/5990003E711BB326.jpg"  transform="matrix(-0.3519 0.3321 -0.3238 -0.3431 92.2979 543.9463)">
	</image>
	
		<image overflow="visible" width="51" height="26" xlink:href="../Desktop/5990003E711BB326.jpg"  transform="matrix(-0.4823 -0.039 0.0381 -0.4702 283.4277 164.9565)">
	</image>
	
		<image overflow="visible" width="51" height="26" xlink:href="../Desktop/5990003E711BB326.jpg"  transform="matrix(0.3251 -0.3584 0.3494 0.317 245.8164 140.6841)">
	</image>
	
		<image overflow="visible" width="51" height="26" xlink:href="../Desktop/5990003E711BB326.jpg"  transform="matrix(-0.3052 -0.3754 0.366 -0.2976 290.0469 152.707)">
	</image>
	
		<image overflow="visible" width="51" height="26" xlink:href="../Desktop/5990003E711BB326.jpg"  transform="matrix(-0.4551 0.1642 -0.1601 -0.4437 364.0527 149.2852)">
	</image>
	
		<image overflow="visible" width="51" height="26" xlink:href="../Desktop/5990003E711BB326.jpg"  transform="matrix(-0.0874 -0.4759 0.464 -0.0853 325.5586 146.144)">
	</image>
	
		<image overflow="visible" width="51" height="26" xlink:href="../Desktop/5990003E711BB326.jpg"  transform="matrix(-0.4062 -0.2628 0.2563 -0.3961 358.5068 136.2656)">
	</image>
	
		<image overflow="visible" width="51" height="26" xlink:href="../Desktop/5990003E711BB326.jpg"  transform="matrix(0.4838 0 0 0.4717 229.4663 182.0259)">
	</image>
	
		<image overflow="visible" width="51" height="26" xlink:href="../Desktop/5990003E711BB326.jpg"  transform="matrix(-0.225 0.4284 -0.4176 -0.2193 267.6963 201.1504)">
	</image>
	
		<image overflow="visible" width="51" height="26" xlink:href="../Desktop/5990003E711BB326.jpg"  transform="matrix(0.3345 0.3496 -0.3408 0.3261 223.8618 194.7705)">
	</image>
	
		<image overflow="visible" width="51" height="26" xlink:href="../Desktop/5990003E711BB326.jpg"  transform="matrix(0.4691 -0.1186 0.1156 0.4573 248.5479 264.9189)">
	</image>
	
		<image overflow="visible" width="51" height="26" xlink:href="../Desktop/5990003E711BB326.jpg"  transform="matrix(-0.1131 0.4704 -0.4587 -0.1103 292.2988 272.0913)">
	</image>
	
		<image overflow="visible" width="51" height="26" xlink:href="../Desktop/5990003E711BB326.jpg"  transform="matrix(0.41 0.2569 -0.2505 0.3997 249.2344 278.6465)">
	</image>
	
		<image overflow="visible" width="51" height="26" xlink:href="../Desktop/5990003E711BB326.jpg"  transform="matrix(-0.4448 0.1903 -0.1856 -0.4337 365.9531 291.7041)">
	</image>
	
		<image overflow="visible" width="51" height="26" xlink:href="../Desktop/5990003E711BB326.jpg"  transform="matrix(0.0011 -0.4838 0.4717 0.0011 322.0312 289.4272)">
	</image>
	
		<image overflow="visible" width="51" height="26" xlink:href="../Desktop/5990003E711BB326.jpg"  transform="matrix(-0.4333 -0.2153 0.2099 -0.4225 358.6318 279.6074)">
	</image>
	
		<image overflow="visible" width="51" height="26" xlink:href="../Desktop/5990003E711BB326.jpg"  transform="matrix(-0.482 0.0426 -0.0415 -0.4699 302.4873 354.5439)">
	</image>
	
		<image overflow="visible" width="51" height="26" xlink:href="../Desktop/5990003E711BB326.jpg"  transform="matrix(0.2261 -0.4278 0.4171 0.2204 261.9434 337.8745)">
	</image>
	
		<image overflow="visible" width="51" height="26" xlink:href="../Desktop/5990003E711BB326.jpg"  transform="matrix(-0.364 -0.3188 0.3108 -0.3549 306.9512 341.3496)">
	</image>
	
		<image overflow="visible" width="51" height="26" xlink:href="../Desktop/5990003E711BB326.jpg"  transform="matrix(-0.4551 0.1642 -0.1601 -0.4437 377.5732 355.8301)">
	</image>
	
		<image overflow="visible" width="51" height="26" xlink:href="../Desktop/5990003E711BB326.jpg"  transform="matrix(0.0011 -0.4838 0.4717 0.0011 333.7188 351.7651)">
	</image>
	
		<image overflow="visible" width="51" height="26" xlink:href="../Desktop/5990003E711BB326.jpg"  transform="matrix(-0.4333 -0.2153 0.2099 -0.4225 370.3203 341.9453)">
	</image>
	
		<image overflow="visible" width="51" height="26" xlink:href="../Desktop/5990003E711BB326.jpg"  transform="matrix(-0.4735 0.0997 -0.0972 -0.4616 326.7109 410.2607)">
	</image>
	
		<image overflow="visible" width="51" height="26" xlink:href="../Desktop/5990003E711BB326.jpg"  transform="matrix(0.139 -0.4634 0.4518 0.1355 287.8525 403.7461)">
	</image>
	
		<image overflow="visible" width="51" height="26" xlink:href="../Desktop/5990003E711BB326.jpg"  transform="matrix(-0.3953 -0.279 0.272 -0.3854 328.8301 396.9316)">
	</image>
	
		<image overflow="visible" width="51" height="26" xlink:href="../Desktop/5990003E711BB326.jpg"  transform="matrix(-0.4735 0.0997 -0.0972 -0.4616 331.5498 468.9365)">
	</image>
	
		<image overflow="visible" width="51" height="26" xlink:href="../Desktop/5990003E711BB326.jpg"  transform="matrix(0.139 -0.4634 0.4518 0.1355 291.6914 459.4219)">
	</image>
	
		<image overflow="visible" width="51" height="26" xlink:href="../Desktop/5990003E711BB326.jpg"  transform="matrix(0.5167 0 0 0.5392 363.0156 71.3818)">
	</image>
	
		<image overflow="visible" width="51" height="26" xlink:href="../Desktop/5990003E711BB326.jpg"  transform="matrix(-0.3953 -0.279 0.272 -0.3854 333.668 455.6074)">
	</image>
	
		<image overflow="visible" width="51" height="26" xlink:href="../Desktop/5990003E711BB326.jpg"  transform="matrix(-0.4834 0.0198 -0.0193 -0.4713 337.4395 527.0957)">
	</image>
	
		<image overflow="visible" width="51" height="26" xlink:href="../Desktop/5990003E711BB326.jpg"  transform="matrix(0.5167 0 0 0.5392 214.6846 70.8755)">
	</image>
	
		<image overflow="visible" width="51" height="26" xlink:href="../Desktop/5990003E711BB326.jpg"  transform="matrix(0.2605 -0.4077 0.3975 0.254 297.8516 509.8486)">
	</image>
	
		<image overflow="visible" width="51" height="26" xlink:href="../Desktop/5990003E711BB326.jpg"  transform="matrix(-0.3084 -0.3729 0.3635 -0.3006 340.4238 515.6836)">
	</image>
	
		<image overflow="visible" width="51" height="26" xlink:href="../Desktop/5990003E711BB326.jpg"  transform="matrix(0.4148 0 0 0.8004 202.1411 571.6875)">
	</image>
	
		<image overflow="visible" width="51" height="26" xlink:href="../Desktop/5990003E711BB326.jpg"  transform="matrix(0.4148 0 0 0.8004 227.4395 571.2461)">
	</image>
	
		<image overflow="visible" width="51" height="26" xlink:href="../Desktop/5990003E711BB326.jpg"  transform="matrix(0.5167 0 0 0.5392 402.3125 72.2466)">
	</image>
	
		<image overflow="visible" width="51" height="26" xlink:href="../Desktop/5990003E711BB326.jpg"  transform="matrix(0.4148 0 0 0.8004 204.0635 602.4141)">
	</image>
	
		<image overflow="visible" width="51" height="26" xlink:href="../Desktop/5990003E711BB326.jpg"  transform="matrix(0.5167 0 0 0.5392 177.0879 71.2466)">
	</image>
	
		<image overflow="visible" width="51" height="26" xlink:href="../Desktop/5990003E711BB326.jpg"  transform="matrix(0.5167 0 0 0.5392 331.5566 72.2466)">
	</image>
	
		<image overflow="visible" width="51" height="26" xlink:href="../Desktop/5990003E711BB326.jpg"  transform="matrix(0.5167 0 0 0.5392 292.2578 71.3818)">
	</image>
	
		<image overflow="visible" width="51" height="26" xlink:href="../Desktop/5990003E711BB326.jpg"  transform="matrix(0.5167 0 0 0.5392 99.5142 69.7407)">
	</image>
	
		<image overflow="visible" width="51" height="26" xlink:href="../Desktop/5990003E711BB326.jpg"  transform="matrix(0.4148 0 0 0.8004 226.1411 602.4141)">
	</image>
	
		<image overflow="visible" width="51" height="26" xlink:href="../Desktop/5990003E711BB326.jpg"  transform="matrix(0.5167 0 0 0.5392 137.79 70.3818)">
	</image>
	
		<image overflow="visible" width="51" height="26" xlink:href="../Desktop/5990003E711BB326.jpg"  transform="matrix(0.5167 0 0 0.5392 253.9824 70.7407)">
	</image>
	<line stroke="#000000" stroke-width="3" stroke-miterlimit="10" x1="453.338" y1="137.454" x2="315.676" y2="690.701"/>
	
		<rect x="335.611" y="554.611" transform="matrix(0.9702 0.2422 -0.2422 0.9702 149.434 -66.2137)" fill="#FFFFFF" stroke="#FFFFFF" stroke-miterlimit="10" width="16.883" height="40.26"/>
	<rect x="450.739" y="127.064" fill="#FFFFFF" width="25.975" height="570.131"/>
	<rect x="318.272" y="686.805" fill="#FFFFFF" width="157.143" height="12.987"/>
	<text transform="matrix(1 0 0 1 195.2881 37.9961)" fill="#040000" font-family="'KozGoPr6N-Regular-83pv-RKSJ-H'" font-size="18">P</text>
	
		<text transform="matrix(1 0 0 1 205.5479 37.9961)" fill="#040000" font-family="'KozGoPr6N-Regular-83pv-RKSJ-H'" font-size="18" letter-spacing="3">C</text>
	<text transform="matrix(1 0 0 1 221.2261 37.5381)" fill="#040000" font-family="'KozGoPr6N-Regular-83pv-RKSJ-H'" font-size="18">プラザ</text>
	<text transform="matrix(1 0 0 1 52.8203 119.6074)" fill="#040000" font-family="'KozGoPr6N-Regular-83pv-RKSJ-H'" font-size="18">C</text>
	
		<text transform="matrix(1 0 0 1 63.9985 119.6074)" fill="#040000" font-family="'KozGoPr6N-Regular-83pv-RKSJ-H'" font-size="18" letter-spacing="3">D</text>
	<text transform="matrix(1 0 0 1 81.3145 119.1504)" fill="#040000" font-family="'KozGoPr6N-Regular-83pv-RKSJ-H'" font-size="18">教室</text>
	
		<text transform="matrix(1 0 0 1 54.1577 523.8545)" fill="#040000" font-family="'KozGoPr6N-Regular-83pv-RKSJ-H'" font-size="18" letter-spacing="3">F</text>
	<text transform="matrix(1 0 0 1 67.9995 523.3965)" fill="#040000" font-family="'KozGoPr6N-Regular-83pv-RKSJ-H'" font-size="18">教室</text>
</g>
<g id="レイヤー_2">
	
		<image overflow="visible" width="48" height="23" xlink:href="../Desktop/5990003E711BB327.jpg"  transform="matrix(0.5337 0 0 0.5521 59.7314 70.9087)">
	</image>
	
		<image overflow="visible" width="48" height="23" xlink:href="../Desktop/5990003E711BB327.jpg"  transform="matrix(0.5337 0 0 0.5521 99.2695 70.4023)">
	</image>
	
		<image overflow="visible" width="48" height="23" xlink:href="../Desktop/5990003E711BB327.jpg"  transform="matrix(0.5337 0 0 0.5521 137.3052 71.4141)">
	</image>
	
		<image overflow="visible" width="48" height="23" xlink:href="../Desktop/5990003E711BB327.jpg"  transform="matrix(0.5337 0 0 0.5521 176.8433 71.9087)">
	</image>
	
		<image overflow="visible" width="48" height="23" xlink:href="../Desktop/5990003E711BB327.jpg"  transform="matrix(0.5337 0 0 0.5521 214.1997 71.9087)">
	</image>
	
		<image overflow="visible" width="48" height="23" xlink:href="../Desktop/5990003E711BB327.jpg"  transform="matrix(0.5337 0 0 0.5521 253.7383 71.4023)">
	</image>
	
		<image overflow="visible" width="48" height="23" xlink:href="../Desktop/5990003E711BB327.jpg"  transform="matrix(0.5337 0 0 0.5521 291.7734 72.4141)">
	</image>
	
		<image overflow="visible" width="48" height="23" xlink:href="../Desktop/5990003E711BB327.jpg"  transform="matrix(0.5337 0 0 0.5521 331.3105 72.9087)">
	</image>
	
		<image overflow="visible" width="48" height="23" xlink:href="../Desktop/5990003E711BB327.jpg"  transform="matrix(0.5337 0 0 0.5521 362.5293 72.4141)">
	</image>
	
		<image overflow="visible" width="48" height="23" xlink:href="../Desktop/5990003E711BB327.jpg"  transform="matrix(0.5337 0 0 0.5521 402.0684 72.9087)">
	</image>
	
		<image overflow="visible" width="48" height="23" xlink:href="../Desktop/5990003E711BB327.jpg"  transform="matrix(0.4869 -0.009 0.0102 0.552 83.5649 148.4492)">
	</image>
	
		<image overflow="visible" width="48" height="23" xlink:href="../Desktop/5990003E711BB327.jpg"  transform="matrix(-0.3258 -0.362 0.4104 -0.3693 85.9209 186.4287)">
	</image>
	
		<image overflow="visible" width="48" height="23" xlink:href="../Desktop/5990003E711BB327.jpg"  transform="matrix(0.2699 -0.4054 0.4596 0.306 98.2427 179.1523)">
	</image>
	
		<image overflow="visible" width="48" height="23" xlink:href="../Desktop/5990003E711BB327.jpg"  transform="matrix(-0.4856 -0.0366 0.0415 -0.5506 283.4795 165.4219)">
	</image>
	
		<image overflow="visible" width="48" height="23" xlink:href="../Desktop/5990003E711BB327.jpg"  transform="matrix(0.2905 0.3909 -0.4432 0.3293 284.6846 127.3857)">
	</image>
	
		<image overflow="visible" width="48" height="23" xlink:href="../Desktop/5990003E711BB327.jpg"  transform="matrix(-0.3065 0.3785 -0.4291 -0.3474 271.7344 133.4766)">
	</image>
	
		<image overflow="visible" width="48" height="23" xlink:href="../Desktop/5990003E711BB327.jpg"  transform="matrix(0.4102 0.2626 -0.2976 0.465 342.8066 114.2778)">
	</image>
	
		<image overflow="visible" width="48" height="23" xlink:href="../Desktop/5990003E711BB327.jpg"  transform="matrix(-0.0703 -0.4819 0.5463 -0.0797 323.7031 147.1816)">
	</image>
	
		<image overflow="visible" width="48" height="23" xlink:href="../Desktop/5990003E711BB327.jpg"  transform="matrix(0.4493 -0.1879 0.213 0.5094 337.998 147.9692)">
	</image>
	
		<image overflow="visible" width="48" height="23" xlink:href="../Desktop/5990003E711BB327.jpg"  transform="matrix(0.4102 0.2626 -0.2976 0.465 341.1445 175.5635)">
	</image>
	
		<image overflow="visible" width="48" height="23" xlink:href="../Desktop/5990003E711BB327.jpg"  transform="matrix(-0.0703 -0.4819 0.5463 -0.0797 322.041 208.4668)">
	</image>
	
		<image overflow="visible" width="48" height="23" xlink:href="../Desktop/5990003E711BB327.jpg"  transform="matrix(0.4493 -0.1879 0.213 0.5094 336.3359 209.2544)">
	</image>
	
		<image overflow="visible" width="48" height="23" xlink:href="../Desktop/5990003E711BB327.jpg"  transform="matrix(0.4869 -0.009 0.0102 0.552 230.4688 182.6914)">
	</image>
	
		<image overflow="visible" width="48" height="23" xlink:href="../Desktop/5990003E711BB327.jpg"  transform="matrix(-0.3258 -0.362 0.4104 -0.3693 232.8252 220.6709)">
	</image>
	
		<image overflow="visible" width="48" height="23" xlink:href="../Desktop/5990003E711BB327.jpg"  transform="matrix(0.2699 -0.4054 0.4596 0.306 245.1475 213.3955)">
	</image>
	
		<image overflow="visible" width="48" height="23" xlink:href="../Desktop/5990003E711BB327.jpg"  transform="matrix(-0.4856 -0.0366 0.0415 -0.5506 102.0254 255.5645)">
	</image>
	
		<image overflow="visible" width="48" height="23" xlink:href="../Desktop/5990003E711BB327.jpg"  transform="matrix(0.2905 0.3909 -0.4432 0.3293 103.2305 217.5298)">
	</image>
	
		<image overflow="visible" width="48" height="23" xlink:href="../Desktop/5990003E711BB327.jpg"  transform="matrix(-0.3065 0.3785 -0.4291 -0.3474 90.2803 223.6201)">
	</image>
	
		<image overflow="visible" width="48" height="23" xlink:href="../Desktop/5990003E711BB327.jpg"  transform="matrix(0.4102 0.2626 -0.2976 0.465 89.0928 282.8369)">
	</image>
	
		<image overflow="visible" width="48" height="23" xlink:href="../Desktop/5990003E711BB327.jpg"  transform="matrix(-0.0703 -0.4819 0.5463 -0.0797 69.9888 315.7402)">
	</image>
	
		<image overflow="visible" width="48" height="23" xlink:href="../Desktop/5990003E711BB327.jpg"  transform="matrix(0.4493 -0.1879 0.213 0.5094 84.2842 316.5278)">
	</image>
	
		<image overflow="visible" width="48" height="23" xlink:href="../Desktop/5990003E711BB327.jpg"  transform="matrix(-0.0024 0.487 -0.5521 -0.0027 96.3931 379.4688)">
	</image>
	
		<image overflow="visible" width="48" height="23" xlink:href="../Desktop/5990003E711BB327.jpg"  transform="matrix(0.3695 -0.3172 0.3596 0.4189 58.3726 380.9365)">
	</image>
	
		<image overflow="visible" width="48" height="23" xlink:href="../Desktop/5990003E711BB327.jpg"  transform="matrix(0.3991 0.2791 -0.3164 0.4525 65.3569 393.4297)">
	</image>
	
		<image overflow="visible" width="48" height="23" xlink:href="../Desktop/5990003E711BB327.jpg"  transform="matrix(0.4102 0.2626 -0.2976 0.465 89.041 444.1621)">
	</image>
	
		<image overflow="visible" width="48" height="23" xlink:href="../Desktop/5990003E711BB327.jpg"  transform="matrix(-0.0703 -0.4819 0.5463 -0.0797 69.936 477.0654)">
	</image>
	
		<image overflow="visible" width="48" height="23" xlink:href="../Desktop/5990003E711BB327.jpg"  transform="matrix(0.4493 -0.1879 0.213 0.5094 84.2319 477.8535)">
	</image>
	
		<image overflow="visible" width="48" height="23" xlink:href="../Desktop/5990003E711BB327.jpg"  transform="matrix(-0.0024 0.487 -0.5521 -0.0027 105.7446 550.8965)">
	</image>
	
		<image overflow="visible" width="48" height="23" xlink:href="../Desktop/5990003E711BB327.jpg"  transform="matrix(0.3695 -0.3172 0.3596 0.4189 67.7231 552.3652)">
	</image>
	
		<image overflow="visible" width="48" height="23" xlink:href="../Desktop/5990003E711BB327.jpg"  transform="matrix(0.3991 0.2791 -0.3164 0.4525 74.7075 564.8584)">
	</image>
	
		<image overflow="visible" width="48" height="23" xlink:href="../Desktop/5990003E711BB327.jpg"  transform="matrix(0.4102 0.2626 -0.2976 0.465 343.793 256.875)">
	</image>
	
		<image overflow="visible" width="48" height="23" xlink:href="../Desktop/5990003E711BB327.jpg"  transform="matrix(-0.0703 -0.4819 0.5463 -0.0797 324.6895 289.7783)">
	</image>
	
		<image overflow="visible" width="48" height="23" xlink:href="../Desktop/5990003E711BB327.jpg"  transform="matrix(0.4493 -0.1879 0.213 0.5094 338.9844 290.5659)">
	</image>
	
		<image overflow="visible" width="48" height="23" xlink:href="../Desktop/5990003E711BB327.jpg"  transform="matrix(0.459 -0.1628 0.1845 0.5204 248.0918 267.2183)">
	</image>
	
		<image overflow="visible" width="48" height="23" xlink:href="../Desktop/5990003E711BB327.jpg"  transform="matrix(-0.4237 -0.2402 0.2723 -0.4803 262.3555 302.498)">
	</image>
	
		<image overflow="visible" width="48" height="23" xlink:href="../Desktop/5990003E711BB327.jpg"  transform="matrix(0.1276 -0.47 0.5328 0.1446 271.7422 291.687)">
	</image>
	
		<image overflow="visible" width="48" height="23" xlink:href="../Desktop/5990003E711BB327.jpg"  transform="matrix(-0.4869 0.009 -0.0102 -0.552 301.3574 354.7578)">
	</image>
	
		<image overflow="visible" width="48" height="23" xlink:href="../Desktop/5990003E711BB327.jpg"  transform="matrix(0.3258 0.362 -0.4104 0.3693 299.0059 316.7739)">
	</image>
	
		<image overflow="visible" width="48" height="23" xlink:href="../Desktop/5990003E711BB327.jpg"  transform="matrix(-0.2697 0.4055 -0.4597 -0.3058 286.6748 324.0537)">
	</image>
	
		<image overflow="visible" width="48" height="23" xlink:href="../Desktop/5990003E711BB327.jpg"  transform="matrix(0.4102 0.2626 -0.2976 0.465 355.0391 319.5244)">
	</image>
	
		<image overflow="visible" width="48" height="23" xlink:href="../Desktop/5990003E711BB327.jpg"  transform="matrix(-0.0703 -0.4819 0.5463 -0.0797 335.9355 352.4277)">
	</image>
	
		<image overflow="visible" width="48" height="23" xlink:href="../Desktop/5990003E711BB327.jpg"  transform="matrix(0.4493 -0.1879 0.213 0.5094 350.2305 353.2153)">
	</image>
	
		<image overflow="visible" width="48" height="23" xlink:href="../Desktop/5990003E711BB327.jpg"  transform="matrix(-0.4723 0.1189 -0.1348 -0.5354 328.1699 411.3711)">
	</image>
	
		<image overflow="visible" width="48" height="23" xlink:href="../Desktop/5990003E711BB327.jpg"  transform="matrix(0.3992 0.2789 -0.3162 0.4526 317.2783 374.9082)">
	</image>
	
		<image overflow="visible" width="48" height="23" xlink:href="../Desktop/5990003E711BB327.jpg"  transform="matrix(-0.171 0.456 -0.517 -0.1938 306.916 384.7812)">
	</image>
	
		<image overflow="visible" width="48" height="23" xlink:href="../Desktop/5990003E711BB327.jpg"  transform="matrix(-0.4723 0.1189 -0.1348 -0.5354 331.8574 468.4102)">
	</image>
	
		<image overflow="visible" width="48" height="23" xlink:href="../Desktop/5990003E711BB327.jpg"  transform="matrix(0.3992 0.2789 -0.3162 0.4526 320.9668 431.9473)">
	</image>
	
		<image overflow="visible" width="48" height="23" xlink:href="../Desktop/5990003E711BB327.jpg"  transform="matrix(-0.171 0.456 -0.517 -0.1938 310.6035 441.8203)">
	</image>
	
		<image overflow="visible" width="48" height="23" xlink:href="../Desktop/5990003E711BB327.jpg"  transform="matrix(-0.4868 0.0156 -0.0177 -0.5518 337.877 529.1641)">
	</image>
	
		<image overflow="visible" width="48" height="23" xlink:href="../Desktop/5990003E711BB327.jpg"  transform="matrix(0.3306 0.3576 -0.4054 0.3748 335.0098 491.2207)">
	</image>
	
		<image overflow="visible" width="48" height="23" xlink:href="../Desktop/5990003E711BB327.jpg"  transform="matrix(-0.2642 0.4091 -0.4638 -0.2995 322.7812 498.666)">
	</image>
	
		<image overflow="visible" width="48" height="23" xlink:href="../Desktop/5990003E711BB327.jpg"  transform="matrix(0.441 0 0 1.0094 204.228 570.5225)">
	</image>
	
		<image overflow="visible" width="48" height="23" xlink:href="../Desktop/5990003E711BB327.jpg"  transform="matrix(0.441 0 0 1.0094 228.8267 571.4307)">
	</image>
	
		<image overflow="visible" width="48" height="23" xlink:href="../Desktop/5990003E711BB327.jpg"  transform="matrix(0.441 0 0 1.0094 203.8384 600.3018)">
	</image>
	
		<image overflow="visible" width="48" height="23" xlink:href="../Desktop/5990003E711BB327.jpg"  transform="matrix(0.441 0 0 1.0094 228.437 601.21)">
	</image>
</g>
</svg>
