<?xml version="1.0" encoding="utf-8"?>
<!-- Generator: Adobe Illustrator 16.0.0, SVG Export Plug-In . SVG Version: 6.00 Build 0)  -->
<!DOCTYPE svg PUBLIC "-//W3C//DTD SVG 1.1//EN" "http://www.w3.org/Graphics/SVG/1.1/DTD/svg11.dtd">
<svg version="1.1" xmlns="http://www.w3.org/2000/svg" xmlns:xlink="http://www.w3.org/1999/xlink" x="0px" y="0px" width="480px"
  height="1300px" viewBox="0 0 480 1300" enable-background="new 0 0 480 1300" xml:space="preserve">
<g id="ajax_loader">
  <image xlink:href="ajax-loader.gif" width="32" height="32" x="100" y="100"/>
</g>
<g id="pc_map" style="display:none">
  <rect x="31.26" y="51.429" fill="none" stroke="#000000" stroke-width="3" stroke-miterlimit="10" width="422.078" height="638.961"/>
  <rect x="24.117" y="86.494" fill="#FFFFFF" stroke="#FFFFFF" stroke-miterlimit="10" width="16.883" height="40.26"/>
  <image id="pc__" overflow="visible" width="51" height="26" xlink:href="on.jpg"  transform="matrix(0.5167 0 0 0.5392 60.2168 69.8755)" style="display:none" />
  <line stroke="#000000" stroke-width="3" stroke-miterlimit="10" x1="453.338" y1="137.454" x2="315.676" y2="690.701"/>
  <rect x="335.611" y="554.611" transform="matrix(0.9702 0.2422 -0.2422 0.9702 149.434 -66.2137)" fill="#FFFFFF" stroke="#FFFFFF" stroke-miterlimit="10" width="16.883" height="40.26"/>
  <rect x="450.739" y="151" fill="#FFFFFF" width="25.975" height="570.131"/>
  <rect x="318.272" y="686.805" fill="#FFFFFF" width="157.143" height="12.987"/>
  <rect x="24.117" y="491.039" fill="#FFFFFF" stroke="#FFFFFF" stroke-miterlimit="10" width="16.883" height="40.26"/>
  <rect x="444.701" y="92.273" fill="#FFFFFF" stroke="#FFFFFF" stroke-miterlimit="10" width="16.883" height="40.26"/>
  <a xlink:href="P-1.svg"><text fill="#0000FF" transform="matrix(1 0 0 1 195.2881 37.9961)" fill="#040000" font-family="'KozGoPr6N-Regular-83pv-RKSJ-H'" font-size="18" id="room_id"/></a>
<g id="japanese_words">
  <a xlink:href="map.svg"><text fill="blue" transform="matrix(1 0 0 1 30 30)" font-family="'KozGoPr6N-Regular-83pv-RKSJ-H'" font-size="14">キャンパスマップ</text></a>
  <a xlink:href="CD.svg"><text fill="blue" transform="matrix(1 0 0 1 52.8203 119.6074)" font-family="'KozGoPr6N-Regular-83pv-RKSJ-H'" font-size="18">←CD教室</text></a>
  <text transform="matrix(1 0 0 1 52.8203 139.6074)" fill="#040000" font-family="'KozGoPr6N-Regular-83pv-RKSJ-H'" font-size="18">6:00pm-9:00pm開放</text>
  <a xlink:href="F.svg"><text fill="blue" transform="matrix(1 0 0 1 54.1577 523.8545)" font-family="'KozGoPr6N-Regular-83pv-RKSJ-H'" font-size="18" letter-spacing="3">←F教室</text></a>
  <a xlink:href="P-2.svg"><text fill="blue" transform="matrix(1 0 0 1 220 113.8545)" font-family="'KozGoPr6N-Regular-83pv-RKSJ-H'" font-size="18" letter-spacing="3">リフレッシュルーム→</text></a>
  <text fill="#040000" transform="matrix(1 0 0 1 180 560)" font-family="'KozGoPr6N-Regular-83pv-RKSJ-H'" font-size="18" letter-spacing="3">中央図書館２F→</text>
</g>
<g id="english_words" style="display:none">
  <a xlink:href="map.svg"><text fill="blue" transform="matrix(1 0 0 1 30 30)" font-family="'KozGoPr6N-Regular-83pv-RKSJ-H'" font-size="14">Campus Map</text></a>
  <a xlink:href="CD.svg"><text fill="blue" transform="matrix(1 0 0 1 40 119.6074)" font-family="'KozGoPr6N-Regular-83pv-RKSJ-H'" font-size="18">←Machine Shop CD</text></a>
  <text transform="matrix(1 0 0 1 40 139.6074)" fill="#040000" font-family="'KozGoPr6N-Regular-83pv-RKSJ-H'" font-size="18">6:00pm-9:00pm Open</text>
  <a xlink:href="F.svg"><text fill="blue" transform="matrix(1 0 0 1 40 523.8545)" font-family="'KozGoPr6N-Regular-83pv-RKSJ-H'" font-size="18" letter-spacing="3">←Machine Shop F</text></a>
  <a xlink:href="P-2.svg"><text fill="blue" transform="matrix(1 0 0 1 250 113.8345)" font-family="'KozGoPr6N-Regular-83pv-RKSJ-H'" font-size="18" letter-spacing="3">Refresh Room→</text></a>
  <text fill="#040000" transform="matrix(1 0 0 1 180 560)" font-family="'KozGoPr6N-Regular-83pv-RKSJ-H'" font-size="18" letter-spacing="3">Library 2F→</text>
</g>
<g id="off">
  <image id="pc_34_off" overflow="visible" width="51" height="35" xlink:href="off.jpg"  transform="matrix(0.4838 0 0 0.4717 83.2075 147.688)" />
  <image id="pc_35_off" overflow="visible" width="51" height="26" xlink:href="off.jpg"  transform="matrix(-0.2825 0.3928 -0.383 -0.2754 122.4551 168.4502)" />
  <image id="pc_36_off" overflow="visible" width="51" height="26" xlink:href="off.jpg"  transform="matrix(0.3345 0.3496 -0.3408 0.3261 77.603 160.4326)"  />
  <image id="pc_39_off" overflow="visible" width="51" height="26" xlink:href="off.jpg"  transform="matrix(-0.4823 -0.039 0.0381 -0.4702 101.8613 256.3564)"  />
  <image id="pc_37_off" overflow="visible" width="51" height="26" xlink:href="off.jpg"  transform="matrix(0.2588 -0.4088 0.3986 0.2523 65.3018 234.2109)" />
  <image id="pc_38_off" overflow="visible" width="51" height="26" xlink:href="off.jpg"  transform="matrix(-0.3052 -0.3754 0.366 -0.2976 108.481 244.1094)"  />
  <image id="pc_41_off" overflow="visible" width="51" height="26" xlink:href="off.jpg"  transform="matrix(-0.4551 0.1642 -0.1601 -0.4437 109.1436 319.416)" />
  <image id="pc_42_off" overflow="visible" width="51" height="26" xlink:href="off.jpg"  transform="matrix(0.0011 -0.4838 0.4717 0.0011 68.2886 315.3501)" />
  <image id="pc_40_off" overflow="visible" width="51" height="26" xlink:href="off.jpg"  transform="matrix(-0.4333 -0.2153 0.2099 -0.4225 104.8906 305.5312)" />
  <image id="pc_44_off" overflow="visible" width="51" height="26" xlink:href="off.jpg"  transform="matrix(-0.0033 0.4838 -0.4717 -0.0033 97.2163 379.5098)" />
  <image id="pc_45_off" overflow="visible" width="51" height="26" xlink:href="off.jpg"  transform="matrix(-0.4268 -0.2279 0.2222 -0.4161 77.8242 417.6152)"  />
  <image id="pc_43_off" overflow="visible" width="51" height="26" xlink:href="off.jpg"  transform="matrix(-0.3519 0.3321 -0.3238 -0.3431 84.5049 373.8164)"  />
  <image id="pc_46_off" overflow="visible" width="51" height="26" xlink:href="off.jpg"  transform="matrix(0.4103 0.2564 -0.25 0.4 88.6401 442.7441)"  />
  <image id="pc_47_off" overflow="visible" width="51" height="26" xlink:href="off.jpg"  transform="matrix(-0.4178 0.244 -0.2379 -0.4073 110.9307 479.2246)"  />
  <image id="pc_48_off" overflow="visible" width="51" height="26" xlink:href="off.jpg"  transform="matrix(0.0984 0.4737 -0.4619 0.096 77.1382 450.5879)" />
  <image id="pc_50_off" overflow="visible" width="51" height="26" xlink:href="off.jpg"  transform="matrix(-0.0033 0.4838 -0.4717 -0.0033 105.0093 549.6406)"  />
  <image id="pc_51_off" overflow="visible" width="51" height="26" xlink:href="off.jpg"  transform="matrix(-0.3421 -0.2328 0.2654 -0.39 84.375 588.5273)"  />
  <image id="pc_49_off" overflow="visible" width="51" height="26" xlink:href="off.jpg"  transform="matrix(-0.3519 0.3321 -0.3238 -0.3431 92.2979 543.9463)" />
  <image id="pc_9_off" overflow="visible" width="51" height="26" xlink:href="off.jpg"  transform="matrix(-0.4823 -0.039 0.0381 -0.4702 283.4277 164.9565)" />
  <image id="pc_7_off" overflow="visible" width="51" height="26" xlink:href="off.jpg"  transform="matrix(0.3251 -0.3584 0.3494 0.317 245.8164 140.6841)" />
  <image id="pc_8_off" overflow="visible" width="51" height="26" xlink:href="off.jpg"  transform="matrix(-0.3052 -0.3754 0.366 -0.2976 290.0469 152.707)"  />
  <image id="pc_2_off" overflow="visible" width="51" height="26" xlink:href="off.jpg"  transform="matrix(-0.4551 0.1642 -0.1601 -0.4437 364.0527 149.2852)" />
  <image id="pc_3_off" overflow="visible" width="51" height="26" xlink:href="off.jpg"  transform="matrix(-0.0874 -0.4759 0.464 -0.0853 325.5586 146.144)"  />
  <image id="pc_1_off" overflow="visible" width="51" height="26" xlink:href="off.jpg"  transform="matrix(-0.4062 -0.2628 0.2563 -0.3961 358.5068 136.2656)" />
  <image id="pc_16_off" overflow="visible" width="51" height="26" xlink:href="off.jpg"  transform="matrix(0.4838 0 0 0.4717 229.4663 182.0259)" />
  <image id="pc_17_off" overflow="visible" width="51" height="26" xlink:href="off.jpg"  transform="matrix(-0.225 0.4284 -0.4176 -0.2193 267.6963 201.1504)" />
  <image id="pc_18_off" overflow="visible" width="51" height="26" xlink:href="off.jpg"  transform="matrix(0.3345 0.3496 -0.3408 0.3261 223.8618 194.7705)" />
  <image id="pc_19_off" overflow="visible" width="51" height="26" xlink:href="off.jpg"  transform="matrix(0.4691 -0.1186 0.1156 0.4573 248.5479 264.9189)" />
  <image id="pc_20_off" overflow="visible" width="51" height="26" xlink:href="off.jpg"  transform="matrix(-0.1131 0.4704 -0.4587 -0.1103 292.2988 272.0913)"  />
  <image id="pc_21_off" overflow="visible" width="51" height="26" xlink:href="off.jpg"  transform="matrix(0.41 0.2569 -0.2505 0.3997 249.2344 278.6465)"  />
  <image id="pc_11_off" overflow="visible" width="51" height="26" xlink:href="off.jpg"  transform="matrix(-0.4448 0.1903 -0.1856 -0.4337 365.9531 291.7041)"  />
  <image id="pc_12_off" overflow="visible" width="51" height="26" xlink:href="off.jpg"  transform="matrix(0.0011 -0.4838 0.4717 0.0011 322.0312 289.4272)"  />
  <image id="pc_10_off" overflow="visible" width="51" height="26" xlink:href="off.jpg"  transform="matrix(-0.4333 -0.2153 0.2099 -0.4225 358.6318 279.6074)"  />
  <image id="pc_22_off" overflow="visible" width="51" height="26" xlink:href="off.jpg"  transform="matrix(-0.482 0.0426 -0.0415 -0.4699 302.4873 354.5439)"  />
  <image id="pc_24_off" overflow="visible" width="51" height="26" xlink:href="off.jpg"  transform="matrix(0.2261 -0.4278 0.4171 0.2204 261.9434 337.8745)"  />
  <image id="pc_23_off" overflow="visible" width="51" height="26" xlink:href="off.jpg"  transform="matrix(-0.364 -0.3188 0.3108 -0.3549 306.9512 341.3496)"  />
  <image id="pc_14_off" overflow="visible" width="51" height="26" xlink:href="off.jpg"  transform="matrix(-0.4551 0.1642 -0.1601 -0.4437 377.5732 355.8301)"  />
  <image id="pc_15_off" overflow="visible" width="51" height="26" xlink:href="off.jpg"  transform="matrix(0.0011 -0.4838 0.4717 0.0011 333.7188 351.7651)"  />
  <image id="pc_13_off" overflow="visible" width="51" height="26" xlink:href="off.jpg"  transform="matrix(-0.4333 -0.2153 0.2099 -0.4225 370.3203 341.9453)"  />
  <image id="pc_25_off" overflow="visible" width="51" height="26" xlink:href="off.jpg"  transform="matrix(-0.4735 0.0997 -0.0972 -0.4616 326.7109 410.2607)"  />
  <image id="pc_27_off" overflow="visible" width="51" height="26" xlink:href="off.jpg"  transform="matrix(0.139 -0.4634 0.4518 0.1355 287.8525 403.7461)"  />
  <image id="pc_26_off" overflow="visible" width="51" height="26" xlink:href="off.jpg"  transform="matrix(-0.3953 -0.279 0.272 -0.3854 328.8301 396.9316)"  />
  <image id="pc_29_off" overflow="visible" width="51" height="26" xlink:href="off.jpg"  transform="matrix(-0.4735 0.0997 -0.0972 -0.4616 331.5498 468.9365)"  />
  <image id="pc_30_off" overflow="visible" width="51" height="26" xlink:href="off.jpg"  transform="matrix(0.139 -0.4634 0.4518 0.1355 291.6914 459.4219)"  />
  <image id="pc_64_off" overflow="visible" width="51" height="26" xlink:href="off.jpg"  transform="matrix(0.5167 0 0 0.5392 363.0156 71.3818)"  />
  <image id="pc_28_off" overflow="visible" width="51" height="26" xlink:href="off.jpg"  transform="matrix(-0.3953 -0.279 0.272 -0.3854 333.668 455.6074)"  />
  <image id="pc_33_off" overflow="visible" width="51" height="26" xlink:href="off.jpg"  transform="matrix(-0.4834 0.0198 -0.0193 -0.4713 337.4395 527.0957)"  />
  <image id="pc_60_off" overflow="visible" width="51" height="26" xlink:href="off.jpg"  transform="matrix(0.5167 0 0 0.5392 214.6846 70.8755)"  />
  <image id="pc_31_off" overflow="visible" width="51" height="26" xlink:href="off.jpg"  transform="matrix(0.2605 -0.4077 0.3975 0.254 297.8516 509.8486)"  />
  <image id="pc_32_off" overflow="visible" width="51" height="26" xlink:href="off.jpg"  transform="matrix(-0.3084 -0.3729 0.3635 -0.3006 340.4238 515.6836)"  />
  <image id="pc_52_off" overflow="visible" width="51" height="26" xlink:href="off.jpg"  transform="matrix(0.4148 0 0 0.8004 202.1411 571.6875)"  />
  <image id="pc_55_off" overflow="visible" width="51" height="26" xlink:href="off.jpg"  transform="matrix(0.4148 0 0 0.8004 227.4395 571.2461)" />
  <image id="pc_65_off" overflow="visible" width="51" height="26" xlink:href="off.jpg"  transform="matrix(0.5167 0 0 0.5392 402.3125 72.2466)"  />
  <image id="pc_53_off" overflow="visible" width="51" height="26" xlink:href="off.jpg"  transform="matrix(0.4148 0 0 0.8004 204.0635 602.4141)" />
  <image id="pc_59_off" overflow="visible" width="51" height="26" xlink:href="off.jpg"  transform="matrix(0.5167 0 0 0.5392 177.0879 71.2466)"  />
  <image id="pc_63_off" overflow="visible" width="51" height="26" xlink:href="off.jpg"  transform="matrix(0.5167 0 0 0.5392 331.5566 72.2466)"  />
  <image id="pc_62_off" overflow="visible" width="51" height="26" xlink:href="off.jpg"  transform="matrix(0.5167 0 0 0.5392 292.2578 71.3818)" />
  <image id="pc_57_off" overflow="visible" width="51" height="26" xlink:href="off.jpg"  transform="matrix(0.5167 0 0 0.5392 99.5142 69.7407)" />
  <image id="pc_54_off" overflow="visible" width="51" height="26" xlink:href="off.jpg"  transform="matrix(0.4148 0 0 0.8004 226.1411 602.4141)"  />
  <image id="pc_58_off" overflow="visible" width="51" height="26" xlink:href="off.jpg"  transform="matrix(0.5167 0 0 0.5392 137.79 70.3818)" />
  <image id="pc_61_off" overflow="visible" width="51" height="26" xlink:href="off.jpg"  transform="matrix(0.5167 0 0 0.5392 253.9824 70.7407)" />
  <image id="pc_56_off" overflow="visible" width="48" height="26" xlink:href="off.jpg"  transform="matrix(0.5337 0 0 0.5521 59.7314 70.9087)"  />
  <image id="pc_5_off" overflow="visible" width="48" height="23" xlink:href="off.jpg"  transform="matrix(0.4102 0.2626 -0.2976 0.465 341.1445 175.5635)"  />
  <image id="pc_4_off" overflow="visible" width="48" height="23" xlink:href="off.jpg"  transform="matrix(-0.0703 -0.4819 0.5463 -0.0797 322.041 208.4668)"  />
  <image id="pc_6_off" overflow="visible" width="48" height="23" xlink:href="off.jpg"  transform="matrix(0.4493 -0.1879 0.213 0.5094 336.3359 209.2544)" />
</g>
<g id="on">
  <image id="pc_34_on" overflow="visible" width="51" height="35" xlink:href="on.jpg"  transform="matrix(0.4838 0 0 0.4717 83.2075 147.688)" style="display:none"/>
  <image id="pc_35_on" overflow="visible" width="51" height="26" xlink:href="on.jpg"  transform="matrix(-0.2825 0.3928 -0.383 -0.2754 122.4551 168.4502)" style="display:none"/>
  <image id="pc_36_on" overflow="visible" width="51" height="26" xlink:href="on.jpg"  transform="matrix(0.3345 0.3496 -0.3408 0.3261 77.603 160.4326)"  style="display:none"/>
  <image id="pc_39_on" overflow="visible" width="51" height="26" xlink:href="on.jpg"  transform="matrix(-0.4823 -0.039 0.0381 -0.4702 101.8613 256.3564)"  style="display:none"/>
  <image id="pc_37_on" overflow="visible" width="51" height="26" xlink:href="on.jpg"  transform="matrix(0.2588 -0.4088 0.3986 0.2523 65.3018 234.2109)" style="display:none"/>
  <image id="pc_38_on" overflow="visible" width="51" height="26" xlink:href="on.jpg"  transform="matrix(-0.3052 -0.3754 0.366 -0.2976 108.481 244.1094)"  style="display:none"/>
  <image id="pc_41_on" overflow="visible" width="51" height="26" xlink:href="on.jpg"  transform="matrix(-0.4551 0.1642 -0.1601 -0.4437 109.1436 319.416)" style="display:none"/>
  <image id="pc_42_on" overflow="visible" width="51" height="26" xlink:href="on.jpg"  transform="matrix(0.0011 -0.4838 0.4717 0.0011 68.2886 315.3501)" style="display:none"/>
  <image id="pc_40_on" overflow="visible" width="51" height="26" xlink:href="on.jpg"  transform="matrix(-0.4333 -0.2153 0.2099 -0.4225 104.8906 305.5312)" style="display:none"/>
  <image id="pc_44_on" overflow="visible" width="51" height="26" xlink:href="on.jpg"  transform="matrix(-0.0033 0.4838 -0.4717 -0.0033 97.2163 379.5098)" style="display:none"/>
  <image id="pc_45_on" overflow="visible" width="51" height="26" xlink:href="on.jpg"  transform="matrix(-0.4268 -0.2279 0.2222 -0.4161 77.8242 417.6152)"  style="display:none"/>
  <image id="pc_43_on" overflow="visible" width="51" height="26" xlink:href="on.jpg"  transform="matrix(-0.3519 0.3321 -0.3238 -0.3431 84.5049 373.8164)"  style="display:none"/>
  <image id="pc_46_on" overflow="visible" width="51" height="26" xlink:href="on.jpg"  transform="matrix(0.4103 0.2564 -0.25 0.4 88.6401 442.7441)"  style="display:none"/>
  <image id="pc_47_on" overflow="visible" width="51" height="26" xlink:href="on.jpg"  transform="matrix(-0.4178 0.244 -0.2379 -0.4073 110.9307 479.2246)"  style="display:none"/>
  <image id="pc_48_on" overflow="visible" width="51" height="26" xlink:href="on.jpg"  transform="matrix(0.0984 0.4737 -0.4619 0.096 77.1382 450.5879)" style="display:none"/>
  <image id="pc_50_on" overflow="visible" width="51" height="26" xlink:href="on.jpg"  transform="matrix(-0.0033 0.4838 -0.4717 -0.0033 105.0093 549.6406)"  style="display:none"/>
  <image id="pc_51_on" overflow="visible" width="51" height="26" xlink:href="on.jpg"  transform="matrix(-0.3421 -0.2328 0.2654 -0.39 84.375 588.5273)"  style="display:none"/>
  <image id="pc_49_on" overflow="visible" width="51" height="26" xlink:href="on.jpg"  transform="matrix(-0.3519 0.3321 -0.3238 -0.3431 92.2979 543.9463)" style="display:none"/>
  <image id="pc_9_on" overflow="visible" width="51" height="26" xlink:href="on.jpg"  transform="matrix(-0.4823 -0.039 0.0381 -0.4702 283.4277 164.9565)" style="display:none"/>
  <image id="pc_7_on" overflow="visible" width="51" height="26" xlink:href="on.jpg"  transform="matrix(0.3251 -0.3584 0.3494 0.317 245.8164 140.6841)" style="display:none"/>
  <image id="pc_8_on" overflow="visible" width="51" height="26" xlink:href="on.jpg"  transform="matrix(-0.3052 -0.3754 0.366 -0.2976 290.0469 152.707)"  style="display:none"/>
  <image id="pc_2_on" overflow="visible" width="51" height="26" xlink:href="on.jpg"  transform="matrix(-0.4551 0.1642 -0.1601 -0.4437 364.0527 149.2852)" style="display:none"/>
  <image id="pc_3_on" overflow="visible" width="51" height="26" xlink:href="on.jpg"  transform="matrix(-0.0874 -0.4759 0.464 -0.0853 325.5586 146.144)"  style="display:none"/>
  <image id="pc_1_on" overflow="visible" width="51" height="26" xlink:href="on.jpg"  transform="matrix(-0.4062 -0.2628 0.2563 -0.3961 358.5068 136.2656)" style="display:none"/>
  <image id="pc_16_on" overflow="visible" width="51" height="26" xlink:href="on.jpg"  transform="matrix(0.4838 0 0 0.4717 229.4663 182.0259)" style="display:none"/>
  <image id="pc_17_on" overflow="visible" width="51" height="26" xlink:href="on.jpg"  transform="matrix(-0.225 0.4284 -0.4176 -0.2193 267.6963 201.1504)" style="display:none"/>
  <image id="pc_18_on" overflow="visible" width="51" height="26" xlink:href="on.jpg"  transform="matrix(0.3345 0.3496 -0.3408 0.3261 223.8618 194.7705)" style="display:none"/>
  <image id="pc_19_on" overflow="visible" width="51" height="26" xlink:href="on.jpg"  transform="matrix(0.4691 -0.1186 0.1156 0.4573 248.5479 264.9189)" style="display:none"/>
  <image id="pc_20_on" overflow="visible" width="51" height="26" xlink:href="on.jpg"  transform="matrix(-0.1131 0.4704 -0.4587 -0.1103 292.2988 272.0913)"  style="display:none"/>
  <image id="pc_21_on" overflow="visible" width="51" height="26" xlink:href="on.jpg"  transform="matrix(0.41 0.2569 -0.2505 0.3997 249.2344 278.6465)"  style="display:none"/>
  <image id="pc_11_on" overflow="visible" width="51" height="26" xlink:href="on.jpg"  transform="matrix(-0.4448 0.1903 -0.1856 -0.4337 365.9531 291.7041)"  style="display:none"/>
  <image id="pc_12_on" overflow="visible" width="51" height="26" xlink:href="on.jpg"  transform="matrix(0.0011 -0.4838 0.4717 0.0011 322.0312 289.4272)"  style="display:none"/>
  <image id="pc_10_on" overflow="visible" width="51" height="26" xlink:href="on.jpg"  transform="matrix(-0.4333 -0.2153 0.2099 -0.4225 358.6318 279.6074)"  style="display:none"/>
  <image id="pc_22_on" overflow="visible" width="51" height="26" xlink:href="on.jpg"  transform="matrix(-0.482 0.0426 -0.0415 -0.4699 302.4873 354.5439)"  style="display:none"/>
  <image id="pc_24_on" overflow="visible" width="51" height="26" xlink:href="on.jpg"  transform="matrix(0.2261 -0.4278 0.4171 0.2204 261.9434 337.8745)"  style="display:none"/>
  <image id="pc_23_on" overflow="visible" width="51" height="26" xlink:href="on.jpg"  transform="matrix(-0.364 -0.3188 0.3108 -0.3549 306.9512 341.3496)"  style="display:none"/>
  <image id="pc_14_on" overflow="visible" width="51" height="26" xlink:href="on.jpg"  transform="matrix(-0.4551 0.1642 -0.1601 -0.4437 377.5732 355.8301)"  style="display:none"/>
  <image id="pc_15_on" overflow="visible" width="51" height="26" xlink:href="on.jpg"  transform="matrix(0.0011 -0.4838 0.4717 0.0011 333.7188 351.7651)"  style="display:none"/>
  <image id="pc_13_on" overflow="visible" width="51" height="26" xlink:href="on.jpg"  transform="matrix(-0.4333 -0.2153 0.2099 -0.4225 370.3203 341.9453)"  style="display:none"/>
  <image id="pc_25_on" overflow="visible" width="51" height="26" xlink:href="on.jpg"  transform="matrix(-0.4735 0.0997 -0.0972 -0.4616 326.7109 410.2607)"  style="display:none"/>
  <image id="pc_27_on" overflow="visible" width="51" height="26" xlink:href="on.jpg"  transform="matrix(0.139 -0.4634 0.4518 0.1355 287.8525 403.7461)"  style="display:none"/>
  <image id="pc_26_on" overflow="visible" width="51" height="26" xlink:href="on.jpg"  transform="matrix(-0.3953 -0.279 0.272 -0.3854 328.8301 396.9316)"  style="display:none"/>
  <image id="pc_29_on" overflow="visible" width="51" height="26" xlink:href="on.jpg"  transform="matrix(-0.4735 0.0997 -0.0972 -0.4616 331.5498 468.9365)"  style="display:none"/>
  <image id="pc_30_on" overflow="visible" width="51" height="26" xlink:href="on.jpg"  transform="matrix(0.139 -0.4634 0.4518 0.1355 291.6914 459.4219)"  style="display:none"/>
  <image id="pc_64_on" overflow="visible" width="51" height="26" xlink:href="on.jpg"  transform="matrix(0.5167 0 0 0.5392 363.0156 71.3818)"  style="display:none"/>
  <image id="pc_28_on" overflow="visible" width="51" height="26" xlink:href="on.jpg"  transform="matrix(-0.3953 -0.279 0.272 -0.3854 333.668 455.6074)"  style="display:none"/>
  <image id="pc_33_on" overflow="visible" width="51" height="26" xlink:href="on.jpg"  transform="matrix(-0.4834 0.0198 -0.0193 -0.4713 337.4395 527.0957)"  style="display:none"/>
  <image id="pc_60_on" overflow="visible" width="51" height="26" xlink:href="on.jpg"  transform="matrix(0.5167 0 0 0.5392 214.6846 70.8755)" style="display:none" />
  <image id="pc_31_on" overflow="visible" width="51" height="26" xlink:href="on.jpg"  transform="matrix(0.2605 -0.4077 0.3975 0.254 297.8516 509.8486)"  style="display:none"/>
  <image id="pc_32_on" overflow="visible" width="51" height="26" xlink:href="on.jpg"  transform="matrix(-0.3084 -0.3729 0.3635 -0.3006 340.4238 515.6836)"  style="display:none"/>
  <image id="pc_52_on" overflow="visible" width="51" height="26" xlink:href="on.jpg"  transform="matrix(0.4148 0 0 0.8004 202.1411 571.6875)"  style="display:none"/>
  <image id="pc_55_on" overflow="visible" width="51" height="26" xlink:href="on.jpg"  transform="matrix(0.4148 0 0 0.8004 227.4395 571.2461)" style="display:none"/>
  <image id="pc_65_on" overflow="visible" width="51" height="26" xlink:href="on.jpg"  transform="matrix(0.5167 0 0 0.5392 402.3125 72.2466)"  style="display:none"/>
  <image id="pc_53_on" overflow="visible" width="51" height="26" xlink:href="on.jpg"  transform="matrix(0.4148 0 0 0.8004 204.0635 602.4141)" style="display:none"/>
  <image id="pc_59_on" overflow="visible" width="51" height="26" xlink:href="on.jpg"  transform="matrix(0.5167 0 0 0.5392 177.0879 71.2466)"  style="display:none"/>
  <image id="pc_63_on" overflow="visible" width="51" height="26" xlink:href="on.jpg"  transform="matrix(0.5167 0 0 0.5392 331.5566 72.2466)"  style="display:none"/>
  <image id="pc_62_on" overflow="visible" width="51" height="26" xlink:href="on.jpg"  transform="matrix(0.5167 0 0 0.5392 292.2578 71.3818)" style="display:none"/>
  <image id="pc_57_on" overflow="visible" width="51" height="26" xlink:href="on.jpg"  transform="matrix(0.5167 0 0 0.5392 99.5142 69.7407)" style="display:none"/>
  <image id="pc_54_on" overflow="visible" width="51" height="26" xlink:href="on.jpg"  transform="matrix(0.4148 0 0 0.8004 226.1411 602.4141)"  style="display:none"/>
  <image id="pc_58_on" overflow="visible" width="51" height="26" xlink:href="on.jpg"  transform="matrix(0.5167 0 0 0.5392 137.79 70.3818)" style="display:none"/>
  <image id="pc_61_on" overflow="visible" width="51" height="26" xlink:href="on.jpg"  transform="matrix(0.5167 0 0 0.5392 253.9824 70.7407)" style="display:none"/>
  <image id="pc_56_on" overflow="visible" width="48" height="26" xlink:href="on.jpg"  transform="matrix(0.5337 0 0 0.5521 59.7314 70.9087)"  style="display:none"/>
  <image id="pc_5_on" overflow="visible" width="48" height="23" xlink:href="on.jpg"  transform="matrix(0.4102 0.2626 -0.2976 0.465 341.1445 175.5635)"  style="display:none"/>
  <image id="pc_4_on" overflow="visible" width="48" height="23" xlink:href="on.jpg"  transform="matrix(-0.0703 -0.4819 0.5463 -0.0797 322.041 208.4668)"  style="display:none"/>
  <image id="pc_6_on" overflow="visible" width="48" height="23" xlink:href="on.jpg"  transform="matrix(0.4493 -0.1879 0.213 0.5094 336.3359 209.2544)" style="display:none"/>
  </g>
</g>
<script xlink:href="http://ajax.googleapis.com/ajax/libs/jquery/1.7.2/jquery.min.js" />
<script xlink:href="innersvg.js" />
<script xlink:href="room.js" />
</svg>
