<?xml version="1.0" encoding="utf-8"?>
<!-- Generator: Adobe Illustrator 16.0.0, SVG Export Plug-In . SVG Version: 6.00 Build 0)  -->
<!DOCTYPE svg PUBLIC "-//W3C//DTD SVG 1.1//EN" "http://www.w3.org/Graphics/SVG/1.1/DTD/svg11.dtd">
<svg version="1.1" xmlns="http://www.w3.org/2000/svg" xmlns:xlink="http://www.w3.org/1999/xlink" x="0px" y="0px" width="480px"
	 height="1300px" viewBox="0 0 480 1300" enable-background="new 0 0 480 1300" xml:space="preserve">
<g id="ajax_loader">
  <image xlink:href="ajax-loader.gif" width="32" height="32" x="100" y="100"/>
</g>
<g id="pc_map" style="display:none">
<g id="レイヤー_1">
  <rect x="167.527" y="20.264" fill="none" width="176.625" height="27.273"/>
  <text transform="matrix(1 0 0 1 167.5273 36.1045)" font-family="'HiraMinPro-W3-83pv-RKSJ-H'" font-size="18" id="room_id"/>
  <polygon fill="none" points="421.688,610.216 315.245,610.216 310.643,582.942 417.086,582.942 	"/>
  <rect x="85.598" y="60.537" fill="none" stroke="#000000" stroke-width="3" stroke-miterlimit="10" width="340.483" height="505.043"/>
  <rect x="573.074" y="562.58" fill="none" stroke="#000000" stroke-miterlimit="10" width="0" height="3"/>
  <rect x="29.664" y="89.604" fill="none" width="33.767" height="129.87"/>
  <rect x="77.267" y="80.605" fill="#FFFFFF" width="16.663" height="46.79"/>
  <rect x="291.585" y="558.08" fill="#FFFFFF" width="55.497" height="14.999"/>
</g>
<g id="japanese_words">
  <a xlink:href="map.svg"><text fill="blue" transform="matrix(1 0 0 1 30 30)" font-family="'KozGoPr6N-Regular-83pv-RKSJ-H'" font-size="14">キャンパスマップ</text></a>
  <text transform="matrix(1 0 0 1 313.3145 598.7822)" font-family="'HiraMinPro-W3-83pv-RKSJ-H'" font-size="18">↓中央図書館２F</text>
  <a xlink:href="P-1.svg"><text fill="blue" transform="matrix(1 0 0 1 54.4307 89.6035)" font-family="'HiraMinPro-W3-83pv-RKSJ-H'" font-size="18" glyph-orientation-vertical="0" writing-mode="tb">↓２F　ＰＣプラザ</text></a>
</g>
<g id="english_words" style="display:none">
  <a xlink:href="map.svg"><text fill="blue" transform="matrix(1 0 0 1 30 30)" font-family="'KozGoPr6N-Regular-83pv-RKSJ-H'" font-size="14">Campus Map</text></a>
  <text transform="matrix(1 0 0 1 313.3145 598.7822)" font-family="'HiraMinPro-W3-83pv-RKSJ-H'" font-size="18">↓Library 2F</text>
  <a xlink:href="P-1.svg"><text fill="blue" transform="matrix(1 0 0 1 54.4307 89.6035)" font-family="'HiraMinPro-W3-83pv-RKSJ-H'" font-size="18" glyph-orientation-vertical="0" writing-mode="tb">↓2F PC Plaza</text></a>
</g>
<g id="on">
  <image overflow="visible" width="50" height="31" id="pc_66_on" xlink:href="on.jpg"  transform="matrix(0.8907 0 0 0.69 317 106.6152)" style="display:none"/>
  <image overflow="visible" width="50" height="31" id="pc_67_on" xlink:href="on.jpg"  transform="matrix(0.8907 0 0 0.69 233.5713 106.6152)" style="display:none"/>
  <image overflow="visible" width="50" height="31" id="pc_68_on" xlink:href="on.jpg"  transform="matrix(0.8907 0 0 0.69 146 106.6152)" style="display:none"/>
</g>
<g id="off">
  <image overflow="visible" width="47" height="31" id="pc_66_off" xlink:href="off.jpg"  transform="matrix(0.9476 0 0 0.6876 317 106.6528)"/>
  <image overflow="visible" width="47" height="31" id="pc_67_off" xlink:href="off.jpg"  transform="matrix(0.9476 0 0 0.6876 233.5713 106.6528)"/>
  <image overflow="visible" width="47" height="31" id="pc_68_off" xlink:href="off.jpg"  transform="matrix(0.9476 0 0 0.6876 146 106.6528)"/>
</g>
</g>
<script xlink:href="http://ajax.googleapis.com/ajax/libs/jquery/1.7.2/jquery.min.js"/>
<script xlink:href="innersvg.js"/>
<script xlink:href="room.js"/>
</svg>
