<?xml version="1.0" encoding="utf-8"?>
<!-- Generator: Adobe Illustrator 16.0.0, SVG Export Plug-In . SVG Version: 6.00 Build 0)  -->
<!DOCTYPE svg PUBLIC "-//W3C//DTD SVG 1.1//EN" "http://www.w3.org/Graphics/SVG/1.1/DTD/svg11.dtd">
<svg version="1.1" id="レイヤー_1" xmlns="http://www.w3.org/2000/svg" xmlns:xlink="http://www.w3.org/1999/xlink" x="0px"
	 y="0px" width="480px" height="720px" viewBox="0 0 480 720" enable-background="new 0 0 480 720" xml:space="preserve">
<g id="レイヤー_1_1_">
	<rect x="198.404" y="32.649" fill="none" width="105.195" height="25.974"/>
	<text transform="matrix(1 0 0 1 198.4043 48.4893)" font-family="'KozGoPr6N-Regular-83pv-RKSJ-H'" font-size="18">理工図書館</text>
	
		<rect x="62.429" y="91.688" fill="none" stroke="#000000" stroke-width="3" stroke-miterlimit="10" width="366.233" height="507.792"/>
	<rect x="53.987" y="529.351" fill="#FFFFFF" stroke="#FFFFFF" stroke-miterlimit="10" width="16.883" height="40.261"/>
	<rect x="93.403" y="549.48" fill="none" width="31.168" height="18.182"/>
	<text transform="matrix(1 0 0 1 93.4033 561.8008)" font-family="'KozGoPr6N-Regular-83pv-RKSJ-H'" font-size="14">入口</text>
	
		<image overflow="visible" enable-background="new    " width="51" height="26" xlink:href="AF5AA7D7824145C9.jpg"  transform="matrix(0.55 0 0 0.8889 365.2881 111.8057)">
	</image>
	
		<image overflow="visible" enable-background="new    " width="51" height="26" xlink:href="AF5AA7D7824145CA.jpg"  transform="matrix(0.55 0 0 0.8889 365.2871 548.0098)">
	</image>
	
		<image overflow="visible" enable-background="new    " width="51" height="26" xlink:href="AF5AA7D7824145CB.jpg"  transform="matrix(0.55 0 0 0.8889 365.2852 473.6836)">
	</image>
	
		<image overflow="visible" enable-background="new    " width="51" height="26" xlink:href="AF5AA7D7824145DE.jpg"  transform="matrix(0.55 0 0 0.8889 365.2852 436.5195)">
	</image>
	
		<image overflow="visible" enable-background="new    " width="51" height="26" xlink:href="AF5AA7D7824145DF.jpg"  transform="matrix(0.55 0 0 0.8889 365.2852 362.1914)">
	</image>
	
		<image overflow="visible" enable-background="new    " width="51" height="26" xlink:href="AF5AA7D7824145D2.jpg"  transform="matrix(0.55 0 0 0.8889 365.2852 297.624)">
	</image>
	
		<image overflow="visible" enable-background="new    " width="51" height="26" xlink:href="AF5AA7D7824145D3.jpg"  transform="matrix(0.55 0 0 0.8889 365.2871 260.4609)">
	</image>
	
		<image overflow="visible" enable-background="new    " width="51" height="26" xlink:href="AF5AA7D7824145D4.jpg"  transform="matrix(0.55 0 0 0.8889 365.2852 223.2969)">
	</image>
	
		<image overflow="visible" enable-background="new    " width="51" height="26" xlink:href="AF5AA7D7824145D5.jpg"  transform="matrix(0.55 0 0 0.8889 365.2871 186.1328)">
	</image>
	
		<image overflow="visible" enable-background="new    " width="51" height="26" xlink:href="581A4225D36F15B1.jpg"  transform="matrix(0.55 0 0 0.8889 365.2852 148.9688)">
	</image>
	
		<image overflow="visible" enable-background="new    " width="51" height="26" xlink:href="581A4225D36F15B2.jpg"  transform="matrix(0.55 0 0 0.8889 365.2871 399.3555)">
	</image>
	
		<image overflow="visible" enable-background="new    " width="51" height="26" xlink:href="581A4225D36F15B3.jpg"  transform="matrix(0.55 0 0 0.8889 365.2871 510.8477)">
	</image>
</g>
<g id="レイヤー_2">
	
		<image overflow="visible" enable-background="new    " width="48" height="23" xlink:href="581A4225D36F15B4.jpg"  transform="matrix(0.5952 0 0 0.9474 365.0264 112.4668)">
	</image>
	
		<image overflow="visible" enable-background="new    " width="48" height="23" xlink:href="581A4225D36F15B5.jpg"  transform="matrix(0.5952 0 0 0.9474 365.0254 149.6299)">
	</image>
	
		<image overflow="visible" enable-background="new    " width="48" height="23" xlink:href="581A4225D36F15B0.jpg"  transform="matrix(0.5952 0 0 0.9474 365.0264 186.7939)">
	</image>
	
		<image overflow="visible" enable-background="new    " width="48" height="23" xlink:href="581A4225D36F158F.jpg"  transform="matrix(0.5952 0 0 0.9474 365.0264 223.9575)">
	</image>
	
		<image overflow="visible" enable-background="new    " width="48" height="23" xlink:href="581A4225D36F15AB.jpg"  transform="matrix(0.5952 0 0 0.9474 365.0264 261.1216)">
	</image>
	
		<image overflow="visible" enable-background="new    " width="48" height="23" xlink:href="581A4225D36F15AD.jpg"  transform="matrix(0.5952 0 0 0.9474 365.0264 298.2852)">
	</image>
	
		<image overflow="visible" enable-background="new    " width="48" height="23" xlink:href="581A4225D36F15AE.jpg"  transform="matrix(0.5952 0 0 0.9474 365.0273 362.8535)">
	</image>
	
		<image overflow="visible" enable-background="new    " width="48" height="23" xlink:href="581A4225D36F15D6.jpg"  transform="matrix(0.5952 0 0 0.9474 365.0264 400.0156)">
	</image>
	
		<image overflow="visible" enable-background="new    " width="48" height="23" xlink:href="581A4225D36F15D7.jpg"  transform="matrix(0.5952 0 0 0.9474 365.0273 437.1797)">
	</image>
	
		<image overflow="visible" enable-background="new    " width="48" height="23" xlink:href="581A4225D36F15CC.jpg"  transform="matrix(0.5952 0 0 0.9474 365.0273 474.3438)">
	</image>
	
		<image overflow="visible" enable-background="new    " width="48" height="23" xlink:href="581A4225D36F15CD.jpg"  transform="matrix(0.5952 0 0 0.9474 365.0273 511.5078)">
	</image>
	
		<image overflow="visible" enable-background="new    " width="48" height="23" xlink:href="581A4225D36F15CE.jpg"  transform="matrix(0.5952 0 0 0.9474 365.0273 548.6719)">
	</image>
</g>
</svg>
