<?xml version="1.0" encoding="utf-8"?>
<!-- Generator: Adobe Illustrator 16.0.0, SVG Export Plug-In . SVG Version: 6.00 Build 0)  -->
<!DOCTYPE svg PUBLIC "-//W3C//DTD SVG 1.1//EN" "http://www.w3.org/Graphics/SVG/1.1/DTD/svg11.dtd">
<svg version="1.1" xmlns="http://www.w3.org/2000/svg" xmlns:xlink="http://www.w3.org/1999/xlink" x="0px" y="0px" width="480px"
	 height="720px" viewBox="0 0 480 720" enable-background="new 0 0 480 720" xml:space="preserve">
<g id="レイヤー_1">
  <rect x="181.415" y="24.156" fill="none" width="142.857" height="27.272"/>
  <text transform="matrix(1 0 0 1 181.415 39.9961)" font-family="'KozGoPr6N-Regular-83pv-RKSJ-H'" font-size="18" id="room_id"/>
  <rect x="58.533" y="545.584" fill="none" width="31.168" height="18.182"/>
  <text transform="matrix(1 0 0 1 58.5332 557.9043)" font-family="'KozGoPr6N-Regular-83pv-RKSJ-H'" font-size="14" id="word_0">入口</text>
  <rect x="36.455" y="65.714" fill="none" stroke="#000000" stroke-width="3" stroke-miterlimit="10" width="415.584" height="549.35"/>
  <rect x="32.208" y="608.57" fill="#FFFFFF" stroke="#FFFFFF" stroke-miterlimit="10" width="427.624" height="12.987"/>
  <rect x="23.468" y="529.351" fill="#FFFFFF" stroke="#FFFFFF" stroke-miterlimit="10" width="20.779" height="58.441"/>
</g>
<g id="on">
  <image id="pc_1_on" overflow="visible" width="51" height="26" xlink:href="on.jpg"  transform="matrix(0 0.8 -1 0 70.6406 441.0518)" style="display:none"/>
  <image id="pc_2_on" overflow="visible" width="51" height="26" xlink:href="on.jpg"  transform="matrix(0 0.8 -1 0 70.6406 366.0518)" style="display:none"/>
  <image id="pc_3_on" overflow="visible" width="51" height="26" xlink:href="on.jpg"  transform="matrix(0 0.8 -1 0 69.6406 291.0518)" style="display:none"/>
  <image id="pc_4_on" overflow="visible" width="51" height="26" xlink:href="on.jpg"  transform="matrix(0 0.8 -1 0 69.6406 216.0518)" style="display:none"/>
  <image id="pc_5_on" overflow="visible" width="51" height="26" xlink:href="on.jpg"  transform="matrix(0 0.8 -1 0 69.6406 141.0518)" style="display:none"/>
  <image id="pc_10_on" overflow="visible" width="51" height="26" xlink:href="on.jpg"  transform="matrix(0.8 0 0 1 381.2207 97.0518)" style="display:none"/>
  <image id="pc_9_on" overflow="visible" width="51" height="26" xlink:href="on.jpg"  transform="matrix(0.8 0 0 1 314.9863 97.0518)" style="display:none"/>
  <image id="pc_8_on" overflow="visible" width="51" height="26" xlink:href="on.jpg"  transform="matrix(0.8 0 0 1 250.0527 97.0518)" style="display:none"/>
  <image id="pc_7_on" overflow="visible" width="51" height="26" xlink:href="on.jpg"  transform="matrix(0.8 0 0 1 186.415 97.0518)" style="display:none"/>
  <image id="pc_6_on" overflow="visible" width="51" height="26" xlink:href="on.jpg"  transform="matrix(0.8 0 0 1 119.3765 97.0518)" style="display:none"/>
</g>
<g id="off">
  <image id="pc_6_off" overflow="visible" width="51" height="26" xlink:href="off.jpg"  transform="matrix(0.8 0 0 1 118.3765 97.0518)"/>
  <image id="pc_7_off" overflow="visible" width="51" height="26" xlink:href="off.jpg"  transform="matrix(0.8 0 0 1 186.3765 97.0518)"/>
  <image id="pc_8_off" overflow="visible" width="51" height="26" xlink:href="off.jpg"  transform="matrix(0.8 0 0 1 250.0527 96.3906)"/>
  <image id="pc_9_off" overflow="visible" width="51" height="26" xlink:href="off.jpg"  transform="matrix(0.8 0 0 1 314.9863 96.3906)"/>
  <image id="pc_10_off" overflow="visible" width="51" height="26" xlink:href="off.jpg"  transform="matrix(0.8 0 0 1 381.2207 96.3906)"/>
  <image id="pc_5_off" overflow="visible" width="51" height="26" xlink:href="off.jpg"  transform="matrix(0 0.8 -1 0 100 140.438)"/>
  <image id="pc_4_off" overflow="visible" width="51" height="26" xlink:href="off.jpg"  transform="matrix(0 0.8 -1 0 100 215.438)"/>
  <image id="pc_3_off" overflow="visible" width="51" height="26" xlink:href="off.jpg"  transform="matrix(0 0.8 -1 0 100 289.438)"/>
  <image id="pc_2_off" overflow="visible" width="51" height="26" xlink:href="off.jpg"  transform="matrix(0 0.8 -1 0 100 368.4375)"/>
  <image id="pc_1_off" overflow="visible" width="51" height="26" xlink:href="off.jpg"  transform="matrix(0 0.8 -1 0 100 441.4375)"/>
</g>
<script xlink:href="http://ajax.googleapis.com/ajax/libs/jquery/1.7.2/jquery.min.js"/>
<script xlink:href="innersvg.js"/>
<script xlink:href="room.js"/>
<script xlink:href="roomT.js"/>
</svg>
