<?xml version="1.0" encoding="utf-8"?>
<!-- Generator: Adobe Illustrator 16.0.0, SVG Export Plug-In . SVG Version: 6.00 Build 0)  -->
<!DOCTYPE svg PUBLIC "-//W3C//DTD SVG 1.1//EN" "http://www.w3.org/Graphics/SVG/1.1/DTD/svg11.dtd">
<svg version="1.1" xmlns="http://www.w3.org/2000/svg" xmlns:xlink="http://www.w3.org/1999/xlink" x="0px" y="0px" width="480px"
	 height="720px" viewBox="0 0 480 720" enable-background="new 0 0 480 720" xml:space="preserve">
<g id="レイヤー_1">
	<rect x="181.415" y="24.156" fill="none" width="142.857" height="27.272"/>
	<text transform="matrix(1 0 0 1 181.415 39.9961)" font-family="'KozGoPr6N-Regular-83pv-RKSJ-H'" font-size="18">留学生センター</text>
	<rect x="58.533" y="545.584" fill="none" width="31.168" height="18.182"/>
	<text transform="matrix(1 0 0 1 58.5332 557.9043)" font-family="'KozGoPr6N-Regular-83pv-RKSJ-H'" font-size="14">入口</text>
	
		<rect x="36.455" y="65.714" fill="none" stroke="#000000" stroke-width="3" stroke-miterlimit="10" width="415.584" height="549.35"/>
	<rect x="32.208" y="608.57" fill="#FFFFFF" stroke="#FFFFFF" stroke-miterlimit="10" width="427.624" height="12.987"/>
	<rect x="23.468" y="529.351" fill="#FFFFFF" stroke="#FFFFFF" stroke-miterlimit="10" width="20.779" height="58.441"/>
</g>
<g id="レイヤー_2">
	
		<image overflow="visible" width="48" height="23" xlink:href="5990003E711BB327.jpg"  transform="matrix(0.517 0 0 1.8791 70.6406 441.0518)">
	</image>
	
		<image overflow="visible" width="48" height="23" xlink:href="5990003E711BB327.jpg"  transform="matrix(0.517 0 0 1.8791 70.6406 366.0518)">
	</image>
	
		<image overflow="visible" width="48" height="23" xlink:href="5990003E711BB327.jpg"  transform="matrix(0.517 0 0 1.8791 69.6406 291.0518)">
	</image>
	
		<image overflow="visible" width="48" height="23" xlink:href="5990003E711BB327.jpg"  transform="matrix(0.517 0 0 1.8791 69.6406 216.0518)">
	</image>
	
		<image overflow="visible" width="48" height="23" xlink:href="5990003E711BB327.jpg"  transform="matrix(0.517 0 0 1.8791 69.6406 141.0518)">
	</image>
	
		<image overflow="visible" width="48" height="23" xlink:href="5990003E711BB327.jpg"  transform="matrix(0.8117 0 0 0.9474 381.2207 97.0518)">
	</image>
	
		<image overflow="visible" width="48" height="23" xlink:href="5990003E711BB327.jpg"  transform="matrix(0.8117 0 0 0.9474 314.9863 97.0518)">
	</image>
	
		<image overflow="visible" width="48" height="23" xlink:href="5990003E711BB327.jpg"  transform="matrix(0.8117 0 0 0.9474 250.0527 97.0518)">
	</image>
	
		<image overflow="visible" width="48" height="23" xlink:href="5990003E711BB327.jpg"  transform="matrix(0.8117 0 0 0.9474 186.415 97.0518)">
	</image>
	
		<image overflow="visible" width="48" height="23" xlink:href="5990003E711BB327.jpg"  transform="matrix(0.8117 0 0 0.9474 119.3765 97.0518)">
	</image>
</g>
<g id="レイヤー_3">
	
		<image overflow="visible" width="51" height="26" xlink:href="7F4F10BA1C03C567.jpg"  transform="matrix(0.7639 0 0 0.8889 118.3765 97.0518)">
	</image>
	
		<image overflow="visible" width="51" height="26" xlink:href="7F4F10BA1C03C567.jpg"  transform="matrix(0.7639 0 0 0.8889 186.3765 97.0518)">
	</image>
	
		<image overflow="visible" width="51" height="26" xlink:href="7F4F10BA1C03C567.jpg"  transform="matrix(0.7639 0 0 0.8889 250.0527 96.3906)">
	</image>
	
		<image overflow="visible" width="51" height="26" xlink:href="7F4F10BA1C03C567.jpg"  transform="matrix(0.7639 0 0 0.8889 314.9863 96.3906)">
	</image>
	
		<image overflow="visible" width="51" height="26" xlink:href="7F4F10BA1C03C567.jpg"  transform="matrix(0.7639 0 0 0.8889 381.2207 96.3906)">
	</image>
	
		<image overflow="visible" width="51" height="26" xlink:href="7F4F10BA1C03C567.jpg"  transform="matrix(0.498 -0.0148 0.0532 1.7959 68.022 140.438)">
	</image>
	
		<image overflow="visible" width="51" height="26" xlink:href="7F4F10BA1C03C567.jpg"  transform="matrix(0.498 -0.0148 0.0532 1.7959 68.022 215.438)">
	</image>
	
		<image overflow="visible" width="51" height="26" xlink:href="7F4F10BA1C03C567.jpg"  transform="matrix(0.498 -0.0148 0.0532 1.7959 69.022 289.438)">
	</image>
	
		<image overflow="visible" width="51" height="26" xlink:href="7F4F10BA1C03C567.jpg"  transform="matrix(0.498 -0.0148 0.0532 1.7959 70.022 368.4375)">
	</image>
	
		<image overflow="visible" width="51" height="26" xlink:href="7F4F10BA1C03C567.jpg"  transform="matrix(0.498 -0.0148 0.0532 1.7959 70.022 441.4375)">
	</image>
</g>
</svg>
