<?xml version="1.0" encoding="utf-8"?>
<!-- Generator: Adobe Illustrator 16.0.0, SVG Export Plug-In . SVG Version: 6.00 Build 0)  -->
<!DOCTYPE svg PUBLIC "-//W3C//DTD SVG 1.1//EN" "http://www.w3.org/Graphics/SVG/1.1/DTD/svg11.dtd">
<svg version="1.1" id="レイヤー_1" xmlns="http://www.w3.org/2000/svg" xmlns:xlink="http://www.w3.org/1999/xlink" x="0px"
	 y="0px" width="480px" height="720px" viewBox="0 0 480 720" enable-background="new 0 0 480 720" xml:space="preserve">
<g id="レイヤー_1_1_">
	<rect x="175.065" y="26.753" fill="none" width="129.87" height="22.728"/>
	<text transform="matrix(1 0 0 1 175.0654 42.5938)" font-family="'KozGoPr6N-Regular-83pv-RKSJ-H'" font-size="18">メディアブース</text>
	<rect x="340.351" y="569.065" fill="#FFFFFF" stroke="#000000" stroke-miterlimit="10" width="80.521" height="80.143"/>
	<rect x="277.014" y="590.818" fill="none" width="55.845" height="13.637"/>
	<text transform="matrix(1 0 0 1 277.0137 615.1387)" font-family="'KozGoPr6N-Regular-83pv-RKSJ-H'" font-size="14">１０６</text>
	<rect x="340.351" y="97.636" fill="#FFFFFF" stroke="#000000" stroke-miterlimit="10" width="80.521" height="57.143"/>
	<rect x="277.014" y="119.39" fill="none" width="55.845" height="13.636"/>
	<text transform="matrix(1 0 0 1 277.0137 131.71)" font-family="'KozGoPr6N-Regular-83pv-RKSJ-H'" font-size="14">１０１</text>
	<rect x="340.351" y="191.922" fill="#FFFFFF" stroke="#000000" stroke-miterlimit="10" width="80.521" height="57.143"/>
	<rect x="277.014" y="206.857" fill="none" width="55.845" height="13.636"/>
	<text transform="matrix(1 0 0 1 277.0137 219.1777)" font-family="'KozGoPr6N-Regular-83pv-RKSJ-H'" font-size="14">１０２</text>
	<rect x="340.351" y="286.208" fill="#FFFFFF" stroke="#000000" stroke-miterlimit="10" width="80.521" height="57.143"/>
	
		<rect x="277.026" y="307.951" transform="matrix(0.9993 0.0366 -0.0366 0.9993 11.7262 -10.9513)" fill="none" width="55.839" height="13.637"/>
	<text transform="matrix(1 0 0 1 277.1992 319.2637)" font-family="'KozGoPr6N-Regular-83pv-RKSJ-H'" font-size="14">１０３</text>
	<rect x="340.351" y="380.494" fill="#FFFFFF" stroke="#000000" stroke-miterlimit="10" width="80.521" height="57.143"/>
	<rect x="277.014" y="402.246" fill="none" width="55.845" height="13.637"/>
	<text transform="matrix(1 0 0 1 277.0137 414.5664)" font-family="'KozGoPr6N-Regular-83pv-RKSJ-H'" font-size="14">１０４</text>
	<rect x="340.351" y="474.779" fill="#FFFFFF" stroke="#000000" stroke-miterlimit="10" width="80.521" height="57.143"/>
	<rect x="277.014" y="496.533" fill="none" width="55.845" height="13.635"/>
	<text transform="matrix(1 0 0 1 277.0137 508.8535)" font-family="'KozGoPr6N-Regular-83pv-RKSJ-H'" font-size="14">１０５</text>
	<g id="レイヤー_2" display="none">
		
			<image display="inline" overflow="visible" enable-background="new    " width="51" height="65" xlink:href="1916402911054CE3.jpg"  transform="matrix(0.2605 0 0 -0.0971 343.0332 119.3896)">
		</image>
		
			<image display="inline" overflow="visible" enable-background="new    " width="51" height="65" xlink:href="1916402911054CE1.jpg"  transform="matrix(0.2605 0 0 -0.0971 343.0332 149.2988)">
		</image>
		
			<image display="inline" overflow="visible" enable-background="new    " width="51" height="25" xlink:href="1916402911054CE7.jpg"  transform="matrix(0.4196 0 0 0.4009 391.9697 198.1113)">
		</image>
		
			<image display="inline" overflow="visible" enable-background="new    " width="49" height="25" xlink:href="1916402911054CE0.jpg"  transform="matrix(0.4546 0 0 0.4009 393.5986 292.75)">
		</image>
		
			<image display="inline" overflow="visible" enable-background="new    " width="51" height="25" xlink:href="1916402911054CEE.jpg"  transform="matrix(0.4196 0 0 0.4009 391.9697 385.9814)">
		</image>
		
			<image display="inline" overflow="visible" enable-background="new    " width="51" height="25" xlink:href="1916402911054CEF.jpg"  transform="matrix(0.4196 0 0 0.4009 391.9697 479.6699)">
		</image>
	</g>
	<rect x="337" y="227" fill="#FFFFFF" stroke="#FFFFFF" stroke-miterlimit="10" width="7" height="15"/>
	
		<image overflow="visible" enable-background="new    " width="51" height="26" xlink:href="1916402911054CE2.jpg"  transform="matrix(0.2363 0 0 0.5043 346.4727 103.6309)">
	</image>
	
		<image overflow="visible" enable-background="new    " width="51" height="26" xlink:href="1916402911054CE5.jpg"  transform="matrix(0.2363 0 0 0.5043 346.4727 122.6309)">
	</image>
	
		<image overflow="visible" enable-background="new    " width="51" height="26" xlink:href="1916402911054CE6.jpg"  transform="matrix(0.2363 0 0 0.5043 400.4727 197.6309)">
	</image>
	
		<image overflow="visible" enable-background="new    " width="51" height="26" xlink:href="A03745EF75C41CD0.jpg"  transform="matrix(0.2363 0 0 0.5043 401.4727 292.6309)">
	</image>
	
		<image overflow="visible" enable-background="new    " width="51" height="26" xlink:href="A03745EF75C41CD7.jpg"  transform="matrix(0.2363 0 0 0.5043 400.4727 386.6309)">
	</image>
	
		<image overflow="visible" enable-background="new    " width="51" height="26" xlink:href="A03745EF75C41CD1.jpg"  transform="matrix(0.2363 0 0 0.5043 400.4727 481.6309)">
	</image>
	<rect x="338" y="135.5" fill="#FFFFFF" stroke="#FFFFFF" stroke-miterlimit="10" width="7" height="15"/>
	<rect x="337" y="324" fill="#FFFFFF" stroke="#FFFFFF" stroke-miterlimit="10" width="7" height="15"/>
	<rect x="337" y="418" fill="#FFFFFF" stroke="#FFFFFF" stroke-miterlimit="10" width="7" height="15"/>
	<rect x="337" y="513" fill="#FFFFFF" stroke="#FFFFFF" stroke-miterlimit="10" width="7" height="15"/>
	<rect x="337" y="616" fill="#FFFFFF" stroke="#FFFFFF" stroke-miterlimit="10" width="7" height="15"/>
</g>
<g id="レイヤー_2_1_">
	
		<image overflow="visible" enable-background="new    " width="48" height="23" xlink:href="A03745EF75C41CD3.jpg"  transform="matrix(0.2643 0 0 0.5235 346.4062 104.5)">
	</image>
	
		<image overflow="visible" enable-background="new    " width="48" height="23" xlink:href="A03745EF75C41CCE.jpg"  transform="matrix(0.2643 0 0 0.5235 345.4062 122.5)">
	</image>
	
		<image overflow="visible" enable-background="new    " width="48" height="23" xlink:href="A03745EF75C41CCF.jpg"  transform="matrix(0.2643 0 0 0.5235 399.4062 198.5)">
	</image>
	
		<image overflow="visible" enable-background="new    " width="48" height="23" xlink:href="A03745EF75C41CF0.jpg"  transform="matrix(0.2643 0 0 0.5235 400.5 292.5)">
	</image>
	
		<image overflow="visible" enable-background="new    " width="48" height="23" xlink:href="A03745EF75C41CF3.jpg"  transform="matrix(0.2643 0 0 0.5235 400.4062 387.5)">
	</image>
	
		<image overflow="visible" enable-background="new    " width="48" height="23" xlink:href="A03745EF75C41CF1.jpg"  transform="matrix(0.2643 0 0 0.5235 399.4062 481.5)">
	</image>
</g>
</svg>
