<?xml version="1.0" encoding="utf-8"?>
<!-- Generator: Adobe Illustrator 16.0.0, SVG Export Plug-In . SVG Version: 6.00 Build 0)  -->
<!DOCTYPE svg PUBLIC "-//W3C//DTD SVG 1.1//EN" "http://www.w3.org/Graphics/SVG/1.1/DTD/svg11.dtd">
<svg version="1.1" id="レイヤー_1" xmlns="http://www.w3.org/2000/svg" xmlns:xlink="http://www.w3.org/1999/xlink" x="0px"
	 y="0px" width="480px" height="1300px" viewBox="0 0 480 1300" enable-background="new 0 0 480 1300" xml:space="preserve">
<g id="ajax_loader">
  <image xlink:href="ajax-loader.gif" width="32" height="32" x="100" y="100"/>
</g>
<g id="pc_map" style="display:none">
<g id="レイヤー_1_1_">
  <rect x="175.065" y="26.753" fill="none" width="129.87" height="22.728"/>
  <text transform="matrix(1 0 0 1 175.0654 42.5938)" font-family="'KozGoPr6N-Regular-83pv-RKSJ-H'" font-size="18" id="room_id"/>
  <rect x="340.351" y="569.065" fill="#FFFFFF" stroke="#000000" stroke-miterlimit="10" width="80.521" height="80.143"/>
  <rect x="277.014" y="590.818" fill="none" width="55.845" height="13.637"/>
  <text transform="matrix(1 0 0 1 277.0137 615.1387)" font-family="'KozGoPr6N-Regular-83pv-RKSJ-H'" font-size="14" id="work_0">１０６</text>
  <rect x="340.351" y="97.636" fill="#FFFFFF" stroke="#000000" stroke-miterlimit="10" width="80.521" height="57.143"/>
  <rect x="277.014" y="119.39" fill="none" width="55.845" height="13.636"/>
  <text transform="matrix(1 0 0 1 277.0137 131.71)" font-family="'KozGoPr6N-Regular-83pv-RKSJ-H'" font-size="14" id="word_1">１０１</text>
  <rect x="340.351" y="191.922" fill="#FFFFFF" stroke="#000000" stroke-miterlimit="10" width="80.521" height="57.143"/>
  <rect x="277.014" y="206.857" fill="none" width="55.845" height="13.636"/>
  <text transform="matrix(1 0 0 1 277.0137 219.1777)" font-family="'KozGoPr6N-Regular-83pv-RKSJ-H'" font-size="14" id="word_2">１０２</text>
  <rect x="340.351" y="286.208" fill="#FFFFFF" stroke="#000000" stroke-miterlimit="10" width="80.521" height="57.143"/>
  <rect x="277.026" y="307.951" transform="matrix(0.9993 0.0366 -0.0366 0.9993 11.7262 -10.9513)" fill="none" width="55.839" height="13.637"/>
  <text transform="matrix(1 0 0 1 277.1992 319.2637)" font-family="'KozGoPr6N-Regular-83pv-RKSJ-H'" font-size="14" id="word_3">１０３</text>
  <rect x="340.351" y="380.494" fill="#FFFFFF" stroke="#000000" stroke-miterlimit="10" width="80.521" height="57.143"/>
  <rect x="277.014" y="402.246" fill="none" width="55.845" height="13.637"/>
  <text transform="matrix(1 0 0 1 277.0137 414.5664)" font-family="'KozGoPr6N-Regular-83pv-RKSJ-H'" font-size="14" id="word_4">１０４</text>
  <rect x="340.351" y="474.779" fill="#FFFFFF" stroke="#000000" stroke-miterlimit="10" width="80.521" height="57.143"/>
  <rect x="277.014" y="496.533" fill="none" width="55.845" height="13.635"/>
  <text transform="matrix(1 0 0 1 277.0137 508.8535)" font-family="'KozGoPr6N-Regular-83pv-RKSJ-H'" font-size="14" id="word_5">１０５</text>
  <rect x="337" y="227" fill="#FFFFFF" stroke="#FFFFFF" stroke-miterlimit="10" width="7" height="15"/>
  <rect x="338" y="135.5" fill="#FFFFFF" stroke="#FFFFFF" stroke-miterlimit="10" width="7" height="15"/>
  <rect x="337" y="324" fill="#FFFFFF" stroke="#FFFFFF" stroke-miterlimit="10" width="7" height="15"/>
  <rect x="337" y="418" fill="#FFFFFF" stroke="#FFFFFF" stroke-miterlimit="10" width="7" height="15"/>
  <rect x="337" y="513" fill="#FFFFFF" stroke="#FFFFFF" stroke-miterlimit="10" width="7" height="15"/>
  <rect x="337" y="616" fill="#FFFFFF" stroke="#FFFFFF" stroke-miterlimit="10" width="7" height="15"/>
</g>
<g id="on">
  <image id="pc_1_on" overflow="visible" width="51" height="26" xlink:href="on.jpg"  transform="matrix(0.2363 0 0 0.5043 346.4727 103.6309)" style="display:none" />
  <image id="pc_2_on" overflow="visible" width="51" height="26" xlink:href="on.jpg"  transform="matrix(0.2363 0 0 0.5043 346.4727 122.6309)" style="display:none" />
  <image id="pc_3_on" overflow="visible" width="51" height="26" xlink:href="on.jpg"  transform="matrix(0.2363 0 0 0.5043 400.4727 197.6309)" style="display:none" />
  <image id="pc_4_on" overflow="visible" width="51" height="26" xlink:href="on.jpg"  transform="matrix(0.2363 0 0 0.5043 401.4727 292.6309)" style="display:none" />
  <image id="pc_5_on" overflow="visible" width="51" height="26" xlink:href="on.jpg"  transform="matrix(0.2363 0 0 0.5043 400.4727 386.6309)" style="display:none" />
  <image id="pc_6_on" overflow="visible" width="51" height="26" xlink:href="on.jpg"  transform="matrix(0.2363 0 0 0.5043 400.4727 481.6309)" style="display:none" />
</g>
<g id="off">
  <image id="pc_1_off" overflow="visible" width="48" height="23" xlink:href="off.jpg"  transform="matrix(0.2643 0 0 0.5235 346.4062 104.5)" />
  <image id="pc_2_off" overflow="visible" width="48" height="23" xlink:href="off.jpg"  transform="matrix(0.2643 0 0 0.5235 345.4062 122.5)" />
  <image id="pc_3_off" overflow="visible" width="48" height="23" xlink:href="off.jpg"  transform="matrix(0.2643 0 0 0.5235 399.4062 198.5)" />
  <image id="pc_4_off" overflow="visible" width="48" height="23" xlink:href="off.jpg"  transform="matrix(0.2643 0 0 0.5235 400.5 292.5)" />
  <image id="pc_5_off" overflow="visible" width="48" height="23" xlink:href="off.jpg"  transform="matrix(0.2643 0 0 0.5235 400.4062 387.5)" />
  <image id="pc_6_off" overflow="visible" width="48" height="23" xlink:href="off.jpg"  transform="matrix(0.2643 0 0 0.5235 399.4062 481.5)" />
</g>
<g id="japanese_words">
  <a xlink:href="map.svg"><text fill="blue" transform="matrix(1 0 0 1 30 30)" font-family="'KozGoPr6N-Regular-83pv-RKSJ-H'" font-size="14">キャンパスマップ</text></a>
</g>
<g id="english_words" style="display:none">
  <a xlink:href="map.svg"><text fill="blue" transform="matrix(1 0 0 1 30 30)" font-family="'KozGoPr6N-Regular-83pv-RKSJ-H'" font-size="14">Campus Map</text></a>
</g>
</g>
<script xlink:href="http://ajax.googleapis.com/ajax/libs/jquery/1.7.2/jquery.min.js"/>
<script xlink:href="innersvg.js"/>
<script xlink:href="room.js"/>
</svg>
